%TF.GenerationSoftware,KiCad,Pcbnew,(5.1.6)-1*%
%TF.CreationDate,2021-08-19T23:31:01-04:00*%
%TF.ProjectId,Temp_Control_Board,54656d70-5f43-46f6-9e74-726f6c5f426f,rev?*%
%TF.SameCoordinates,Original*%
%TF.FileFunction,Soldermask,Top*%
%TF.FilePolarity,Negative*%
%FSLAX46Y46*%
G04 Gerber Fmt 4.6, Leading zero omitted, Abs format (unit mm)*
G04 Created by KiCad (PCBNEW (5.1.6)-1) date 2021-08-19 23:31:01*
%MOMM*%
%LPD*%
G01*
G04 APERTURE LIST*
%ADD10C,0.010000*%
%ADD11O,1.800000X1.800000*%
%ADD12R,1.800000X1.800000*%
%ADD13C,3.910000*%
%ADD14R,2.309800X0.963600*%
%ADD15R,0.963600X2.309800*%
%ADD16C,3.300000*%
%ADD17R,1.100000X1.600000*%
%ADD18R,0.531800X1.611300*%
%ADD19R,4.100000X4.100000*%
%ADD20R,1.000000X1.800000*%
%ADD21R,1.800000X1.000000*%
%ADD22C,0.550000*%
%ADD23R,1.850000X2.000000*%
%ADD24R,1.250000X1.550000*%
%ADD25R,0.500000X1.500000*%
%ADD26C,1.600000*%
%ADD27R,3.290000X1.960000*%
%ADD28R,1.000000X1.960000*%
%ADD29C,3.100000*%
%ADD30R,3.100000X3.100000*%
%ADD31R,1.600000X2.100000*%
%ADD32R,0.900000X1.300000*%
G04 APERTURE END LIST*
D10*
%TO.C,J3*%
G36*
X136383670Y-106687000D02*
G01*
X134929000Y-106687000D01*
X134929000Y-104385750D01*
X136383670Y-104385750D01*
X136383670Y-106687000D01*
G37*
X136383670Y-106687000D02*
X134929000Y-106687000D01*
X134929000Y-104385750D01*
X136383670Y-104385750D01*
X136383670Y-106687000D01*
G36*
X129224150Y-106687000D02*
G01*
X127779000Y-106687000D01*
X127779000Y-104385040D01*
X129224150Y-104385040D01*
X129224150Y-106687000D01*
G37*
X129224150Y-106687000D02*
X127779000Y-106687000D01*
X127779000Y-104385040D01*
X129224150Y-104385040D01*
X129224150Y-106687000D01*
%TD*%
D11*
%TO.C,J2*%
X115404900Y-127635000D03*
X117944900Y-127635000D03*
X120484900Y-127635000D03*
D12*
X123024900Y-127635000D03*
D13*
X130810000Y-128524000D03*
X130810000Y-152019000D03*
X107569000Y-151968200D03*
X107604560Y-128475740D03*
%TD*%
D14*
%TO.C,EN1*%
X83756500Y-148752999D03*
X83756500Y-153253001D03*
X91249500Y-153253001D03*
X91249500Y-148752999D03*
%TD*%
D15*
%TO.C,BOOT1*%
X82966999Y-113601500D03*
X87467001Y-113601500D03*
X87467001Y-106108500D03*
X82966999Y-106108500D03*
%TD*%
D16*
%TO.C,REF\u002A\u002A*%
X175768000Y-150368000D03*
%TD*%
%TO.C,REF\u002A\u002A*%
X175768000Y-108712000D03*
%TD*%
%TO.C,REF\u002A\u002A*%
X72898000Y-108712000D03*
%TD*%
%TO.C,REF\u002A\u002A*%
X72898000Y-150368000D03*
%TD*%
D17*
%TO.C,JP1*%
X138400000Y-114300000D03*
X139700000Y-114300000D03*
X141000000Y-114300000D03*
%TD*%
%TO.C,R7*%
G36*
G01*
X128045738Y-134503000D02*
X129002262Y-134503000D01*
G75*
G02*
X129274000Y-134774738I0J-271738D01*
G01*
X129274000Y-135481262D01*
G75*
G02*
X129002262Y-135753000I-271738J0D01*
G01*
X128045738Y-135753000D01*
G75*
G02*
X127774000Y-135481262I0J271738D01*
G01*
X127774000Y-134774738D01*
G75*
G02*
X128045738Y-134503000I271738J0D01*
G01*
G37*
G36*
G01*
X128045738Y-132453000D02*
X129002262Y-132453000D01*
G75*
G02*
X129274000Y-132724738I0J-271738D01*
G01*
X129274000Y-133431262D01*
G75*
G02*
X129002262Y-133703000I-271738J0D01*
G01*
X128045738Y-133703000D01*
G75*
G02*
X127774000Y-133431262I0J271738D01*
G01*
X127774000Y-132724738D01*
G75*
G02*
X128045738Y-132453000I271738J0D01*
G01*
G37*
%TD*%
%TO.C,R6*%
G36*
G01*
X122457738Y-134521000D02*
X123414262Y-134521000D01*
G75*
G02*
X123686000Y-134792738I0J-271738D01*
G01*
X123686000Y-135499262D01*
G75*
G02*
X123414262Y-135771000I-271738J0D01*
G01*
X122457738Y-135771000D01*
G75*
G02*
X122186000Y-135499262I0J271738D01*
G01*
X122186000Y-134792738D01*
G75*
G02*
X122457738Y-134521000I271738J0D01*
G01*
G37*
G36*
G01*
X122457738Y-132471000D02*
X123414262Y-132471000D01*
G75*
G02*
X123686000Y-132742738I0J-271738D01*
G01*
X123686000Y-133449262D01*
G75*
G02*
X123414262Y-133721000I-271738J0D01*
G01*
X122457738Y-133721000D01*
G75*
G02*
X122186000Y-133449262I0J271738D01*
G01*
X122186000Y-132742738D01*
G75*
G02*
X122457738Y-132471000I271738J0D01*
G01*
G37*
%TD*%
%TO.C,R4*%
G36*
G01*
X151013000Y-116810262D02*
X151013000Y-115853738D01*
G75*
G02*
X151284738Y-115582000I271738J0D01*
G01*
X151991262Y-115582000D01*
G75*
G02*
X152263000Y-115853738I0J-271738D01*
G01*
X152263000Y-116810262D01*
G75*
G02*
X151991262Y-117082000I-271738J0D01*
G01*
X151284738Y-117082000D01*
G75*
G02*
X151013000Y-116810262I0J271738D01*
G01*
G37*
G36*
G01*
X148963000Y-116810262D02*
X148963000Y-115853738D01*
G75*
G02*
X149234738Y-115582000I271738J0D01*
G01*
X149941262Y-115582000D01*
G75*
G02*
X150213000Y-115853738I0J-271738D01*
G01*
X150213000Y-116810262D01*
G75*
G02*
X149941262Y-117082000I-271738J0D01*
G01*
X149234738Y-117082000D01*
G75*
G02*
X148963000Y-116810262I0J271738D01*
G01*
G37*
%TD*%
%TO.C,R3*%
G36*
G01*
X151022000Y-118842262D02*
X151022000Y-117885738D01*
G75*
G02*
X151293738Y-117614000I271738J0D01*
G01*
X152000262Y-117614000D01*
G75*
G02*
X152272000Y-117885738I0J-271738D01*
G01*
X152272000Y-118842262D01*
G75*
G02*
X152000262Y-119114000I-271738J0D01*
G01*
X151293738Y-119114000D01*
G75*
G02*
X151022000Y-118842262I0J271738D01*
G01*
G37*
G36*
G01*
X148972000Y-118842262D02*
X148972000Y-117885738D01*
G75*
G02*
X149243738Y-117614000I271738J0D01*
G01*
X149950262Y-117614000D01*
G75*
G02*
X150222000Y-117885738I0J-271738D01*
G01*
X150222000Y-118842262D01*
G75*
G02*
X149950262Y-119114000I-271738J0D01*
G01*
X149243738Y-119114000D01*
G75*
G02*
X148972000Y-118842262I0J271738D01*
G01*
G37*
%TD*%
%TO.C,R2*%
G36*
G01*
X151031000Y-121128262D02*
X151031000Y-120171738D01*
G75*
G02*
X151302738Y-119900000I271738J0D01*
G01*
X152009262Y-119900000D01*
G75*
G02*
X152281000Y-120171738I0J-271738D01*
G01*
X152281000Y-121128262D01*
G75*
G02*
X152009262Y-121400000I-271738J0D01*
G01*
X151302738Y-121400000D01*
G75*
G02*
X151031000Y-121128262I0J271738D01*
G01*
G37*
G36*
G01*
X148981000Y-121128262D02*
X148981000Y-120171738D01*
G75*
G02*
X149252738Y-119900000I271738J0D01*
G01*
X149959262Y-119900000D01*
G75*
G02*
X150231000Y-120171738I0J-271738D01*
G01*
X150231000Y-121128262D01*
G75*
G02*
X149959262Y-121400000I-271738J0D01*
G01*
X149252738Y-121400000D01*
G75*
G02*
X148981000Y-121128262I0J271738D01*
G01*
G37*
%TD*%
%TO.C,R1*%
G36*
G01*
X80673000Y-151608262D02*
X80673000Y-150651738D01*
G75*
G02*
X80944738Y-150380000I271738J0D01*
G01*
X81651262Y-150380000D01*
G75*
G02*
X81923000Y-150651738I0J-271738D01*
G01*
X81923000Y-151608262D01*
G75*
G02*
X81651262Y-151880000I-271738J0D01*
G01*
X80944738Y-151880000D01*
G75*
G02*
X80673000Y-151608262I0J271738D01*
G01*
G37*
G36*
G01*
X78623000Y-151608262D02*
X78623000Y-150651738D01*
G75*
G02*
X78894738Y-150380000I271738J0D01*
G01*
X79601262Y-150380000D01*
G75*
G02*
X79873000Y-150651738I0J-271738D01*
G01*
X79873000Y-151608262D01*
G75*
G02*
X79601262Y-151880000I-271738J0D01*
G01*
X78894738Y-151880000D01*
G75*
G02*
X78623000Y-151608262I0J271738D01*
G01*
G37*
%TD*%
%TO.C,C13*%
G36*
G01*
X76737738Y-147475000D02*
X77694262Y-147475000D01*
G75*
G02*
X77966000Y-147746738I0J-271738D01*
G01*
X77966000Y-148453262D01*
G75*
G02*
X77694262Y-148725000I-271738J0D01*
G01*
X76737738Y-148725000D01*
G75*
G02*
X76466000Y-148453262I0J271738D01*
G01*
X76466000Y-147746738D01*
G75*
G02*
X76737738Y-147475000I271738J0D01*
G01*
G37*
G36*
G01*
X76737738Y-145425000D02*
X77694262Y-145425000D01*
G75*
G02*
X77966000Y-145696738I0J-271738D01*
G01*
X77966000Y-146403262D01*
G75*
G02*
X77694262Y-146675000I-271738J0D01*
G01*
X76737738Y-146675000D01*
G75*
G02*
X76466000Y-146403262I0J271738D01*
G01*
X76466000Y-145696738D01*
G75*
G02*
X76737738Y-145425000I271738J0D01*
G01*
G37*
%TD*%
%TO.C,C12*%
G36*
G01*
X79023738Y-147466000D02*
X79980262Y-147466000D01*
G75*
G02*
X80252000Y-147737738I0J-271738D01*
G01*
X80252000Y-148444262D01*
G75*
G02*
X79980262Y-148716000I-271738J0D01*
G01*
X79023738Y-148716000D01*
G75*
G02*
X78752000Y-148444262I0J271738D01*
G01*
X78752000Y-147737738D01*
G75*
G02*
X79023738Y-147466000I271738J0D01*
G01*
G37*
G36*
G01*
X79023738Y-145416000D02*
X79980262Y-145416000D01*
G75*
G02*
X80252000Y-145687738I0J-271738D01*
G01*
X80252000Y-146394262D01*
G75*
G02*
X79980262Y-146666000I-271738J0D01*
G01*
X79023738Y-146666000D01*
G75*
G02*
X78752000Y-146394262I0J271738D01*
G01*
X78752000Y-145687738D01*
G75*
G02*
X79023738Y-145416000I271738J0D01*
G01*
G37*
%TD*%
%TO.C,C2*%
G36*
G01*
X79855000Y-152937738D02*
X79855000Y-153894262D01*
G75*
G02*
X79583262Y-154166000I-271738J0D01*
G01*
X78876738Y-154166000D01*
G75*
G02*
X78605000Y-153894262I0J271738D01*
G01*
X78605000Y-152937738D01*
G75*
G02*
X78876738Y-152666000I271738J0D01*
G01*
X79583262Y-152666000D01*
G75*
G02*
X79855000Y-152937738I0J-271738D01*
G01*
G37*
G36*
G01*
X81905000Y-152937738D02*
X81905000Y-153894262D01*
G75*
G02*
X81633262Y-154166000I-271738J0D01*
G01*
X80926738Y-154166000D01*
G75*
G02*
X80655000Y-153894262I0J271738D01*
G01*
X80655000Y-152937738D01*
G75*
G02*
X80926738Y-152666000I271738J0D01*
G01*
X81633262Y-152666000D01*
G75*
G02*
X81905000Y-152937738I0J-271738D01*
G01*
G37*
%TD*%
%TO.C,C1*%
G36*
G01*
X79980262Y-112875000D02*
X79023738Y-112875000D01*
G75*
G02*
X78752000Y-112603262I0J271738D01*
G01*
X78752000Y-111896738D01*
G75*
G02*
X79023738Y-111625000I271738J0D01*
G01*
X79980262Y-111625000D01*
G75*
G02*
X80252000Y-111896738I0J-271738D01*
G01*
X80252000Y-112603262D01*
G75*
G02*
X79980262Y-112875000I-271738J0D01*
G01*
G37*
G36*
G01*
X79980262Y-114925000D02*
X79023738Y-114925000D01*
G75*
G02*
X78752000Y-114653262I0J271738D01*
G01*
X78752000Y-113946738D01*
G75*
G02*
X79023738Y-113675000I271738J0D01*
G01*
X79980262Y-113675000D01*
G75*
G02*
X80252000Y-113946738I0J-271738D01*
G01*
X80252000Y-114653262D01*
G75*
G02*
X79980262Y-114925000I-271738J0D01*
G01*
G37*
%TD*%
D18*
%TO.C,U4*%
X116679000Y-109226350D03*
X117329001Y-109226350D03*
X117979000Y-109226350D03*
X118629001Y-109226350D03*
X119278999Y-109226350D03*
X119929001Y-109226350D03*
X120578999Y-109226350D03*
X121229001Y-109226350D03*
X121878999Y-109226350D03*
X122529001Y-109226350D03*
X123178999Y-109226350D03*
X123829000Y-109226350D03*
X124478999Y-109226350D03*
X125129000Y-109226350D03*
X125128998Y-116325650D03*
X124478999Y-116325650D03*
X123828998Y-116325650D03*
X123178999Y-116325650D03*
X122528998Y-116325650D03*
X121878999Y-116325650D03*
X121228998Y-116325650D03*
X120578999Y-116325650D03*
X119929001Y-116325650D03*
X119278999Y-116325650D03*
X118629001Y-116325650D03*
X117979000Y-116325650D03*
X117329001Y-116325650D03*
X116679000Y-116325650D03*
%TD*%
D19*
%TO.C,U1*%
X84245000Y-135320000D03*
D20*
X76835000Y-143620000D03*
X78105000Y-143620000D03*
X79375000Y-143620000D03*
X80645000Y-143620000D03*
X81915000Y-143620000D03*
X83185000Y-143620000D03*
X84455000Y-143620000D03*
X85725000Y-143620000D03*
X86995000Y-143620000D03*
X88265000Y-143620000D03*
X89535000Y-143620000D03*
X90805000Y-143620000D03*
X92075000Y-143620000D03*
X93345000Y-143620000D03*
D21*
X94845000Y-140335000D03*
X94845000Y-139065000D03*
X94845000Y-137795000D03*
X94845000Y-136525000D03*
X94845000Y-135255000D03*
X94845000Y-133985000D03*
X94845000Y-132715000D03*
X94845000Y-131445000D03*
X94845000Y-130175000D03*
X94845000Y-128905000D03*
D20*
X93345000Y-125620000D03*
X92075000Y-125620000D03*
X90805000Y-125620000D03*
X89535000Y-125620000D03*
X88265000Y-125620000D03*
X86995000Y-125620000D03*
X85725000Y-125620000D03*
X84455000Y-125620000D03*
X83185000Y-125620000D03*
X81915000Y-125620000D03*
X80645000Y-125620000D03*
X79375000Y-125620000D03*
X78105000Y-125620000D03*
X76835000Y-125620000D03*
%TD*%
D22*
%TO.C,J3*%
X128505000Y-105537000D03*
X135655000Y-105537000D03*
D23*
X130955000Y-105537000D03*
X133205000Y-105537000D03*
D24*
X129760000Y-107767000D03*
X134400000Y-107767000D03*
D25*
X130780000Y-108187000D03*
X131420000Y-108187000D03*
X132080000Y-108187000D03*
X132730000Y-108187000D03*
X133380000Y-108187000D03*
%TD*%
D26*
%TO.C,U3*%
X164044000Y-144660000D03*
X161544000Y-144660000D03*
X159044000Y-144660000D03*
X159044000Y-130160000D03*
X164044000Y-130160000D03*
G36*
G01*
X154494000Y-138035000D02*
X154494000Y-136285000D01*
G75*
G02*
X155219000Y-135560000I725000J0D01*
G01*
X156669000Y-135560000D01*
G75*
G02*
X157394000Y-136285000I0J-725000D01*
G01*
X157394000Y-138035000D01*
G75*
G02*
X156669000Y-138760000I-725000J0D01*
G01*
X155219000Y-138760000D01*
G75*
G02*
X154494000Y-138035000I0J725000D01*
G01*
G37*
G36*
G01*
X165694000Y-138035000D02*
X165694000Y-136285000D01*
G75*
G02*
X166419000Y-135560000I725000J0D01*
G01*
X167869000Y-135560000D01*
G75*
G02*
X168594000Y-136285000I0J-725000D01*
G01*
X168594000Y-138035000D01*
G75*
G02*
X167869000Y-138760000I-725000J0D01*
G01*
X166419000Y-138760000D01*
G75*
G02*
X165694000Y-138035000I0J725000D01*
G01*
G37*
%TD*%
D27*
%TO.C,U2*%
X138430000Y-124995000D03*
D28*
X136130000Y-118845000D03*
X138430000Y-118845000D03*
X140730000Y-118845000D03*
%TD*%
D29*
%TO.C,J1*%
X142240000Y-107950000D03*
X147320000Y-107950000D03*
X152400000Y-107950000D03*
D30*
X167640000Y-107950000D03*
D29*
X157480000Y-107950000D03*
X162560000Y-107950000D03*
%TD*%
%TO.C,FB3*%
G36*
G01*
X162570000Y-114524262D02*
X162570000Y-113567738D01*
G75*
G02*
X162841738Y-113296000I271738J0D01*
G01*
X163548262Y-113296000D01*
G75*
G02*
X163820000Y-113567738I0J-271738D01*
G01*
X163820000Y-114524262D01*
G75*
G02*
X163548262Y-114796000I-271738J0D01*
G01*
X162841738Y-114796000D01*
G75*
G02*
X162570000Y-114524262I0J271738D01*
G01*
G37*
G36*
G01*
X160520000Y-114524262D02*
X160520000Y-113567738D01*
G75*
G02*
X160791738Y-113296000I271738J0D01*
G01*
X161498262Y-113296000D01*
G75*
G02*
X161770000Y-113567738I0J-271738D01*
G01*
X161770000Y-114524262D01*
G75*
G02*
X161498262Y-114796000I-271738J0D01*
G01*
X160791738Y-114796000D01*
G75*
G02*
X160520000Y-114524262I0J271738D01*
G01*
G37*
%TD*%
%TO.C,FB2*%
G36*
G01*
X157960000Y-113567738D02*
X157960000Y-114524262D01*
G75*
G02*
X157688262Y-114796000I-271738J0D01*
G01*
X156981738Y-114796000D01*
G75*
G02*
X156710000Y-114524262I0J271738D01*
G01*
X156710000Y-113567738D01*
G75*
G02*
X156981738Y-113296000I271738J0D01*
G01*
X157688262Y-113296000D01*
G75*
G02*
X157960000Y-113567738I0J-271738D01*
G01*
G37*
G36*
G01*
X160010000Y-113567738D02*
X160010000Y-114524262D01*
G75*
G02*
X159738262Y-114796000I-271738J0D01*
G01*
X159031738Y-114796000D01*
G75*
G02*
X158760000Y-114524262I0J271738D01*
G01*
X158760000Y-113567738D01*
G75*
G02*
X159031738Y-113296000I271738J0D01*
G01*
X159738262Y-113296000D01*
G75*
G02*
X160010000Y-113567738I0J-271738D01*
G01*
G37*
%TD*%
%TO.C,C10*%
G36*
G01*
X155926262Y-114725500D02*
X154969738Y-114725500D01*
G75*
G02*
X154698000Y-114453762I0J271738D01*
G01*
X154698000Y-113747238D01*
G75*
G02*
X154969738Y-113475500I271738J0D01*
G01*
X155926262Y-113475500D01*
G75*
G02*
X156198000Y-113747238I0J-271738D01*
G01*
X156198000Y-114453762D01*
G75*
G02*
X155926262Y-114725500I-271738J0D01*
G01*
G37*
G36*
G01*
X155926262Y-116775500D02*
X154969738Y-116775500D01*
G75*
G02*
X154698000Y-116503762I0J271738D01*
G01*
X154698000Y-115797238D01*
G75*
G02*
X154969738Y-115525500I271738J0D01*
G01*
X155926262Y-115525500D01*
G75*
G02*
X156198000Y-115797238I0J-271738D01*
G01*
X156198000Y-116503762D01*
G75*
G02*
X155926262Y-116775500I-271738J0D01*
G01*
G37*
%TD*%
%TO.C,C9*%
G36*
G01*
X159865000Y-115472738D02*
X159865000Y-116429262D01*
G75*
G02*
X159593262Y-116701000I-271738J0D01*
G01*
X158886738Y-116701000D01*
G75*
G02*
X158615000Y-116429262I0J271738D01*
G01*
X158615000Y-115472738D01*
G75*
G02*
X158886738Y-115201000I271738J0D01*
G01*
X159593262Y-115201000D01*
G75*
G02*
X159865000Y-115472738I0J-271738D01*
G01*
G37*
G36*
G01*
X161915000Y-115472738D02*
X161915000Y-116429262D01*
G75*
G02*
X161643262Y-116701000I-271738J0D01*
G01*
X160936738Y-116701000D01*
G75*
G02*
X160665000Y-116429262I0J271738D01*
G01*
X160665000Y-115472738D01*
G75*
G02*
X160936738Y-115201000I271738J0D01*
G01*
X161643262Y-115201000D01*
G75*
G02*
X161915000Y-115472738I0J-271738D01*
G01*
G37*
%TD*%
%TO.C,U5*%
G36*
G01*
X160226000Y-122227000D02*
X160576000Y-122227000D01*
G75*
G02*
X160751000Y-122402000I0J-175000D01*
G01*
X160751000Y-124102000D01*
G75*
G02*
X160576000Y-124277000I-175000J0D01*
G01*
X160226000Y-124277000D01*
G75*
G02*
X160051000Y-124102000I0J175000D01*
G01*
X160051000Y-122402000D01*
G75*
G02*
X160226000Y-122227000I175000J0D01*
G01*
G37*
G36*
G01*
X158956000Y-122227000D02*
X159306000Y-122227000D01*
G75*
G02*
X159481000Y-122402000I0J-175000D01*
G01*
X159481000Y-124102000D01*
G75*
G02*
X159306000Y-124277000I-175000J0D01*
G01*
X158956000Y-124277000D01*
G75*
G02*
X158781000Y-124102000I0J175000D01*
G01*
X158781000Y-122402000D01*
G75*
G02*
X158956000Y-122227000I175000J0D01*
G01*
G37*
G36*
G01*
X157686000Y-122227000D02*
X158036000Y-122227000D01*
G75*
G02*
X158211000Y-122402000I0J-175000D01*
G01*
X158211000Y-124102000D01*
G75*
G02*
X158036000Y-124277000I-175000J0D01*
G01*
X157686000Y-124277000D01*
G75*
G02*
X157511000Y-124102000I0J175000D01*
G01*
X157511000Y-122402000D01*
G75*
G02*
X157686000Y-122227000I175000J0D01*
G01*
G37*
G36*
G01*
X156416000Y-122227000D02*
X156766000Y-122227000D01*
G75*
G02*
X156941000Y-122402000I0J-175000D01*
G01*
X156941000Y-124102000D01*
G75*
G02*
X156766000Y-124277000I-175000J0D01*
G01*
X156416000Y-124277000D01*
G75*
G02*
X156241000Y-124102000I0J175000D01*
G01*
X156241000Y-122402000D01*
G75*
G02*
X156416000Y-122227000I175000J0D01*
G01*
G37*
G36*
G01*
X156416000Y-117277000D02*
X156766000Y-117277000D01*
G75*
G02*
X156941000Y-117452000I0J-175000D01*
G01*
X156941000Y-119152000D01*
G75*
G02*
X156766000Y-119327000I-175000J0D01*
G01*
X156416000Y-119327000D01*
G75*
G02*
X156241000Y-119152000I0J175000D01*
G01*
X156241000Y-117452000D01*
G75*
G02*
X156416000Y-117277000I175000J0D01*
G01*
G37*
G36*
G01*
X157686000Y-117277000D02*
X158036000Y-117277000D01*
G75*
G02*
X158211000Y-117452000I0J-175000D01*
G01*
X158211000Y-119152000D01*
G75*
G02*
X158036000Y-119327000I-175000J0D01*
G01*
X157686000Y-119327000D01*
G75*
G02*
X157511000Y-119152000I0J175000D01*
G01*
X157511000Y-117452000D01*
G75*
G02*
X157686000Y-117277000I175000J0D01*
G01*
G37*
G36*
G01*
X158956000Y-117277000D02*
X159306000Y-117277000D01*
G75*
G02*
X159481000Y-117452000I0J-175000D01*
G01*
X159481000Y-119152000D01*
G75*
G02*
X159306000Y-119327000I-175000J0D01*
G01*
X158956000Y-119327000D01*
G75*
G02*
X158781000Y-119152000I0J175000D01*
G01*
X158781000Y-117452000D01*
G75*
G02*
X158956000Y-117277000I175000J0D01*
G01*
G37*
G36*
G01*
X160226000Y-117277000D02*
X160576000Y-117277000D01*
G75*
G02*
X160751000Y-117452000I0J-175000D01*
G01*
X160751000Y-119152000D01*
G75*
G02*
X160576000Y-119327000I-175000J0D01*
G01*
X160226000Y-119327000D01*
G75*
G02*
X160051000Y-119152000I0J175000D01*
G01*
X160051000Y-117452000D01*
G75*
G02*
X160226000Y-117277000I175000J0D01*
G01*
G37*
%TD*%
%TO.C,R5*%
G36*
G01*
X125251738Y-134521000D02*
X126208262Y-134521000D01*
G75*
G02*
X126480000Y-134792738I0J-271738D01*
G01*
X126480000Y-135499262D01*
G75*
G02*
X126208262Y-135771000I-271738J0D01*
G01*
X125251738Y-135771000D01*
G75*
G02*
X124980000Y-135499262I0J271738D01*
G01*
X124980000Y-134792738D01*
G75*
G02*
X125251738Y-134521000I271738J0D01*
G01*
G37*
G36*
G01*
X125251738Y-132471000D02*
X126208262Y-132471000D01*
G75*
G02*
X126480000Y-132742738I0J-271738D01*
G01*
X126480000Y-133449262D01*
G75*
G02*
X126208262Y-133721000I-271738J0D01*
G01*
X125251738Y-133721000D01*
G75*
G02*
X124980000Y-133449262I0J271738D01*
G01*
X124980000Y-132742738D01*
G75*
G02*
X125251738Y-132471000I271738J0D01*
G01*
G37*
%TD*%
D31*
%TO.C,J4*%
X99735000Y-106681000D03*
X99735000Y-114881000D03*
X113625000Y-114881000D03*
X113625000Y-106681000D03*
D32*
X111155000Y-108881000D03*
X110055000Y-108881000D03*
X108955000Y-108881000D03*
X107855000Y-108881000D03*
X106755000Y-108881000D03*
X105655000Y-108881000D03*
X104555000Y-108881000D03*
X103455000Y-108881000D03*
%TD*%
%TO.C,FB1*%
G36*
G01*
X135880000Y-111281738D02*
X135880000Y-112238262D01*
G75*
G02*
X135608262Y-112510000I-271738J0D01*
G01*
X134901738Y-112510000D01*
G75*
G02*
X134630000Y-112238262I0J271738D01*
G01*
X134630000Y-111281738D01*
G75*
G02*
X134901738Y-111010000I271738J0D01*
G01*
X135608262Y-111010000D01*
G75*
G02*
X135880000Y-111281738I0J-271738D01*
G01*
G37*
G36*
G01*
X137930000Y-111281738D02*
X137930000Y-112238262D01*
G75*
G02*
X137658262Y-112510000I-271738J0D01*
G01*
X136951738Y-112510000D01*
G75*
G02*
X136680000Y-112238262I0J271738D01*
G01*
X136680000Y-111281738D01*
G75*
G02*
X136951738Y-111010000I271738J0D01*
G01*
X137658262Y-111010000D01*
G75*
G02*
X137930000Y-111281738I0J-271738D01*
G01*
G37*
%TD*%
%TO.C,C8*%
G36*
G01*
X124949000Y-105947738D02*
X124949000Y-106904262D01*
G75*
G02*
X124677262Y-107176000I-271738J0D01*
G01*
X123970738Y-107176000D01*
G75*
G02*
X123699000Y-106904262I0J271738D01*
G01*
X123699000Y-105947738D01*
G75*
G02*
X123970738Y-105676000I271738J0D01*
G01*
X124677262Y-105676000D01*
G75*
G02*
X124949000Y-105947738I0J-271738D01*
G01*
G37*
G36*
G01*
X126999000Y-105947738D02*
X126999000Y-106904262D01*
G75*
G02*
X126727262Y-107176000I-271738J0D01*
G01*
X126020738Y-107176000D01*
G75*
G02*
X125749000Y-106904262I0J271738D01*
G01*
X125749000Y-105947738D01*
G75*
G02*
X126020738Y-105676000I271738J0D01*
G01*
X126727262Y-105676000D01*
G75*
G02*
X126999000Y-105947738I0J-271738D01*
G01*
G37*
%TD*%
%TO.C,C7*%
G36*
G01*
X120874262Y-105781000D02*
X119917738Y-105781000D01*
G75*
G02*
X119646000Y-105509262I0J271738D01*
G01*
X119646000Y-104802738D01*
G75*
G02*
X119917738Y-104531000I271738J0D01*
G01*
X120874262Y-104531000D01*
G75*
G02*
X121146000Y-104802738I0J-271738D01*
G01*
X121146000Y-105509262D01*
G75*
G02*
X120874262Y-105781000I-271738J0D01*
G01*
G37*
G36*
G01*
X120874262Y-107831000D02*
X119917738Y-107831000D01*
G75*
G02*
X119646000Y-107559262I0J271738D01*
G01*
X119646000Y-106852738D01*
G75*
G02*
X119917738Y-106581000I271738J0D01*
G01*
X120874262Y-106581000D01*
G75*
G02*
X121146000Y-106852738I0J-271738D01*
G01*
X121146000Y-107559262D01*
G75*
G02*
X120874262Y-107831000I-271738J0D01*
G01*
G37*
%TD*%
%TO.C,C6*%
G36*
G01*
X134776738Y-115090000D02*
X135733262Y-115090000D01*
G75*
G02*
X136005000Y-115361738I0J-271738D01*
G01*
X136005000Y-116068262D01*
G75*
G02*
X135733262Y-116340000I-271738J0D01*
G01*
X134776738Y-116340000D01*
G75*
G02*
X134505000Y-116068262I0J271738D01*
G01*
X134505000Y-115361738D01*
G75*
G02*
X134776738Y-115090000I271738J0D01*
G01*
G37*
G36*
G01*
X134776738Y-113040000D02*
X135733262Y-113040000D01*
G75*
G02*
X136005000Y-113311738I0J-271738D01*
G01*
X136005000Y-114018262D01*
G75*
G02*
X135733262Y-114290000I-271738J0D01*
G01*
X134776738Y-114290000D01*
G75*
G02*
X134505000Y-114018262I0J271738D01*
G01*
X134505000Y-113311738D01*
G75*
G02*
X134776738Y-113040000I271738J0D01*
G01*
G37*
%TD*%
%TO.C,C5*%
G36*
G01*
X122906262Y-105772000D02*
X121949738Y-105772000D01*
G75*
G02*
X121678000Y-105500262I0J271738D01*
G01*
X121678000Y-104793738D01*
G75*
G02*
X121949738Y-104522000I271738J0D01*
G01*
X122906262Y-104522000D01*
G75*
G02*
X123178000Y-104793738I0J-271738D01*
G01*
X123178000Y-105500262D01*
G75*
G02*
X122906262Y-105772000I-271738J0D01*
G01*
G37*
G36*
G01*
X122906262Y-107822000D02*
X121949738Y-107822000D01*
G75*
G02*
X121678000Y-107550262I0J271738D01*
G01*
X121678000Y-106843738D01*
G75*
G02*
X121949738Y-106572000I271738J0D01*
G01*
X122906262Y-106572000D01*
G75*
G02*
X123178000Y-106843738I0J-271738D01*
G01*
X123178000Y-107550262D01*
G75*
G02*
X122906262Y-107822000I-271738J0D01*
G01*
G37*
%TD*%
%TO.C,C4*%
G36*
G01*
X132315000Y-122711738D02*
X132315000Y-123668262D01*
G75*
G02*
X132043262Y-123940000I-271738J0D01*
G01*
X131336738Y-123940000D01*
G75*
G02*
X131065000Y-123668262I0J271738D01*
G01*
X131065000Y-122711738D01*
G75*
G02*
X131336738Y-122440000I271738J0D01*
G01*
X132043262Y-122440000D01*
G75*
G02*
X132315000Y-122711738I0J-271738D01*
G01*
G37*
G36*
G01*
X134365000Y-122711738D02*
X134365000Y-123668262D01*
G75*
G02*
X134093262Y-123940000I-271738J0D01*
G01*
X133386738Y-123940000D01*
G75*
G02*
X133115000Y-123668262I0J271738D01*
G01*
X133115000Y-122711738D01*
G75*
G02*
X133386738Y-122440000I271738J0D01*
G01*
X134093262Y-122440000D01*
G75*
G02*
X134365000Y-122711738I0J-271738D01*
G01*
G37*
%TD*%
%TO.C,C3*%
G36*
G01*
X132315000Y-120806738D02*
X132315000Y-121763262D01*
G75*
G02*
X132043262Y-122035000I-271738J0D01*
G01*
X131336738Y-122035000D01*
G75*
G02*
X131065000Y-121763262I0J271738D01*
G01*
X131065000Y-120806738D01*
G75*
G02*
X131336738Y-120535000I271738J0D01*
G01*
X132043262Y-120535000D01*
G75*
G02*
X132315000Y-120806738I0J-271738D01*
G01*
G37*
G36*
G01*
X134365000Y-120806738D02*
X134365000Y-121763262D01*
G75*
G02*
X134093262Y-122035000I-271738J0D01*
G01*
X133386738Y-122035000D01*
G75*
G02*
X133115000Y-121763262I0J271738D01*
G01*
X133115000Y-120806738D01*
G75*
G02*
X133386738Y-120535000I271738J0D01*
G01*
X134093262Y-120535000D01*
G75*
G02*
X134365000Y-120806738I0J-271738D01*
G01*
G37*
%TD*%
M02*
