%FSLAX45Y45*%
G04 Gerber Fmt 4.5, Leading zero omitted, Abs format (unit mm)*
G04 Created by KiCad (PCBNEW (5.1.6)-1) date 2021-08-19 23:31:27*
%MOMM*%
%LPD*%
G01*
G04 APERTURE LIST*
%TA.AperFunction,Profile*%
%ADD10C,0.149860*%
%TD*%
%TA.AperFunction,Profile*%
%ADD11C,0.150000*%
%TD*%
%ADD12C,0.200000*%
%ADD13C,0.300000*%
G04 APERTURE END LIST*
D10*
X6858000Y-10541000D02*
G75*
G02*
X6985000Y-10414000I127000J0D01*
G01*
X6985000Y-15494000D02*
G75*
G02*
X6858000Y-15367000I0J127000D01*
G01*
D11*
X17907000Y-10414000D02*
G75*
G02*
X18034000Y-10541000I0J-127000D01*
G01*
X18034000Y-15367000D02*
G75*
G02*
X17907000Y-15494000I-127000J0D01*
G01*
X6858000Y-10541000D02*
X6858000Y-15367000D01*
X17907000Y-10414000D02*
X6985000Y-10414000D01*
X18034000Y-15367000D02*
X18034000Y-10541000D01*
X6985000Y-15494000D02*
X17907000Y-15494000D01*
D12*
X7677150Y-12706350D02*
X7715250Y-12744450D01*
X7715250Y-12706350D02*
X7677150Y-12744450D01*
X7677150Y-14179550D02*
X7715250Y-14217650D01*
X7715250Y-14179550D02*
X7677150Y-14217650D01*
X7791450Y-15297150D02*
X7829550Y-15335250D01*
X7829550Y-15297150D02*
X7791450Y-15335250D01*
X7804150Y-14687550D02*
X7842250Y-14725650D01*
X7842250Y-14687550D02*
X7804150Y-14725650D01*
X7981950Y-11055350D02*
X8020050Y-11093450D01*
X8020050Y-11055350D02*
X7981950Y-11093450D01*
X8134350Y-13442950D02*
X8172450Y-13481050D01*
X8172450Y-13442950D02*
X8134350Y-13481050D01*
X8388350Y-10750550D02*
X8426450Y-10788650D01*
X8426450Y-10750550D02*
X8388350Y-10788650D01*
X8997950Y-14992350D02*
X9036050Y-15030450D01*
X9036050Y-14992350D02*
X8997950Y-15030450D01*
X9112250Y-12706350D02*
X9150350Y-12744450D01*
X9150350Y-12706350D02*
X9112250Y-12744450D01*
X9137650Y-11753850D02*
X9175750Y-11791950D01*
X9175750Y-11753850D02*
X9137650Y-11791950D01*
X9302750Y-12363450D02*
X9340850Y-12401550D01*
X9340850Y-12363450D02*
X9302750Y-12401550D01*
X9302750Y-14027150D02*
X9340850Y-14065250D01*
X9340850Y-14027150D02*
X9302750Y-14065250D01*
X9315450Y-13328650D02*
X9353550Y-13366750D01*
X9353550Y-13328650D02*
X9315450Y-13366750D01*
X9671050Y-11957050D02*
X9709150Y-11995150D01*
X9709150Y-11957050D02*
X9671050Y-11995150D01*
X9671050Y-12109450D02*
X9709150Y-12147550D01*
X9709150Y-12109450D02*
X9671050Y-12147550D01*
X9671050Y-12998450D02*
X9709150Y-13036550D01*
X9709150Y-12998450D02*
X9671050Y-13036550D01*
X9759950Y-11893550D02*
X9798050Y-11931650D01*
X9798050Y-11893550D02*
X9759950Y-11931650D01*
X9874250Y-11741150D02*
X9912350Y-11779250D01*
X9912350Y-11741150D02*
X9874250Y-11779250D01*
X9912350Y-13252450D02*
X9950450Y-13290550D01*
X9950450Y-13252450D02*
X9912350Y-13290550D01*
X9925050Y-11842750D02*
X9963150Y-11880850D01*
X9963150Y-11842750D02*
X9925050Y-11880850D01*
X9963150Y-12287250D02*
X10001250Y-12325350D01*
X10001250Y-12287250D02*
X9963150Y-12325350D01*
X10001250Y-11906250D02*
X10039350Y-11944350D01*
X10039350Y-11906250D02*
X10001250Y-11944350D01*
X10271760Y-11830050D02*
X10309860Y-11868150D01*
X10309860Y-11830050D02*
X10271760Y-11868150D01*
X10277446Y-11306146D02*
X10315546Y-11344246D01*
X10315546Y-11306146D02*
X10277446Y-11344246D01*
X10293350Y-11055347D02*
X10331450Y-11093447D01*
X10331450Y-11055347D02*
X10293350Y-11093447D01*
X10293350Y-12045950D02*
X10331450Y-12084050D01*
X10331450Y-12045950D02*
X10293350Y-12084050D01*
X10319867Y-11148159D02*
X10357967Y-11186259D01*
X10357967Y-11148159D02*
X10319867Y-11186259D01*
X10344150Y-11902440D02*
X10382250Y-11940540D01*
X10382250Y-11902440D02*
X10344150Y-11940540D01*
X10382250Y-12118340D02*
X10420350Y-12156440D01*
X10420350Y-12118340D02*
X10382250Y-12156440D01*
X10509250Y-11055350D02*
X10547350Y-11093450D01*
X10547350Y-11055350D02*
X10509250Y-11093450D01*
X10509250Y-12211050D02*
X10547350Y-12249150D01*
X10547350Y-12211050D02*
X10509250Y-12249150D01*
X10521950Y-11220450D02*
X10560050Y-11258550D01*
X10560050Y-11220450D02*
X10521950Y-11258550D01*
X10699750Y-11144250D02*
X10737850Y-11182350D01*
X10737850Y-11144250D02*
X10699750Y-11182350D01*
X10852150Y-10725150D02*
X10890250Y-10763250D01*
X10890250Y-10725150D02*
X10852150Y-10763250D01*
X11601450Y-14636750D02*
X11639550Y-14674850D01*
X11639550Y-14636750D02*
X11601450Y-14674850D01*
X11614150Y-13874750D02*
X11652250Y-13912850D01*
X11652250Y-13874750D02*
X11614150Y-13912850D01*
X11817350Y-10750550D02*
X11855450Y-10788650D01*
X11855450Y-10750550D02*
X11817350Y-10788650D01*
X11957050Y-12287250D02*
X11995150Y-12325350D01*
X11995150Y-12287250D02*
X11957050Y-12325350D01*
X12007850Y-14255750D02*
X12045950Y-14293850D01*
X12045950Y-14255750D02*
X12007850Y-14293850D01*
X12071350Y-11055350D02*
X12109450Y-11093450D01*
X12109450Y-11055350D02*
X12071350Y-11093450D01*
X12071350Y-11461750D02*
X12109450Y-11499850D01*
X12109450Y-11461750D02*
X12071350Y-11499850D01*
X12122150Y-10598150D02*
X12160250Y-10636250D01*
X12160250Y-10598150D02*
X12122150Y-10636250D01*
X12350750Y-11055350D02*
X12388850Y-11093450D01*
X12388850Y-11055350D02*
X12350750Y-11093450D01*
X12414250Y-12973050D02*
X12452350Y-13011150D01*
X12452350Y-12973050D02*
X12414250Y-13011150D01*
X12414250Y-13459460D02*
X12452350Y-13497560D01*
X12452350Y-13459460D02*
X12414250Y-13497560D01*
X12477750Y-14662150D02*
X12515850Y-14700250D01*
X12515850Y-14662150D02*
X12477750Y-14700250D01*
X12503150Y-10496550D02*
X12541250Y-10534650D01*
X12541250Y-10496550D02*
X12503150Y-10534650D01*
X12757150Y-14662150D02*
X12795250Y-14700250D01*
X12795250Y-14662150D02*
X12757150Y-14700250D01*
X13011150Y-10902950D02*
X13049250Y-10941050D01*
X13049250Y-10902950D02*
X13011150Y-10941050D01*
X13036550Y-12198350D02*
X13074650Y-12236450D01*
X13074650Y-12198350D02*
X13036550Y-12236450D01*
X13341350Y-11487150D02*
X13379450Y-11525250D01*
X13379450Y-11487150D02*
X13341350Y-11525250D01*
X14103350Y-11715750D02*
X14141450Y-11753850D01*
X14141450Y-11715750D02*
X14103350Y-11753850D01*
X15275560Y-14116050D02*
X15313660Y-14154150D01*
X15313660Y-14116050D02*
X15275560Y-14154150D01*
X15392400Y-11379200D02*
X15430500Y-11417300D01*
X15430500Y-11379200D02*
X15392400Y-11417300D01*
X15395545Y-13223845D02*
X15433645Y-13261945D01*
X15433645Y-13223845D02*
X15395545Y-13261945D01*
X15474950Y-14204950D02*
X15513050Y-14243050D01*
X15513050Y-14204950D02*
X15474950Y-14243050D01*
X16109950Y-11817350D02*
X16148050Y-11855450D01*
X16148050Y-11817350D02*
X16109950Y-11855450D01*
X16694150Y-11817350D02*
X16732250Y-11855450D01*
X16732250Y-11817350D02*
X16694150Y-11855450D01*
X11590490Y-12763500D02*
G75*
G03*
X11590490Y-12763500I-50000J0D01*
G01*
X11844490Y-12763500D02*
G75*
G03*
X11844490Y-12763500I-50000J0D01*
G01*
X12098490Y-12763500D02*
G75*
G03*
X12098490Y-12763500I-50000J0D01*
G01*
X12352490Y-12763500D02*
G75*
G03*
X12352490Y-12763500I-50000J0D01*
G01*
X15954400Y-13016000D02*
G75*
G03*
X15954400Y-13016000I-50000J0D01*
G01*
X15954400Y-14466000D02*
G75*
G03*
X15954400Y-14466000I-50000J0D01*
G01*
X16204400Y-14466000D02*
G75*
G03*
X16204400Y-14466000I-50000J0D01*
G01*
X16454400Y-13016000D02*
G75*
G03*
X16454400Y-13016000I-50000J0D01*
G01*
X16454400Y-14466000D02*
G75*
G03*
X16454400Y-14466000I-50000J0D01*
G01*
X14224000Y-10719000D02*
X14224000Y-10871000D01*
X14148000Y-10795000D02*
X14300000Y-10795000D01*
X14732000Y-10719000D02*
X14732000Y-10871000D01*
X14656000Y-10795000D02*
X14808000Y-10795000D01*
X15240000Y-10719000D02*
X15240000Y-10871000D01*
X15164000Y-10795000D02*
X15316000Y-10795000D01*
X15748000Y-10719000D02*
X15748000Y-10871000D01*
X15672000Y-10795000D02*
X15824000Y-10795000D01*
X16256000Y-10719000D02*
X16256000Y-10871000D01*
X16180000Y-10795000D02*
X16332000Y-10795000D01*
X16764000Y-10719000D02*
X16764000Y-10871000D01*
X16688000Y-10795000D02*
X16840000Y-10795000D01*
X15668647Y-13790247D02*
X15668647Y-13641753D01*
X15520153Y-13641753D01*
X15520153Y-13790247D01*
X15668647Y-13790247D01*
X15499400Y-13701000D02*
X15499400Y-13731000D01*
X15689400Y-13701000D02*
X15689400Y-13731000D01*
X15499400Y-13731000D02*
G75*
G03*
X15689400Y-13731000I95000J0D01*
G01*
X15689400Y-13701000D02*
G75*
G03*
X15499400Y-13701000I-95000J0D01*
G01*
X16788647Y-13790247D02*
X16788647Y-13641753D01*
X16640153Y-13641753D01*
X16640153Y-13790247D01*
X16788647Y-13790247D01*
X16619400Y-13701000D02*
X16619400Y-13731000D01*
X16809400Y-13701000D02*
X16809400Y-13731000D01*
X16619400Y-13731000D02*
G75*
G03*
X16809400Y-13731000I95000J0D01*
G01*
X16809400Y-13701000D02*
G75*
G03*
X16619400Y-13701000I-95000J0D01*
G01*
X12850500Y-10576200D02*
X12873000Y-10553700D01*
X12850500Y-10531200D01*
X12828000Y-10553700D01*
X12850500Y-10576200D01*
X13565500Y-10576200D02*
X13588000Y-10553700D01*
X13565500Y-10531200D01*
X13543000Y-10553700D01*
X13565500Y-10576200D01*
X10656570Y-15096490D02*
X10857230Y-15297150D01*
X10857230Y-15096490D02*
X10656570Y-15297150D01*
X10857230Y-15196820D02*
G75*
G03*
X10857230Y-15196820I-100330J0D01*
G01*
X10660126Y-12747244D02*
X10860786Y-12947904D01*
X10860786Y-12747244D02*
X10660126Y-12947904D01*
X10860786Y-12847574D02*
G75*
G03*
X10860786Y-12847574I-100330J0D01*
G01*
X12980670Y-12752070D02*
X13181330Y-12952730D01*
X13181330Y-12752070D02*
X12980670Y-12952730D01*
X13181330Y-12852400D02*
G75*
G03*
X13181330Y-12852400I-100330J0D01*
G01*
X12980670Y-15101570D02*
X13181330Y-15302230D01*
X13181330Y-15101570D02*
X12980670Y-15302230D01*
X13181330Y-15201900D02*
G75*
G03*
X13181330Y-15201900I-100330J0D01*
G01*
X17416800Y-10711200D02*
X17736800Y-11031200D01*
X17736800Y-10711200D02*
X17416800Y-11031200D01*
X17576800Y-10711200D02*
X17576800Y-11031200D01*
X17416800Y-10871200D02*
X17736800Y-10871200D01*
X7129800Y-10711200D02*
X7449800Y-11031200D01*
X7449800Y-10711200D02*
X7129800Y-11031200D01*
X7289800Y-10711200D02*
X7289800Y-11031200D01*
X7129800Y-10871200D02*
X7449800Y-10871200D01*
X7129800Y-14876800D02*
X7449800Y-15196800D01*
X7449800Y-14876800D02*
X7129800Y-15196800D01*
X7289800Y-14876800D02*
X7289800Y-15196800D01*
X7129800Y-15036800D02*
X7449800Y-15036800D01*
X17416800Y-14876800D02*
X17736800Y-15196800D01*
X17736800Y-14876800D02*
X17416800Y-15196800D01*
X17576800Y-14876800D02*
X17576800Y-15196800D01*
X17416800Y-15036800D02*
X17736800Y-15036800D01*
D13*
X7136928Y-15967214D02*
X7136928Y-15667214D01*
X7208357Y-15667214D01*
X7251214Y-15681500D01*
X7279786Y-15710071D01*
X7294071Y-15738643D01*
X7308357Y-15795786D01*
X7308357Y-15838643D01*
X7294071Y-15895786D01*
X7279786Y-15924357D01*
X7251214Y-15952929D01*
X7208357Y-15967214D01*
X7136928Y-15967214D01*
X7436928Y-15967214D02*
X7436928Y-15767214D01*
X7436928Y-15824357D02*
X7451214Y-15795786D01*
X7465500Y-15781500D01*
X7494071Y-15767214D01*
X7522643Y-15767214D01*
X7622643Y-15967214D02*
X7622643Y-15767214D01*
X7622643Y-15667214D02*
X7608357Y-15681500D01*
X7622643Y-15695786D01*
X7636928Y-15681500D01*
X7622643Y-15667214D01*
X7622643Y-15695786D01*
X7808357Y-15967214D02*
X7779786Y-15952929D01*
X7765500Y-15924357D01*
X7765500Y-15667214D01*
X7965500Y-15967214D02*
X7936928Y-15952929D01*
X7922643Y-15924357D01*
X7922643Y-15667214D01*
X8308357Y-15967214D02*
X8308357Y-15667214D01*
X8408357Y-15881500D01*
X8508357Y-15667214D01*
X8508357Y-15967214D01*
X8779786Y-15967214D02*
X8779786Y-15810071D01*
X8765500Y-15781500D01*
X8736928Y-15767214D01*
X8679786Y-15767214D01*
X8651214Y-15781500D01*
X8779786Y-15952929D02*
X8751214Y-15967214D01*
X8679786Y-15967214D01*
X8651214Y-15952929D01*
X8636928Y-15924357D01*
X8636928Y-15895786D01*
X8651214Y-15867214D01*
X8679786Y-15852929D01*
X8751214Y-15852929D01*
X8779786Y-15838643D01*
X8922643Y-15767214D02*
X8922643Y-16067214D01*
X8922643Y-15781500D02*
X8951214Y-15767214D01*
X9008357Y-15767214D01*
X9036928Y-15781500D01*
X9051214Y-15795786D01*
X9065500Y-15824357D01*
X9065500Y-15910071D01*
X9051214Y-15938643D01*
X9036928Y-15952929D01*
X9008357Y-15967214D01*
X8951214Y-15967214D01*
X8922643Y-15952929D01*
X9194071Y-15938643D02*
X9208357Y-15952929D01*
X9194071Y-15967214D01*
X9179786Y-15952929D01*
X9194071Y-15938643D01*
X9194071Y-15967214D01*
X9194071Y-15781500D02*
X9208357Y-15795786D01*
X9194071Y-15810071D01*
X9179786Y-15795786D01*
X9194071Y-15781500D01*
X9194071Y-15810071D01*
X6812400Y-16442450D02*
X6850500Y-16480550D01*
X6850500Y-16442450D02*
X6812400Y-16480550D01*
X7194071Y-16297214D02*
X7222643Y-16297214D01*
X7251214Y-16311500D01*
X7265500Y-16325786D01*
X7279786Y-16354357D01*
X7294071Y-16411500D01*
X7294071Y-16482929D01*
X7279786Y-16540071D01*
X7265500Y-16568643D01*
X7251214Y-16582929D01*
X7222643Y-16597214D01*
X7194071Y-16597214D01*
X7165500Y-16582929D01*
X7151214Y-16568643D01*
X7136928Y-16540071D01*
X7122643Y-16482929D01*
X7122643Y-16411500D01*
X7136928Y-16354357D01*
X7151214Y-16325786D01*
X7165500Y-16311500D01*
X7194071Y-16297214D01*
X7422643Y-16568643D02*
X7436928Y-16582929D01*
X7422643Y-16597214D01*
X7408357Y-16582929D01*
X7422643Y-16568643D01*
X7422643Y-16597214D01*
X7536928Y-16297214D02*
X7722643Y-16297214D01*
X7622643Y-16411500D01*
X7665500Y-16411500D01*
X7694071Y-16425786D01*
X7708357Y-16440071D01*
X7722643Y-16468643D01*
X7722643Y-16540071D01*
X7708357Y-16568643D01*
X7694071Y-16582929D01*
X7665500Y-16597214D01*
X7579786Y-16597214D01*
X7551214Y-16582929D01*
X7536928Y-16568643D01*
X7894071Y-16425786D02*
X7865500Y-16411500D01*
X7851214Y-16397214D01*
X7836928Y-16368643D01*
X7836928Y-16354357D01*
X7851214Y-16325786D01*
X7865500Y-16311500D01*
X7894071Y-16297214D01*
X7951214Y-16297214D01*
X7979786Y-16311500D01*
X7994071Y-16325786D01*
X8008357Y-16354357D01*
X8008357Y-16368643D01*
X7994071Y-16397214D01*
X7979786Y-16411500D01*
X7951214Y-16425786D01*
X7894071Y-16425786D01*
X7865500Y-16440071D01*
X7851214Y-16454357D01*
X7836928Y-16482929D01*
X7836928Y-16540071D01*
X7851214Y-16568643D01*
X7865500Y-16582929D01*
X7894071Y-16597214D01*
X7951214Y-16597214D01*
X7979786Y-16582929D01*
X7994071Y-16568643D01*
X8008357Y-16540071D01*
X8008357Y-16482929D01*
X7994071Y-16454357D01*
X7979786Y-16440071D01*
X7951214Y-16425786D01*
X8136928Y-16597214D02*
X8136928Y-16397214D01*
X8136928Y-16425786D02*
X8151214Y-16411500D01*
X8179786Y-16397214D01*
X8222643Y-16397214D01*
X8251214Y-16411500D01*
X8265500Y-16440071D01*
X8265500Y-16597214D01*
X8265500Y-16440071D02*
X8279786Y-16411500D01*
X8308357Y-16397214D01*
X8351214Y-16397214D01*
X8379786Y-16411500D01*
X8394071Y-16440071D01*
X8394071Y-16597214D01*
X8536928Y-16597214D02*
X8536928Y-16397214D01*
X8536928Y-16425786D02*
X8551214Y-16411500D01*
X8579786Y-16397214D01*
X8622643Y-16397214D01*
X8651214Y-16411500D01*
X8665500Y-16440071D01*
X8665500Y-16597214D01*
X8665500Y-16440071D02*
X8679786Y-16411500D01*
X8708357Y-16397214D01*
X8751214Y-16397214D01*
X8779786Y-16411500D01*
X8794071Y-16440071D01*
X8794071Y-16597214D01*
X9379786Y-16282929D02*
X9122643Y-16668643D01*
X9765500Y-16297214D02*
X9794071Y-16297214D01*
X9822643Y-16311500D01*
X9836928Y-16325786D01*
X9851214Y-16354357D01*
X9865500Y-16411500D01*
X9865500Y-16482929D01*
X9851214Y-16540071D01*
X9836928Y-16568643D01*
X9822643Y-16582929D01*
X9794071Y-16597214D01*
X9765500Y-16597214D01*
X9736928Y-16582929D01*
X9722643Y-16568643D01*
X9708357Y-16540071D01*
X9694071Y-16482929D01*
X9694071Y-16411500D01*
X9708357Y-16354357D01*
X9722643Y-16325786D01*
X9736928Y-16311500D01*
X9765500Y-16297214D01*
X9994071Y-16568643D02*
X10008357Y-16582929D01*
X9994071Y-16597214D01*
X9979786Y-16582929D01*
X9994071Y-16568643D01*
X9994071Y-16597214D01*
X10194071Y-16297214D02*
X10222643Y-16297214D01*
X10251214Y-16311500D01*
X10265500Y-16325786D01*
X10279786Y-16354357D01*
X10294071Y-16411500D01*
X10294071Y-16482929D01*
X10279786Y-16540071D01*
X10265500Y-16568643D01*
X10251214Y-16582929D01*
X10222643Y-16597214D01*
X10194071Y-16597214D01*
X10165500Y-16582929D01*
X10151214Y-16568643D01*
X10136928Y-16540071D01*
X10122643Y-16482929D01*
X10122643Y-16411500D01*
X10136928Y-16354357D01*
X10151214Y-16325786D01*
X10165500Y-16311500D01*
X10194071Y-16297214D01*
X10579786Y-16597214D02*
X10408357Y-16597214D01*
X10494071Y-16597214D02*
X10494071Y-16297214D01*
X10465500Y-16340071D01*
X10436928Y-16368643D01*
X10408357Y-16382929D01*
X10851214Y-16297214D02*
X10708357Y-16297214D01*
X10694071Y-16440071D01*
X10708357Y-16425786D01*
X10736928Y-16411500D01*
X10808357Y-16411500D01*
X10836928Y-16425786D01*
X10851214Y-16440071D01*
X10865500Y-16468643D01*
X10865500Y-16540071D01*
X10851214Y-16568643D01*
X10836928Y-16582929D01*
X10808357Y-16597214D01*
X10736928Y-16597214D01*
X10708357Y-16582929D01*
X10694071Y-16568643D01*
X10979786Y-16297214D02*
X10979786Y-16354357D01*
X11094071Y-16297214D02*
X11094071Y-16354357D01*
X11536928Y-16711500D02*
X11522643Y-16697214D01*
X11494071Y-16654357D01*
X11479786Y-16625786D01*
X11465500Y-16582929D01*
X11451214Y-16511500D01*
X11451214Y-16454357D01*
X11465500Y-16382929D01*
X11479786Y-16340071D01*
X11494071Y-16311500D01*
X11522643Y-16268643D01*
X11536928Y-16254357D01*
X11794071Y-16297214D02*
X11651214Y-16297214D01*
X11636928Y-16440071D01*
X11651214Y-16425786D01*
X11679786Y-16411500D01*
X11751214Y-16411500D01*
X11779786Y-16425786D01*
X11794071Y-16440071D01*
X11808357Y-16468643D01*
X11808357Y-16540071D01*
X11794071Y-16568643D01*
X11779786Y-16582929D01*
X11751214Y-16597214D01*
X11679786Y-16597214D01*
X11651214Y-16582929D01*
X11636928Y-16568643D01*
X11979786Y-16425786D02*
X11951214Y-16411500D01*
X11936928Y-16397214D01*
X11922643Y-16368643D01*
X11922643Y-16354357D01*
X11936928Y-16325786D01*
X11951214Y-16311500D01*
X11979786Y-16297214D01*
X12036928Y-16297214D01*
X12065500Y-16311500D01*
X12079786Y-16325786D01*
X12094071Y-16354357D01*
X12094071Y-16368643D01*
X12079786Y-16397214D01*
X12065500Y-16411500D01*
X12036928Y-16425786D01*
X11979786Y-16425786D01*
X11951214Y-16440071D01*
X11936928Y-16454357D01*
X11922643Y-16482929D01*
X11922643Y-16540071D01*
X11936928Y-16568643D01*
X11951214Y-16582929D01*
X11979786Y-16597214D01*
X12036928Y-16597214D01*
X12065500Y-16582929D01*
X12079786Y-16568643D01*
X12094071Y-16540071D01*
X12094071Y-16482929D01*
X12079786Y-16454357D01*
X12065500Y-16440071D01*
X12036928Y-16425786D01*
X12451214Y-16597214D02*
X12451214Y-16297214D01*
X12579786Y-16597214D02*
X12579786Y-16440071D01*
X12565500Y-16411500D01*
X12536928Y-16397214D01*
X12494071Y-16397214D01*
X12465500Y-16411500D01*
X12451214Y-16425786D01*
X12765500Y-16597214D02*
X12736928Y-16582929D01*
X12722643Y-16568643D01*
X12708357Y-16540071D01*
X12708357Y-16454357D01*
X12722643Y-16425786D01*
X12736928Y-16411500D01*
X12765500Y-16397214D01*
X12808357Y-16397214D01*
X12836928Y-16411500D01*
X12851214Y-16425786D01*
X12865500Y-16454357D01*
X12865500Y-16540071D01*
X12851214Y-16568643D01*
X12836928Y-16582929D01*
X12808357Y-16597214D01*
X12765500Y-16597214D01*
X13036928Y-16597214D02*
X13008357Y-16582929D01*
X12994071Y-16554357D01*
X12994071Y-16297214D01*
X13265500Y-16582929D02*
X13236928Y-16597214D01*
X13179786Y-16597214D01*
X13151214Y-16582929D01*
X13136928Y-16554357D01*
X13136928Y-16440071D01*
X13151214Y-16411500D01*
X13179786Y-16397214D01*
X13236928Y-16397214D01*
X13265500Y-16411500D01*
X13279786Y-16440071D01*
X13279786Y-16468643D01*
X13136928Y-16497214D01*
X13394071Y-16582929D02*
X13422643Y-16597214D01*
X13479786Y-16597214D01*
X13508357Y-16582929D01*
X13522643Y-16554357D01*
X13522643Y-16540071D01*
X13508357Y-16511500D01*
X13479786Y-16497214D01*
X13436928Y-16497214D01*
X13408357Y-16482929D01*
X13394071Y-16454357D01*
X13394071Y-16440071D01*
X13408357Y-16411500D01*
X13436928Y-16397214D01*
X13479786Y-16397214D01*
X13508357Y-16411500D01*
X13622643Y-16711500D02*
X13636928Y-16697214D01*
X13665500Y-16654357D01*
X13679786Y-16625786D01*
X13694071Y-16582929D01*
X13708357Y-16511500D01*
X13708357Y-16454357D01*
X13694071Y-16382929D01*
X13679786Y-16340071D01*
X13665500Y-16311500D01*
X13636928Y-16268643D01*
X13622643Y-16254357D01*
X6850500Y-16857500D02*
G75*
G03*
X6850500Y-16857500I-50000J0D01*
G01*
X7294071Y-16993214D02*
X7122643Y-16993214D01*
X7208357Y-16993214D02*
X7208357Y-16693214D01*
X7179786Y-16736071D01*
X7151214Y-16764643D01*
X7122643Y-16778929D01*
X7422643Y-16964643D02*
X7436928Y-16978929D01*
X7422643Y-16993214D01*
X7408357Y-16978929D01*
X7422643Y-16964643D01*
X7422643Y-16993214D01*
X7622643Y-16693214D02*
X7651214Y-16693214D01*
X7679786Y-16707500D01*
X7694071Y-16721786D01*
X7708357Y-16750357D01*
X7722643Y-16807500D01*
X7722643Y-16878929D01*
X7708357Y-16936072D01*
X7694071Y-16964643D01*
X7679786Y-16978929D01*
X7651214Y-16993214D01*
X7622643Y-16993214D01*
X7594071Y-16978929D01*
X7579786Y-16964643D01*
X7565500Y-16936072D01*
X7551214Y-16878929D01*
X7551214Y-16807500D01*
X7565500Y-16750357D01*
X7579786Y-16721786D01*
X7594071Y-16707500D01*
X7622643Y-16693214D01*
X7908357Y-16693214D02*
X7936928Y-16693214D01*
X7965500Y-16707500D01*
X7979786Y-16721786D01*
X7994071Y-16750357D01*
X8008357Y-16807500D01*
X8008357Y-16878929D01*
X7994071Y-16936072D01*
X7979786Y-16964643D01*
X7965500Y-16978929D01*
X7936928Y-16993214D01*
X7908357Y-16993214D01*
X7879786Y-16978929D01*
X7865500Y-16964643D01*
X7851214Y-16936072D01*
X7836928Y-16878929D01*
X7836928Y-16807500D01*
X7851214Y-16750357D01*
X7865500Y-16721786D01*
X7879786Y-16707500D01*
X7908357Y-16693214D01*
X8136928Y-16993214D02*
X8136928Y-16793214D01*
X8136928Y-16821786D02*
X8151214Y-16807500D01*
X8179786Y-16793214D01*
X8222643Y-16793214D01*
X8251214Y-16807500D01*
X8265500Y-16836072D01*
X8265500Y-16993214D01*
X8265500Y-16836072D02*
X8279786Y-16807500D01*
X8308357Y-16793214D01*
X8351214Y-16793214D01*
X8379786Y-16807500D01*
X8394071Y-16836072D01*
X8394071Y-16993214D01*
X8536928Y-16993214D02*
X8536928Y-16793214D01*
X8536928Y-16821786D02*
X8551214Y-16807500D01*
X8579786Y-16793214D01*
X8622643Y-16793214D01*
X8651214Y-16807500D01*
X8665500Y-16836072D01*
X8665500Y-16993214D01*
X8665500Y-16836072D02*
X8679786Y-16807500D01*
X8708357Y-16793214D01*
X8751214Y-16793214D01*
X8779786Y-16807500D01*
X8794071Y-16836072D01*
X8794071Y-16993214D01*
X9379786Y-16678929D02*
X9122643Y-17064643D01*
X9765500Y-16693214D02*
X9794071Y-16693214D01*
X9822643Y-16707500D01*
X9836928Y-16721786D01*
X9851214Y-16750357D01*
X9865500Y-16807500D01*
X9865500Y-16878929D01*
X9851214Y-16936072D01*
X9836928Y-16964643D01*
X9822643Y-16978929D01*
X9794071Y-16993214D01*
X9765500Y-16993214D01*
X9736928Y-16978929D01*
X9722643Y-16964643D01*
X9708357Y-16936072D01*
X9694071Y-16878929D01*
X9694071Y-16807500D01*
X9708357Y-16750357D01*
X9722643Y-16721786D01*
X9736928Y-16707500D01*
X9765500Y-16693214D01*
X9994071Y-16964643D02*
X10008357Y-16978929D01*
X9994071Y-16993214D01*
X9979786Y-16978929D01*
X9994071Y-16964643D01*
X9994071Y-16993214D01*
X10194071Y-16693214D02*
X10222643Y-16693214D01*
X10251214Y-16707500D01*
X10265500Y-16721786D01*
X10279786Y-16750357D01*
X10294071Y-16807500D01*
X10294071Y-16878929D01*
X10279786Y-16936072D01*
X10265500Y-16964643D01*
X10251214Y-16978929D01*
X10222643Y-16993214D01*
X10194071Y-16993214D01*
X10165500Y-16978929D01*
X10151214Y-16964643D01*
X10136928Y-16936072D01*
X10122643Y-16878929D01*
X10122643Y-16807500D01*
X10136928Y-16750357D01*
X10151214Y-16721786D01*
X10165500Y-16707500D01*
X10194071Y-16693214D01*
X10394071Y-16693214D02*
X10579786Y-16693214D01*
X10479786Y-16807500D01*
X10522643Y-16807500D01*
X10551214Y-16821786D01*
X10565500Y-16836072D01*
X10579786Y-16864643D01*
X10579786Y-16936072D01*
X10565500Y-16964643D01*
X10551214Y-16978929D01*
X10522643Y-16993214D01*
X10436928Y-16993214D01*
X10408357Y-16978929D01*
X10394071Y-16964643D01*
X10722643Y-16993214D02*
X10779786Y-16993214D01*
X10808357Y-16978929D01*
X10822643Y-16964643D01*
X10851214Y-16921786D01*
X10865500Y-16864643D01*
X10865500Y-16750357D01*
X10851214Y-16721786D01*
X10836928Y-16707500D01*
X10808357Y-16693214D01*
X10751214Y-16693214D01*
X10722643Y-16707500D01*
X10708357Y-16721786D01*
X10694071Y-16750357D01*
X10694071Y-16821786D01*
X10708357Y-16850357D01*
X10722643Y-16864643D01*
X10751214Y-16878929D01*
X10808357Y-16878929D01*
X10836928Y-16864643D01*
X10851214Y-16850357D01*
X10865500Y-16821786D01*
X10979786Y-16693214D02*
X10979786Y-16750357D01*
X11094071Y-16693214D02*
X11094071Y-16750357D01*
X11536928Y-17107500D02*
X11522643Y-17093214D01*
X11494071Y-17050357D01*
X11479786Y-17021786D01*
X11465500Y-16978929D01*
X11451214Y-16907500D01*
X11451214Y-16850357D01*
X11465500Y-16778929D01*
X11479786Y-16736071D01*
X11494071Y-16707500D01*
X11522643Y-16664643D01*
X11536928Y-16650357D01*
X11665500Y-16993214D02*
X11722643Y-16993214D01*
X11751214Y-16978929D01*
X11765500Y-16964643D01*
X11794071Y-16921786D01*
X11808357Y-16864643D01*
X11808357Y-16750357D01*
X11794071Y-16721786D01*
X11779786Y-16707500D01*
X11751214Y-16693214D01*
X11694071Y-16693214D01*
X11665500Y-16707500D01*
X11651214Y-16721786D01*
X11636928Y-16750357D01*
X11636928Y-16821786D01*
X11651214Y-16850357D01*
X11665500Y-16864643D01*
X11694071Y-16878929D01*
X11751214Y-16878929D01*
X11779786Y-16864643D01*
X11794071Y-16850357D01*
X11808357Y-16821786D01*
X12165500Y-16993214D02*
X12165500Y-16693214D01*
X12294071Y-16993214D02*
X12294071Y-16836072D01*
X12279786Y-16807500D01*
X12251214Y-16793214D01*
X12208357Y-16793214D01*
X12179786Y-16807500D01*
X12165500Y-16821786D01*
X12479786Y-16993214D02*
X12451214Y-16978929D01*
X12436928Y-16964643D01*
X12422643Y-16936072D01*
X12422643Y-16850357D01*
X12436928Y-16821786D01*
X12451214Y-16807500D01*
X12479786Y-16793214D01*
X12522643Y-16793214D01*
X12551214Y-16807500D01*
X12565500Y-16821786D01*
X12579786Y-16850357D01*
X12579786Y-16936072D01*
X12565500Y-16964643D01*
X12551214Y-16978929D01*
X12522643Y-16993214D01*
X12479786Y-16993214D01*
X12751214Y-16993214D02*
X12722643Y-16978929D01*
X12708357Y-16950357D01*
X12708357Y-16693214D01*
X12979786Y-16978929D02*
X12951214Y-16993214D01*
X12894071Y-16993214D01*
X12865500Y-16978929D01*
X12851214Y-16950357D01*
X12851214Y-16836072D01*
X12865500Y-16807500D01*
X12894071Y-16793214D01*
X12951214Y-16793214D01*
X12979786Y-16807500D01*
X12994071Y-16836072D01*
X12994071Y-16864643D01*
X12851214Y-16893214D01*
X13108357Y-16978929D02*
X13136928Y-16993214D01*
X13194071Y-16993214D01*
X13222643Y-16978929D01*
X13236928Y-16950357D01*
X13236928Y-16936072D01*
X13222643Y-16907500D01*
X13194071Y-16893214D01*
X13151214Y-16893214D01*
X13122643Y-16878929D01*
X13108357Y-16850357D01*
X13108357Y-16836072D01*
X13122643Y-16807500D01*
X13151214Y-16793214D01*
X13194071Y-16793214D01*
X13222643Y-16807500D01*
X13336928Y-17107500D02*
X13351214Y-17093214D01*
X13379786Y-17050357D01*
X13394071Y-17021786D01*
X13408357Y-16978929D01*
X13422643Y-16907500D01*
X13422643Y-16850357D01*
X13408357Y-16778929D01*
X13394071Y-16736071D01*
X13379786Y-16707500D01*
X13351214Y-16664643D01*
X13336928Y-16650357D01*
X6774500Y-17177500D02*
X6774500Y-17329500D01*
X6698500Y-17253500D02*
X6850500Y-17253500D01*
X7294071Y-17389214D02*
X7122643Y-17389214D01*
X7208357Y-17389214D02*
X7208357Y-17089214D01*
X7179786Y-17132072D01*
X7151214Y-17160643D01*
X7122643Y-17174929D01*
X7422643Y-17360643D02*
X7436928Y-17374929D01*
X7422643Y-17389214D01*
X7408357Y-17374929D01*
X7422643Y-17360643D01*
X7422643Y-17389214D01*
X7708357Y-17089214D02*
X7565500Y-17089214D01*
X7551214Y-17232072D01*
X7565500Y-17217786D01*
X7594071Y-17203500D01*
X7665500Y-17203500D01*
X7694071Y-17217786D01*
X7708357Y-17232072D01*
X7722643Y-17260643D01*
X7722643Y-17332072D01*
X7708357Y-17360643D01*
X7694071Y-17374929D01*
X7665500Y-17389214D01*
X7594071Y-17389214D01*
X7565500Y-17374929D01*
X7551214Y-17360643D01*
X7836928Y-17117786D02*
X7851214Y-17103500D01*
X7879786Y-17089214D01*
X7951214Y-17089214D01*
X7979786Y-17103500D01*
X7994071Y-17117786D01*
X8008357Y-17146357D01*
X8008357Y-17174929D01*
X7994071Y-17217786D01*
X7822643Y-17389214D01*
X8008357Y-17389214D01*
X8136928Y-17389214D02*
X8136928Y-17189214D01*
X8136928Y-17217786D02*
X8151214Y-17203500D01*
X8179786Y-17189214D01*
X8222643Y-17189214D01*
X8251214Y-17203500D01*
X8265500Y-17232072D01*
X8265500Y-17389214D01*
X8265500Y-17232072D02*
X8279786Y-17203500D01*
X8308357Y-17189214D01*
X8351214Y-17189214D01*
X8379786Y-17203500D01*
X8394071Y-17232072D01*
X8394071Y-17389214D01*
X8536928Y-17389214D02*
X8536928Y-17189214D01*
X8536928Y-17217786D02*
X8551214Y-17203500D01*
X8579786Y-17189214D01*
X8622643Y-17189214D01*
X8651214Y-17203500D01*
X8665500Y-17232072D01*
X8665500Y-17389214D01*
X8665500Y-17232072D02*
X8679786Y-17203500D01*
X8708357Y-17189214D01*
X8751214Y-17189214D01*
X8779786Y-17203500D01*
X8794071Y-17232072D01*
X8794071Y-17389214D01*
X9379786Y-17074929D02*
X9122643Y-17460643D01*
X9765500Y-17089214D02*
X9794071Y-17089214D01*
X9822643Y-17103500D01*
X9836928Y-17117786D01*
X9851214Y-17146357D01*
X9865500Y-17203500D01*
X9865500Y-17274929D01*
X9851214Y-17332072D01*
X9836928Y-17360643D01*
X9822643Y-17374929D01*
X9794071Y-17389214D01*
X9765500Y-17389214D01*
X9736928Y-17374929D01*
X9722643Y-17360643D01*
X9708357Y-17332072D01*
X9694071Y-17274929D01*
X9694071Y-17203500D01*
X9708357Y-17146357D01*
X9722643Y-17117786D01*
X9736928Y-17103500D01*
X9765500Y-17089214D01*
X9994071Y-17360643D02*
X10008357Y-17374929D01*
X9994071Y-17389214D01*
X9979786Y-17374929D01*
X9994071Y-17360643D01*
X9994071Y-17389214D01*
X10194071Y-17089214D02*
X10222643Y-17089214D01*
X10251214Y-17103500D01*
X10265500Y-17117786D01*
X10279786Y-17146357D01*
X10294071Y-17203500D01*
X10294071Y-17274929D01*
X10279786Y-17332072D01*
X10265500Y-17360643D01*
X10251214Y-17374929D01*
X10222643Y-17389214D01*
X10194071Y-17389214D01*
X10165500Y-17374929D01*
X10151214Y-17360643D01*
X10136928Y-17332072D01*
X10122643Y-17274929D01*
X10122643Y-17203500D01*
X10136928Y-17146357D01*
X10151214Y-17117786D01*
X10165500Y-17103500D01*
X10194071Y-17089214D01*
X10551214Y-17089214D02*
X10494071Y-17089214D01*
X10465500Y-17103500D01*
X10451214Y-17117786D01*
X10422643Y-17160643D01*
X10408357Y-17217786D01*
X10408357Y-17332072D01*
X10422643Y-17360643D01*
X10436928Y-17374929D01*
X10465500Y-17389214D01*
X10522643Y-17389214D01*
X10551214Y-17374929D01*
X10565500Y-17360643D01*
X10579786Y-17332072D01*
X10579786Y-17260643D01*
X10565500Y-17232072D01*
X10551214Y-17217786D01*
X10522643Y-17203500D01*
X10465500Y-17203500D01*
X10436928Y-17217786D01*
X10422643Y-17232072D01*
X10408357Y-17260643D01*
X10765500Y-17089214D02*
X10794071Y-17089214D01*
X10822643Y-17103500D01*
X10836928Y-17117786D01*
X10851214Y-17146357D01*
X10865500Y-17203500D01*
X10865500Y-17274929D01*
X10851214Y-17332072D01*
X10836928Y-17360643D01*
X10822643Y-17374929D01*
X10794071Y-17389214D01*
X10765500Y-17389214D01*
X10736928Y-17374929D01*
X10722643Y-17360643D01*
X10708357Y-17332072D01*
X10694071Y-17274929D01*
X10694071Y-17203500D01*
X10708357Y-17146357D01*
X10722643Y-17117786D01*
X10736928Y-17103500D01*
X10765500Y-17089214D01*
X10979786Y-17089214D02*
X10979786Y-17146357D01*
X11094071Y-17089214D02*
X11094071Y-17146357D01*
X11536928Y-17503500D02*
X11522643Y-17489214D01*
X11494071Y-17446357D01*
X11479786Y-17417786D01*
X11465500Y-17374929D01*
X11451214Y-17303500D01*
X11451214Y-17246357D01*
X11465500Y-17174929D01*
X11479786Y-17132072D01*
X11494071Y-17103500D01*
X11522643Y-17060643D01*
X11536928Y-17046357D01*
X11779786Y-17089214D02*
X11722643Y-17089214D01*
X11694071Y-17103500D01*
X11679786Y-17117786D01*
X11651214Y-17160643D01*
X11636928Y-17217786D01*
X11636928Y-17332072D01*
X11651214Y-17360643D01*
X11665500Y-17374929D01*
X11694071Y-17389214D01*
X11751214Y-17389214D01*
X11779786Y-17374929D01*
X11794071Y-17360643D01*
X11808357Y-17332072D01*
X11808357Y-17260643D01*
X11794071Y-17232072D01*
X11779786Y-17217786D01*
X11751214Y-17203500D01*
X11694071Y-17203500D01*
X11665500Y-17217786D01*
X11651214Y-17232072D01*
X11636928Y-17260643D01*
X12165500Y-17389214D02*
X12165500Y-17089214D01*
X12294071Y-17389214D02*
X12294071Y-17232072D01*
X12279786Y-17203500D01*
X12251214Y-17189214D01*
X12208357Y-17189214D01*
X12179786Y-17203500D01*
X12165500Y-17217786D01*
X12479786Y-17389214D02*
X12451214Y-17374929D01*
X12436928Y-17360643D01*
X12422643Y-17332072D01*
X12422643Y-17246357D01*
X12436928Y-17217786D01*
X12451214Y-17203500D01*
X12479786Y-17189214D01*
X12522643Y-17189214D01*
X12551214Y-17203500D01*
X12565500Y-17217786D01*
X12579786Y-17246357D01*
X12579786Y-17332072D01*
X12565500Y-17360643D01*
X12551214Y-17374929D01*
X12522643Y-17389214D01*
X12479786Y-17389214D01*
X12751214Y-17389214D02*
X12722643Y-17374929D01*
X12708357Y-17346357D01*
X12708357Y-17089214D01*
X12979786Y-17374929D02*
X12951214Y-17389214D01*
X12894071Y-17389214D01*
X12865500Y-17374929D01*
X12851214Y-17346357D01*
X12851214Y-17232072D01*
X12865500Y-17203500D01*
X12894071Y-17189214D01*
X12951214Y-17189214D01*
X12979786Y-17203500D01*
X12994071Y-17232072D01*
X12994071Y-17260643D01*
X12851214Y-17289214D01*
X13108357Y-17374929D02*
X13136928Y-17389214D01*
X13194071Y-17389214D01*
X13222643Y-17374929D01*
X13236928Y-17346357D01*
X13236928Y-17332072D01*
X13222643Y-17303500D01*
X13194071Y-17289214D01*
X13151214Y-17289214D01*
X13122643Y-17274929D01*
X13108357Y-17246357D01*
X13108357Y-17232072D01*
X13122643Y-17203500D01*
X13151214Y-17189214D01*
X13194071Y-17189214D01*
X13222643Y-17203500D01*
X13336928Y-17503500D02*
X13351214Y-17489214D01*
X13379786Y-17446357D01*
X13394071Y-17417786D01*
X13408357Y-17374929D01*
X13422643Y-17303500D01*
X13422643Y-17246357D01*
X13408357Y-17174929D01*
X13394071Y-17132072D01*
X13379786Y-17103500D01*
X13351214Y-17060643D01*
X13336928Y-17046357D01*
X6819747Y-17723747D02*
X6819747Y-17575253D01*
X6671253Y-17575253D01*
X6671253Y-17723747D01*
X6819747Y-17723747D01*
X7122643Y-17513786D02*
X7136928Y-17499500D01*
X7165500Y-17485214D01*
X7236928Y-17485214D01*
X7265500Y-17499500D01*
X7279786Y-17513786D01*
X7294071Y-17542357D01*
X7294071Y-17570929D01*
X7279786Y-17613786D01*
X7108357Y-17785214D01*
X7294071Y-17785214D01*
X7422643Y-17756643D02*
X7436928Y-17770929D01*
X7422643Y-17785214D01*
X7408357Y-17770929D01*
X7422643Y-17756643D01*
X7422643Y-17785214D01*
X7722643Y-17785214D02*
X7551214Y-17785214D01*
X7636928Y-17785214D02*
X7636928Y-17485214D01*
X7608357Y-17528072D01*
X7579786Y-17556643D01*
X7551214Y-17570929D01*
X7908357Y-17485214D02*
X7936928Y-17485214D01*
X7965500Y-17499500D01*
X7979786Y-17513786D01*
X7994071Y-17542357D01*
X8008357Y-17599500D01*
X8008357Y-17670929D01*
X7994071Y-17728072D01*
X7979786Y-17756643D01*
X7965500Y-17770929D01*
X7936928Y-17785214D01*
X7908357Y-17785214D01*
X7879786Y-17770929D01*
X7865500Y-17756643D01*
X7851214Y-17728072D01*
X7836928Y-17670929D01*
X7836928Y-17599500D01*
X7851214Y-17542357D01*
X7865500Y-17513786D01*
X7879786Y-17499500D01*
X7908357Y-17485214D01*
X8136928Y-17785214D02*
X8136928Y-17585214D01*
X8136928Y-17613786D02*
X8151214Y-17599500D01*
X8179786Y-17585214D01*
X8222643Y-17585214D01*
X8251214Y-17599500D01*
X8265500Y-17628072D01*
X8265500Y-17785214D01*
X8265500Y-17628072D02*
X8279786Y-17599500D01*
X8308357Y-17585214D01*
X8351214Y-17585214D01*
X8379786Y-17599500D01*
X8394071Y-17628072D01*
X8394071Y-17785214D01*
X8536928Y-17785214D02*
X8536928Y-17585214D01*
X8536928Y-17613786D02*
X8551214Y-17599500D01*
X8579786Y-17585214D01*
X8622643Y-17585214D01*
X8651214Y-17599500D01*
X8665500Y-17628072D01*
X8665500Y-17785214D01*
X8665500Y-17628072D02*
X8679786Y-17599500D01*
X8708357Y-17585214D01*
X8751214Y-17585214D01*
X8779786Y-17599500D01*
X8794071Y-17628072D01*
X8794071Y-17785214D01*
X9379786Y-17470929D02*
X9122643Y-17856643D01*
X9765500Y-17485214D02*
X9794071Y-17485214D01*
X9822643Y-17499500D01*
X9836928Y-17513786D01*
X9851214Y-17542357D01*
X9865500Y-17599500D01*
X9865500Y-17670929D01*
X9851214Y-17728072D01*
X9836928Y-17756643D01*
X9822643Y-17770929D01*
X9794071Y-17785214D01*
X9765500Y-17785214D01*
X9736928Y-17770929D01*
X9722643Y-17756643D01*
X9708357Y-17728072D01*
X9694071Y-17670929D01*
X9694071Y-17599500D01*
X9708357Y-17542357D01*
X9722643Y-17513786D01*
X9736928Y-17499500D01*
X9765500Y-17485214D01*
X9994071Y-17756643D02*
X10008357Y-17770929D01*
X9994071Y-17785214D01*
X9979786Y-17770929D01*
X9994071Y-17756643D01*
X9994071Y-17785214D01*
X10194071Y-17485214D02*
X10222643Y-17485214D01*
X10251214Y-17499500D01*
X10265500Y-17513786D01*
X10279786Y-17542357D01*
X10294071Y-17599500D01*
X10294071Y-17670929D01*
X10279786Y-17728072D01*
X10265500Y-17756643D01*
X10251214Y-17770929D01*
X10222643Y-17785214D01*
X10194071Y-17785214D01*
X10165500Y-17770929D01*
X10151214Y-17756643D01*
X10136928Y-17728072D01*
X10122643Y-17670929D01*
X10122643Y-17599500D01*
X10136928Y-17542357D01*
X10151214Y-17513786D01*
X10165500Y-17499500D01*
X10194071Y-17485214D01*
X10465500Y-17613786D02*
X10436928Y-17599500D01*
X10422643Y-17585214D01*
X10408357Y-17556643D01*
X10408357Y-17542357D01*
X10422643Y-17513786D01*
X10436928Y-17499500D01*
X10465500Y-17485214D01*
X10522643Y-17485214D01*
X10551214Y-17499500D01*
X10565500Y-17513786D01*
X10579786Y-17542357D01*
X10579786Y-17556643D01*
X10565500Y-17585214D01*
X10551214Y-17599500D01*
X10522643Y-17613786D01*
X10465500Y-17613786D01*
X10436928Y-17628072D01*
X10422643Y-17642357D01*
X10408357Y-17670929D01*
X10408357Y-17728072D01*
X10422643Y-17756643D01*
X10436928Y-17770929D01*
X10465500Y-17785214D01*
X10522643Y-17785214D01*
X10551214Y-17770929D01*
X10565500Y-17756643D01*
X10579786Y-17728072D01*
X10579786Y-17670929D01*
X10565500Y-17642357D01*
X10551214Y-17628072D01*
X10522643Y-17613786D01*
X10679786Y-17485214D02*
X10865500Y-17485214D01*
X10765500Y-17599500D01*
X10808357Y-17599500D01*
X10836928Y-17613786D01*
X10851214Y-17628072D01*
X10865500Y-17656643D01*
X10865500Y-17728072D01*
X10851214Y-17756643D01*
X10836928Y-17770929D01*
X10808357Y-17785214D01*
X10722643Y-17785214D01*
X10694071Y-17770929D01*
X10679786Y-17756643D01*
X10979786Y-17485214D02*
X10979786Y-17542357D01*
X11094071Y-17485214D02*
X11094071Y-17542357D01*
X11536928Y-17899500D02*
X11522643Y-17885214D01*
X11494071Y-17842357D01*
X11479786Y-17813786D01*
X11465500Y-17770929D01*
X11451214Y-17699500D01*
X11451214Y-17642357D01*
X11465500Y-17570929D01*
X11479786Y-17528072D01*
X11494071Y-17499500D01*
X11522643Y-17456643D01*
X11536928Y-17442357D01*
X11708357Y-17485214D02*
X11736928Y-17485214D01*
X11765500Y-17499500D01*
X11779786Y-17513786D01*
X11794071Y-17542357D01*
X11808357Y-17599500D01*
X11808357Y-17670929D01*
X11794071Y-17728072D01*
X11779786Y-17756643D01*
X11765500Y-17770929D01*
X11736928Y-17785214D01*
X11708357Y-17785214D01*
X11679786Y-17770929D01*
X11665500Y-17756643D01*
X11651214Y-17728072D01*
X11636928Y-17670929D01*
X11636928Y-17599500D01*
X11651214Y-17542357D01*
X11665500Y-17513786D01*
X11679786Y-17499500D01*
X11708357Y-17485214D01*
X12165500Y-17785214D02*
X12165500Y-17485214D01*
X12294071Y-17785214D02*
X12294071Y-17628072D01*
X12279786Y-17599500D01*
X12251214Y-17585214D01*
X12208357Y-17585214D01*
X12179786Y-17599500D01*
X12165500Y-17613786D01*
X12479786Y-17785214D02*
X12451214Y-17770929D01*
X12436928Y-17756643D01*
X12422643Y-17728072D01*
X12422643Y-17642357D01*
X12436928Y-17613786D01*
X12451214Y-17599500D01*
X12479786Y-17585214D01*
X12522643Y-17585214D01*
X12551214Y-17599500D01*
X12565500Y-17613786D01*
X12579786Y-17642357D01*
X12579786Y-17728072D01*
X12565500Y-17756643D01*
X12551214Y-17770929D01*
X12522643Y-17785214D01*
X12479786Y-17785214D01*
X12751214Y-17785214D02*
X12722643Y-17770929D01*
X12708357Y-17742357D01*
X12708357Y-17485214D01*
X12979786Y-17770929D02*
X12951214Y-17785214D01*
X12894071Y-17785214D01*
X12865500Y-17770929D01*
X12851214Y-17742357D01*
X12851214Y-17628072D01*
X12865500Y-17599500D01*
X12894071Y-17585214D01*
X12951214Y-17585214D01*
X12979786Y-17599500D01*
X12994071Y-17628072D01*
X12994071Y-17656643D01*
X12851214Y-17685214D01*
X13108357Y-17770929D02*
X13136928Y-17785214D01*
X13194071Y-17785214D01*
X13222643Y-17770929D01*
X13236928Y-17742357D01*
X13236928Y-17728072D01*
X13222643Y-17699500D01*
X13194071Y-17685214D01*
X13151214Y-17685214D01*
X13122643Y-17670929D01*
X13108357Y-17642357D01*
X13108357Y-17628072D01*
X13122643Y-17599500D01*
X13151214Y-17585214D01*
X13194071Y-17585214D01*
X13222643Y-17599500D01*
X13594071Y-17670929D02*
X13822643Y-17670929D01*
X13708357Y-17785214D02*
X13708357Y-17556643D01*
X14179786Y-17513786D02*
X14194071Y-17499500D01*
X14222643Y-17485214D01*
X14294071Y-17485214D01*
X14322643Y-17499500D01*
X14336928Y-17513786D01*
X14351214Y-17542357D01*
X14351214Y-17570929D01*
X14336928Y-17613786D01*
X14165500Y-17785214D01*
X14351214Y-17785214D01*
X14694071Y-17770929D02*
X14722643Y-17785214D01*
X14779786Y-17785214D01*
X14808357Y-17770929D01*
X14822643Y-17742357D01*
X14822643Y-17728072D01*
X14808357Y-17699500D01*
X14779786Y-17685214D01*
X14736928Y-17685214D01*
X14708357Y-17670929D01*
X14694071Y-17642357D01*
X14694071Y-17628072D01*
X14708357Y-17599500D01*
X14736928Y-17585214D01*
X14779786Y-17585214D01*
X14808357Y-17599500D01*
X14994071Y-17785214D02*
X14965500Y-17770929D01*
X14951214Y-17742357D01*
X14951214Y-17485214D01*
X15151214Y-17785214D02*
X15122643Y-17770929D01*
X15108357Y-17756643D01*
X15094071Y-17728072D01*
X15094071Y-17642357D01*
X15108357Y-17613786D01*
X15122643Y-17599500D01*
X15151214Y-17585214D01*
X15194071Y-17585214D01*
X15222643Y-17599500D01*
X15236928Y-17613786D01*
X15251214Y-17642357D01*
X15251214Y-17728072D01*
X15236928Y-17756643D01*
X15222643Y-17770929D01*
X15194071Y-17785214D01*
X15151214Y-17785214D01*
X15336928Y-17585214D02*
X15451214Y-17585214D01*
X15379786Y-17485214D02*
X15379786Y-17742357D01*
X15394071Y-17770929D01*
X15422643Y-17785214D01*
X15451214Y-17785214D01*
X15536928Y-17770929D02*
X15565500Y-17785214D01*
X15622643Y-17785214D01*
X15651214Y-17770929D01*
X15665500Y-17742357D01*
X15665500Y-17728072D01*
X15651214Y-17699500D01*
X15622643Y-17685214D01*
X15579786Y-17685214D01*
X15551214Y-17670929D01*
X15536928Y-17642357D01*
X15536928Y-17628072D01*
X15551214Y-17599500D01*
X15579786Y-17585214D01*
X15622643Y-17585214D01*
X15651214Y-17599500D01*
X15765500Y-17899500D02*
X15779786Y-17885214D01*
X15808357Y-17842357D01*
X15822643Y-17813786D01*
X15836928Y-17770929D01*
X15851214Y-17699500D01*
X15851214Y-17642357D01*
X15836928Y-17570929D01*
X15822643Y-17528072D01*
X15808357Y-17499500D01*
X15779786Y-17456643D01*
X15765500Y-17442357D01*
X6828000Y-18068000D02*
X6850500Y-18045500D01*
X6828000Y-18023000D01*
X6805500Y-18045500D01*
X6828000Y-18068000D01*
X7194071Y-17881214D02*
X7222643Y-17881214D01*
X7251214Y-17895500D01*
X7265500Y-17909786D01*
X7279786Y-17938357D01*
X7294071Y-17995500D01*
X7294071Y-18066929D01*
X7279786Y-18124072D01*
X7265500Y-18152643D01*
X7251214Y-18166929D01*
X7222643Y-18181214D01*
X7194071Y-18181214D01*
X7165500Y-18166929D01*
X7151214Y-18152643D01*
X7136928Y-18124072D01*
X7122643Y-18066929D01*
X7122643Y-17995500D01*
X7136928Y-17938357D01*
X7151214Y-17909786D01*
X7165500Y-17895500D01*
X7194071Y-17881214D01*
X7422643Y-18152643D02*
X7436928Y-18166929D01*
X7422643Y-18181214D01*
X7408357Y-18166929D01*
X7422643Y-18152643D01*
X7422643Y-18181214D01*
X7694071Y-17981214D02*
X7694071Y-18181214D01*
X7622643Y-17866929D02*
X7551214Y-18081214D01*
X7736928Y-18081214D01*
X7994071Y-17881214D02*
X7851214Y-17881214D01*
X7836928Y-18024072D01*
X7851214Y-18009786D01*
X7879786Y-17995500D01*
X7951214Y-17995500D01*
X7979786Y-18009786D01*
X7994071Y-18024072D01*
X8008357Y-18052643D01*
X8008357Y-18124072D01*
X7994071Y-18152643D01*
X7979786Y-18166929D01*
X7951214Y-18181214D01*
X7879786Y-18181214D01*
X7851214Y-18166929D01*
X7836928Y-18152643D01*
X8136928Y-18181214D02*
X8136928Y-17981214D01*
X8136928Y-18009786D02*
X8151214Y-17995500D01*
X8179786Y-17981214D01*
X8222643Y-17981214D01*
X8251214Y-17995500D01*
X8265500Y-18024072D01*
X8265500Y-18181214D01*
X8265500Y-18024072D02*
X8279786Y-17995500D01*
X8308357Y-17981214D01*
X8351214Y-17981214D01*
X8379786Y-17995500D01*
X8394071Y-18024072D01*
X8394071Y-18181214D01*
X8536928Y-18181214D02*
X8536928Y-17981214D01*
X8536928Y-18009786D02*
X8551214Y-17995500D01*
X8579786Y-17981214D01*
X8622643Y-17981214D01*
X8651214Y-17995500D01*
X8665500Y-18024072D01*
X8665500Y-18181214D01*
X8665500Y-18024072D02*
X8679786Y-17995500D01*
X8708357Y-17981214D01*
X8751214Y-17981214D01*
X8779786Y-17995500D01*
X8794071Y-18024072D01*
X8794071Y-18181214D01*
X9379786Y-17866929D02*
X9122643Y-18252643D01*
X9765500Y-17881214D02*
X9794071Y-17881214D01*
X9822643Y-17895500D01*
X9836928Y-17909786D01*
X9851214Y-17938357D01*
X9865500Y-17995500D01*
X9865500Y-18066929D01*
X9851214Y-18124072D01*
X9836928Y-18152643D01*
X9822643Y-18166929D01*
X9794071Y-18181214D01*
X9765500Y-18181214D01*
X9736928Y-18166929D01*
X9722643Y-18152643D01*
X9708357Y-18124072D01*
X9694071Y-18066929D01*
X9694071Y-17995500D01*
X9708357Y-17938357D01*
X9722643Y-17909786D01*
X9736928Y-17895500D01*
X9765500Y-17881214D01*
X9994071Y-18152643D02*
X10008357Y-18166929D01*
X9994071Y-18181214D01*
X9979786Y-18166929D01*
X9994071Y-18152643D01*
X9994071Y-18181214D01*
X10194071Y-17881214D02*
X10222643Y-17881214D01*
X10251214Y-17895500D01*
X10265500Y-17909786D01*
X10279786Y-17938357D01*
X10294071Y-17995500D01*
X10294071Y-18066929D01*
X10279786Y-18124072D01*
X10265500Y-18152643D01*
X10251214Y-18166929D01*
X10222643Y-18181214D01*
X10194071Y-18181214D01*
X10165500Y-18166929D01*
X10151214Y-18152643D01*
X10136928Y-18124072D01*
X10122643Y-18066929D01*
X10122643Y-17995500D01*
X10136928Y-17938357D01*
X10151214Y-17909786D01*
X10165500Y-17895500D01*
X10194071Y-17881214D01*
X10579786Y-18181214D02*
X10408357Y-18181214D01*
X10494071Y-18181214D02*
X10494071Y-17881214D01*
X10465500Y-17924072D01*
X10436928Y-17952643D01*
X10408357Y-17966929D01*
X10751214Y-18009786D02*
X10722643Y-17995500D01*
X10708357Y-17981214D01*
X10694071Y-17952643D01*
X10694071Y-17938357D01*
X10708357Y-17909786D01*
X10722643Y-17895500D01*
X10751214Y-17881214D01*
X10808357Y-17881214D01*
X10836928Y-17895500D01*
X10851214Y-17909786D01*
X10865500Y-17938357D01*
X10865500Y-17952643D01*
X10851214Y-17981214D01*
X10836928Y-17995500D01*
X10808357Y-18009786D01*
X10751214Y-18009786D01*
X10722643Y-18024072D01*
X10708357Y-18038357D01*
X10694071Y-18066929D01*
X10694071Y-18124072D01*
X10708357Y-18152643D01*
X10722643Y-18166929D01*
X10751214Y-18181214D01*
X10808357Y-18181214D01*
X10836928Y-18166929D01*
X10851214Y-18152643D01*
X10865500Y-18124072D01*
X10865500Y-18066929D01*
X10851214Y-18038357D01*
X10836928Y-18024072D01*
X10808357Y-18009786D01*
X10979786Y-17881214D02*
X10979786Y-17938357D01*
X11094071Y-17881214D02*
X11094071Y-17938357D01*
X11536928Y-18295500D02*
X11522643Y-18281214D01*
X11494071Y-18238357D01*
X11479786Y-18209786D01*
X11465500Y-18166929D01*
X11451214Y-18095500D01*
X11451214Y-18038357D01*
X11465500Y-17966929D01*
X11479786Y-17924072D01*
X11494071Y-17895500D01*
X11522643Y-17852643D01*
X11536928Y-17838357D01*
X11636928Y-17909786D02*
X11651214Y-17895500D01*
X11679786Y-17881214D01*
X11751214Y-17881214D01*
X11779786Y-17895500D01*
X11794071Y-17909786D01*
X11808357Y-17938357D01*
X11808357Y-17966929D01*
X11794071Y-18009786D01*
X11622643Y-18181214D01*
X11808357Y-18181214D01*
X12165500Y-18181214D02*
X12165500Y-17881214D01*
X12294071Y-18181214D02*
X12294071Y-18024072D01*
X12279786Y-17995500D01*
X12251214Y-17981214D01*
X12208357Y-17981214D01*
X12179786Y-17995500D01*
X12165500Y-18009786D01*
X12479786Y-18181214D02*
X12451214Y-18166929D01*
X12436928Y-18152643D01*
X12422643Y-18124072D01*
X12422643Y-18038357D01*
X12436928Y-18009786D01*
X12451214Y-17995500D01*
X12479786Y-17981214D01*
X12522643Y-17981214D01*
X12551214Y-17995500D01*
X12565500Y-18009786D01*
X12579786Y-18038357D01*
X12579786Y-18124072D01*
X12565500Y-18152643D01*
X12551214Y-18166929D01*
X12522643Y-18181214D01*
X12479786Y-18181214D01*
X12751214Y-18181214D02*
X12722643Y-18166929D01*
X12708357Y-18138357D01*
X12708357Y-17881214D01*
X12979786Y-18166929D02*
X12951214Y-18181214D01*
X12894071Y-18181214D01*
X12865500Y-18166929D01*
X12851214Y-18138357D01*
X12851214Y-18024072D01*
X12865500Y-17995500D01*
X12894071Y-17981214D01*
X12951214Y-17981214D01*
X12979786Y-17995500D01*
X12994071Y-18024072D01*
X12994071Y-18052643D01*
X12851214Y-18081214D01*
X13108357Y-18166929D02*
X13136928Y-18181214D01*
X13194071Y-18181214D01*
X13222643Y-18166929D01*
X13236928Y-18138357D01*
X13236928Y-18124072D01*
X13222643Y-18095500D01*
X13194071Y-18081214D01*
X13151214Y-18081214D01*
X13122643Y-18066929D01*
X13108357Y-18038357D01*
X13108357Y-18024072D01*
X13122643Y-17995500D01*
X13151214Y-17981214D01*
X13194071Y-17981214D01*
X13222643Y-17995500D01*
X13336928Y-18295500D02*
X13351214Y-18281214D01*
X13379786Y-18238357D01*
X13394071Y-18209786D01*
X13408357Y-18166929D01*
X13422643Y-18095500D01*
X13422643Y-18038357D01*
X13408357Y-17966929D01*
X13394071Y-17924072D01*
X13379786Y-17895500D01*
X13351214Y-17852643D01*
X13336928Y-17838357D01*
X13879786Y-18295500D02*
X13865500Y-18281214D01*
X13836928Y-18238357D01*
X13822643Y-18209786D01*
X13808357Y-18166929D01*
X13794071Y-18095500D01*
X13794071Y-18038357D01*
X13808357Y-17966929D01*
X13822643Y-17924072D01*
X13836928Y-17895500D01*
X13865500Y-17852643D01*
X13879786Y-17838357D01*
X13994071Y-17981214D02*
X13994071Y-18181214D01*
X13994071Y-18009786D02*
X14008357Y-17995500D01*
X14036928Y-17981214D01*
X14079786Y-17981214D01*
X14108357Y-17995500D01*
X14122643Y-18024072D01*
X14122643Y-18181214D01*
X14308357Y-18181214D02*
X14279786Y-18166929D01*
X14265500Y-18152643D01*
X14251214Y-18124072D01*
X14251214Y-18038357D01*
X14265500Y-18009786D01*
X14279786Y-17995500D01*
X14308357Y-17981214D01*
X14351214Y-17981214D01*
X14379786Y-17995500D01*
X14394071Y-18009786D01*
X14408357Y-18038357D01*
X14408357Y-18124072D01*
X14394071Y-18152643D01*
X14379786Y-18166929D01*
X14351214Y-18181214D01*
X14308357Y-18181214D01*
X14494071Y-17981214D02*
X14608357Y-17981214D01*
X14536928Y-17881214D02*
X14536928Y-18138357D01*
X14551214Y-18166929D01*
X14579786Y-18181214D01*
X14608357Y-18181214D01*
X14936928Y-17981214D02*
X14936928Y-18281214D01*
X14936928Y-17995500D02*
X14965500Y-17981214D01*
X15022643Y-17981214D01*
X15051214Y-17995500D01*
X15065500Y-18009786D01*
X15079786Y-18038357D01*
X15079786Y-18124072D01*
X15065500Y-18152643D01*
X15051214Y-18166929D01*
X15022643Y-18181214D01*
X14965500Y-18181214D01*
X14936928Y-18166929D01*
X15251214Y-18181214D02*
X15222643Y-18166929D01*
X15208357Y-18138357D01*
X15208357Y-17881214D01*
X15494071Y-18181214D02*
X15494071Y-18024072D01*
X15479786Y-17995500D01*
X15451214Y-17981214D01*
X15394071Y-17981214D01*
X15365500Y-17995500D01*
X15494071Y-18166929D02*
X15465500Y-18181214D01*
X15394071Y-18181214D01*
X15365500Y-18166929D01*
X15351214Y-18138357D01*
X15351214Y-18109786D01*
X15365500Y-18081214D01*
X15394071Y-18066929D01*
X15465500Y-18066929D01*
X15494071Y-18052643D01*
X15594071Y-17981214D02*
X15708357Y-17981214D01*
X15636928Y-17881214D02*
X15636928Y-18138357D01*
X15651214Y-18166929D01*
X15679786Y-18181214D01*
X15708357Y-18181214D01*
X15922643Y-18166929D02*
X15894071Y-18181214D01*
X15836928Y-18181214D01*
X15808357Y-18166929D01*
X15794071Y-18138357D01*
X15794071Y-18024072D01*
X15808357Y-17995500D01*
X15836928Y-17981214D01*
X15894071Y-17981214D01*
X15922643Y-17995500D01*
X15936928Y-18024072D01*
X15936928Y-18052643D01*
X15794071Y-18081214D01*
X16194071Y-18181214D02*
X16194071Y-17881214D01*
X16194071Y-18166929D02*
X16165500Y-18181214D01*
X16108357Y-18181214D01*
X16079786Y-18166929D01*
X16065500Y-18152643D01*
X16051214Y-18124072D01*
X16051214Y-18038357D01*
X16065500Y-18009786D01*
X16079786Y-17995500D01*
X16108357Y-17981214D01*
X16165500Y-17981214D01*
X16194071Y-17995500D01*
X16308357Y-18295500D02*
X16322643Y-18281214D01*
X16351214Y-18238357D01*
X16365500Y-18209786D01*
X16379786Y-18166929D01*
X16394071Y-18095500D01*
X16394071Y-18038357D01*
X16379786Y-17966929D01*
X16365500Y-17924072D01*
X16351214Y-17895500D01*
X16322643Y-17852643D01*
X16308357Y-17838357D01*
X6649840Y-18341170D02*
X6850500Y-18541830D01*
X6850500Y-18341170D02*
X6649840Y-18541830D01*
X6850500Y-18441500D02*
G75*
G03*
X6850500Y-18441500I-100330J0D01*
G01*
X7122643Y-18305786D02*
X7136928Y-18291500D01*
X7165500Y-18277214D01*
X7236928Y-18277214D01*
X7265500Y-18291500D01*
X7279786Y-18305786D01*
X7294071Y-18334357D01*
X7294071Y-18362929D01*
X7279786Y-18405786D01*
X7108357Y-18577214D01*
X7294071Y-18577214D01*
X7422643Y-18548643D02*
X7436928Y-18562929D01*
X7422643Y-18577214D01*
X7408357Y-18562929D01*
X7422643Y-18548643D01*
X7422643Y-18577214D01*
X7622643Y-18277214D02*
X7651214Y-18277214D01*
X7679786Y-18291500D01*
X7694071Y-18305786D01*
X7708357Y-18334357D01*
X7722643Y-18391500D01*
X7722643Y-18462929D01*
X7708357Y-18520072D01*
X7694071Y-18548643D01*
X7679786Y-18562929D01*
X7651214Y-18577214D01*
X7622643Y-18577214D01*
X7594071Y-18562929D01*
X7579786Y-18548643D01*
X7565500Y-18520072D01*
X7551214Y-18462929D01*
X7551214Y-18391500D01*
X7565500Y-18334357D01*
X7579786Y-18305786D01*
X7594071Y-18291500D01*
X7622643Y-18277214D01*
X8008357Y-18577214D02*
X7836928Y-18577214D01*
X7922643Y-18577214D02*
X7922643Y-18277214D01*
X7894071Y-18320072D01*
X7865500Y-18348643D01*
X7836928Y-18362929D01*
X8136928Y-18577214D02*
X8136928Y-18377214D01*
X8136928Y-18405786D02*
X8151214Y-18391500D01*
X8179786Y-18377214D01*
X8222643Y-18377214D01*
X8251214Y-18391500D01*
X8265500Y-18420072D01*
X8265500Y-18577214D01*
X8265500Y-18420072D02*
X8279786Y-18391500D01*
X8308357Y-18377214D01*
X8351214Y-18377214D01*
X8379786Y-18391500D01*
X8394071Y-18420072D01*
X8394071Y-18577214D01*
X8536928Y-18577214D02*
X8536928Y-18377214D01*
X8536928Y-18405786D02*
X8551214Y-18391500D01*
X8579786Y-18377214D01*
X8622643Y-18377214D01*
X8651214Y-18391500D01*
X8665500Y-18420072D01*
X8665500Y-18577214D01*
X8665500Y-18420072D02*
X8679786Y-18391500D01*
X8708357Y-18377214D01*
X8751214Y-18377214D01*
X8779786Y-18391500D01*
X8794071Y-18420072D01*
X8794071Y-18577214D01*
X9379786Y-18262929D02*
X9122643Y-18648643D01*
X9765500Y-18277214D02*
X9794071Y-18277214D01*
X9822643Y-18291500D01*
X9836928Y-18305786D01*
X9851214Y-18334357D01*
X9865500Y-18391500D01*
X9865500Y-18462929D01*
X9851214Y-18520072D01*
X9836928Y-18548643D01*
X9822643Y-18562929D01*
X9794071Y-18577214D01*
X9765500Y-18577214D01*
X9736928Y-18562929D01*
X9722643Y-18548643D01*
X9708357Y-18520072D01*
X9694071Y-18462929D01*
X9694071Y-18391500D01*
X9708357Y-18334357D01*
X9722643Y-18305786D01*
X9736928Y-18291500D01*
X9765500Y-18277214D01*
X9994071Y-18548643D02*
X10008357Y-18562929D01*
X9994071Y-18577214D01*
X9979786Y-18562929D01*
X9994071Y-18548643D01*
X9994071Y-18577214D01*
X10194071Y-18277214D02*
X10222643Y-18277214D01*
X10251214Y-18291500D01*
X10265500Y-18305786D01*
X10279786Y-18334357D01*
X10294071Y-18391500D01*
X10294071Y-18462929D01*
X10279786Y-18520072D01*
X10265500Y-18548643D01*
X10251214Y-18562929D01*
X10222643Y-18577214D01*
X10194071Y-18577214D01*
X10165500Y-18562929D01*
X10151214Y-18548643D01*
X10136928Y-18520072D01*
X10122643Y-18462929D01*
X10122643Y-18391500D01*
X10136928Y-18334357D01*
X10151214Y-18305786D01*
X10165500Y-18291500D01*
X10194071Y-18277214D01*
X10394071Y-18277214D02*
X10594071Y-18277214D01*
X10465500Y-18577214D01*
X10722643Y-18577214D02*
X10779786Y-18577214D01*
X10808357Y-18562929D01*
X10822643Y-18548643D01*
X10851214Y-18505786D01*
X10865500Y-18448643D01*
X10865500Y-18334357D01*
X10851214Y-18305786D01*
X10836928Y-18291500D01*
X10808357Y-18277214D01*
X10751214Y-18277214D01*
X10722643Y-18291500D01*
X10708357Y-18305786D01*
X10694071Y-18334357D01*
X10694071Y-18405786D01*
X10708357Y-18434357D01*
X10722643Y-18448643D01*
X10751214Y-18462929D01*
X10808357Y-18462929D01*
X10836928Y-18448643D01*
X10851214Y-18434357D01*
X10865500Y-18405786D01*
X10979786Y-18277214D02*
X10979786Y-18334357D01*
X11094071Y-18277214D02*
X11094071Y-18334357D01*
X11536928Y-18691500D02*
X11522643Y-18677214D01*
X11494071Y-18634357D01*
X11479786Y-18605786D01*
X11465500Y-18562929D01*
X11451214Y-18491500D01*
X11451214Y-18434357D01*
X11465500Y-18362929D01*
X11479786Y-18320072D01*
X11494071Y-18291500D01*
X11522643Y-18248643D01*
X11536928Y-18234357D01*
X11779786Y-18377214D02*
X11779786Y-18577214D01*
X11708357Y-18262929D02*
X11636928Y-18477214D01*
X11822643Y-18477214D01*
X12165500Y-18577214D02*
X12165500Y-18277214D01*
X12294071Y-18577214D02*
X12294071Y-18420072D01*
X12279786Y-18391500D01*
X12251214Y-18377214D01*
X12208357Y-18377214D01*
X12179786Y-18391500D01*
X12165500Y-18405786D01*
X12479786Y-18577214D02*
X12451214Y-18562929D01*
X12436928Y-18548643D01*
X12422643Y-18520072D01*
X12422643Y-18434357D01*
X12436928Y-18405786D01*
X12451214Y-18391500D01*
X12479786Y-18377214D01*
X12522643Y-18377214D01*
X12551214Y-18391500D01*
X12565500Y-18405786D01*
X12579786Y-18434357D01*
X12579786Y-18520072D01*
X12565500Y-18548643D01*
X12551214Y-18562929D01*
X12522643Y-18577214D01*
X12479786Y-18577214D01*
X12751214Y-18577214D02*
X12722643Y-18562929D01*
X12708357Y-18534357D01*
X12708357Y-18277214D01*
X12979786Y-18562929D02*
X12951214Y-18577214D01*
X12894071Y-18577214D01*
X12865500Y-18562929D01*
X12851214Y-18534357D01*
X12851214Y-18420072D01*
X12865500Y-18391500D01*
X12894071Y-18377214D01*
X12951214Y-18377214D01*
X12979786Y-18391500D01*
X12994071Y-18420072D01*
X12994071Y-18448643D01*
X12851214Y-18477214D01*
X13108357Y-18562929D02*
X13136928Y-18577214D01*
X13194071Y-18577214D01*
X13222643Y-18562929D01*
X13236928Y-18534357D01*
X13236928Y-18520072D01*
X13222643Y-18491500D01*
X13194071Y-18477214D01*
X13151214Y-18477214D01*
X13122643Y-18462929D01*
X13108357Y-18434357D01*
X13108357Y-18420072D01*
X13122643Y-18391500D01*
X13151214Y-18377214D01*
X13194071Y-18377214D01*
X13222643Y-18391500D01*
X13336928Y-18691500D02*
X13351214Y-18677214D01*
X13379786Y-18634357D01*
X13394071Y-18605786D01*
X13408357Y-18562929D01*
X13422643Y-18491500D01*
X13422643Y-18434357D01*
X13408357Y-18362929D01*
X13394071Y-18320072D01*
X13379786Y-18291500D01*
X13351214Y-18248643D01*
X13336928Y-18234357D01*
X13879786Y-18691500D02*
X13865500Y-18677214D01*
X13836928Y-18634357D01*
X13822643Y-18605786D01*
X13808357Y-18562929D01*
X13794071Y-18491500D01*
X13794071Y-18434357D01*
X13808357Y-18362929D01*
X13822643Y-18320072D01*
X13836928Y-18291500D01*
X13865500Y-18248643D01*
X13879786Y-18234357D01*
X13994071Y-18377214D02*
X13994071Y-18577214D01*
X13994071Y-18405786D02*
X14008357Y-18391500D01*
X14036928Y-18377214D01*
X14079786Y-18377214D01*
X14108357Y-18391500D01*
X14122643Y-18420072D01*
X14122643Y-18577214D01*
X14308357Y-18577214D02*
X14279786Y-18562929D01*
X14265500Y-18548643D01*
X14251214Y-18520072D01*
X14251214Y-18434357D01*
X14265500Y-18405786D01*
X14279786Y-18391500D01*
X14308357Y-18377214D01*
X14351214Y-18377214D01*
X14379786Y-18391500D01*
X14394071Y-18405786D01*
X14408357Y-18434357D01*
X14408357Y-18520072D01*
X14394071Y-18548643D01*
X14379786Y-18562929D01*
X14351214Y-18577214D01*
X14308357Y-18577214D01*
X14494071Y-18377214D02*
X14608357Y-18377214D01*
X14536928Y-18277214D02*
X14536928Y-18534357D01*
X14551214Y-18562929D01*
X14579786Y-18577214D01*
X14608357Y-18577214D01*
X14936928Y-18377214D02*
X14936928Y-18677214D01*
X14936928Y-18391500D02*
X14965500Y-18377214D01*
X15022643Y-18377214D01*
X15051214Y-18391500D01*
X15065500Y-18405786D01*
X15079786Y-18434357D01*
X15079786Y-18520072D01*
X15065500Y-18548643D01*
X15051214Y-18562929D01*
X15022643Y-18577214D01*
X14965500Y-18577214D01*
X14936928Y-18562929D01*
X15251214Y-18577214D02*
X15222643Y-18562929D01*
X15208357Y-18534357D01*
X15208357Y-18277214D01*
X15494071Y-18577214D02*
X15494071Y-18420072D01*
X15479786Y-18391500D01*
X15451214Y-18377214D01*
X15394071Y-18377214D01*
X15365500Y-18391500D01*
X15494071Y-18562929D02*
X15465500Y-18577214D01*
X15394071Y-18577214D01*
X15365500Y-18562929D01*
X15351214Y-18534357D01*
X15351214Y-18505786D01*
X15365500Y-18477214D01*
X15394071Y-18462929D01*
X15465500Y-18462929D01*
X15494071Y-18448643D01*
X15594071Y-18377214D02*
X15708357Y-18377214D01*
X15636928Y-18277214D02*
X15636928Y-18534357D01*
X15651214Y-18562929D01*
X15679786Y-18577214D01*
X15708357Y-18577214D01*
X15922643Y-18562929D02*
X15894071Y-18577214D01*
X15836928Y-18577214D01*
X15808357Y-18562929D01*
X15794071Y-18534357D01*
X15794071Y-18420072D01*
X15808357Y-18391500D01*
X15836928Y-18377214D01*
X15894071Y-18377214D01*
X15922643Y-18391500D01*
X15936928Y-18420072D01*
X15936928Y-18448643D01*
X15794071Y-18477214D01*
X16194071Y-18577214D02*
X16194071Y-18277214D01*
X16194071Y-18562929D02*
X16165500Y-18577214D01*
X16108357Y-18577214D01*
X16079786Y-18562929D01*
X16065500Y-18548643D01*
X16051214Y-18520072D01*
X16051214Y-18434357D01*
X16065500Y-18405786D01*
X16079786Y-18391500D01*
X16108357Y-18377214D01*
X16165500Y-18377214D01*
X16194071Y-18391500D01*
X16308357Y-18691500D02*
X16322643Y-18677214D01*
X16351214Y-18634357D01*
X16365500Y-18605786D01*
X16379786Y-18562929D01*
X16394071Y-18491500D01*
X16394071Y-18434357D01*
X16379786Y-18362929D01*
X16365500Y-18320072D01*
X16351214Y-18291500D01*
X16322643Y-18248643D01*
X16308357Y-18234357D01*
X6530500Y-18677500D02*
X6850500Y-18997500D01*
X6850500Y-18677500D02*
X6530500Y-18997500D01*
X6690500Y-18677500D02*
X6690500Y-18997500D01*
X6530500Y-18837500D02*
X6850500Y-18837500D01*
X7108357Y-18673214D02*
X7294071Y-18673214D01*
X7194071Y-18787500D01*
X7236928Y-18787500D01*
X7265500Y-18801786D01*
X7279786Y-18816072D01*
X7294071Y-18844643D01*
X7294071Y-18916072D01*
X7279786Y-18944643D01*
X7265500Y-18958929D01*
X7236928Y-18973214D01*
X7151214Y-18973214D01*
X7122643Y-18958929D01*
X7108357Y-18944643D01*
X7422643Y-18944643D02*
X7436928Y-18958929D01*
X7422643Y-18973214D01*
X7408357Y-18958929D01*
X7422643Y-18944643D01*
X7422643Y-18973214D01*
X7551214Y-18701786D02*
X7565500Y-18687500D01*
X7594071Y-18673214D01*
X7665500Y-18673214D01*
X7694071Y-18687500D01*
X7708357Y-18701786D01*
X7722643Y-18730357D01*
X7722643Y-18758929D01*
X7708357Y-18801786D01*
X7536928Y-18973214D01*
X7722643Y-18973214D01*
X7908357Y-18673214D02*
X7936928Y-18673214D01*
X7965500Y-18687500D01*
X7979786Y-18701786D01*
X7994071Y-18730357D01*
X8008357Y-18787500D01*
X8008357Y-18858929D01*
X7994071Y-18916072D01*
X7979786Y-18944643D01*
X7965500Y-18958929D01*
X7936928Y-18973214D01*
X7908357Y-18973214D01*
X7879786Y-18958929D01*
X7865500Y-18944643D01*
X7851214Y-18916072D01*
X7836928Y-18858929D01*
X7836928Y-18787500D01*
X7851214Y-18730357D01*
X7865500Y-18701786D01*
X7879786Y-18687500D01*
X7908357Y-18673214D01*
X8136928Y-18973214D02*
X8136928Y-18773214D01*
X8136928Y-18801786D02*
X8151214Y-18787500D01*
X8179786Y-18773214D01*
X8222643Y-18773214D01*
X8251214Y-18787500D01*
X8265500Y-18816072D01*
X8265500Y-18973214D01*
X8265500Y-18816072D02*
X8279786Y-18787500D01*
X8308357Y-18773214D01*
X8351214Y-18773214D01*
X8379786Y-18787500D01*
X8394071Y-18816072D01*
X8394071Y-18973214D01*
X8536928Y-18973214D02*
X8536928Y-18773214D01*
X8536928Y-18801786D02*
X8551214Y-18787500D01*
X8579786Y-18773214D01*
X8622643Y-18773214D01*
X8651214Y-18787500D01*
X8665500Y-18816072D01*
X8665500Y-18973214D01*
X8665500Y-18816072D02*
X8679786Y-18787500D01*
X8708357Y-18773214D01*
X8751214Y-18773214D01*
X8779786Y-18787500D01*
X8794071Y-18816072D01*
X8794071Y-18973214D01*
X9379786Y-18658929D02*
X9122643Y-19044643D01*
X9765500Y-18673214D02*
X9794071Y-18673214D01*
X9822643Y-18687500D01*
X9836928Y-18701786D01*
X9851214Y-18730357D01*
X9865500Y-18787500D01*
X9865500Y-18858929D01*
X9851214Y-18916072D01*
X9836928Y-18944643D01*
X9822643Y-18958929D01*
X9794071Y-18973214D01*
X9765500Y-18973214D01*
X9736928Y-18958929D01*
X9722643Y-18944643D01*
X9708357Y-18916072D01*
X9694071Y-18858929D01*
X9694071Y-18787500D01*
X9708357Y-18730357D01*
X9722643Y-18701786D01*
X9736928Y-18687500D01*
X9765500Y-18673214D01*
X9994071Y-18944643D02*
X10008357Y-18958929D01*
X9994071Y-18973214D01*
X9979786Y-18958929D01*
X9994071Y-18944643D01*
X9994071Y-18973214D01*
X10294071Y-18973214D02*
X10122643Y-18973214D01*
X10208357Y-18973214D02*
X10208357Y-18673214D01*
X10179786Y-18716072D01*
X10151214Y-18744643D01*
X10122643Y-18758929D01*
X10408357Y-18701786D02*
X10422643Y-18687500D01*
X10451214Y-18673214D01*
X10522643Y-18673214D01*
X10551214Y-18687500D01*
X10565500Y-18701786D01*
X10579786Y-18730357D01*
X10579786Y-18758929D01*
X10565500Y-18801786D01*
X10394071Y-18973214D01*
X10579786Y-18973214D01*
X10836928Y-18673214D02*
X10779786Y-18673214D01*
X10751214Y-18687500D01*
X10736928Y-18701786D01*
X10708357Y-18744643D01*
X10694071Y-18801786D01*
X10694071Y-18916072D01*
X10708357Y-18944643D01*
X10722643Y-18958929D01*
X10751214Y-18973214D01*
X10808357Y-18973214D01*
X10836928Y-18958929D01*
X10851214Y-18944643D01*
X10865500Y-18916072D01*
X10865500Y-18844643D01*
X10851214Y-18816072D01*
X10836928Y-18801786D01*
X10808357Y-18787500D01*
X10751214Y-18787500D01*
X10722643Y-18801786D01*
X10708357Y-18816072D01*
X10694071Y-18844643D01*
X10979786Y-18673214D02*
X10979786Y-18730357D01*
X11094071Y-18673214D02*
X11094071Y-18730357D01*
X11536928Y-19087500D02*
X11522643Y-19073214D01*
X11494071Y-19030357D01*
X11479786Y-19001786D01*
X11465500Y-18958929D01*
X11451214Y-18887500D01*
X11451214Y-18830357D01*
X11465500Y-18758929D01*
X11479786Y-18716072D01*
X11494071Y-18687500D01*
X11522643Y-18644643D01*
X11536928Y-18630357D01*
X11779786Y-18773214D02*
X11779786Y-18973214D01*
X11708357Y-18658929D02*
X11636928Y-18873214D01*
X11822643Y-18873214D01*
X12165500Y-18973214D02*
X12165500Y-18673214D01*
X12294071Y-18973214D02*
X12294071Y-18816072D01*
X12279786Y-18787500D01*
X12251214Y-18773214D01*
X12208357Y-18773214D01*
X12179786Y-18787500D01*
X12165500Y-18801786D01*
X12479786Y-18973214D02*
X12451214Y-18958929D01*
X12436928Y-18944643D01*
X12422643Y-18916072D01*
X12422643Y-18830357D01*
X12436928Y-18801786D01*
X12451214Y-18787500D01*
X12479786Y-18773214D01*
X12522643Y-18773214D01*
X12551214Y-18787500D01*
X12565500Y-18801786D01*
X12579786Y-18830357D01*
X12579786Y-18916072D01*
X12565500Y-18944643D01*
X12551214Y-18958929D01*
X12522643Y-18973214D01*
X12479786Y-18973214D01*
X12751214Y-18973214D02*
X12722643Y-18958929D01*
X12708357Y-18930357D01*
X12708357Y-18673214D01*
X12979786Y-18958929D02*
X12951214Y-18973214D01*
X12894071Y-18973214D01*
X12865500Y-18958929D01*
X12851214Y-18930357D01*
X12851214Y-18816072D01*
X12865500Y-18787500D01*
X12894071Y-18773214D01*
X12951214Y-18773214D01*
X12979786Y-18787500D01*
X12994071Y-18816072D01*
X12994071Y-18844643D01*
X12851214Y-18873214D01*
X13108357Y-18958929D02*
X13136928Y-18973214D01*
X13194071Y-18973214D01*
X13222643Y-18958929D01*
X13236928Y-18930357D01*
X13236928Y-18916072D01*
X13222643Y-18887500D01*
X13194071Y-18873214D01*
X13151214Y-18873214D01*
X13122643Y-18858929D01*
X13108357Y-18830357D01*
X13108357Y-18816072D01*
X13122643Y-18787500D01*
X13151214Y-18773214D01*
X13194071Y-18773214D01*
X13222643Y-18787500D01*
X13336928Y-19087500D02*
X13351214Y-19073214D01*
X13379786Y-19030357D01*
X13394071Y-19001786D01*
X13408357Y-18958929D01*
X13422643Y-18887500D01*
X13422643Y-18830357D01*
X13408357Y-18758929D01*
X13394071Y-18716072D01*
X13379786Y-18687500D01*
X13351214Y-18644643D01*
X13336928Y-18630357D01*
X13879786Y-19087500D02*
X13865500Y-19073214D01*
X13836928Y-19030357D01*
X13822643Y-19001786D01*
X13808357Y-18958929D01*
X13794071Y-18887500D01*
X13794071Y-18830357D01*
X13808357Y-18758929D01*
X13822643Y-18716072D01*
X13836928Y-18687500D01*
X13865500Y-18644643D01*
X13879786Y-18630357D01*
X13994071Y-18773214D02*
X13994071Y-18973214D01*
X13994071Y-18801786D02*
X14008357Y-18787500D01*
X14036928Y-18773214D01*
X14079786Y-18773214D01*
X14108357Y-18787500D01*
X14122643Y-18816072D01*
X14122643Y-18973214D01*
X14308357Y-18973214D02*
X14279786Y-18958929D01*
X14265500Y-18944643D01*
X14251214Y-18916072D01*
X14251214Y-18830357D01*
X14265500Y-18801786D01*
X14279786Y-18787500D01*
X14308357Y-18773214D01*
X14351214Y-18773214D01*
X14379786Y-18787500D01*
X14394071Y-18801786D01*
X14408357Y-18830357D01*
X14408357Y-18916072D01*
X14394071Y-18944643D01*
X14379786Y-18958929D01*
X14351214Y-18973214D01*
X14308357Y-18973214D01*
X14494071Y-18773214D02*
X14608357Y-18773214D01*
X14536928Y-18673214D02*
X14536928Y-18930357D01*
X14551214Y-18958929D01*
X14579786Y-18973214D01*
X14608357Y-18973214D01*
X14936928Y-18773214D02*
X14936928Y-19073214D01*
X14936928Y-18787500D02*
X14965500Y-18773214D01*
X15022643Y-18773214D01*
X15051214Y-18787500D01*
X15065500Y-18801786D01*
X15079786Y-18830357D01*
X15079786Y-18916072D01*
X15065500Y-18944643D01*
X15051214Y-18958929D01*
X15022643Y-18973214D01*
X14965500Y-18973214D01*
X14936928Y-18958929D01*
X15251214Y-18973214D02*
X15222643Y-18958929D01*
X15208357Y-18930357D01*
X15208357Y-18673214D01*
X15494071Y-18973214D02*
X15494071Y-18816072D01*
X15479786Y-18787500D01*
X15451214Y-18773214D01*
X15394071Y-18773214D01*
X15365500Y-18787500D01*
X15494071Y-18958929D02*
X15465500Y-18973214D01*
X15394071Y-18973214D01*
X15365500Y-18958929D01*
X15351214Y-18930357D01*
X15351214Y-18901786D01*
X15365500Y-18873214D01*
X15394071Y-18858929D01*
X15465500Y-18858929D01*
X15494071Y-18844643D01*
X15594071Y-18773214D02*
X15708357Y-18773214D01*
X15636928Y-18673214D02*
X15636928Y-18930357D01*
X15651214Y-18958929D01*
X15679786Y-18973214D01*
X15708357Y-18973214D01*
X15922643Y-18958929D02*
X15894071Y-18973214D01*
X15836928Y-18973214D01*
X15808357Y-18958929D01*
X15794071Y-18930357D01*
X15794071Y-18816072D01*
X15808357Y-18787500D01*
X15836928Y-18773214D01*
X15894071Y-18773214D01*
X15922643Y-18787500D01*
X15936928Y-18816072D01*
X15936928Y-18844643D01*
X15794071Y-18873214D01*
X16194071Y-18973214D02*
X16194071Y-18673214D01*
X16194071Y-18958929D02*
X16165500Y-18973214D01*
X16108357Y-18973214D01*
X16079786Y-18958929D01*
X16065500Y-18944643D01*
X16051214Y-18916072D01*
X16051214Y-18830357D01*
X16065500Y-18801786D01*
X16079786Y-18787500D01*
X16108357Y-18773214D01*
X16165500Y-18773214D01*
X16194071Y-18787500D01*
X16308357Y-19087500D02*
X16322643Y-19073214D01*
X16351214Y-19030357D01*
X16365500Y-19001786D01*
X16379786Y-18958929D01*
X16394071Y-18887500D01*
X16394071Y-18830357D01*
X16379786Y-18758929D01*
X16365500Y-18716072D01*
X16351214Y-18687500D01*
X16322643Y-18644643D01*
X16308357Y-18630357D01*
M02*
