%TF.GenerationSoftware,KiCad,Pcbnew,(5.1.6)-1*%
%TF.CreationDate,2021-08-19T23:31:00-04:00*%
%TF.ProjectId,Temp_Control_Board,54656d70-5f43-46f6-9e74-726f6c5f426f,rev?*%
%TF.SameCoordinates,Original*%
%TF.FileFunction,Copper,L2,Bot*%
%TF.FilePolarity,Positive*%
%FSLAX46Y46*%
G04 Gerber Fmt 4.6, Leading zero omitted, Abs format (unit mm)*
G04 Created by KiCad (PCBNEW (5.1.6)-1) date 2021-08-19 23:31:00*
%MOMM*%
%LPD*%
G01*
G04 APERTURE LIST*
%TA.AperFunction,EtchedComponent*%
%ADD10C,0.001000*%
%TD*%
%TA.AperFunction,ComponentPad*%
%ADD11O,1.700000X1.700000*%
%TD*%
%TA.AperFunction,ComponentPad*%
%ADD12R,1.700000X1.700000*%
%TD*%
%TA.AperFunction,WasherPad*%
%ADD13C,3.810000*%
%TD*%
%TA.AperFunction,ComponentPad*%
%ADD14C,1.500000*%
%TD*%
%TA.AperFunction,ComponentPad*%
%ADD15C,3.000000*%
%TD*%
%TA.AperFunction,ComponentPad*%
%ADD16R,3.000000X3.000000*%
%TD*%
%TA.AperFunction,ViaPad*%
%ADD17C,0.762000*%
%TD*%
%TA.AperFunction,Conductor*%
%ADD18C,0.381000*%
%TD*%
%TA.AperFunction,Conductor*%
%ADD19C,0.177800*%
%TD*%
%TA.AperFunction,Conductor*%
%ADD20C,0.254000*%
%TD*%
G04 APERTURE END LIST*
D10*
%TO.C,J3*%
G36*
X135880000Y-105537000D02*
G01*
X135880000Y-105937000D01*
X135879692Y-105948776D01*
X135878767Y-105960519D01*
X135877230Y-105972198D01*
X135875083Y-105983780D01*
X135872333Y-105995234D01*
X135868988Y-106006529D01*
X135865056Y-106017633D01*
X135860548Y-106028516D01*
X135855476Y-106039148D01*
X135849856Y-106049500D01*
X135843701Y-106059544D01*
X135837029Y-106069252D01*
X135829858Y-106078597D01*
X135822208Y-106087554D01*
X135814099Y-106096099D01*
X135805554Y-106104208D01*
X135796597Y-106111858D01*
X135787252Y-106119029D01*
X135777544Y-106125701D01*
X135767500Y-106131856D01*
X135757148Y-106137476D01*
X135746516Y-106142548D01*
X135735633Y-106147056D01*
X135724529Y-106150988D01*
X135713234Y-106154333D01*
X135701780Y-106157083D01*
X135690198Y-106159230D01*
X135678519Y-106160767D01*
X135666776Y-106161692D01*
X135655000Y-106162000D01*
X135643224Y-106161692D01*
X135631481Y-106160767D01*
X135619802Y-106159230D01*
X135608220Y-106157083D01*
X135596766Y-106154333D01*
X135585471Y-106150988D01*
X135574367Y-106147056D01*
X135563484Y-106142548D01*
X135552852Y-106137476D01*
X135542500Y-106131856D01*
X135532456Y-106125701D01*
X135522748Y-106119029D01*
X135513403Y-106111858D01*
X135504446Y-106104208D01*
X135495901Y-106096099D01*
X135487792Y-106087554D01*
X135480142Y-106078597D01*
X135472971Y-106069252D01*
X135466299Y-106059544D01*
X135460144Y-106049500D01*
X135454524Y-106039148D01*
X135449452Y-106028516D01*
X135444944Y-106017633D01*
X135441012Y-106006529D01*
X135437667Y-105995234D01*
X135434917Y-105983780D01*
X135432770Y-105972198D01*
X135431233Y-105960519D01*
X135430308Y-105948776D01*
X135430000Y-105937000D01*
X135430000Y-105537000D01*
X135130000Y-105537000D01*
X135130000Y-105887000D01*
X135129432Y-105912000D01*
X135130187Y-105940814D01*
X135132448Y-105969550D01*
X135136211Y-105998128D01*
X135141463Y-106026470D01*
X135148192Y-106054497D01*
X135156379Y-106082135D01*
X135166001Y-106109306D01*
X135177031Y-106135936D01*
X135189440Y-106161953D01*
X135203194Y-106187284D01*
X135218255Y-106211861D01*
X135234581Y-106235616D01*
X135252128Y-106258484D01*
X135270848Y-106280402D01*
X135290690Y-106301310D01*
X135311598Y-106321152D01*
X135333516Y-106339872D01*
X135356384Y-106357419D01*
X135380139Y-106373745D01*
X135404716Y-106388806D01*
X135430047Y-106402560D01*
X135456064Y-106414969D01*
X135482694Y-106425999D01*
X135509865Y-106435621D01*
X135537503Y-106443808D01*
X135565530Y-106450537D01*
X135593872Y-106455789D01*
X135622450Y-106459552D01*
X135655000Y-106462000D01*
X135682476Y-106461281D01*
X135709877Y-106459124D01*
X135737128Y-106455536D01*
X135764154Y-106450527D01*
X135790880Y-106444111D01*
X135817234Y-106436305D01*
X135843143Y-106427130D01*
X135868537Y-106416611D01*
X135893345Y-106404778D01*
X135917500Y-106391663D01*
X135940935Y-106377302D01*
X135963587Y-106361734D01*
X135985393Y-106345002D01*
X136006294Y-106327151D01*
X136026231Y-106308231D01*
X136045151Y-106288294D01*
X136063002Y-106267393D01*
X136079734Y-106245587D01*
X136095302Y-106222935D01*
X136109663Y-106199500D01*
X136122778Y-106175345D01*
X136134611Y-106150537D01*
X136145130Y-106125143D01*
X136154305Y-106099234D01*
X136162111Y-106072880D01*
X136168527Y-106046154D01*
X136173536Y-106019128D01*
X136177124Y-105991877D01*
X136179281Y-105964476D01*
X136180000Y-105937000D01*
X136180000Y-105537000D01*
X135880000Y-105537000D01*
G37*
X135880000Y-105537000D02*
X135880000Y-105937000D01*
X135879692Y-105948776D01*
X135878767Y-105960519D01*
X135877230Y-105972198D01*
X135875083Y-105983780D01*
X135872333Y-105995234D01*
X135868988Y-106006529D01*
X135865056Y-106017633D01*
X135860548Y-106028516D01*
X135855476Y-106039148D01*
X135849856Y-106049500D01*
X135843701Y-106059544D01*
X135837029Y-106069252D01*
X135829858Y-106078597D01*
X135822208Y-106087554D01*
X135814099Y-106096099D01*
X135805554Y-106104208D01*
X135796597Y-106111858D01*
X135787252Y-106119029D01*
X135777544Y-106125701D01*
X135767500Y-106131856D01*
X135757148Y-106137476D01*
X135746516Y-106142548D01*
X135735633Y-106147056D01*
X135724529Y-106150988D01*
X135713234Y-106154333D01*
X135701780Y-106157083D01*
X135690198Y-106159230D01*
X135678519Y-106160767D01*
X135666776Y-106161692D01*
X135655000Y-106162000D01*
X135643224Y-106161692D01*
X135631481Y-106160767D01*
X135619802Y-106159230D01*
X135608220Y-106157083D01*
X135596766Y-106154333D01*
X135585471Y-106150988D01*
X135574367Y-106147056D01*
X135563484Y-106142548D01*
X135552852Y-106137476D01*
X135542500Y-106131856D01*
X135532456Y-106125701D01*
X135522748Y-106119029D01*
X135513403Y-106111858D01*
X135504446Y-106104208D01*
X135495901Y-106096099D01*
X135487792Y-106087554D01*
X135480142Y-106078597D01*
X135472971Y-106069252D01*
X135466299Y-106059544D01*
X135460144Y-106049500D01*
X135454524Y-106039148D01*
X135449452Y-106028516D01*
X135444944Y-106017633D01*
X135441012Y-106006529D01*
X135437667Y-105995234D01*
X135434917Y-105983780D01*
X135432770Y-105972198D01*
X135431233Y-105960519D01*
X135430308Y-105948776D01*
X135430000Y-105937000D01*
X135430000Y-105537000D01*
X135130000Y-105537000D01*
X135130000Y-105887000D01*
X135129432Y-105912000D01*
X135130187Y-105940814D01*
X135132448Y-105969550D01*
X135136211Y-105998128D01*
X135141463Y-106026470D01*
X135148192Y-106054497D01*
X135156379Y-106082135D01*
X135166001Y-106109306D01*
X135177031Y-106135936D01*
X135189440Y-106161953D01*
X135203194Y-106187284D01*
X135218255Y-106211861D01*
X135234581Y-106235616D01*
X135252128Y-106258484D01*
X135270848Y-106280402D01*
X135290690Y-106301310D01*
X135311598Y-106321152D01*
X135333516Y-106339872D01*
X135356384Y-106357419D01*
X135380139Y-106373745D01*
X135404716Y-106388806D01*
X135430047Y-106402560D01*
X135456064Y-106414969D01*
X135482694Y-106425999D01*
X135509865Y-106435621D01*
X135537503Y-106443808D01*
X135565530Y-106450537D01*
X135593872Y-106455789D01*
X135622450Y-106459552D01*
X135655000Y-106462000D01*
X135682476Y-106461281D01*
X135709877Y-106459124D01*
X135737128Y-106455536D01*
X135764154Y-106450527D01*
X135790880Y-106444111D01*
X135817234Y-106436305D01*
X135843143Y-106427130D01*
X135868537Y-106416611D01*
X135893345Y-106404778D01*
X135917500Y-106391663D01*
X135940935Y-106377302D01*
X135963587Y-106361734D01*
X135985393Y-106345002D01*
X136006294Y-106327151D01*
X136026231Y-106308231D01*
X136045151Y-106288294D01*
X136063002Y-106267393D01*
X136079734Y-106245587D01*
X136095302Y-106222935D01*
X136109663Y-106199500D01*
X136122778Y-106175345D01*
X136134611Y-106150537D01*
X136145130Y-106125143D01*
X136154305Y-106099234D01*
X136162111Y-106072880D01*
X136168527Y-106046154D01*
X136173536Y-106019128D01*
X136177124Y-105991877D01*
X136179281Y-105964476D01*
X136180000Y-105937000D01*
X136180000Y-105537000D01*
X135880000Y-105537000D01*
G36*
X135430000Y-105537000D02*
G01*
X135430000Y-105137000D01*
X135430308Y-105125224D01*
X135431233Y-105113481D01*
X135432770Y-105101802D01*
X135434917Y-105090220D01*
X135437667Y-105078766D01*
X135441012Y-105067471D01*
X135444944Y-105056367D01*
X135449452Y-105045484D01*
X135454524Y-105034852D01*
X135460144Y-105024500D01*
X135466299Y-105014456D01*
X135472971Y-105004748D01*
X135480142Y-104995403D01*
X135487792Y-104986446D01*
X135495901Y-104977901D01*
X135504446Y-104969792D01*
X135513403Y-104962142D01*
X135522748Y-104954971D01*
X135532456Y-104948299D01*
X135542500Y-104942144D01*
X135552852Y-104936524D01*
X135563484Y-104931452D01*
X135574367Y-104926944D01*
X135585471Y-104923012D01*
X135596766Y-104919667D01*
X135608220Y-104916917D01*
X135619802Y-104914770D01*
X135631481Y-104913233D01*
X135643224Y-104912308D01*
X135655000Y-104912000D01*
X135666776Y-104912308D01*
X135678519Y-104913233D01*
X135690198Y-104914770D01*
X135701780Y-104916917D01*
X135713234Y-104919667D01*
X135724529Y-104923012D01*
X135735633Y-104926944D01*
X135746516Y-104931452D01*
X135757148Y-104936524D01*
X135767500Y-104942144D01*
X135777544Y-104948299D01*
X135787252Y-104954971D01*
X135796597Y-104962142D01*
X135805554Y-104969792D01*
X135814099Y-104977901D01*
X135822208Y-104986446D01*
X135829858Y-104995403D01*
X135837029Y-105004748D01*
X135843701Y-105014456D01*
X135849856Y-105024500D01*
X135855476Y-105034852D01*
X135860548Y-105045484D01*
X135865056Y-105056367D01*
X135868988Y-105067471D01*
X135872333Y-105078766D01*
X135875083Y-105090220D01*
X135877230Y-105101802D01*
X135878767Y-105113481D01*
X135879692Y-105125224D01*
X135880000Y-105137000D01*
X135880000Y-105537000D01*
X136180000Y-105537000D01*
X136180000Y-105187000D01*
X136180568Y-105162000D01*
X136179813Y-105133186D01*
X136177552Y-105104450D01*
X136173789Y-105075872D01*
X136168537Y-105047530D01*
X136161808Y-105019503D01*
X136153621Y-104991865D01*
X136143999Y-104964694D01*
X136132969Y-104938064D01*
X136120560Y-104912047D01*
X136106806Y-104886716D01*
X136091745Y-104862139D01*
X136075419Y-104838384D01*
X136057872Y-104815516D01*
X136039152Y-104793598D01*
X136019310Y-104772690D01*
X135998402Y-104752848D01*
X135976484Y-104734128D01*
X135953616Y-104716581D01*
X135929861Y-104700255D01*
X135905284Y-104685194D01*
X135879953Y-104671440D01*
X135853936Y-104659031D01*
X135827306Y-104648001D01*
X135800135Y-104638379D01*
X135772497Y-104630192D01*
X135744470Y-104623463D01*
X135716128Y-104618211D01*
X135687550Y-104614448D01*
X135655000Y-104612000D01*
X135627524Y-104612719D01*
X135600123Y-104614876D01*
X135572872Y-104618464D01*
X135545846Y-104623473D01*
X135519120Y-104629889D01*
X135492766Y-104637695D01*
X135466857Y-104646870D01*
X135441463Y-104657389D01*
X135416655Y-104669222D01*
X135392500Y-104682337D01*
X135369065Y-104696698D01*
X135346413Y-104712266D01*
X135324607Y-104728998D01*
X135303706Y-104746849D01*
X135283769Y-104765769D01*
X135264849Y-104785706D01*
X135246998Y-104806607D01*
X135230266Y-104828413D01*
X135214698Y-104851065D01*
X135200337Y-104874500D01*
X135187222Y-104898655D01*
X135175389Y-104923463D01*
X135164870Y-104948857D01*
X135155695Y-104974766D01*
X135147889Y-105001120D01*
X135141473Y-105027846D01*
X135136464Y-105054872D01*
X135132876Y-105082123D01*
X135130719Y-105109524D01*
X135130000Y-105137000D01*
X135130000Y-105537000D01*
X135430000Y-105537000D01*
G37*
X135430000Y-105537000D02*
X135430000Y-105137000D01*
X135430308Y-105125224D01*
X135431233Y-105113481D01*
X135432770Y-105101802D01*
X135434917Y-105090220D01*
X135437667Y-105078766D01*
X135441012Y-105067471D01*
X135444944Y-105056367D01*
X135449452Y-105045484D01*
X135454524Y-105034852D01*
X135460144Y-105024500D01*
X135466299Y-105014456D01*
X135472971Y-105004748D01*
X135480142Y-104995403D01*
X135487792Y-104986446D01*
X135495901Y-104977901D01*
X135504446Y-104969792D01*
X135513403Y-104962142D01*
X135522748Y-104954971D01*
X135532456Y-104948299D01*
X135542500Y-104942144D01*
X135552852Y-104936524D01*
X135563484Y-104931452D01*
X135574367Y-104926944D01*
X135585471Y-104923012D01*
X135596766Y-104919667D01*
X135608220Y-104916917D01*
X135619802Y-104914770D01*
X135631481Y-104913233D01*
X135643224Y-104912308D01*
X135655000Y-104912000D01*
X135666776Y-104912308D01*
X135678519Y-104913233D01*
X135690198Y-104914770D01*
X135701780Y-104916917D01*
X135713234Y-104919667D01*
X135724529Y-104923012D01*
X135735633Y-104926944D01*
X135746516Y-104931452D01*
X135757148Y-104936524D01*
X135767500Y-104942144D01*
X135777544Y-104948299D01*
X135787252Y-104954971D01*
X135796597Y-104962142D01*
X135805554Y-104969792D01*
X135814099Y-104977901D01*
X135822208Y-104986446D01*
X135829858Y-104995403D01*
X135837029Y-105004748D01*
X135843701Y-105014456D01*
X135849856Y-105024500D01*
X135855476Y-105034852D01*
X135860548Y-105045484D01*
X135865056Y-105056367D01*
X135868988Y-105067471D01*
X135872333Y-105078766D01*
X135875083Y-105090220D01*
X135877230Y-105101802D01*
X135878767Y-105113481D01*
X135879692Y-105125224D01*
X135880000Y-105137000D01*
X135880000Y-105537000D01*
X136180000Y-105537000D01*
X136180000Y-105187000D01*
X136180568Y-105162000D01*
X136179813Y-105133186D01*
X136177552Y-105104450D01*
X136173789Y-105075872D01*
X136168537Y-105047530D01*
X136161808Y-105019503D01*
X136153621Y-104991865D01*
X136143999Y-104964694D01*
X136132969Y-104938064D01*
X136120560Y-104912047D01*
X136106806Y-104886716D01*
X136091745Y-104862139D01*
X136075419Y-104838384D01*
X136057872Y-104815516D01*
X136039152Y-104793598D01*
X136019310Y-104772690D01*
X135998402Y-104752848D01*
X135976484Y-104734128D01*
X135953616Y-104716581D01*
X135929861Y-104700255D01*
X135905284Y-104685194D01*
X135879953Y-104671440D01*
X135853936Y-104659031D01*
X135827306Y-104648001D01*
X135800135Y-104638379D01*
X135772497Y-104630192D01*
X135744470Y-104623463D01*
X135716128Y-104618211D01*
X135687550Y-104614448D01*
X135655000Y-104612000D01*
X135627524Y-104612719D01*
X135600123Y-104614876D01*
X135572872Y-104618464D01*
X135545846Y-104623473D01*
X135519120Y-104629889D01*
X135492766Y-104637695D01*
X135466857Y-104646870D01*
X135441463Y-104657389D01*
X135416655Y-104669222D01*
X135392500Y-104682337D01*
X135369065Y-104696698D01*
X135346413Y-104712266D01*
X135324607Y-104728998D01*
X135303706Y-104746849D01*
X135283769Y-104765769D01*
X135264849Y-104785706D01*
X135246998Y-104806607D01*
X135230266Y-104828413D01*
X135214698Y-104851065D01*
X135200337Y-104874500D01*
X135187222Y-104898655D01*
X135175389Y-104923463D01*
X135164870Y-104948857D01*
X135155695Y-104974766D01*
X135147889Y-105001120D01*
X135141473Y-105027846D01*
X135136464Y-105054872D01*
X135132876Y-105082123D01*
X135130719Y-105109524D01*
X135130000Y-105137000D01*
X135130000Y-105537000D01*
X135430000Y-105537000D01*
G36*
X128730000Y-105537000D02*
G01*
X128730000Y-105937000D01*
X128729692Y-105948776D01*
X128728767Y-105960519D01*
X128727230Y-105972198D01*
X128725083Y-105983780D01*
X128722333Y-105995234D01*
X128718988Y-106006529D01*
X128715056Y-106017633D01*
X128710548Y-106028516D01*
X128705476Y-106039148D01*
X128699856Y-106049500D01*
X128693701Y-106059544D01*
X128687029Y-106069252D01*
X128679858Y-106078597D01*
X128672208Y-106087554D01*
X128664099Y-106096099D01*
X128655554Y-106104208D01*
X128646597Y-106111858D01*
X128637252Y-106119029D01*
X128627544Y-106125701D01*
X128617500Y-106131856D01*
X128607148Y-106137476D01*
X128596516Y-106142548D01*
X128585633Y-106147056D01*
X128574529Y-106150988D01*
X128563234Y-106154333D01*
X128551780Y-106157083D01*
X128540198Y-106159230D01*
X128528519Y-106160767D01*
X128516776Y-106161692D01*
X128505000Y-106162000D01*
X128493224Y-106161692D01*
X128481481Y-106160767D01*
X128469802Y-106159230D01*
X128458220Y-106157083D01*
X128446766Y-106154333D01*
X128435471Y-106150988D01*
X128424367Y-106147056D01*
X128413484Y-106142548D01*
X128402852Y-106137476D01*
X128392500Y-106131856D01*
X128382456Y-106125701D01*
X128372748Y-106119029D01*
X128363403Y-106111858D01*
X128354446Y-106104208D01*
X128345901Y-106096099D01*
X128337792Y-106087554D01*
X128330142Y-106078597D01*
X128322971Y-106069252D01*
X128316299Y-106059544D01*
X128310144Y-106049500D01*
X128304524Y-106039148D01*
X128299452Y-106028516D01*
X128294944Y-106017633D01*
X128291012Y-106006529D01*
X128287667Y-105995234D01*
X128284917Y-105983780D01*
X128282770Y-105972198D01*
X128281233Y-105960519D01*
X128280308Y-105948776D01*
X128280000Y-105937000D01*
X128280000Y-105537000D01*
X127980000Y-105537000D01*
X127980000Y-105887000D01*
X127979432Y-105912000D01*
X127980187Y-105940814D01*
X127982448Y-105969550D01*
X127986211Y-105998128D01*
X127991463Y-106026470D01*
X127998192Y-106054497D01*
X128006379Y-106082135D01*
X128016001Y-106109306D01*
X128027031Y-106135936D01*
X128039440Y-106161953D01*
X128053194Y-106187284D01*
X128068255Y-106211861D01*
X128084581Y-106235616D01*
X128102128Y-106258484D01*
X128120848Y-106280402D01*
X128140690Y-106301310D01*
X128161598Y-106321152D01*
X128183516Y-106339872D01*
X128206384Y-106357419D01*
X128230139Y-106373745D01*
X128254716Y-106388806D01*
X128280047Y-106402560D01*
X128306064Y-106414969D01*
X128332694Y-106425999D01*
X128359865Y-106435621D01*
X128387503Y-106443808D01*
X128415530Y-106450537D01*
X128443872Y-106455789D01*
X128472450Y-106459552D01*
X128505000Y-106462000D01*
X128532476Y-106461281D01*
X128559877Y-106459124D01*
X128587128Y-106455536D01*
X128614154Y-106450527D01*
X128640880Y-106444111D01*
X128667234Y-106436305D01*
X128693143Y-106427130D01*
X128718537Y-106416611D01*
X128743345Y-106404778D01*
X128767500Y-106391663D01*
X128790935Y-106377302D01*
X128813587Y-106361734D01*
X128835393Y-106345002D01*
X128856294Y-106327151D01*
X128876231Y-106308231D01*
X128895151Y-106288294D01*
X128913002Y-106267393D01*
X128929734Y-106245587D01*
X128945302Y-106222935D01*
X128959663Y-106199500D01*
X128972778Y-106175345D01*
X128984611Y-106150537D01*
X128995130Y-106125143D01*
X129004305Y-106099234D01*
X129012111Y-106072880D01*
X129018527Y-106046154D01*
X129023536Y-106019128D01*
X129027124Y-105991877D01*
X129029281Y-105964476D01*
X129030000Y-105937000D01*
X129030000Y-105537000D01*
X128730000Y-105537000D01*
G37*
X128730000Y-105537000D02*
X128730000Y-105937000D01*
X128729692Y-105948776D01*
X128728767Y-105960519D01*
X128727230Y-105972198D01*
X128725083Y-105983780D01*
X128722333Y-105995234D01*
X128718988Y-106006529D01*
X128715056Y-106017633D01*
X128710548Y-106028516D01*
X128705476Y-106039148D01*
X128699856Y-106049500D01*
X128693701Y-106059544D01*
X128687029Y-106069252D01*
X128679858Y-106078597D01*
X128672208Y-106087554D01*
X128664099Y-106096099D01*
X128655554Y-106104208D01*
X128646597Y-106111858D01*
X128637252Y-106119029D01*
X128627544Y-106125701D01*
X128617500Y-106131856D01*
X128607148Y-106137476D01*
X128596516Y-106142548D01*
X128585633Y-106147056D01*
X128574529Y-106150988D01*
X128563234Y-106154333D01*
X128551780Y-106157083D01*
X128540198Y-106159230D01*
X128528519Y-106160767D01*
X128516776Y-106161692D01*
X128505000Y-106162000D01*
X128493224Y-106161692D01*
X128481481Y-106160767D01*
X128469802Y-106159230D01*
X128458220Y-106157083D01*
X128446766Y-106154333D01*
X128435471Y-106150988D01*
X128424367Y-106147056D01*
X128413484Y-106142548D01*
X128402852Y-106137476D01*
X128392500Y-106131856D01*
X128382456Y-106125701D01*
X128372748Y-106119029D01*
X128363403Y-106111858D01*
X128354446Y-106104208D01*
X128345901Y-106096099D01*
X128337792Y-106087554D01*
X128330142Y-106078597D01*
X128322971Y-106069252D01*
X128316299Y-106059544D01*
X128310144Y-106049500D01*
X128304524Y-106039148D01*
X128299452Y-106028516D01*
X128294944Y-106017633D01*
X128291012Y-106006529D01*
X128287667Y-105995234D01*
X128284917Y-105983780D01*
X128282770Y-105972198D01*
X128281233Y-105960519D01*
X128280308Y-105948776D01*
X128280000Y-105937000D01*
X128280000Y-105537000D01*
X127980000Y-105537000D01*
X127980000Y-105887000D01*
X127979432Y-105912000D01*
X127980187Y-105940814D01*
X127982448Y-105969550D01*
X127986211Y-105998128D01*
X127991463Y-106026470D01*
X127998192Y-106054497D01*
X128006379Y-106082135D01*
X128016001Y-106109306D01*
X128027031Y-106135936D01*
X128039440Y-106161953D01*
X128053194Y-106187284D01*
X128068255Y-106211861D01*
X128084581Y-106235616D01*
X128102128Y-106258484D01*
X128120848Y-106280402D01*
X128140690Y-106301310D01*
X128161598Y-106321152D01*
X128183516Y-106339872D01*
X128206384Y-106357419D01*
X128230139Y-106373745D01*
X128254716Y-106388806D01*
X128280047Y-106402560D01*
X128306064Y-106414969D01*
X128332694Y-106425999D01*
X128359865Y-106435621D01*
X128387503Y-106443808D01*
X128415530Y-106450537D01*
X128443872Y-106455789D01*
X128472450Y-106459552D01*
X128505000Y-106462000D01*
X128532476Y-106461281D01*
X128559877Y-106459124D01*
X128587128Y-106455536D01*
X128614154Y-106450527D01*
X128640880Y-106444111D01*
X128667234Y-106436305D01*
X128693143Y-106427130D01*
X128718537Y-106416611D01*
X128743345Y-106404778D01*
X128767500Y-106391663D01*
X128790935Y-106377302D01*
X128813587Y-106361734D01*
X128835393Y-106345002D01*
X128856294Y-106327151D01*
X128876231Y-106308231D01*
X128895151Y-106288294D01*
X128913002Y-106267393D01*
X128929734Y-106245587D01*
X128945302Y-106222935D01*
X128959663Y-106199500D01*
X128972778Y-106175345D01*
X128984611Y-106150537D01*
X128995130Y-106125143D01*
X129004305Y-106099234D01*
X129012111Y-106072880D01*
X129018527Y-106046154D01*
X129023536Y-106019128D01*
X129027124Y-105991877D01*
X129029281Y-105964476D01*
X129030000Y-105937000D01*
X129030000Y-105537000D01*
X128730000Y-105537000D01*
G36*
X128280000Y-105537000D02*
G01*
X128280000Y-105137000D01*
X128280308Y-105125224D01*
X128281233Y-105113481D01*
X128282770Y-105101802D01*
X128284917Y-105090220D01*
X128287667Y-105078766D01*
X128291012Y-105067471D01*
X128294944Y-105056367D01*
X128299452Y-105045484D01*
X128304524Y-105034852D01*
X128310144Y-105024500D01*
X128316299Y-105014456D01*
X128322971Y-105004748D01*
X128330142Y-104995403D01*
X128337792Y-104986446D01*
X128345901Y-104977901D01*
X128354446Y-104969792D01*
X128363403Y-104962142D01*
X128372748Y-104954971D01*
X128382456Y-104948299D01*
X128392500Y-104942144D01*
X128402852Y-104936524D01*
X128413484Y-104931452D01*
X128424367Y-104926944D01*
X128435471Y-104923012D01*
X128446766Y-104919667D01*
X128458220Y-104916917D01*
X128469802Y-104914770D01*
X128481481Y-104913233D01*
X128493224Y-104912308D01*
X128505000Y-104912000D01*
X128516776Y-104912308D01*
X128528519Y-104913233D01*
X128540198Y-104914770D01*
X128551780Y-104916917D01*
X128563234Y-104919667D01*
X128574529Y-104923012D01*
X128585633Y-104926944D01*
X128596516Y-104931452D01*
X128607148Y-104936524D01*
X128617500Y-104942144D01*
X128627544Y-104948299D01*
X128637252Y-104954971D01*
X128646597Y-104962142D01*
X128655554Y-104969792D01*
X128664099Y-104977901D01*
X128672208Y-104986446D01*
X128679858Y-104995403D01*
X128687029Y-105004748D01*
X128693701Y-105014456D01*
X128699856Y-105024500D01*
X128705476Y-105034852D01*
X128710548Y-105045484D01*
X128715056Y-105056367D01*
X128718988Y-105067471D01*
X128722333Y-105078766D01*
X128725083Y-105090220D01*
X128727230Y-105101802D01*
X128728767Y-105113481D01*
X128729692Y-105125224D01*
X128730000Y-105137000D01*
X128730000Y-105537000D01*
X129030000Y-105537000D01*
X129030000Y-105187000D01*
X129030568Y-105162000D01*
X129029813Y-105133186D01*
X129027552Y-105104450D01*
X129023789Y-105075872D01*
X129018537Y-105047530D01*
X129011808Y-105019503D01*
X129003621Y-104991865D01*
X128993999Y-104964694D01*
X128982969Y-104938064D01*
X128970560Y-104912047D01*
X128956806Y-104886716D01*
X128941745Y-104862139D01*
X128925419Y-104838384D01*
X128907872Y-104815516D01*
X128889152Y-104793598D01*
X128869310Y-104772690D01*
X128848402Y-104752848D01*
X128826484Y-104734128D01*
X128803616Y-104716581D01*
X128779861Y-104700255D01*
X128755284Y-104685194D01*
X128729953Y-104671440D01*
X128703936Y-104659031D01*
X128677306Y-104648001D01*
X128650135Y-104638379D01*
X128622497Y-104630192D01*
X128594470Y-104623463D01*
X128566128Y-104618211D01*
X128537550Y-104614448D01*
X128505000Y-104612000D01*
X128477524Y-104612719D01*
X128450123Y-104614876D01*
X128422872Y-104618464D01*
X128395846Y-104623473D01*
X128369120Y-104629889D01*
X128342766Y-104637695D01*
X128316857Y-104646870D01*
X128291463Y-104657389D01*
X128266655Y-104669222D01*
X128242500Y-104682337D01*
X128219065Y-104696698D01*
X128196413Y-104712266D01*
X128174607Y-104728998D01*
X128153706Y-104746849D01*
X128133769Y-104765769D01*
X128114849Y-104785706D01*
X128096998Y-104806607D01*
X128080266Y-104828413D01*
X128064698Y-104851065D01*
X128050337Y-104874500D01*
X128037222Y-104898655D01*
X128025389Y-104923463D01*
X128014870Y-104948857D01*
X128005695Y-104974766D01*
X127997889Y-105001120D01*
X127991473Y-105027846D01*
X127986464Y-105054872D01*
X127982876Y-105082123D01*
X127980719Y-105109524D01*
X127980000Y-105137000D01*
X127980000Y-105537000D01*
X128280000Y-105537000D01*
G37*
X128280000Y-105537000D02*
X128280000Y-105137000D01*
X128280308Y-105125224D01*
X128281233Y-105113481D01*
X128282770Y-105101802D01*
X128284917Y-105090220D01*
X128287667Y-105078766D01*
X128291012Y-105067471D01*
X128294944Y-105056367D01*
X128299452Y-105045484D01*
X128304524Y-105034852D01*
X128310144Y-105024500D01*
X128316299Y-105014456D01*
X128322971Y-105004748D01*
X128330142Y-104995403D01*
X128337792Y-104986446D01*
X128345901Y-104977901D01*
X128354446Y-104969792D01*
X128363403Y-104962142D01*
X128372748Y-104954971D01*
X128382456Y-104948299D01*
X128392500Y-104942144D01*
X128402852Y-104936524D01*
X128413484Y-104931452D01*
X128424367Y-104926944D01*
X128435471Y-104923012D01*
X128446766Y-104919667D01*
X128458220Y-104916917D01*
X128469802Y-104914770D01*
X128481481Y-104913233D01*
X128493224Y-104912308D01*
X128505000Y-104912000D01*
X128516776Y-104912308D01*
X128528519Y-104913233D01*
X128540198Y-104914770D01*
X128551780Y-104916917D01*
X128563234Y-104919667D01*
X128574529Y-104923012D01*
X128585633Y-104926944D01*
X128596516Y-104931452D01*
X128607148Y-104936524D01*
X128617500Y-104942144D01*
X128627544Y-104948299D01*
X128637252Y-104954971D01*
X128646597Y-104962142D01*
X128655554Y-104969792D01*
X128664099Y-104977901D01*
X128672208Y-104986446D01*
X128679858Y-104995403D01*
X128687029Y-105004748D01*
X128693701Y-105014456D01*
X128699856Y-105024500D01*
X128705476Y-105034852D01*
X128710548Y-105045484D01*
X128715056Y-105056367D01*
X128718988Y-105067471D01*
X128722333Y-105078766D01*
X128725083Y-105090220D01*
X128727230Y-105101802D01*
X128728767Y-105113481D01*
X128729692Y-105125224D01*
X128730000Y-105137000D01*
X128730000Y-105537000D01*
X129030000Y-105537000D01*
X129030000Y-105187000D01*
X129030568Y-105162000D01*
X129029813Y-105133186D01*
X129027552Y-105104450D01*
X129023789Y-105075872D01*
X129018537Y-105047530D01*
X129011808Y-105019503D01*
X129003621Y-104991865D01*
X128993999Y-104964694D01*
X128982969Y-104938064D01*
X128970560Y-104912047D01*
X128956806Y-104886716D01*
X128941745Y-104862139D01*
X128925419Y-104838384D01*
X128907872Y-104815516D01*
X128889152Y-104793598D01*
X128869310Y-104772690D01*
X128848402Y-104752848D01*
X128826484Y-104734128D01*
X128803616Y-104716581D01*
X128779861Y-104700255D01*
X128755284Y-104685194D01*
X128729953Y-104671440D01*
X128703936Y-104659031D01*
X128677306Y-104648001D01*
X128650135Y-104638379D01*
X128622497Y-104630192D01*
X128594470Y-104623463D01*
X128566128Y-104618211D01*
X128537550Y-104614448D01*
X128505000Y-104612000D01*
X128477524Y-104612719D01*
X128450123Y-104614876D01*
X128422872Y-104618464D01*
X128395846Y-104623473D01*
X128369120Y-104629889D01*
X128342766Y-104637695D01*
X128316857Y-104646870D01*
X128291463Y-104657389D01*
X128266655Y-104669222D01*
X128242500Y-104682337D01*
X128219065Y-104696698D01*
X128196413Y-104712266D01*
X128174607Y-104728998D01*
X128153706Y-104746849D01*
X128133769Y-104765769D01*
X128114849Y-104785706D01*
X128096998Y-104806607D01*
X128080266Y-104828413D01*
X128064698Y-104851065D01*
X128050337Y-104874500D01*
X128037222Y-104898655D01*
X128025389Y-104923463D01*
X128014870Y-104948857D01*
X128005695Y-104974766D01*
X127997889Y-105001120D01*
X127991473Y-105027846D01*
X127986464Y-105054872D01*
X127982876Y-105082123D01*
X127980719Y-105109524D01*
X127980000Y-105137000D01*
X127980000Y-105537000D01*
X128280000Y-105537000D01*
%TD*%
D11*
%TO.P,J2,4*%
%TO.N,GND*%
X115404900Y-127635000D03*
%TO.P,J2,3*%
%TO.N,+3V3*%
X117944900Y-127635000D03*
%TO.P,J2,2*%
%TO.N,OLED_SCL*%
X120484900Y-127635000D03*
D12*
%TO.P,J2,1*%
%TO.N,OLED_SDA*%
X123024900Y-127635000D03*
D13*
%TO.P,J2,*%
%TO.N,*%
X130810000Y-128524000D03*
X130810000Y-152019000D03*
X107569000Y-151968200D03*
X107604560Y-128475740D03*
%TD*%
D14*
%TO.P,U3,5*%
%TO.N,ROT_CHB*%
X164044000Y-144660000D03*
%TO.P,U3,4*%
%TO.N,GND*%
X161544000Y-144660000D03*
%TO.P,U3,3*%
%TO.N,ROT_CHA*%
X159044000Y-144660000D03*
%TO.P,U3,1*%
%TO.N,ROT_SW1*%
X159044000Y-130160000D03*
%TO.P,U3,2*%
%TO.N,GND*%
X164044000Y-130160000D03*
%TO.P,U3,*%
%TO.N,*%
%TA.AperFunction,ComponentPad*%
G36*
G01*
X154544000Y-138010000D02*
X154544000Y-136310000D01*
G75*
G02*
X155244000Y-135610000I700000J0D01*
G01*
X156644000Y-135610000D01*
G75*
G02*
X157344000Y-136310000I0J-700000D01*
G01*
X157344000Y-138010000D01*
G75*
G02*
X156644000Y-138710000I-700000J0D01*
G01*
X155244000Y-138710000D01*
G75*
G02*
X154544000Y-138010000I0J700000D01*
G01*
G37*
%TD.AperFunction*%
%TA.AperFunction,ComponentPad*%
G36*
G01*
X165744000Y-138010000D02*
X165744000Y-136310000D01*
G75*
G02*
X166444000Y-135610000I700000J0D01*
G01*
X167844000Y-135610000D01*
G75*
G02*
X168544000Y-136310000I0J-700000D01*
G01*
X168544000Y-138010000D01*
G75*
G02*
X167844000Y-138710000I-700000J0D01*
G01*
X166444000Y-138710000D01*
G75*
G02*
X165744000Y-138010000I0J700000D01*
G01*
G37*
%TD.AperFunction*%
%TD*%
D15*
%TO.P,J1,6*%
%TO.N,GND*%
X142240000Y-107950000D03*
%TO.P,J1,5*%
X147320000Y-107950000D03*
%TO.P,J1,4*%
%TO.N,VCONN*%
X152400000Y-107950000D03*
D16*
%TO.P,J1,1*%
%TO.N,RELAY+*%
X167640000Y-107950000D03*
D15*
%TO.P,J1,3*%
%TO.N,/TC-*%
X157480000Y-107950000D03*
%TO.P,J1,2*%
%TO.N,/TC+*%
X162560000Y-107950000D03*
%TD*%
D17*
%TO.N,GND*%
X81534000Y-134620000D03*
X76962000Y-127254000D03*
X93218000Y-140462000D03*
X76962000Y-141986000D03*
X78232000Y-147066000D03*
X108712000Y-107442000D03*
X118364000Y-107696000D03*
X161290000Y-118364000D03*
X130556000Y-122174000D03*
X120904000Y-114808000D03*
X123698000Y-110744000D03*
X120904000Y-110744000D03*
X130302000Y-109220000D03*
X125222000Y-105156000D03*
X141224000Y-117348000D03*
X133604000Y-115062000D03*
X90170000Y-150114000D03*
X80010000Y-110744000D03*
X84074000Y-107696000D03*
X78105000Y-153162000D03*
X121412000Y-106172000D03*
X154114500Y-113982500D03*
%TO.N,FT_PWREN*%
X124333000Y-129921000D03*
X124333000Y-134785100D03*
%TO.N,ROT_CHA*%
X96901000Y-130175000D03*
X99314000Y-132715000D03*
X152946100Y-141351000D03*
X116332000Y-138938000D03*
%TO.N,BOOT*%
X91567000Y-117729000D03*
X93218000Y-123825000D03*
%TO.N,ROT_CHB*%
X91313000Y-127254000D03*
X154145954Y-132428954D03*
X154940000Y-142240000D03*
%TO.N,ROT_SW1*%
X93345000Y-133477000D03*
%TO.N,FT_TX*%
X102908100Y-118491000D03*
X99441000Y-118618000D03*
%TO.N,FT_RX*%
X103124000Y-120650000D03*
X96901000Y-119761000D03*
%TO.N,SD_DO*%
X107188000Y-111633000D03*
X103389166Y-111672090D03*
%TO.N,SD_SCK*%
X105410000Y-112395000D03*
X102964961Y-113251961D03*
%TO.N,SD_DI*%
X105283000Y-110744000D03*
X103124000Y-110743974D03*
%TO.N,MAX_SCK*%
X120269000Y-142748000D03*
X116205000Y-146558000D03*
%TO.N,MAX_SO*%
X127762000Y-146812000D03*
X124968000Y-146812000D03*
%TO.N,OLED_SDA*%
X104013000Y-121373900D03*
X96901000Y-121285000D03*
%TO.N,OLED_SCL*%
X97790000Y-119126000D03*
X105283000Y-122301000D03*
%TO.N,RELAY+*%
X167132000Y-118364000D03*
X98933000Y-117602000D03*
%TO.N,FT_RTS*%
X103632000Y-119214900D03*
X100203000Y-119253000D03*
%TO.N,FT_CTS*%
X119761000Y-123062998D03*
X99822000Y-123063000D03*
%TD*%
D18*
%TO.N,GND*%
X121412000Y-106172000D02*
X120777000Y-106807000D01*
D19*
%TO.N,FT_PWREN*%
X124333000Y-134785100D02*
X123952000Y-134404100D01*
X123952001Y-130301999D02*
X124333000Y-129921000D01*
X123952000Y-134404100D02*
X123952001Y-130301999D01*
%TO.N,ROT_CHA*%
X96901000Y-130175000D02*
X97398841Y-130672841D01*
X97398841Y-130672841D02*
X99187000Y-132461000D01*
X99187000Y-132461000D02*
X99187000Y-132588000D01*
X99187000Y-132588000D02*
X99314000Y-132715000D01*
X152946100Y-141351000D02*
X118745000Y-141351000D01*
X118745000Y-141351000D02*
X116332000Y-138938000D01*
%TO.N,BOOT*%
X91567000Y-117729000D02*
X91567000Y-122174000D01*
X91567000Y-122174000D02*
X93218000Y-123825000D01*
%TO.N,ROT_CHB*%
X163195000Y-142240000D02*
X164044000Y-143089000D01*
X164044000Y-143089000D02*
X164044000Y-144660000D01*
X154940000Y-142240000D02*
X163195000Y-142240000D01*
X154145954Y-131890139D02*
X154145954Y-132428954D01*
X91313000Y-127254000D02*
X95230190Y-127254000D01*
X97389190Y-125095000D02*
X147701000Y-125095000D01*
X147701000Y-125095000D02*
X154145954Y-131539954D01*
X95230190Y-127254000D02*
X97389190Y-125095000D01*
X154145954Y-131539954D02*
X154145954Y-131890139D01*
%TO.N,ROT_SW1*%
X152171000Y-137033000D02*
X159044000Y-130160000D01*
X93345000Y-133477000D02*
X96901000Y-137033000D01*
X96901000Y-137033000D02*
X152171000Y-137033000D01*
%TO.N,FT_TX*%
X99568000Y-118491000D02*
X102908100Y-118491000D01*
X99441000Y-118618000D02*
X99568000Y-118491000D01*
%TO.N,FT_RX*%
X98044000Y-120650000D02*
X103124000Y-120650000D01*
X96901000Y-119761000D02*
X97155000Y-119761000D01*
X97155000Y-119761000D02*
X98044000Y-120650000D01*
%TO.N,SD_DO*%
X103428256Y-111633000D02*
X103389166Y-111672090D01*
X107188000Y-111633000D02*
X103428256Y-111633000D01*
%TO.N,SD_SCK*%
X105410000Y-112395000D02*
X104553039Y-113251961D01*
X104553039Y-113251961D02*
X102964961Y-113251961D01*
%TO.N,SD_DI*%
X105283000Y-110744000D02*
X103124026Y-110744000D01*
X103124026Y-110744000D02*
X103124000Y-110743974D01*
%TO.N,MAX_SCK*%
X116459000Y-146558000D02*
X116205000Y-146558000D01*
X120269000Y-142748000D02*
X116459000Y-146558000D01*
%TO.N,MAX_SO*%
X125603000Y-146812000D02*
X124968000Y-146812000D01*
X125603000Y-146812000D02*
X127762000Y-146812000D01*
%TO.N,OLED_SDA*%
X96989900Y-121373900D02*
X104013000Y-121373900D01*
X96901000Y-121285000D02*
X96989900Y-121373900D01*
%TO.N,OLED_SCL*%
X105283000Y-121635183D02*
X105283000Y-122301000D01*
X98640899Y-119976899D02*
X103624716Y-119976899D01*
X97790000Y-119126000D02*
X98640899Y-119976899D01*
X103624716Y-119976899D02*
X105283000Y-121635183D01*
%TO.N,RELAY+*%
X167132000Y-118364000D02*
X165569898Y-119926102D01*
X103015290Y-117602000D02*
X98933000Y-117602000D01*
X165569898Y-119926102D02*
X105339392Y-119926102D01*
X105339392Y-119926102D02*
X103015290Y-117602000D01*
%TO.N,FT_RTS*%
X103593900Y-119253000D02*
X103632000Y-119214900D01*
X100203000Y-119253000D02*
X103593900Y-119253000D01*
%TO.N,FT_CTS*%
X119760998Y-123063000D02*
X119761000Y-123062998D01*
X99822000Y-123063000D02*
X119760998Y-123063000D01*
%TD*%
D20*
%TO.N,GND*%
G36*
X127379946Y-104852773D02*
G01*
X127373530Y-104879499D01*
X127371848Y-104891620D01*
X127368293Y-104903322D01*
X127366615Y-104912035D01*
X127361606Y-104939061D01*
X127360561Y-104951251D01*
X127357622Y-104963126D01*
X127356402Y-104971915D01*
X127352814Y-104999166D01*
X127352408Y-105011394D01*
X127350094Y-105023410D01*
X127349336Y-105032251D01*
X127347179Y-105059652D01*
X127347414Y-105071901D01*
X127345731Y-105084032D01*
X127345436Y-105092900D01*
X127344717Y-105120376D01*
X127344996Y-105124261D01*
X127344562Y-105128127D01*
X127344500Y-105137000D01*
X127344500Y-105879784D01*
X127344096Y-105897565D01*
X127344931Y-105908676D01*
X127343980Y-105919774D01*
X127344150Y-105928646D01*
X127344905Y-105957460D01*
X127346417Y-105969594D01*
X127346011Y-105981812D01*
X127346645Y-105990662D01*
X127348906Y-106019398D01*
X127351055Y-106031461D01*
X127351290Y-106043708D01*
X127352387Y-106052513D01*
X127356150Y-106081091D01*
X127358919Y-106092991D01*
X127359793Y-106105184D01*
X127361349Y-106113920D01*
X127366601Y-106142262D01*
X127369998Y-106154031D01*
X127371512Y-106166189D01*
X127373523Y-106174831D01*
X127380252Y-106202858D01*
X127384257Y-106214424D01*
X127386403Y-106226469D01*
X127388864Y-106234994D01*
X127397051Y-106262632D01*
X127401655Y-106273971D01*
X127404429Y-106285889D01*
X127407332Y-106294274D01*
X127416954Y-106321445D01*
X127422141Y-106332519D01*
X127425533Y-106344270D01*
X127428872Y-106352492D01*
X127439902Y-106379122D01*
X127445665Y-106389915D01*
X127449670Y-106401482D01*
X127453434Y-106409517D01*
X127465843Y-106435535D01*
X127472169Y-106446023D01*
X127476776Y-106457367D01*
X127480955Y-106465194D01*
X127494709Y-106490525D01*
X127501571Y-106500660D01*
X127506760Y-106511737D01*
X127511343Y-106519335D01*
X127526404Y-106543912D01*
X127533785Y-106553671D01*
X127539545Y-106564459D01*
X127544519Y-106571807D01*
X127560845Y-106595562D01*
X127568730Y-106604925D01*
X127575050Y-106615403D01*
X127580402Y-106622481D01*
X127597949Y-106645348D01*
X127606313Y-106654286D01*
X127613177Y-106664424D01*
X127618893Y-106671212D01*
X127637613Y-106693129D01*
X127646432Y-106701616D01*
X127653821Y-106711385D01*
X127659884Y-106717863D01*
X127679726Y-106738771D01*
X127688962Y-106746771D01*
X127696835Y-106756121D01*
X127703229Y-106762274D01*
X127724136Y-106782116D01*
X127733802Y-106789641D01*
X127742164Y-106798577D01*
X127748870Y-106804387D01*
X127770788Y-106823107D01*
X127780830Y-106830112D01*
X127789650Y-106838600D01*
X127796651Y-106844051D01*
X127819519Y-106861597D01*
X127829910Y-106868065D01*
X127839161Y-106876078D01*
X127846438Y-106881155D01*
X127870193Y-106897481D01*
X127880903Y-106903393D01*
X127890555Y-106910907D01*
X127898088Y-106915596D01*
X127922665Y-106930657D01*
X127933674Y-106936003D01*
X127943707Y-106943002D01*
X127951475Y-106947291D01*
X127976806Y-106961045D01*
X127988090Y-106965812D01*
X127998484Y-106972281D01*
X128006466Y-106976157D01*
X128032483Y-106988566D01*
X128043988Y-106992730D01*
X128054704Y-106998646D01*
X128062878Y-107002098D01*
X128089508Y-107013128D01*
X128101208Y-107016683D01*
X128112212Y-107022026D01*
X128120555Y-107025046D01*
X128147726Y-107034668D01*
X128159604Y-107037608D01*
X128170878Y-107042370D01*
X128179368Y-107044949D01*
X128207006Y-107053136D01*
X128219020Y-107055450D01*
X128230529Y-107059616D01*
X128239142Y-107061748D01*
X128267169Y-107068476D01*
X128279302Y-107070160D01*
X128291025Y-107073721D01*
X128299738Y-107075399D01*
X128328081Y-107080651D01*
X128340254Y-107081694D01*
X128352120Y-107084631D01*
X128360909Y-107085850D01*
X128389487Y-107089613D01*
X128402828Y-107090056D01*
X128415947Y-107092535D01*
X128424790Y-107093262D01*
X128457340Y-107095710D01*
X128485089Y-107095081D01*
X128512753Y-107097453D01*
X128521624Y-107097283D01*
X128549100Y-107096564D01*
X128561256Y-107095050D01*
X128573498Y-107095456D01*
X128582348Y-107094821D01*
X128609749Y-107092664D01*
X128621795Y-107090518D01*
X128634029Y-107090283D01*
X128642834Y-107089186D01*
X128670085Y-107085598D01*
X128682002Y-107082825D01*
X128694204Y-107081950D01*
X128702939Y-107080394D01*
X128729965Y-107075385D01*
X128741716Y-107071993D01*
X128753859Y-107070481D01*
X128762501Y-107068470D01*
X128789227Y-107062054D01*
X128800791Y-107058050D01*
X128812838Y-107055904D01*
X128821363Y-107053444D01*
X128847717Y-107045637D01*
X128859060Y-107041031D01*
X128870986Y-107038256D01*
X128879371Y-107035353D01*
X128905281Y-107026177D01*
X128916365Y-107020985D01*
X128928126Y-107017590D01*
X128936347Y-107014252D01*
X128961741Y-107003733D01*
X128972536Y-106997969D01*
X128984095Y-106993966D01*
X128992130Y-106990202D01*
X129016939Y-106978369D01*
X129027414Y-106972050D01*
X129038750Y-106967447D01*
X129046578Y-106963267D01*
X129070733Y-106950152D01*
X129080868Y-106943290D01*
X129091950Y-106938099D01*
X129099548Y-106933516D01*
X129122983Y-106919155D01*
X129132742Y-106911774D01*
X129143534Y-106906012D01*
X129150882Y-106901037D01*
X129173534Y-106885469D01*
X129182894Y-106877587D01*
X129193373Y-106871266D01*
X129200450Y-106865914D01*
X129222256Y-106849182D01*
X129231194Y-106840819D01*
X129241328Y-106833957D01*
X129248115Y-106828242D01*
X129269017Y-106810390D01*
X129277506Y-106801569D01*
X129287270Y-106794184D01*
X129293749Y-106788121D01*
X129313686Y-106769201D01*
X129321692Y-106759958D01*
X129331048Y-106752080D01*
X129337201Y-106745686D01*
X129356120Y-106725750D01*
X129363641Y-106716089D01*
X129372581Y-106707723D01*
X129378391Y-106701016D01*
X129396242Y-106680115D01*
X129403245Y-106670077D01*
X129411731Y-106661258D01*
X129417182Y-106654256D01*
X129433914Y-106632450D01*
X129440380Y-106622061D01*
X129448393Y-106612811D01*
X129453469Y-106605534D01*
X129469037Y-106582882D01*
X129474949Y-106572171D01*
X129482466Y-106562516D01*
X129487155Y-106554983D01*
X129501516Y-106531548D01*
X129506862Y-106520538D01*
X129513864Y-106510501D01*
X129518152Y-106502733D01*
X129531267Y-106478577D01*
X129536028Y-106467307D01*
X129542493Y-106456920D01*
X129546369Y-106448938D01*
X129558202Y-106424130D01*
X129562366Y-106412629D01*
X129568280Y-106401915D01*
X129571733Y-106393741D01*
X129582252Y-106368348D01*
X129585812Y-106356632D01*
X129591157Y-106345624D01*
X129594178Y-106337280D01*
X129603353Y-106311371D01*
X129606295Y-106299484D01*
X129611058Y-106288207D01*
X129613638Y-106279717D01*
X129621444Y-106253363D01*
X129623759Y-106241341D01*
X129627922Y-106229840D01*
X129630054Y-106221227D01*
X129636470Y-106194501D01*
X129638152Y-106182380D01*
X129641707Y-106170678D01*
X129643385Y-106161965D01*
X129648394Y-106134940D01*
X129649439Y-106122748D01*
X129652378Y-106110874D01*
X129653598Y-106102085D01*
X129657186Y-106074834D01*
X129657592Y-106062606D01*
X129659906Y-106050590D01*
X129660664Y-106041749D01*
X129662821Y-106014348D01*
X129662586Y-106002100D01*
X129664269Y-105989969D01*
X129664564Y-105981100D01*
X129665283Y-105953625D01*
X129665004Y-105949739D01*
X129665438Y-105945873D01*
X129665500Y-105937000D01*
X129665500Y-105194217D01*
X129665904Y-105176435D01*
X129665069Y-105165324D01*
X129666020Y-105154226D01*
X129665850Y-105145354D01*
X129665095Y-105116540D01*
X129663583Y-105104406D01*
X129663989Y-105092188D01*
X129663355Y-105083338D01*
X129661094Y-105054602D01*
X129658945Y-105042539D01*
X129658710Y-105030292D01*
X129657613Y-105021487D01*
X129653850Y-104992909D01*
X129651081Y-104981009D01*
X129650207Y-104968816D01*
X129648651Y-104960081D01*
X129643399Y-104931738D01*
X129640002Y-104919969D01*
X129638488Y-104907811D01*
X129636476Y-104899169D01*
X129629748Y-104871142D01*
X129625743Y-104859576D01*
X129624037Y-104850000D01*
X134530632Y-104850000D01*
X134529946Y-104852773D01*
X134523530Y-104879499D01*
X134521848Y-104891620D01*
X134518293Y-104903322D01*
X134516615Y-104912035D01*
X134511606Y-104939061D01*
X134510561Y-104951251D01*
X134507622Y-104963126D01*
X134506402Y-104971915D01*
X134502814Y-104999166D01*
X134502408Y-105011394D01*
X134500094Y-105023410D01*
X134499336Y-105032251D01*
X134497179Y-105059652D01*
X134497414Y-105071901D01*
X134495731Y-105084032D01*
X134495436Y-105092900D01*
X134494717Y-105120376D01*
X134494996Y-105124261D01*
X134494562Y-105128127D01*
X134494500Y-105137000D01*
X134494500Y-105879784D01*
X134494096Y-105897565D01*
X134494931Y-105908676D01*
X134493980Y-105919774D01*
X134494150Y-105928646D01*
X134494905Y-105957460D01*
X134496417Y-105969594D01*
X134496011Y-105981812D01*
X134496645Y-105990662D01*
X134498906Y-106019398D01*
X134501055Y-106031461D01*
X134501290Y-106043708D01*
X134502387Y-106052513D01*
X134506150Y-106081091D01*
X134508919Y-106092991D01*
X134509793Y-106105184D01*
X134511349Y-106113920D01*
X134516601Y-106142262D01*
X134519998Y-106154031D01*
X134521512Y-106166189D01*
X134523523Y-106174831D01*
X134530252Y-106202858D01*
X134534257Y-106214424D01*
X134536403Y-106226469D01*
X134538864Y-106234994D01*
X134547051Y-106262632D01*
X134551655Y-106273971D01*
X134554429Y-106285889D01*
X134557332Y-106294274D01*
X134566954Y-106321445D01*
X134572141Y-106332519D01*
X134575533Y-106344270D01*
X134578872Y-106352492D01*
X134589902Y-106379122D01*
X134595665Y-106389915D01*
X134599670Y-106401482D01*
X134603434Y-106409517D01*
X134615843Y-106435535D01*
X134622169Y-106446023D01*
X134626776Y-106457367D01*
X134630955Y-106465194D01*
X134644709Y-106490525D01*
X134651571Y-106500660D01*
X134656760Y-106511737D01*
X134661343Y-106519335D01*
X134676404Y-106543912D01*
X134683785Y-106553671D01*
X134689545Y-106564459D01*
X134694519Y-106571807D01*
X134710845Y-106595562D01*
X134718730Y-106604925D01*
X134725050Y-106615403D01*
X134730402Y-106622481D01*
X134747949Y-106645348D01*
X134756313Y-106654286D01*
X134763177Y-106664424D01*
X134768893Y-106671212D01*
X134787613Y-106693129D01*
X134796432Y-106701616D01*
X134803821Y-106711385D01*
X134809884Y-106717863D01*
X134829726Y-106738771D01*
X134838962Y-106746771D01*
X134846835Y-106756121D01*
X134853229Y-106762274D01*
X134874136Y-106782116D01*
X134883802Y-106789641D01*
X134892164Y-106798577D01*
X134898870Y-106804387D01*
X134920788Y-106823107D01*
X134930830Y-106830112D01*
X134939650Y-106838600D01*
X134946651Y-106844051D01*
X134969519Y-106861597D01*
X134979910Y-106868065D01*
X134989161Y-106876078D01*
X134996438Y-106881155D01*
X135020193Y-106897481D01*
X135030903Y-106903393D01*
X135040555Y-106910907D01*
X135048088Y-106915596D01*
X135072665Y-106930657D01*
X135083674Y-106936003D01*
X135093707Y-106943002D01*
X135101475Y-106947291D01*
X135126806Y-106961045D01*
X135138090Y-106965812D01*
X135148484Y-106972281D01*
X135156466Y-106976157D01*
X135182483Y-106988566D01*
X135193988Y-106992730D01*
X135204704Y-106998646D01*
X135212878Y-107002098D01*
X135239508Y-107013128D01*
X135251208Y-107016683D01*
X135262212Y-107022026D01*
X135270555Y-107025046D01*
X135297726Y-107034668D01*
X135309604Y-107037608D01*
X135320878Y-107042370D01*
X135329368Y-107044949D01*
X135357006Y-107053136D01*
X135369020Y-107055450D01*
X135380529Y-107059616D01*
X135389142Y-107061748D01*
X135417169Y-107068476D01*
X135429302Y-107070160D01*
X135441025Y-107073721D01*
X135449738Y-107075399D01*
X135478081Y-107080651D01*
X135490254Y-107081694D01*
X135502120Y-107084631D01*
X135510909Y-107085850D01*
X135539487Y-107089613D01*
X135552828Y-107090056D01*
X135565947Y-107092535D01*
X135574790Y-107093262D01*
X135607340Y-107095710D01*
X135635089Y-107095081D01*
X135662753Y-107097453D01*
X135671624Y-107097283D01*
X135699100Y-107096564D01*
X135711256Y-107095050D01*
X135723498Y-107095456D01*
X135732348Y-107094821D01*
X135759749Y-107092664D01*
X135771795Y-107090518D01*
X135784029Y-107090283D01*
X135792834Y-107089186D01*
X135820085Y-107085598D01*
X135832002Y-107082825D01*
X135844204Y-107081950D01*
X135852939Y-107080394D01*
X135879965Y-107075385D01*
X135891716Y-107071993D01*
X135903859Y-107070481D01*
X135912501Y-107068470D01*
X135939227Y-107062054D01*
X135950791Y-107058050D01*
X135962838Y-107055904D01*
X135971363Y-107053444D01*
X135997717Y-107045637D01*
X136009060Y-107041031D01*
X136020986Y-107038256D01*
X136029371Y-107035353D01*
X136055281Y-107026177D01*
X136066365Y-107020985D01*
X136078126Y-107017590D01*
X136086347Y-107014252D01*
X136111741Y-107003733D01*
X136122536Y-106997969D01*
X136134095Y-106993966D01*
X136142130Y-106990202D01*
X136166939Y-106978369D01*
X136177414Y-106972050D01*
X136188750Y-106967447D01*
X136196578Y-106963267D01*
X136220733Y-106950152D01*
X136230868Y-106943290D01*
X136241950Y-106938099D01*
X136249548Y-106933516D01*
X136272983Y-106919155D01*
X136282742Y-106911774D01*
X136293534Y-106906012D01*
X136300882Y-106901037D01*
X136323534Y-106885469D01*
X136332894Y-106877587D01*
X136343373Y-106871266D01*
X136350450Y-106865914D01*
X136372256Y-106849182D01*
X136381194Y-106840819D01*
X136391328Y-106833957D01*
X136398115Y-106828242D01*
X136419017Y-106810390D01*
X136427506Y-106801569D01*
X136437270Y-106794184D01*
X136443749Y-106788121D01*
X136463686Y-106769201D01*
X136471692Y-106759958D01*
X136481048Y-106752080D01*
X136487201Y-106745686D01*
X136506120Y-106725750D01*
X136513641Y-106716089D01*
X136522581Y-106707723D01*
X136528391Y-106701016D01*
X136546242Y-106680115D01*
X136553245Y-106670077D01*
X136561731Y-106661258D01*
X136567182Y-106654256D01*
X136583914Y-106632450D01*
X136590380Y-106622061D01*
X136598393Y-106612811D01*
X136603469Y-106605534D01*
X136619037Y-106582882D01*
X136624949Y-106572171D01*
X136632466Y-106562516D01*
X136637155Y-106554983D01*
X136651516Y-106531548D01*
X136656862Y-106520538D01*
X136663864Y-106510501D01*
X136668152Y-106502733D01*
X136681267Y-106478577D01*
X136686028Y-106467307D01*
X136691604Y-106458347D01*
X140927952Y-106458347D01*
X142240000Y-107770395D01*
X143552048Y-106458347D01*
X146007952Y-106458347D01*
X147320000Y-107770395D01*
X148632048Y-106458347D01*
X148476038Y-106142786D01*
X148101255Y-105951980D01*
X147696449Y-105837956D01*
X147277176Y-105805098D01*
X146859549Y-105854666D01*
X146459617Y-105984757D01*
X146163962Y-106142786D01*
X146007952Y-106458347D01*
X143552048Y-106458347D01*
X143396038Y-106142786D01*
X143021255Y-105951980D01*
X142616449Y-105837956D01*
X142197176Y-105805098D01*
X141779549Y-105854666D01*
X141379617Y-105984757D01*
X141083962Y-106142786D01*
X140927952Y-106458347D01*
X136691604Y-106458347D01*
X136692493Y-106456920D01*
X136696369Y-106448938D01*
X136708202Y-106424130D01*
X136712366Y-106412629D01*
X136718280Y-106401915D01*
X136721733Y-106393741D01*
X136732252Y-106368348D01*
X136735812Y-106356632D01*
X136741157Y-106345624D01*
X136744178Y-106337280D01*
X136753353Y-106311371D01*
X136756295Y-106299484D01*
X136761058Y-106288207D01*
X136763638Y-106279717D01*
X136771444Y-106253363D01*
X136773759Y-106241341D01*
X136777922Y-106229840D01*
X136780054Y-106221227D01*
X136786470Y-106194501D01*
X136788152Y-106182380D01*
X136791707Y-106170678D01*
X136793385Y-106161965D01*
X136798394Y-106134940D01*
X136799439Y-106122748D01*
X136802378Y-106110874D01*
X136803598Y-106102085D01*
X136807186Y-106074834D01*
X136807592Y-106062606D01*
X136809906Y-106050590D01*
X136810664Y-106041749D01*
X136812821Y-106014348D01*
X136812586Y-106002100D01*
X136814269Y-105989969D01*
X136814564Y-105981100D01*
X136815283Y-105953625D01*
X136815004Y-105949739D01*
X136815438Y-105945873D01*
X136815500Y-105937000D01*
X136815500Y-105194217D01*
X136815904Y-105176435D01*
X136815069Y-105165324D01*
X136816020Y-105154226D01*
X136815850Y-105145354D01*
X136815095Y-105116540D01*
X136813583Y-105104406D01*
X136813989Y-105092188D01*
X136813355Y-105083338D01*
X136811094Y-105054602D01*
X136808945Y-105042539D01*
X136808710Y-105030292D01*
X136807613Y-105021487D01*
X136803850Y-104992909D01*
X136801081Y-104981009D01*
X136800207Y-104968816D01*
X136798651Y-104960081D01*
X136793399Y-104931738D01*
X136790002Y-104919969D01*
X136788488Y-104907811D01*
X136786476Y-104899169D01*
X136779748Y-104871142D01*
X136775743Y-104859576D01*
X136774037Y-104850000D01*
X179035280Y-104850000D01*
X179178109Y-104864005D01*
X179282101Y-104895402D01*
X179378014Y-104946399D01*
X179462194Y-105015055D01*
X179531440Y-105098758D01*
X179583105Y-105194311D01*
X179615227Y-105298078D01*
X179630001Y-105438650D01*
X179630000Y-153635280D01*
X179615995Y-153778109D01*
X179584599Y-153882099D01*
X179533601Y-153978013D01*
X179464941Y-154062199D01*
X179381243Y-154131439D01*
X179285689Y-154183105D01*
X179181922Y-154215227D01*
X179041359Y-154230000D01*
X132072884Y-154230000D01*
X132429156Y-153991947D01*
X132782947Y-153638156D01*
X133060919Y-153222141D01*
X133252389Y-152759891D01*
X133350000Y-152269168D01*
X133350000Y-151768832D01*
X133252389Y-151278109D01*
X133060919Y-150815859D01*
X132782947Y-150399844D01*
X132530975Y-150147872D01*
X173533000Y-150147872D01*
X173533000Y-150588128D01*
X173618890Y-151019925D01*
X173787369Y-151426669D01*
X174031962Y-151792729D01*
X174343271Y-152104038D01*
X174709331Y-152348631D01*
X175116075Y-152517110D01*
X175547872Y-152603000D01*
X175988128Y-152603000D01*
X176419925Y-152517110D01*
X176826669Y-152348631D01*
X177192729Y-152104038D01*
X177504038Y-151792729D01*
X177748631Y-151426669D01*
X177917110Y-151019925D01*
X178003000Y-150588128D01*
X178003000Y-150147872D01*
X177917110Y-149716075D01*
X177748631Y-149309331D01*
X177504038Y-148943271D01*
X177192729Y-148631962D01*
X176826669Y-148387369D01*
X176419925Y-148218890D01*
X175988128Y-148133000D01*
X175547872Y-148133000D01*
X175116075Y-148218890D01*
X174709331Y-148387369D01*
X174343271Y-148631962D01*
X174031962Y-148943271D01*
X173787369Y-149309331D01*
X173618890Y-149716075D01*
X173533000Y-150147872D01*
X132530975Y-150147872D01*
X132429156Y-150046053D01*
X132013141Y-149768081D01*
X131550891Y-149576611D01*
X131060168Y-149479000D01*
X130559832Y-149479000D01*
X130069109Y-149576611D01*
X129606859Y-149768081D01*
X129190844Y-150046053D01*
X128837053Y-150399844D01*
X128559081Y-150815859D01*
X128367611Y-151278109D01*
X128270000Y-151768832D01*
X128270000Y-152269168D01*
X128367611Y-152759891D01*
X128559081Y-153222141D01*
X128837053Y-153638156D01*
X129190844Y-153991947D01*
X129547116Y-154230000D01*
X108745872Y-154230000D01*
X108772141Y-154219119D01*
X109188156Y-153941147D01*
X109541947Y-153587356D01*
X109819919Y-153171341D01*
X110011389Y-152709091D01*
X110109000Y-152218368D01*
X110109000Y-151718032D01*
X110011389Y-151227309D01*
X109819919Y-150765059D01*
X109541947Y-150349044D01*
X109188156Y-149995253D01*
X108772141Y-149717281D01*
X108309891Y-149525811D01*
X107819168Y-149428200D01*
X107318832Y-149428200D01*
X106828109Y-149525811D01*
X106365859Y-149717281D01*
X105949844Y-149995253D01*
X105596053Y-150349044D01*
X105318081Y-150765059D01*
X105126611Y-151227309D01*
X105029000Y-151718032D01*
X105029000Y-152218368D01*
X105126611Y-152709091D01*
X105318081Y-153171341D01*
X105596053Y-153587356D01*
X105949844Y-153941147D01*
X106365859Y-154219119D01*
X106392128Y-154230000D01*
X76327000Y-154230000D01*
X76327000Y-146457933D01*
X115189000Y-146457933D01*
X115189000Y-146658067D01*
X115228044Y-146854356D01*
X115304632Y-147039256D01*
X115415821Y-147205662D01*
X115557338Y-147347179D01*
X115723744Y-147458368D01*
X115908644Y-147534956D01*
X116104933Y-147574000D01*
X116305067Y-147574000D01*
X116501356Y-147534956D01*
X116686256Y-147458368D01*
X116852662Y-147347179D01*
X116994179Y-147205662D01*
X117105368Y-147039256D01*
X117178819Y-146861929D01*
X117328815Y-146711933D01*
X123952000Y-146711933D01*
X123952000Y-146912067D01*
X123991044Y-147108356D01*
X124067632Y-147293256D01*
X124178821Y-147459662D01*
X124320338Y-147601179D01*
X124486744Y-147712368D01*
X124671644Y-147788956D01*
X124867933Y-147828000D01*
X125068067Y-147828000D01*
X125264356Y-147788956D01*
X125449256Y-147712368D01*
X125615662Y-147601179D01*
X125680941Y-147535900D01*
X127049059Y-147535900D01*
X127114338Y-147601179D01*
X127280744Y-147712368D01*
X127465644Y-147788956D01*
X127661933Y-147828000D01*
X127862067Y-147828000D01*
X128058356Y-147788956D01*
X128243256Y-147712368D01*
X128409662Y-147601179D01*
X128551179Y-147459662D01*
X128662368Y-147293256D01*
X128738956Y-147108356D01*
X128778000Y-146912067D01*
X128778000Y-146711933D01*
X128738956Y-146515644D01*
X128662368Y-146330744D01*
X128551179Y-146164338D01*
X128409662Y-146022821D01*
X128243256Y-145911632D01*
X128058356Y-145835044D01*
X127862067Y-145796000D01*
X127661933Y-145796000D01*
X127465644Y-145835044D01*
X127280744Y-145911632D01*
X127114338Y-146022821D01*
X127049059Y-146088100D01*
X125680941Y-146088100D01*
X125615662Y-146022821D01*
X125449256Y-145911632D01*
X125264356Y-145835044D01*
X125068067Y-145796000D01*
X124867933Y-145796000D01*
X124671644Y-145835044D01*
X124486744Y-145911632D01*
X124320338Y-146022821D01*
X124178821Y-146164338D01*
X124067632Y-146330744D01*
X123991044Y-146515644D01*
X123952000Y-146711933D01*
X117328815Y-146711933D01*
X119517159Y-144523589D01*
X157659000Y-144523589D01*
X157659000Y-144796411D01*
X157712225Y-145063989D01*
X157816629Y-145316043D01*
X157968201Y-145542886D01*
X158161114Y-145735799D01*
X158387957Y-145887371D01*
X158640011Y-145991775D01*
X158907589Y-146045000D01*
X159180411Y-146045000D01*
X159447989Y-145991775D01*
X159700043Y-145887371D01*
X159926886Y-145735799D01*
X160045692Y-145616993D01*
X160766612Y-145616993D01*
X160832137Y-145855860D01*
X161079116Y-145971760D01*
X161343960Y-146037250D01*
X161616492Y-146049812D01*
X161886238Y-146008965D01*
X162142832Y-145916277D01*
X162255863Y-145855860D01*
X162321388Y-145616993D01*
X161544000Y-144839605D01*
X160766612Y-145616993D01*
X160045692Y-145616993D01*
X160119799Y-145542886D01*
X160271371Y-145316043D01*
X160291861Y-145266574D01*
X160348140Y-145371863D01*
X160587007Y-145437388D01*
X161364395Y-144660000D01*
X160587007Y-143882612D01*
X160348140Y-143948137D01*
X160295082Y-144061201D01*
X160271371Y-144003957D01*
X160119799Y-143777114D01*
X160045692Y-143703007D01*
X160766612Y-143703007D01*
X161544000Y-144480395D01*
X162321388Y-143703007D01*
X162255863Y-143464140D01*
X162008884Y-143348240D01*
X161744040Y-143282750D01*
X161471508Y-143270188D01*
X161201762Y-143311035D01*
X160945168Y-143403723D01*
X160832137Y-143464140D01*
X160766612Y-143703007D01*
X160045692Y-143703007D01*
X159926886Y-143584201D01*
X159700043Y-143432629D01*
X159447989Y-143328225D01*
X159180411Y-143275000D01*
X158907589Y-143275000D01*
X158640011Y-143328225D01*
X158387957Y-143432629D01*
X158161114Y-143584201D01*
X157968201Y-143777114D01*
X157816629Y-144003957D01*
X157712225Y-144256011D01*
X157659000Y-144523589D01*
X119517159Y-144523589D01*
X120276749Y-143764000D01*
X120369067Y-143764000D01*
X120565356Y-143724956D01*
X120750256Y-143648368D01*
X120916662Y-143537179D01*
X121058179Y-143395662D01*
X121169368Y-143229256D01*
X121245956Y-143044356D01*
X121285000Y-142848067D01*
X121285000Y-142647933D01*
X121245956Y-142451644D01*
X121169368Y-142266744D01*
X121058179Y-142100338D01*
X121032741Y-142074900D01*
X152233159Y-142074900D01*
X152298438Y-142140179D01*
X152464844Y-142251368D01*
X152649744Y-142327956D01*
X152846033Y-142367000D01*
X153046167Y-142367000D01*
X153242456Y-142327956D01*
X153427356Y-142251368D01*
X153593762Y-142140179D01*
X153594008Y-142139933D01*
X153924000Y-142139933D01*
X153924000Y-142340067D01*
X153963044Y-142536356D01*
X154039632Y-142721256D01*
X154150821Y-142887662D01*
X154292338Y-143029179D01*
X154458744Y-143140368D01*
X154643644Y-143216956D01*
X154839933Y-143256000D01*
X155040067Y-143256000D01*
X155236356Y-143216956D01*
X155421256Y-143140368D01*
X155587662Y-143029179D01*
X155652941Y-142963900D01*
X162895152Y-142963900D01*
X163320100Y-143388849D01*
X163320100Y-143477970D01*
X163161114Y-143584201D01*
X162968201Y-143777114D01*
X162816629Y-144003957D01*
X162796139Y-144053426D01*
X162739860Y-143948137D01*
X162500993Y-143882612D01*
X161723605Y-144660000D01*
X162500993Y-145437388D01*
X162739860Y-145371863D01*
X162792918Y-145258799D01*
X162816629Y-145316043D01*
X162968201Y-145542886D01*
X163161114Y-145735799D01*
X163387957Y-145887371D01*
X163640011Y-145991775D01*
X163907589Y-146045000D01*
X164180411Y-146045000D01*
X164447989Y-145991775D01*
X164700043Y-145887371D01*
X164926886Y-145735799D01*
X165119799Y-145542886D01*
X165271371Y-145316043D01*
X165375775Y-145063989D01*
X165429000Y-144796411D01*
X165429000Y-144523589D01*
X165375775Y-144256011D01*
X165271371Y-144003957D01*
X165119799Y-143777114D01*
X164926886Y-143584201D01*
X164767900Y-143477970D01*
X164767900Y-143124548D01*
X164771401Y-143088999D01*
X164767900Y-143053451D01*
X164767900Y-143053444D01*
X164757425Y-142947091D01*
X164716032Y-142810635D01*
X164648813Y-142684877D01*
X164558350Y-142574649D01*
X164530734Y-142551985D01*
X163732023Y-141753275D01*
X163709351Y-141725649D01*
X163599123Y-141635187D01*
X163473365Y-141567968D01*
X163336909Y-141526575D01*
X163230556Y-141516100D01*
X163195000Y-141512598D01*
X163159444Y-141516100D01*
X155652941Y-141516100D01*
X155587662Y-141450821D01*
X155421256Y-141339632D01*
X155236356Y-141263044D01*
X155040067Y-141224000D01*
X154839933Y-141224000D01*
X154643644Y-141263044D01*
X154458744Y-141339632D01*
X154292338Y-141450821D01*
X154150821Y-141592338D01*
X154039632Y-141758744D01*
X153963044Y-141943644D01*
X153924000Y-142139933D01*
X153594008Y-142139933D01*
X153735279Y-141998662D01*
X153846468Y-141832256D01*
X153923056Y-141647356D01*
X153962100Y-141451067D01*
X153962100Y-141250933D01*
X153923056Y-141054644D01*
X153846468Y-140869744D01*
X153735279Y-140703338D01*
X153593762Y-140561821D01*
X153427356Y-140450632D01*
X153242456Y-140374044D01*
X153046167Y-140335000D01*
X152846033Y-140335000D01*
X152649744Y-140374044D01*
X152464844Y-140450632D01*
X152298438Y-140561821D01*
X152233159Y-140627100D01*
X119044849Y-140627100D01*
X117348000Y-138930252D01*
X117348000Y-138837933D01*
X117308956Y-138641644D01*
X117232368Y-138456744D01*
X117121179Y-138290338D01*
X116979662Y-138148821D01*
X116813256Y-138037632D01*
X116628356Y-137961044D01*
X116432067Y-137922000D01*
X116231933Y-137922000D01*
X116035644Y-137961044D01*
X115850744Y-138037632D01*
X115684338Y-138148821D01*
X115542821Y-138290338D01*
X115431632Y-138456744D01*
X115355044Y-138641644D01*
X115316000Y-138837933D01*
X115316000Y-139038067D01*
X115355044Y-139234356D01*
X115431632Y-139419256D01*
X115542821Y-139585662D01*
X115684338Y-139727179D01*
X115850744Y-139838368D01*
X116035644Y-139914956D01*
X116231933Y-139954000D01*
X116324252Y-139954000D01*
X118207981Y-141837730D01*
X118230649Y-141865351D01*
X118340877Y-141955813D01*
X118466635Y-142023032D01*
X118571331Y-142054791D01*
X118603090Y-142064425D01*
X118616950Y-142065790D01*
X118709444Y-142074900D01*
X118709451Y-142074900D01*
X118744999Y-142078401D01*
X118780548Y-142074900D01*
X119505259Y-142074900D01*
X119479821Y-142100338D01*
X119368632Y-142266744D01*
X119292044Y-142451644D01*
X119253000Y-142647933D01*
X119253000Y-142740251D01*
X116426998Y-145566253D01*
X116305067Y-145542000D01*
X116104933Y-145542000D01*
X115908644Y-145581044D01*
X115723744Y-145657632D01*
X115557338Y-145768821D01*
X115415821Y-145910338D01*
X115304632Y-146076744D01*
X115228044Y-146261644D01*
X115189000Y-146457933D01*
X76327000Y-146457933D01*
X76327000Y-133376933D01*
X92329000Y-133376933D01*
X92329000Y-133577067D01*
X92368044Y-133773356D01*
X92444632Y-133958256D01*
X92555821Y-134124662D01*
X92697338Y-134266179D01*
X92863744Y-134377368D01*
X93048644Y-134453956D01*
X93244933Y-134493000D01*
X93337252Y-134493000D01*
X96363985Y-137519735D01*
X96386649Y-137547351D01*
X96496877Y-137637813D01*
X96622635Y-137705032D01*
X96727331Y-137736791D01*
X96759090Y-137746425D01*
X96772950Y-137747790D01*
X96865444Y-137756900D01*
X96865451Y-137756900D01*
X96900999Y-137760401D01*
X96936547Y-137756900D01*
X152135444Y-137756900D01*
X152171000Y-137760402D01*
X152312909Y-137746425D01*
X152449365Y-137705032D01*
X152575123Y-137637813D01*
X152685351Y-137547351D01*
X152708024Y-137519724D01*
X153905928Y-136321820D01*
X153905928Y-138010000D01*
X153931639Y-138271045D01*
X154007783Y-138522058D01*
X154131434Y-138753393D01*
X154297840Y-138956160D01*
X154500607Y-139122566D01*
X154731942Y-139246217D01*
X154982955Y-139322361D01*
X155244000Y-139348072D01*
X156644000Y-139348072D01*
X156905045Y-139322361D01*
X157156058Y-139246217D01*
X157387393Y-139122566D01*
X157590160Y-138956160D01*
X157756566Y-138753393D01*
X157880217Y-138522058D01*
X157956361Y-138271045D01*
X157982072Y-138010000D01*
X157982072Y-136310000D01*
X165105928Y-136310000D01*
X165105928Y-138010000D01*
X165131639Y-138271045D01*
X165207783Y-138522058D01*
X165331434Y-138753393D01*
X165497840Y-138956160D01*
X165700607Y-139122566D01*
X165931942Y-139246217D01*
X166182955Y-139322361D01*
X166444000Y-139348072D01*
X167844000Y-139348072D01*
X168105045Y-139322361D01*
X168356058Y-139246217D01*
X168587393Y-139122566D01*
X168790160Y-138956160D01*
X168956566Y-138753393D01*
X169080217Y-138522058D01*
X169156361Y-138271045D01*
X169182072Y-138010000D01*
X169182072Y-136310000D01*
X169156361Y-136048955D01*
X169080217Y-135797942D01*
X168956566Y-135566607D01*
X168790160Y-135363840D01*
X168587393Y-135197434D01*
X168356058Y-135073783D01*
X168105045Y-134997639D01*
X167844000Y-134971928D01*
X166444000Y-134971928D01*
X166182955Y-134997639D01*
X165931942Y-135073783D01*
X165700607Y-135197434D01*
X165497840Y-135363840D01*
X165331434Y-135566607D01*
X165207783Y-135797942D01*
X165131639Y-136048955D01*
X165105928Y-136310000D01*
X157982072Y-136310000D01*
X157956361Y-136048955D01*
X157880217Y-135797942D01*
X157756566Y-135566607D01*
X157590160Y-135363840D01*
X157387393Y-135197434D01*
X157156058Y-135073783D01*
X156905045Y-134997639D01*
X156644000Y-134971928D01*
X155255820Y-134971928D01*
X158720053Y-131507696D01*
X158907589Y-131545000D01*
X159180411Y-131545000D01*
X159447989Y-131491775D01*
X159700043Y-131387371D01*
X159926886Y-131235799D01*
X160045692Y-131116993D01*
X163266612Y-131116993D01*
X163332137Y-131355860D01*
X163579116Y-131471760D01*
X163843960Y-131537250D01*
X164116492Y-131549812D01*
X164386238Y-131508965D01*
X164642832Y-131416277D01*
X164755863Y-131355860D01*
X164821388Y-131116993D01*
X164044000Y-130339605D01*
X163266612Y-131116993D01*
X160045692Y-131116993D01*
X160119799Y-131042886D01*
X160271371Y-130816043D01*
X160375775Y-130563989D01*
X160429000Y-130296411D01*
X160429000Y-130232492D01*
X162654188Y-130232492D01*
X162695035Y-130502238D01*
X162787723Y-130758832D01*
X162848140Y-130871863D01*
X163087007Y-130937388D01*
X163864395Y-130160000D01*
X164223605Y-130160000D01*
X165000993Y-130937388D01*
X165239860Y-130871863D01*
X165355760Y-130624884D01*
X165421250Y-130360040D01*
X165433812Y-130087508D01*
X165392965Y-129817762D01*
X165300277Y-129561168D01*
X165239860Y-129448137D01*
X165000993Y-129382612D01*
X164223605Y-130160000D01*
X163864395Y-130160000D01*
X163087007Y-129382612D01*
X162848140Y-129448137D01*
X162732240Y-129695116D01*
X162666750Y-129959960D01*
X162654188Y-130232492D01*
X160429000Y-130232492D01*
X160429000Y-130023589D01*
X160375775Y-129756011D01*
X160271371Y-129503957D01*
X160119799Y-129277114D01*
X160045692Y-129203007D01*
X163266612Y-129203007D01*
X164044000Y-129980395D01*
X164821388Y-129203007D01*
X164755863Y-128964140D01*
X164508884Y-128848240D01*
X164244040Y-128782750D01*
X163971508Y-128770188D01*
X163701762Y-128811035D01*
X163445168Y-128903723D01*
X163332137Y-128964140D01*
X163266612Y-129203007D01*
X160045692Y-129203007D01*
X159926886Y-129084201D01*
X159700043Y-128932629D01*
X159447989Y-128828225D01*
X159180411Y-128775000D01*
X158907589Y-128775000D01*
X158640011Y-128828225D01*
X158387957Y-128932629D01*
X158161114Y-129084201D01*
X157968201Y-129277114D01*
X157816629Y-129503957D01*
X157712225Y-129756011D01*
X157659000Y-130023589D01*
X157659000Y-130296411D01*
X157696304Y-130483947D01*
X151871152Y-136309100D01*
X97200850Y-136309100D01*
X94361000Y-133469252D01*
X94361000Y-133376933D01*
X94321956Y-133180644D01*
X94245368Y-132995744D01*
X94134179Y-132829338D01*
X93992662Y-132687821D01*
X93826256Y-132576632D01*
X93641356Y-132500044D01*
X93445067Y-132461000D01*
X93244933Y-132461000D01*
X93048644Y-132500044D01*
X92863744Y-132576632D01*
X92697338Y-132687821D01*
X92555821Y-132829338D01*
X92444632Y-132995744D01*
X92368044Y-133180644D01*
X92329000Y-133376933D01*
X76327000Y-133376933D01*
X76327000Y-130074933D01*
X95885000Y-130074933D01*
X95885000Y-130275067D01*
X95924044Y-130471356D01*
X96000632Y-130656256D01*
X96111821Y-130822662D01*
X96253338Y-130964179D01*
X96419744Y-131075368D01*
X96604644Y-131151956D01*
X96800933Y-131191000D01*
X96893250Y-131191000D01*
X96912107Y-131209857D01*
X96912118Y-131209866D01*
X98301183Y-132598932D01*
X98298000Y-132614933D01*
X98298000Y-132815067D01*
X98337044Y-133011356D01*
X98413632Y-133196256D01*
X98524821Y-133362662D01*
X98666338Y-133504179D01*
X98832744Y-133615368D01*
X99017644Y-133691956D01*
X99213933Y-133731000D01*
X99414067Y-133731000D01*
X99610356Y-133691956D01*
X99795256Y-133615368D01*
X99961662Y-133504179D01*
X100103179Y-133362662D01*
X100214368Y-133196256D01*
X100290956Y-133011356D01*
X100330000Y-132815067D01*
X100330000Y-132614933D01*
X100290956Y-132418644D01*
X100214368Y-132233744D01*
X100103179Y-132067338D01*
X99961662Y-131925821D01*
X99795256Y-131814632D01*
X99610356Y-131738044D01*
X99457360Y-131707612D01*
X97935866Y-130186118D01*
X97935857Y-130186107D01*
X97917000Y-130167250D01*
X97917000Y-130074933D01*
X97877956Y-129878644D01*
X97801368Y-129693744D01*
X97690179Y-129527338D01*
X97548662Y-129385821D01*
X97382256Y-129274632D01*
X97197356Y-129198044D01*
X97001067Y-129159000D01*
X96800933Y-129159000D01*
X96604644Y-129198044D01*
X96419744Y-129274632D01*
X96253338Y-129385821D01*
X96111821Y-129527338D01*
X96000632Y-129693744D01*
X95924044Y-129878644D01*
X95885000Y-130074933D01*
X76327000Y-130074933D01*
X76327000Y-127153933D01*
X90297000Y-127153933D01*
X90297000Y-127354067D01*
X90336044Y-127550356D01*
X90412632Y-127735256D01*
X90523821Y-127901662D01*
X90665338Y-128043179D01*
X90831744Y-128154368D01*
X91016644Y-128230956D01*
X91212933Y-128270000D01*
X91413067Y-128270000D01*
X91609356Y-128230956D01*
X91622354Y-128225572D01*
X105064560Y-128225572D01*
X105064560Y-128725908D01*
X105162171Y-129216631D01*
X105353641Y-129678881D01*
X105631613Y-130094896D01*
X105985404Y-130448687D01*
X106401419Y-130726659D01*
X106863669Y-130918129D01*
X107354392Y-131015740D01*
X107854728Y-131015740D01*
X108345451Y-130918129D01*
X108807701Y-130726659D01*
X109223716Y-130448687D01*
X109577507Y-130094896D01*
X109855479Y-129678881D01*
X110046949Y-129216631D01*
X110144560Y-128725908D01*
X110144560Y-128225572D01*
X110098078Y-127991891D01*
X113963419Y-127991891D01*
X114060743Y-128266252D01*
X114209722Y-128516355D01*
X114404631Y-128732588D01*
X114637980Y-128906641D01*
X114900801Y-129031825D01*
X115048010Y-129076476D01*
X115277900Y-128955155D01*
X115277900Y-127762000D01*
X114084086Y-127762000D01*
X113963419Y-127991891D01*
X110098078Y-127991891D01*
X110046949Y-127734849D01*
X109857762Y-127278109D01*
X113963419Y-127278109D01*
X114084086Y-127508000D01*
X115277900Y-127508000D01*
X115277900Y-126314845D01*
X115531900Y-126314845D01*
X115531900Y-127508000D01*
X115551900Y-127508000D01*
X115551900Y-127762000D01*
X115531900Y-127762000D01*
X115531900Y-128955155D01*
X115761790Y-129076476D01*
X115908999Y-129031825D01*
X116171820Y-128906641D01*
X116405169Y-128732588D01*
X116600078Y-128516355D01*
X116669705Y-128399466D01*
X116791425Y-128581632D01*
X116998268Y-128788475D01*
X117241489Y-128950990D01*
X117511742Y-129062932D01*
X117798640Y-129120000D01*
X118091160Y-129120000D01*
X118378058Y-129062932D01*
X118648311Y-128950990D01*
X118891532Y-128788475D01*
X119098375Y-128581632D01*
X119214900Y-128407240D01*
X119331425Y-128581632D01*
X119538268Y-128788475D01*
X119781489Y-128950990D01*
X120051742Y-129062932D01*
X120338640Y-129120000D01*
X120631160Y-129120000D01*
X120918058Y-129062932D01*
X121188311Y-128950990D01*
X121431532Y-128788475D01*
X121563387Y-128656620D01*
X121585398Y-128729180D01*
X121644363Y-128839494D01*
X121723715Y-128936185D01*
X121820406Y-129015537D01*
X121930720Y-129074502D01*
X122050418Y-129110812D01*
X122174900Y-129123072D01*
X123698432Y-129123072D01*
X123685338Y-129131821D01*
X123543821Y-129273338D01*
X123432632Y-129439744D01*
X123356044Y-129624644D01*
X123317000Y-129820933D01*
X123317000Y-129954356D01*
X123279969Y-130023635D01*
X123238576Y-130160090D01*
X123224599Y-130301999D01*
X123228102Y-130337565D01*
X123228100Y-134368544D01*
X123224598Y-134404100D01*
X123229509Y-134453956D01*
X123238575Y-134546008D01*
X123279968Y-134682464D01*
X123317000Y-134751746D01*
X123317000Y-134885167D01*
X123356044Y-135081456D01*
X123432632Y-135266356D01*
X123543821Y-135432762D01*
X123685338Y-135574279D01*
X123851744Y-135685468D01*
X124036644Y-135762056D01*
X124232933Y-135801100D01*
X124433067Y-135801100D01*
X124629356Y-135762056D01*
X124814256Y-135685468D01*
X124980662Y-135574279D01*
X125122179Y-135432762D01*
X125233368Y-135266356D01*
X125309956Y-135081456D01*
X125349000Y-134885167D01*
X125349000Y-134685033D01*
X125309956Y-134488744D01*
X125233368Y-134303844D01*
X125122179Y-134137438D01*
X124980662Y-133995921D01*
X124814256Y-133884732D01*
X124675899Y-133827423D01*
X124675901Y-130878677D01*
X124814256Y-130821368D01*
X124980662Y-130710179D01*
X125122179Y-130568662D01*
X125233368Y-130402256D01*
X125309956Y-130217356D01*
X125349000Y-130021067D01*
X125349000Y-129820933D01*
X125309956Y-129624644D01*
X125233368Y-129439744D01*
X125122179Y-129273338D01*
X124980662Y-129131821D01*
X124814256Y-129020632D01*
X124629356Y-128944044D01*
X124433067Y-128905000D01*
X124351678Y-128905000D01*
X124405437Y-128839494D01*
X124464402Y-128729180D01*
X124500712Y-128609482D01*
X124512972Y-128485000D01*
X124512972Y-128273832D01*
X128270000Y-128273832D01*
X128270000Y-128774168D01*
X128367611Y-129264891D01*
X128559081Y-129727141D01*
X128837053Y-130143156D01*
X129190844Y-130496947D01*
X129606859Y-130774919D01*
X130069109Y-130966389D01*
X130559832Y-131064000D01*
X131060168Y-131064000D01*
X131550891Y-130966389D01*
X132013141Y-130774919D01*
X132429156Y-130496947D01*
X132782947Y-130143156D01*
X133060919Y-129727141D01*
X133252389Y-129264891D01*
X133350000Y-128774168D01*
X133350000Y-128273832D01*
X133252389Y-127783109D01*
X133060919Y-127320859D01*
X132782947Y-126904844D01*
X132429156Y-126551053D01*
X132013141Y-126273081D01*
X131550891Y-126081611D01*
X131060168Y-125984000D01*
X130559832Y-125984000D01*
X130069109Y-126081611D01*
X129606859Y-126273081D01*
X129190844Y-126551053D01*
X128837053Y-126904844D01*
X128559081Y-127320859D01*
X128367611Y-127783109D01*
X128270000Y-128273832D01*
X124512972Y-128273832D01*
X124512972Y-126785000D01*
X124500712Y-126660518D01*
X124464402Y-126540820D01*
X124405437Y-126430506D01*
X124326085Y-126333815D01*
X124229394Y-126254463D01*
X124119080Y-126195498D01*
X123999382Y-126159188D01*
X123874900Y-126146928D01*
X122174900Y-126146928D01*
X122050418Y-126159188D01*
X121930720Y-126195498D01*
X121820406Y-126254463D01*
X121723715Y-126333815D01*
X121644363Y-126430506D01*
X121585398Y-126540820D01*
X121563387Y-126613380D01*
X121431532Y-126481525D01*
X121188311Y-126319010D01*
X120918058Y-126207068D01*
X120631160Y-126150000D01*
X120338640Y-126150000D01*
X120051742Y-126207068D01*
X119781489Y-126319010D01*
X119538268Y-126481525D01*
X119331425Y-126688368D01*
X119214900Y-126862760D01*
X119098375Y-126688368D01*
X118891532Y-126481525D01*
X118648311Y-126319010D01*
X118378058Y-126207068D01*
X118091160Y-126150000D01*
X117798640Y-126150000D01*
X117511742Y-126207068D01*
X117241489Y-126319010D01*
X116998268Y-126481525D01*
X116791425Y-126688368D01*
X116669705Y-126870534D01*
X116600078Y-126753645D01*
X116405169Y-126537412D01*
X116171820Y-126363359D01*
X115908999Y-126238175D01*
X115761790Y-126193524D01*
X115531900Y-126314845D01*
X115277900Y-126314845D01*
X115048010Y-126193524D01*
X114900801Y-126238175D01*
X114637980Y-126363359D01*
X114404631Y-126537412D01*
X114209722Y-126753645D01*
X114060743Y-127003748D01*
X113963419Y-127278109D01*
X109857762Y-127278109D01*
X109855479Y-127272599D01*
X109577507Y-126856584D01*
X109223716Y-126502793D01*
X108807701Y-126224821D01*
X108345451Y-126033351D01*
X107854728Y-125935740D01*
X107354392Y-125935740D01*
X106863669Y-126033351D01*
X106401419Y-126224821D01*
X105985404Y-126502793D01*
X105631613Y-126856584D01*
X105353641Y-127272599D01*
X105162171Y-127734849D01*
X105064560Y-128225572D01*
X91622354Y-128225572D01*
X91794256Y-128154368D01*
X91960662Y-128043179D01*
X92025941Y-127977900D01*
X95194634Y-127977900D01*
X95230190Y-127981402D01*
X95372099Y-127967425D01*
X95508555Y-127926032D01*
X95634313Y-127858813D01*
X95744541Y-127768351D01*
X95767214Y-127740724D01*
X97689039Y-125818900D01*
X147401152Y-125818900D01*
X153360159Y-131777908D01*
X153356775Y-131781292D01*
X153245586Y-131947698D01*
X153168998Y-132132598D01*
X153129954Y-132328887D01*
X153129954Y-132529021D01*
X153168998Y-132725310D01*
X153245586Y-132910210D01*
X153356775Y-133076616D01*
X153498292Y-133218133D01*
X153664698Y-133329322D01*
X153849598Y-133405910D01*
X154045887Y-133444954D01*
X154246021Y-133444954D01*
X154442310Y-133405910D01*
X154627210Y-133329322D01*
X154793616Y-133218133D01*
X154935133Y-133076616D01*
X155046322Y-132910210D01*
X155122910Y-132725310D01*
X155161954Y-132529021D01*
X155161954Y-132328887D01*
X155122910Y-132132598D01*
X155046322Y-131947698D01*
X154935133Y-131781292D01*
X154869854Y-131716013D01*
X154869854Y-131575502D01*
X154873355Y-131539953D01*
X154869854Y-131504405D01*
X154869854Y-131504398D01*
X154859379Y-131398045D01*
X154852628Y-131375788D01*
X154825186Y-131285326D01*
X154817986Y-131261589D01*
X154750767Y-131135831D01*
X154660304Y-131025603D01*
X154632688Y-131002939D01*
X148238024Y-124608276D01*
X148215351Y-124580649D01*
X148105123Y-124490187D01*
X147979365Y-124422968D01*
X147842909Y-124381575D01*
X147736556Y-124371100D01*
X147701000Y-124367598D01*
X147665444Y-124371100D01*
X97424745Y-124371100D01*
X97389189Y-124367598D01*
X97247280Y-124381575D01*
X97110825Y-124422968D01*
X96985067Y-124490187D01*
X96874839Y-124580649D01*
X96852171Y-124608270D01*
X94930342Y-126530100D01*
X92025941Y-126530100D01*
X91960662Y-126464821D01*
X91794256Y-126353632D01*
X91609356Y-126277044D01*
X91413067Y-126238000D01*
X91212933Y-126238000D01*
X91016644Y-126277044D01*
X90831744Y-126353632D01*
X90665338Y-126464821D01*
X90523821Y-126606338D01*
X90412632Y-126772744D01*
X90336044Y-126957644D01*
X90297000Y-127153933D01*
X76327000Y-127153933D01*
X76327000Y-117628933D01*
X90551000Y-117628933D01*
X90551000Y-117829067D01*
X90590044Y-118025356D01*
X90666632Y-118210256D01*
X90777821Y-118376662D01*
X90843100Y-118441941D01*
X90843101Y-122138434D01*
X90839598Y-122174000D01*
X90853575Y-122315909D01*
X90894968Y-122452364D01*
X90894969Y-122452365D01*
X90962188Y-122578123D01*
X91052650Y-122688351D01*
X91080271Y-122711019D01*
X92202000Y-123832749D01*
X92202000Y-123925067D01*
X92241044Y-124121356D01*
X92317632Y-124306256D01*
X92428821Y-124472662D01*
X92570338Y-124614179D01*
X92736744Y-124725368D01*
X92921644Y-124801956D01*
X93117933Y-124841000D01*
X93318067Y-124841000D01*
X93514356Y-124801956D01*
X93699256Y-124725368D01*
X93865662Y-124614179D01*
X94007179Y-124472662D01*
X94118368Y-124306256D01*
X94194956Y-124121356D01*
X94234000Y-123925067D01*
X94234000Y-123724933D01*
X94194956Y-123528644D01*
X94118368Y-123343744D01*
X94007179Y-123177338D01*
X93865662Y-123035821D01*
X93699256Y-122924632D01*
X93514356Y-122848044D01*
X93318067Y-122809000D01*
X93225749Y-122809000D01*
X92290900Y-121874152D01*
X92290900Y-119660933D01*
X95885000Y-119660933D01*
X95885000Y-119861067D01*
X95924044Y-120057356D01*
X96000632Y-120242256D01*
X96111821Y-120408662D01*
X96226159Y-120523000D01*
X96111821Y-120637338D01*
X96000632Y-120803744D01*
X95924044Y-120988644D01*
X95885000Y-121184933D01*
X95885000Y-121385067D01*
X95924044Y-121581356D01*
X96000632Y-121766256D01*
X96111821Y-121932662D01*
X96253338Y-122074179D01*
X96419744Y-122185368D01*
X96604644Y-122261956D01*
X96800933Y-122301000D01*
X97001067Y-122301000D01*
X97197356Y-122261956D01*
X97382256Y-122185368D01*
X97513311Y-122097800D01*
X99497262Y-122097800D01*
X99340744Y-122162632D01*
X99174338Y-122273821D01*
X99032821Y-122415338D01*
X98921632Y-122581744D01*
X98845044Y-122766644D01*
X98806000Y-122962933D01*
X98806000Y-123163067D01*
X98845044Y-123359356D01*
X98921632Y-123544256D01*
X99032821Y-123710662D01*
X99174338Y-123852179D01*
X99340744Y-123963368D01*
X99525644Y-124039956D01*
X99721933Y-124079000D01*
X99922067Y-124079000D01*
X100118356Y-124039956D01*
X100303256Y-123963368D01*
X100469662Y-123852179D01*
X100534941Y-123786900D01*
X119048061Y-123786900D01*
X119113338Y-123852177D01*
X119279744Y-123963366D01*
X119464644Y-124039954D01*
X119660933Y-124078998D01*
X119861067Y-124078998D01*
X120057356Y-124039954D01*
X120242256Y-123963366D01*
X120408662Y-123852177D01*
X120550179Y-123710660D01*
X120661368Y-123544254D01*
X120737956Y-123359354D01*
X120777000Y-123163065D01*
X120777000Y-122962931D01*
X120737956Y-122766642D01*
X120661368Y-122581742D01*
X120550179Y-122415336D01*
X120408662Y-122273819D01*
X120242256Y-122162630D01*
X120057356Y-122086042D01*
X119861067Y-122046998D01*
X119660933Y-122046998D01*
X119464644Y-122086042D01*
X119279744Y-122162630D01*
X119113338Y-122273819D01*
X119048057Y-122339100D01*
X106299000Y-122339100D01*
X106299000Y-122200933D01*
X106259956Y-122004644D01*
X106183368Y-121819744D01*
X106072179Y-121653338D01*
X106005636Y-121586795D01*
X105996425Y-121493273D01*
X105955032Y-121356818D01*
X105937514Y-121324044D01*
X105887813Y-121231060D01*
X105797350Y-121120832D01*
X105769734Y-121098168D01*
X105323505Y-120651939D01*
X105339392Y-120653504D01*
X105374948Y-120650002D01*
X165534342Y-120650002D01*
X165569898Y-120653504D01*
X165711807Y-120639527D01*
X165799361Y-120612968D01*
X165848263Y-120598134D01*
X165974021Y-120530915D01*
X166084249Y-120440453D01*
X166106922Y-120412826D01*
X167139749Y-119380000D01*
X167232067Y-119380000D01*
X167428356Y-119340956D01*
X167613256Y-119264368D01*
X167779662Y-119153179D01*
X167921179Y-119011662D01*
X168032368Y-118845256D01*
X168108956Y-118660356D01*
X168148000Y-118464067D01*
X168148000Y-118263933D01*
X168108956Y-118067644D01*
X168032368Y-117882744D01*
X167921179Y-117716338D01*
X167779662Y-117574821D01*
X167613256Y-117463632D01*
X167428356Y-117387044D01*
X167232067Y-117348000D01*
X167031933Y-117348000D01*
X166835644Y-117387044D01*
X166650744Y-117463632D01*
X166484338Y-117574821D01*
X166342821Y-117716338D01*
X166231632Y-117882744D01*
X166155044Y-118067644D01*
X166116000Y-118263933D01*
X166116000Y-118356251D01*
X165270050Y-119202202D01*
X105639241Y-119202202D01*
X103552314Y-117115276D01*
X103529641Y-117087649D01*
X103419413Y-116997187D01*
X103293655Y-116929968D01*
X103157199Y-116888575D01*
X103050846Y-116878100D01*
X103015290Y-116874598D01*
X102979734Y-116878100D01*
X99645941Y-116878100D01*
X99580662Y-116812821D01*
X99414256Y-116701632D01*
X99229356Y-116625044D01*
X99033067Y-116586000D01*
X98832933Y-116586000D01*
X98636644Y-116625044D01*
X98451744Y-116701632D01*
X98285338Y-116812821D01*
X98143821Y-116954338D01*
X98032632Y-117120744D01*
X97956044Y-117305644D01*
X97917000Y-117501933D01*
X97917000Y-117702067D01*
X97956044Y-117898356D01*
X98032632Y-118083256D01*
X98075093Y-118146804D01*
X97890067Y-118110000D01*
X97689933Y-118110000D01*
X97493644Y-118149044D01*
X97308744Y-118225632D01*
X97142338Y-118336821D01*
X97000821Y-118478338D01*
X96889632Y-118644744D01*
X96848105Y-118745000D01*
X96800933Y-118745000D01*
X96604644Y-118784044D01*
X96419744Y-118860632D01*
X96253338Y-118971821D01*
X96111821Y-119113338D01*
X96000632Y-119279744D01*
X95924044Y-119464644D01*
X95885000Y-119660933D01*
X92290900Y-119660933D01*
X92290900Y-118441941D01*
X92356179Y-118376662D01*
X92467368Y-118210256D01*
X92543956Y-118025356D01*
X92583000Y-117829067D01*
X92583000Y-117628933D01*
X92543956Y-117432644D01*
X92467368Y-117247744D01*
X92356179Y-117081338D01*
X92214662Y-116939821D01*
X92048256Y-116828632D01*
X91863356Y-116752044D01*
X91667067Y-116713000D01*
X91466933Y-116713000D01*
X91270644Y-116752044D01*
X91085744Y-116828632D01*
X90919338Y-116939821D01*
X90777821Y-117081338D01*
X90666632Y-117247744D01*
X90590044Y-117432644D01*
X90551000Y-117628933D01*
X76327000Y-117628933D01*
X76327000Y-113151894D01*
X101948961Y-113151894D01*
X101948961Y-113352028D01*
X101988005Y-113548317D01*
X102064593Y-113733217D01*
X102175782Y-113899623D01*
X102317299Y-114041140D01*
X102483705Y-114152329D01*
X102668605Y-114228917D01*
X102864894Y-114267961D01*
X103065028Y-114267961D01*
X103261317Y-114228917D01*
X103446217Y-114152329D01*
X103612623Y-114041140D01*
X103677902Y-113975861D01*
X104517483Y-113975861D01*
X104553039Y-113979363D01*
X104694948Y-113965386D01*
X104831404Y-113923993D01*
X104957162Y-113856774D01*
X105067390Y-113766312D01*
X105090062Y-113738686D01*
X105417748Y-113411000D01*
X105510067Y-113411000D01*
X105706356Y-113371956D01*
X105891256Y-113295368D01*
X106057662Y-113184179D01*
X106199179Y-113042662D01*
X106310368Y-112876256D01*
X106386956Y-112691356D01*
X106426000Y-112495067D01*
X106426000Y-112356900D01*
X106475059Y-112356900D01*
X106540338Y-112422179D01*
X106706744Y-112533368D01*
X106891644Y-112609956D01*
X107087933Y-112649000D01*
X107288067Y-112649000D01*
X107484356Y-112609956D01*
X107669256Y-112533368D01*
X107835662Y-112422179D01*
X107977179Y-112280662D01*
X108088368Y-112114256D01*
X108164956Y-111929356D01*
X108204000Y-111733067D01*
X108204000Y-111532933D01*
X108164956Y-111336644D01*
X108088368Y-111151744D01*
X107977179Y-110985338D01*
X107835662Y-110843821D01*
X107669256Y-110732632D01*
X107484356Y-110656044D01*
X107288067Y-110617000D01*
X107087933Y-110617000D01*
X106891644Y-110656044D01*
X106706744Y-110732632D01*
X106540338Y-110843821D01*
X106475059Y-110909100D01*
X106286064Y-110909100D01*
X106299000Y-110844067D01*
X106299000Y-110643933D01*
X106259956Y-110447644D01*
X106183368Y-110262744D01*
X106072179Y-110096338D01*
X105930662Y-109954821D01*
X105764256Y-109843632D01*
X105579356Y-109767044D01*
X105383067Y-109728000D01*
X105182933Y-109728000D01*
X104986644Y-109767044D01*
X104801744Y-109843632D01*
X104635338Y-109954821D01*
X104570059Y-110020100D01*
X103836967Y-110020100D01*
X103771662Y-109954795D01*
X103605256Y-109843606D01*
X103420356Y-109767018D01*
X103224067Y-109727974D01*
X103023933Y-109727974D01*
X102827644Y-109767018D01*
X102642744Y-109843606D01*
X102476338Y-109954795D01*
X102334821Y-110096312D01*
X102223632Y-110262718D01*
X102147044Y-110447618D01*
X102108000Y-110643907D01*
X102108000Y-110844041D01*
X102147044Y-111040330D01*
X102223632Y-111225230D01*
X102334821Y-111391636D01*
X102396732Y-111453547D01*
X102373166Y-111572023D01*
X102373166Y-111772157D01*
X102412210Y-111968446D01*
X102488798Y-112153346D01*
X102591444Y-112306966D01*
X102483705Y-112351593D01*
X102317299Y-112462782D01*
X102175782Y-112604299D01*
X102064593Y-112770705D01*
X101988005Y-112955605D01*
X101948961Y-113151894D01*
X76327000Y-113151894D01*
X76327000Y-109441653D01*
X140927952Y-109441653D01*
X141083962Y-109757214D01*
X141458745Y-109948020D01*
X141863551Y-110062044D01*
X142282824Y-110094902D01*
X142700451Y-110045334D01*
X143100383Y-109915243D01*
X143396038Y-109757214D01*
X143552048Y-109441653D01*
X146007952Y-109441653D01*
X146163962Y-109757214D01*
X146538745Y-109948020D01*
X146943551Y-110062044D01*
X147362824Y-110094902D01*
X147780451Y-110045334D01*
X148180383Y-109915243D01*
X148476038Y-109757214D01*
X148632048Y-109441653D01*
X147320000Y-108129605D01*
X146007952Y-109441653D01*
X143552048Y-109441653D01*
X142240000Y-108129605D01*
X140927952Y-109441653D01*
X76327000Y-109441653D01*
X76327000Y-107992824D01*
X140095098Y-107992824D01*
X140144666Y-108410451D01*
X140274757Y-108810383D01*
X140432786Y-109106038D01*
X140748347Y-109262048D01*
X142060395Y-107950000D01*
X142419605Y-107950000D01*
X143731653Y-109262048D01*
X144047214Y-109106038D01*
X144238020Y-108731255D01*
X144352044Y-108326449D01*
X144378189Y-107992824D01*
X145175098Y-107992824D01*
X145224666Y-108410451D01*
X145354757Y-108810383D01*
X145512786Y-109106038D01*
X145828347Y-109262048D01*
X147140395Y-107950000D01*
X147499605Y-107950000D01*
X148811653Y-109262048D01*
X149127214Y-109106038D01*
X149318020Y-108731255D01*
X149432044Y-108326449D01*
X149464902Y-107907176D01*
X149445027Y-107739721D01*
X150265000Y-107739721D01*
X150265000Y-108160279D01*
X150347047Y-108572756D01*
X150507988Y-108961302D01*
X150741637Y-109310983D01*
X151039017Y-109608363D01*
X151388698Y-109842012D01*
X151777244Y-110002953D01*
X152189721Y-110085000D01*
X152610279Y-110085000D01*
X153022756Y-110002953D01*
X153411302Y-109842012D01*
X153760983Y-109608363D01*
X154058363Y-109310983D01*
X154292012Y-108961302D01*
X154452953Y-108572756D01*
X154535000Y-108160279D01*
X154535000Y-107739721D01*
X155345000Y-107739721D01*
X155345000Y-108160279D01*
X155427047Y-108572756D01*
X155587988Y-108961302D01*
X155821637Y-109310983D01*
X156119017Y-109608363D01*
X156468698Y-109842012D01*
X156857244Y-110002953D01*
X157269721Y-110085000D01*
X157690279Y-110085000D01*
X158102756Y-110002953D01*
X158491302Y-109842012D01*
X158840983Y-109608363D01*
X159138363Y-109310983D01*
X159372012Y-108961302D01*
X159532953Y-108572756D01*
X159615000Y-108160279D01*
X159615000Y-107739721D01*
X160425000Y-107739721D01*
X160425000Y-108160279D01*
X160507047Y-108572756D01*
X160667988Y-108961302D01*
X160901637Y-109310983D01*
X161199017Y-109608363D01*
X161548698Y-109842012D01*
X161937244Y-110002953D01*
X162349721Y-110085000D01*
X162770279Y-110085000D01*
X163182756Y-110002953D01*
X163571302Y-109842012D01*
X163920983Y-109608363D01*
X164218363Y-109310983D01*
X164452012Y-108961302D01*
X164612953Y-108572756D01*
X164695000Y-108160279D01*
X164695000Y-107739721D01*
X164612953Y-107327244D01*
X164452012Y-106938698D01*
X164218363Y-106589017D01*
X164079346Y-106450000D01*
X165501928Y-106450000D01*
X165501928Y-109450000D01*
X165514188Y-109574482D01*
X165550498Y-109694180D01*
X165609463Y-109804494D01*
X165688815Y-109901185D01*
X165785506Y-109980537D01*
X165895820Y-110039502D01*
X166015518Y-110075812D01*
X166140000Y-110088072D01*
X169140000Y-110088072D01*
X169264482Y-110075812D01*
X169384180Y-110039502D01*
X169494494Y-109980537D01*
X169591185Y-109901185D01*
X169670537Y-109804494D01*
X169729502Y-109694180D01*
X169765812Y-109574482D01*
X169778072Y-109450000D01*
X169778072Y-108491872D01*
X173533000Y-108491872D01*
X173533000Y-108932128D01*
X173618890Y-109363925D01*
X173787369Y-109770669D01*
X174031962Y-110136729D01*
X174343271Y-110448038D01*
X174709331Y-110692631D01*
X175116075Y-110861110D01*
X175547872Y-110947000D01*
X175988128Y-110947000D01*
X176419925Y-110861110D01*
X176826669Y-110692631D01*
X177192729Y-110448038D01*
X177504038Y-110136729D01*
X177748631Y-109770669D01*
X177917110Y-109363925D01*
X178003000Y-108932128D01*
X178003000Y-108491872D01*
X177917110Y-108060075D01*
X177748631Y-107653331D01*
X177504038Y-107287271D01*
X177192729Y-106975962D01*
X176826669Y-106731369D01*
X176419925Y-106562890D01*
X175988128Y-106477000D01*
X175547872Y-106477000D01*
X175116075Y-106562890D01*
X174709331Y-106731369D01*
X174343271Y-106975962D01*
X174031962Y-107287271D01*
X173787369Y-107653331D01*
X173618890Y-108060075D01*
X173533000Y-108491872D01*
X169778072Y-108491872D01*
X169778072Y-106450000D01*
X169765812Y-106325518D01*
X169729502Y-106205820D01*
X169670537Y-106095506D01*
X169591185Y-105998815D01*
X169494494Y-105919463D01*
X169384180Y-105860498D01*
X169264482Y-105824188D01*
X169140000Y-105811928D01*
X166140000Y-105811928D01*
X166015518Y-105824188D01*
X165895820Y-105860498D01*
X165785506Y-105919463D01*
X165688815Y-105998815D01*
X165609463Y-106095506D01*
X165550498Y-106205820D01*
X165514188Y-106325518D01*
X165501928Y-106450000D01*
X164079346Y-106450000D01*
X163920983Y-106291637D01*
X163571302Y-106057988D01*
X163182756Y-105897047D01*
X162770279Y-105815000D01*
X162349721Y-105815000D01*
X161937244Y-105897047D01*
X161548698Y-106057988D01*
X161199017Y-106291637D01*
X160901637Y-106589017D01*
X160667988Y-106938698D01*
X160507047Y-107327244D01*
X160425000Y-107739721D01*
X159615000Y-107739721D01*
X159532953Y-107327244D01*
X159372012Y-106938698D01*
X159138363Y-106589017D01*
X158840983Y-106291637D01*
X158491302Y-106057988D01*
X158102756Y-105897047D01*
X157690279Y-105815000D01*
X157269721Y-105815000D01*
X156857244Y-105897047D01*
X156468698Y-106057988D01*
X156119017Y-106291637D01*
X155821637Y-106589017D01*
X155587988Y-106938698D01*
X155427047Y-107327244D01*
X155345000Y-107739721D01*
X154535000Y-107739721D01*
X154452953Y-107327244D01*
X154292012Y-106938698D01*
X154058363Y-106589017D01*
X153760983Y-106291637D01*
X153411302Y-106057988D01*
X153022756Y-105897047D01*
X152610279Y-105815000D01*
X152189721Y-105815000D01*
X151777244Y-105897047D01*
X151388698Y-106057988D01*
X151039017Y-106291637D01*
X150741637Y-106589017D01*
X150507988Y-106938698D01*
X150347047Y-107327244D01*
X150265000Y-107739721D01*
X149445027Y-107739721D01*
X149415334Y-107489549D01*
X149285243Y-107089617D01*
X149127214Y-106793962D01*
X148811653Y-106637952D01*
X147499605Y-107950000D01*
X147140395Y-107950000D01*
X145828347Y-106637952D01*
X145512786Y-106793962D01*
X145321980Y-107168745D01*
X145207956Y-107573551D01*
X145175098Y-107992824D01*
X144378189Y-107992824D01*
X144384902Y-107907176D01*
X144335334Y-107489549D01*
X144205243Y-107089617D01*
X144047214Y-106793962D01*
X143731653Y-106637952D01*
X142419605Y-107950000D01*
X142060395Y-107950000D01*
X140748347Y-106637952D01*
X140432786Y-106793962D01*
X140241980Y-107168745D01*
X140127956Y-107573551D01*
X140095098Y-107992824D01*
X76327000Y-107992824D01*
X76327000Y-104850000D01*
X127380632Y-104850000D01*
X127379946Y-104852773D01*
G37*
X127379946Y-104852773D02*
X127373530Y-104879499D01*
X127371848Y-104891620D01*
X127368293Y-104903322D01*
X127366615Y-104912035D01*
X127361606Y-104939061D01*
X127360561Y-104951251D01*
X127357622Y-104963126D01*
X127356402Y-104971915D01*
X127352814Y-104999166D01*
X127352408Y-105011394D01*
X127350094Y-105023410D01*
X127349336Y-105032251D01*
X127347179Y-105059652D01*
X127347414Y-105071901D01*
X127345731Y-105084032D01*
X127345436Y-105092900D01*
X127344717Y-105120376D01*
X127344996Y-105124261D01*
X127344562Y-105128127D01*
X127344500Y-105137000D01*
X127344500Y-105879784D01*
X127344096Y-105897565D01*
X127344931Y-105908676D01*
X127343980Y-105919774D01*
X127344150Y-105928646D01*
X127344905Y-105957460D01*
X127346417Y-105969594D01*
X127346011Y-105981812D01*
X127346645Y-105990662D01*
X127348906Y-106019398D01*
X127351055Y-106031461D01*
X127351290Y-106043708D01*
X127352387Y-106052513D01*
X127356150Y-106081091D01*
X127358919Y-106092991D01*
X127359793Y-106105184D01*
X127361349Y-106113920D01*
X127366601Y-106142262D01*
X127369998Y-106154031D01*
X127371512Y-106166189D01*
X127373523Y-106174831D01*
X127380252Y-106202858D01*
X127384257Y-106214424D01*
X127386403Y-106226469D01*
X127388864Y-106234994D01*
X127397051Y-106262632D01*
X127401655Y-106273971D01*
X127404429Y-106285889D01*
X127407332Y-106294274D01*
X127416954Y-106321445D01*
X127422141Y-106332519D01*
X127425533Y-106344270D01*
X127428872Y-106352492D01*
X127439902Y-106379122D01*
X127445665Y-106389915D01*
X127449670Y-106401482D01*
X127453434Y-106409517D01*
X127465843Y-106435535D01*
X127472169Y-106446023D01*
X127476776Y-106457367D01*
X127480955Y-106465194D01*
X127494709Y-106490525D01*
X127501571Y-106500660D01*
X127506760Y-106511737D01*
X127511343Y-106519335D01*
X127526404Y-106543912D01*
X127533785Y-106553671D01*
X127539545Y-106564459D01*
X127544519Y-106571807D01*
X127560845Y-106595562D01*
X127568730Y-106604925D01*
X127575050Y-106615403D01*
X127580402Y-106622481D01*
X127597949Y-106645348D01*
X127606313Y-106654286D01*
X127613177Y-106664424D01*
X127618893Y-106671212D01*
X127637613Y-106693129D01*
X127646432Y-106701616D01*
X127653821Y-106711385D01*
X127659884Y-106717863D01*
X127679726Y-106738771D01*
X127688962Y-106746771D01*
X127696835Y-106756121D01*
X127703229Y-106762274D01*
X127724136Y-106782116D01*
X127733802Y-106789641D01*
X127742164Y-106798577D01*
X127748870Y-106804387D01*
X127770788Y-106823107D01*
X127780830Y-106830112D01*
X127789650Y-106838600D01*
X127796651Y-106844051D01*
X127819519Y-106861597D01*
X127829910Y-106868065D01*
X127839161Y-106876078D01*
X127846438Y-106881155D01*
X127870193Y-106897481D01*
X127880903Y-106903393D01*
X127890555Y-106910907D01*
X127898088Y-106915596D01*
X127922665Y-106930657D01*
X127933674Y-106936003D01*
X127943707Y-106943002D01*
X127951475Y-106947291D01*
X127976806Y-106961045D01*
X127988090Y-106965812D01*
X127998484Y-106972281D01*
X128006466Y-106976157D01*
X128032483Y-106988566D01*
X128043988Y-106992730D01*
X128054704Y-106998646D01*
X128062878Y-107002098D01*
X128089508Y-107013128D01*
X128101208Y-107016683D01*
X128112212Y-107022026D01*
X128120555Y-107025046D01*
X128147726Y-107034668D01*
X128159604Y-107037608D01*
X128170878Y-107042370D01*
X128179368Y-107044949D01*
X128207006Y-107053136D01*
X128219020Y-107055450D01*
X128230529Y-107059616D01*
X128239142Y-107061748D01*
X128267169Y-107068476D01*
X128279302Y-107070160D01*
X128291025Y-107073721D01*
X128299738Y-107075399D01*
X128328081Y-107080651D01*
X128340254Y-107081694D01*
X128352120Y-107084631D01*
X128360909Y-107085850D01*
X128389487Y-107089613D01*
X128402828Y-107090056D01*
X128415947Y-107092535D01*
X128424790Y-107093262D01*
X128457340Y-107095710D01*
X128485089Y-107095081D01*
X128512753Y-107097453D01*
X128521624Y-107097283D01*
X128549100Y-107096564D01*
X128561256Y-107095050D01*
X128573498Y-107095456D01*
X128582348Y-107094821D01*
X128609749Y-107092664D01*
X128621795Y-107090518D01*
X128634029Y-107090283D01*
X128642834Y-107089186D01*
X128670085Y-107085598D01*
X128682002Y-107082825D01*
X128694204Y-107081950D01*
X128702939Y-107080394D01*
X128729965Y-107075385D01*
X128741716Y-107071993D01*
X128753859Y-107070481D01*
X128762501Y-107068470D01*
X128789227Y-107062054D01*
X128800791Y-107058050D01*
X128812838Y-107055904D01*
X128821363Y-107053444D01*
X128847717Y-107045637D01*
X128859060Y-107041031D01*
X128870986Y-107038256D01*
X128879371Y-107035353D01*
X128905281Y-107026177D01*
X128916365Y-107020985D01*
X128928126Y-107017590D01*
X128936347Y-107014252D01*
X128961741Y-107003733D01*
X128972536Y-106997969D01*
X128984095Y-106993966D01*
X128992130Y-106990202D01*
X129016939Y-106978369D01*
X129027414Y-106972050D01*
X129038750Y-106967447D01*
X129046578Y-106963267D01*
X129070733Y-106950152D01*
X129080868Y-106943290D01*
X129091950Y-106938099D01*
X129099548Y-106933516D01*
X129122983Y-106919155D01*
X129132742Y-106911774D01*
X129143534Y-106906012D01*
X129150882Y-106901037D01*
X129173534Y-106885469D01*
X129182894Y-106877587D01*
X129193373Y-106871266D01*
X129200450Y-106865914D01*
X129222256Y-106849182D01*
X129231194Y-106840819D01*
X129241328Y-106833957D01*
X129248115Y-106828242D01*
X129269017Y-106810390D01*
X129277506Y-106801569D01*
X129287270Y-106794184D01*
X129293749Y-106788121D01*
X129313686Y-106769201D01*
X129321692Y-106759958D01*
X129331048Y-106752080D01*
X129337201Y-106745686D01*
X129356120Y-106725750D01*
X129363641Y-106716089D01*
X129372581Y-106707723D01*
X129378391Y-106701016D01*
X129396242Y-106680115D01*
X129403245Y-106670077D01*
X129411731Y-106661258D01*
X129417182Y-106654256D01*
X129433914Y-106632450D01*
X129440380Y-106622061D01*
X129448393Y-106612811D01*
X129453469Y-106605534D01*
X129469037Y-106582882D01*
X129474949Y-106572171D01*
X129482466Y-106562516D01*
X129487155Y-106554983D01*
X129501516Y-106531548D01*
X129506862Y-106520538D01*
X129513864Y-106510501D01*
X129518152Y-106502733D01*
X129531267Y-106478577D01*
X129536028Y-106467307D01*
X129542493Y-106456920D01*
X129546369Y-106448938D01*
X129558202Y-106424130D01*
X129562366Y-106412629D01*
X129568280Y-106401915D01*
X129571733Y-106393741D01*
X129582252Y-106368348D01*
X129585812Y-106356632D01*
X129591157Y-106345624D01*
X129594178Y-106337280D01*
X129603353Y-106311371D01*
X129606295Y-106299484D01*
X129611058Y-106288207D01*
X129613638Y-106279717D01*
X129621444Y-106253363D01*
X129623759Y-106241341D01*
X129627922Y-106229840D01*
X129630054Y-106221227D01*
X129636470Y-106194501D01*
X129638152Y-106182380D01*
X129641707Y-106170678D01*
X129643385Y-106161965D01*
X129648394Y-106134940D01*
X129649439Y-106122748D01*
X129652378Y-106110874D01*
X129653598Y-106102085D01*
X129657186Y-106074834D01*
X129657592Y-106062606D01*
X129659906Y-106050590D01*
X129660664Y-106041749D01*
X129662821Y-106014348D01*
X129662586Y-106002100D01*
X129664269Y-105989969D01*
X129664564Y-105981100D01*
X129665283Y-105953625D01*
X129665004Y-105949739D01*
X129665438Y-105945873D01*
X129665500Y-105937000D01*
X129665500Y-105194217D01*
X129665904Y-105176435D01*
X129665069Y-105165324D01*
X129666020Y-105154226D01*
X129665850Y-105145354D01*
X129665095Y-105116540D01*
X129663583Y-105104406D01*
X129663989Y-105092188D01*
X129663355Y-105083338D01*
X129661094Y-105054602D01*
X129658945Y-105042539D01*
X129658710Y-105030292D01*
X129657613Y-105021487D01*
X129653850Y-104992909D01*
X129651081Y-104981009D01*
X129650207Y-104968816D01*
X129648651Y-104960081D01*
X129643399Y-104931738D01*
X129640002Y-104919969D01*
X129638488Y-104907811D01*
X129636476Y-104899169D01*
X129629748Y-104871142D01*
X129625743Y-104859576D01*
X129624037Y-104850000D01*
X134530632Y-104850000D01*
X134529946Y-104852773D01*
X134523530Y-104879499D01*
X134521848Y-104891620D01*
X134518293Y-104903322D01*
X134516615Y-104912035D01*
X134511606Y-104939061D01*
X134510561Y-104951251D01*
X134507622Y-104963126D01*
X134506402Y-104971915D01*
X134502814Y-104999166D01*
X134502408Y-105011394D01*
X134500094Y-105023410D01*
X134499336Y-105032251D01*
X134497179Y-105059652D01*
X134497414Y-105071901D01*
X134495731Y-105084032D01*
X134495436Y-105092900D01*
X134494717Y-105120376D01*
X134494996Y-105124261D01*
X134494562Y-105128127D01*
X134494500Y-105137000D01*
X134494500Y-105879784D01*
X134494096Y-105897565D01*
X134494931Y-105908676D01*
X134493980Y-105919774D01*
X134494150Y-105928646D01*
X134494905Y-105957460D01*
X134496417Y-105969594D01*
X134496011Y-105981812D01*
X134496645Y-105990662D01*
X134498906Y-106019398D01*
X134501055Y-106031461D01*
X134501290Y-106043708D01*
X134502387Y-106052513D01*
X134506150Y-106081091D01*
X134508919Y-106092991D01*
X134509793Y-106105184D01*
X134511349Y-106113920D01*
X134516601Y-106142262D01*
X134519998Y-106154031D01*
X134521512Y-106166189D01*
X134523523Y-106174831D01*
X134530252Y-106202858D01*
X134534257Y-106214424D01*
X134536403Y-106226469D01*
X134538864Y-106234994D01*
X134547051Y-106262632D01*
X134551655Y-106273971D01*
X134554429Y-106285889D01*
X134557332Y-106294274D01*
X134566954Y-106321445D01*
X134572141Y-106332519D01*
X134575533Y-106344270D01*
X134578872Y-106352492D01*
X134589902Y-106379122D01*
X134595665Y-106389915D01*
X134599670Y-106401482D01*
X134603434Y-106409517D01*
X134615843Y-106435535D01*
X134622169Y-106446023D01*
X134626776Y-106457367D01*
X134630955Y-106465194D01*
X134644709Y-106490525D01*
X134651571Y-106500660D01*
X134656760Y-106511737D01*
X134661343Y-106519335D01*
X134676404Y-106543912D01*
X134683785Y-106553671D01*
X134689545Y-106564459D01*
X134694519Y-106571807D01*
X134710845Y-106595562D01*
X134718730Y-106604925D01*
X134725050Y-106615403D01*
X134730402Y-106622481D01*
X134747949Y-106645348D01*
X134756313Y-106654286D01*
X134763177Y-106664424D01*
X134768893Y-106671212D01*
X134787613Y-106693129D01*
X134796432Y-106701616D01*
X134803821Y-106711385D01*
X134809884Y-106717863D01*
X134829726Y-106738771D01*
X134838962Y-106746771D01*
X134846835Y-106756121D01*
X134853229Y-106762274D01*
X134874136Y-106782116D01*
X134883802Y-106789641D01*
X134892164Y-106798577D01*
X134898870Y-106804387D01*
X134920788Y-106823107D01*
X134930830Y-106830112D01*
X134939650Y-106838600D01*
X134946651Y-106844051D01*
X134969519Y-106861597D01*
X134979910Y-106868065D01*
X134989161Y-106876078D01*
X134996438Y-106881155D01*
X135020193Y-106897481D01*
X135030903Y-106903393D01*
X135040555Y-106910907D01*
X135048088Y-106915596D01*
X135072665Y-106930657D01*
X135083674Y-106936003D01*
X135093707Y-106943002D01*
X135101475Y-106947291D01*
X135126806Y-106961045D01*
X135138090Y-106965812D01*
X135148484Y-106972281D01*
X135156466Y-106976157D01*
X135182483Y-106988566D01*
X135193988Y-106992730D01*
X135204704Y-106998646D01*
X135212878Y-107002098D01*
X135239508Y-107013128D01*
X135251208Y-107016683D01*
X135262212Y-107022026D01*
X135270555Y-107025046D01*
X135297726Y-107034668D01*
X135309604Y-107037608D01*
X135320878Y-107042370D01*
X135329368Y-107044949D01*
X135357006Y-107053136D01*
X135369020Y-107055450D01*
X135380529Y-107059616D01*
X135389142Y-107061748D01*
X135417169Y-107068476D01*
X135429302Y-107070160D01*
X135441025Y-107073721D01*
X135449738Y-107075399D01*
X135478081Y-107080651D01*
X135490254Y-107081694D01*
X135502120Y-107084631D01*
X135510909Y-107085850D01*
X135539487Y-107089613D01*
X135552828Y-107090056D01*
X135565947Y-107092535D01*
X135574790Y-107093262D01*
X135607340Y-107095710D01*
X135635089Y-107095081D01*
X135662753Y-107097453D01*
X135671624Y-107097283D01*
X135699100Y-107096564D01*
X135711256Y-107095050D01*
X135723498Y-107095456D01*
X135732348Y-107094821D01*
X135759749Y-107092664D01*
X135771795Y-107090518D01*
X135784029Y-107090283D01*
X135792834Y-107089186D01*
X135820085Y-107085598D01*
X135832002Y-107082825D01*
X135844204Y-107081950D01*
X135852939Y-107080394D01*
X135879965Y-107075385D01*
X135891716Y-107071993D01*
X135903859Y-107070481D01*
X135912501Y-107068470D01*
X135939227Y-107062054D01*
X135950791Y-107058050D01*
X135962838Y-107055904D01*
X135971363Y-107053444D01*
X135997717Y-107045637D01*
X136009060Y-107041031D01*
X136020986Y-107038256D01*
X136029371Y-107035353D01*
X136055281Y-107026177D01*
X136066365Y-107020985D01*
X136078126Y-107017590D01*
X136086347Y-107014252D01*
X136111741Y-107003733D01*
X136122536Y-106997969D01*
X136134095Y-106993966D01*
X136142130Y-106990202D01*
X136166939Y-106978369D01*
X136177414Y-106972050D01*
X136188750Y-106967447D01*
X136196578Y-106963267D01*
X136220733Y-106950152D01*
X136230868Y-106943290D01*
X136241950Y-106938099D01*
X136249548Y-106933516D01*
X136272983Y-106919155D01*
X136282742Y-106911774D01*
X136293534Y-106906012D01*
X136300882Y-106901037D01*
X136323534Y-106885469D01*
X136332894Y-106877587D01*
X136343373Y-106871266D01*
X136350450Y-106865914D01*
X136372256Y-106849182D01*
X136381194Y-106840819D01*
X136391328Y-106833957D01*
X136398115Y-106828242D01*
X136419017Y-106810390D01*
X136427506Y-106801569D01*
X136437270Y-106794184D01*
X136443749Y-106788121D01*
X136463686Y-106769201D01*
X136471692Y-106759958D01*
X136481048Y-106752080D01*
X136487201Y-106745686D01*
X136506120Y-106725750D01*
X136513641Y-106716089D01*
X136522581Y-106707723D01*
X136528391Y-106701016D01*
X136546242Y-106680115D01*
X136553245Y-106670077D01*
X136561731Y-106661258D01*
X136567182Y-106654256D01*
X136583914Y-106632450D01*
X136590380Y-106622061D01*
X136598393Y-106612811D01*
X136603469Y-106605534D01*
X136619037Y-106582882D01*
X136624949Y-106572171D01*
X136632466Y-106562516D01*
X136637155Y-106554983D01*
X136651516Y-106531548D01*
X136656862Y-106520538D01*
X136663864Y-106510501D01*
X136668152Y-106502733D01*
X136681267Y-106478577D01*
X136686028Y-106467307D01*
X136691604Y-106458347D01*
X140927952Y-106458347D01*
X142240000Y-107770395D01*
X143552048Y-106458347D01*
X146007952Y-106458347D01*
X147320000Y-107770395D01*
X148632048Y-106458347D01*
X148476038Y-106142786D01*
X148101255Y-105951980D01*
X147696449Y-105837956D01*
X147277176Y-105805098D01*
X146859549Y-105854666D01*
X146459617Y-105984757D01*
X146163962Y-106142786D01*
X146007952Y-106458347D01*
X143552048Y-106458347D01*
X143396038Y-106142786D01*
X143021255Y-105951980D01*
X142616449Y-105837956D01*
X142197176Y-105805098D01*
X141779549Y-105854666D01*
X141379617Y-105984757D01*
X141083962Y-106142786D01*
X140927952Y-106458347D01*
X136691604Y-106458347D01*
X136692493Y-106456920D01*
X136696369Y-106448938D01*
X136708202Y-106424130D01*
X136712366Y-106412629D01*
X136718280Y-106401915D01*
X136721733Y-106393741D01*
X136732252Y-106368348D01*
X136735812Y-106356632D01*
X136741157Y-106345624D01*
X136744178Y-106337280D01*
X136753353Y-106311371D01*
X136756295Y-106299484D01*
X136761058Y-106288207D01*
X136763638Y-106279717D01*
X136771444Y-106253363D01*
X136773759Y-106241341D01*
X136777922Y-106229840D01*
X136780054Y-106221227D01*
X136786470Y-106194501D01*
X136788152Y-106182380D01*
X136791707Y-106170678D01*
X136793385Y-106161965D01*
X136798394Y-106134940D01*
X136799439Y-106122748D01*
X136802378Y-106110874D01*
X136803598Y-106102085D01*
X136807186Y-106074834D01*
X136807592Y-106062606D01*
X136809906Y-106050590D01*
X136810664Y-106041749D01*
X136812821Y-106014348D01*
X136812586Y-106002100D01*
X136814269Y-105989969D01*
X136814564Y-105981100D01*
X136815283Y-105953625D01*
X136815004Y-105949739D01*
X136815438Y-105945873D01*
X136815500Y-105937000D01*
X136815500Y-105194217D01*
X136815904Y-105176435D01*
X136815069Y-105165324D01*
X136816020Y-105154226D01*
X136815850Y-105145354D01*
X136815095Y-105116540D01*
X136813583Y-105104406D01*
X136813989Y-105092188D01*
X136813355Y-105083338D01*
X136811094Y-105054602D01*
X136808945Y-105042539D01*
X136808710Y-105030292D01*
X136807613Y-105021487D01*
X136803850Y-104992909D01*
X136801081Y-104981009D01*
X136800207Y-104968816D01*
X136798651Y-104960081D01*
X136793399Y-104931738D01*
X136790002Y-104919969D01*
X136788488Y-104907811D01*
X136786476Y-104899169D01*
X136779748Y-104871142D01*
X136775743Y-104859576D01*
X136774037Y-104850000D01*
X179035280Y-104850000D01*
X179178109Y-104864005D01*
X179282101Y-104895402D01*
X179378014Y-104946399D01*
X179462194Y-105015055D01*
X179531440Y-105098758D01*
X179583105Y-105194311D01*
X179615227Y-105298078D01*
X179630001Y-105438650D01*
X179630000Y-153635280D01*
X179615995Y-153778109D01*
X179584599Y-153882099D01*
X179533601Y-153978013D01*
X179464941Y-154062199D01*
X179381243Y-154131439D01*
X179285689Y-154183105D01*
X179181922Y-154215227D01*
X179041359Y-154230000D01*
X132072884Y-154230000D01*
X132429156Y-153991947D01*
X132782947Y-153638156D01*
X133060919Y-153222141D01*
X133252389Y-152759891D01*
X133350000Y-152269168D01*
X133350000Y-151768832D01*
X133252389Y-151278109D01*
X133060919Y-150815859D01*
X132782947Y-150399844D01*
X132530975Y-150147872D01*
X173533000Y-150147872D01*
X173533000Y-150588128D01*
X173618890Y-151019925D01*
X173787369Y-151426669D01*
X174031962Y-151792729D01*
X174343271Y-152104038D01*
X174709331Y-152348631D01*
X175116075Y-152517110D01*
X175547872Y-152603000D01*
X175988128Y-152603000D01*
X176419925Y-152517110D01*
X176826669Y-152348631D01*
X177192729Y-152104038D01*
X177504038Y-151792729D01*
X177748631Y-151426669D01*
X177917110Y-151019925D01*
X178003000Y-150588128D01*
X178003000Y-150147872D01*
X177917110Y-149716075D01*
X177748631Y-149309331D01*
X177504038Y-148943271D01*
X177192729Y-148631962D01*
X176826669Y-148387369D01*
X176419925Y-148218890D01*
X175988128Y-148133000D01*
X175547872Y-148133000D01*
X175116075Y-148218890D01*
X174709331Y-148387369D01*
X174343271Y-148631962D01*
X174031962Y-148943271D01*
X173787369Y-149309331D01*
X173618890Y-149716075D01*
X173533000Y-150147872D01*
X132530975Y-150147872D01*
X132429156Y-150046053D01*
X132013141Y-149768081D01*
X131550891Y-149576611D01*
X131060168Y-149479000D01*
X130559832Y-149479000D01*
X130069109Y-149576611D01*
X129606859Y-149768081D01*
X129190844Y-150046053D01*
X128837053Y-150399844D01*
X128559081Y-150815859D01*
X128367611Y-151278109D01*
X128270000Y-151768832D01*
X128270000Y-152269168D01*
X128367611Y-152759891D01*
X128559081Y-153222141D01*
X128837053Y-153638156D01*
X129190844Y-153991947D01*
X129547116Y-154230000D01*
X108745872Y-154230000D01*
X108772141Y-154219119D01*
X109188156Y-153941147D01*
X109541947Y-153587356D01*
X109819919Y-153171341D01*
X110011389Y-152709091D01*
X110109000Y-152218368D01*
X110109000Y-151718032D01*
X110011389Y-151227309D01*
X109819919Y-150765059D01*
X109541947Y-150349044D01*
X109188156Y-149995253D01*
X108772141Y-149717281D01*
X108309891Y-149525811D01*
X107819168Y-149428200D01*
X107318832Y-149428200D01*
X106828109Y-149525811D01*
X106365859Y-149717281D01*
X105949844Y-149995253D01*
X105596053Y-150349044D01*
X105318081Y-150765059D01*
X105126611Y-151227309D01*
X105029000Y-151718032D01*
X105029000Y-152218368D01*
X105126611Y-152709091D01*
X105318081Y-153171341D01*
X105596053Y-153587356D01*
X105949844Y-153941147D01*
X106365859Y-154219119D01*
X106392128Y-154230000D01*
X76327000Y-154230000D01*
X76327000Y-146457933D01*
X115189000Y-146457933D01*
X115189000Y-146658067D01*
X115228044Y-146854356D01*
X115304632Y-147039256D01*
X115415821Y-147205662D01*
X115557338Y-147347179D01*
X115723744Y-147458368D01*
X115908644Y-147534956D01*
X116104933Y-147574000D01*
X116305067Y-147574000D01*
X116501356Y-147534956D01*
X116686256Y-147458368D01*
X116852662Y-147347179D01*
X116994179Y-147205662D01*
X117105368Y-147039256D01*
X117178819Y-146861929D01*
X117328815Y-146711933D01*
X123952000Y-146711933D01*
X123952000Y-146912067D01*
X123991044Y-147108356D01*
X124067632Y-147293256D01*
X124178821Y-147459662D01*
X124320338Y-147601179D01*
X124486744Y-147712368D01*
X124671644Y-147788956D01*
X124867933Y-147828000D01*
X125068067Y-147828000D01*
X125264356Y-147788956D01*
X125449256Y-147712368D01*
X125615662Y-147601179D01*
X125680941Y-147535900D01*
X127049059Y-147535900D01*
X127114338Y-147601179D01*
X127280744Y-147712368D01*
X127465644Y-147788956D01*
X127661933Y-147828000D01*
X127862067Y-147828000D01*
X128058356Y-147788956D01*
X128243256Y-147712368D01*
X128409662Y-147601179D01*
X128551179Y-147459662D01*
X128662368Y-147293256D01*
X128738956Y-147108356D01*
X128778000Y-146912067D01*
X128778000Y-146711933D01*
X128738956Y-146515644D01*
X128662368Y-146330744D01*
X128551179Y-146164338D01*
X128409662Y-146022821D01*
X128243256Y-145911632D01*
X128058356Y-145835044D01*
X127862067Y-145796000D01*
X127661933Y-145796000D01*
X127465644Y-145835044D01*
X127280744Y-145911632D01*
X127114338Y-146022821D01*
X127049059Y-146088100D01*
X125680941Y-146088100D01*
X125615662Y-146022821D01*
X125449256Y-145911632D01*
X125264356Y-145835044D01*
X125068067Y-145796000D01*
X124867933Y-145796000D01*
X124671644Y-145835044D01*
X124486744Y-145911632D01*
X124320338Y-146022821D01*
X124178821Y-146164338D01*
X124067632Y-146330744D01*
X123991044Y-146515644D01*
X123952000Y-146711933D01*
X117328815Y-146711933D01*
X119517159Y-144523589D01*
X157659000Y-144523589D01*
X157659000Y-144796411D01*
X157712225Y-145063989D01*
X157816629Y-145316043D01*
X157968201Y-145542886D01*
X158161114Y-145735799D01*
X158387957Y-145887371D01*
X158640011Y-145991775D01*
X158907589Y-146045000D01*
X159180411Y-146045000D01*
X159447989Y-145991775D01*
X159700043Y-145887371D01*
X159926886Y-145735799D01*
X160045692Y-145616993D01*
X160766612Y-145616993D01*
X160832137Y-145855860D01*
X161079116Y-145971760D01*
X161343960Y-146037250D01*
X161616492Y-146049812D01*
X161886238Y-146008965D01*
X162142832Y-145916277D01*
X162255863Y-145855860D01*
X162321388Y-145616993D01*
X161544000Y-144839605D01*
X160766612Y-145616993D01*
X160045692Y-145616993D01*
X160119799Y-145542886D01*
X160271371Y-145316043D01*
X160291861Y-145266574D01*
X160348140Y-145371863D01*
X160587007Y-145437388D01*
X161364395Y-144660000D01*
X160587007Y-143882612D01*
X160348140Y-143948137D01*
X160295082Y-144061201D01*
X160271371Y-144003957D01*
X160119799Y-143777114D01*
X160045692Y-143703007D01*
X160766612Y-143703007D01*
X161544000Y-144480395D01*
X162321388Y-143703007D01*
X162255863Y-143464140D01*
X162008884Y-143348240D01*
X161744040Y-143282750D01*
X161471508Y-143270188D01*
X161201762Y-143311035D01*
X160945168Y-143403723D01*
X160832137Y-143464140D01*
X160766612Y-143703007D01*
X160045692Y-143703007D01*
X159926886Y-143584201D01*
X159700043Y-143432629D01*
X159447989Y-143328225D01*
X159180411Y-143275000D01*
X158907589Y-143275000D01*
X158640011Y-143328225D01*
X158387957Y-143432629D01*
X158161114Y-143584201D01*
X157968201Y-143777114D01*
X157816629Y-144003957D01*
X157712225Y-144256011D01*
X157659000Y-144523589D01*
X119517159Y-144523589D01*
X120276749Y-143764000D01*
X120369067Y-143764000D01*
X120565356Y-143724956D01*
X120750256Y-143648368D01*
X120916662Y-143537179D01*
X121058179Y-143395662D01*
X121169368Y-143229256D01*
X121245956Y-143044356D01*
X121285000Y-142848067D01*
X121285000Y-142647933D01*
X121245956Y-142451644D01*
X121169368Y-142266744D01*
X121058179Y-142100338D01*
X121032741Y-142074900D01*
X152233159Y-142074900D01*
X152298438Y-142140179D01*
X152464844Y-142251368D01*
X152649744Y-142327956D01*
X152846033Y-142367000D01*
X153046167Y-142367000D01*
X153242456Y-142327956D01*
X153427356Y-142251368D01*
X153593762Y-142140179D01*
X153594008Y-142139933D01*
X153924000Y-142139933D01*
X153924000Y-142340067D01*
X153963044Y-142536356D01*
X154039632Y-142721256D01*
X154150821Y-142887662D01*
X154292338Y-143029179D01*
X154458744Y-143140368D01*
X154643644Y-143216956D01*
X154839933Y-143256000D01*
X155040067Y-143256000D01*
X155236356Y-143216956D01*
X155421256Y-143140368D01*
X155587662Y-143029179D01*
X155652941Y-142963900D01*
X162895152Y-142963900D01*
X163320100Y-143388849D01*
X163320100Y-143477970D01*
X163161114Y-143584201D01*
X162968201Y-143777114D01*
X162816629Y-144003957D01*
X162796139Y-144053426D01*
X162739860Y-143948137D01*
X162500993Y-143882612D01*
X161723605Y-144660000D01*
X162500993Y-145437388D01*
X162739860Y-145371863D01*
X162792918Y-145258799D01*
X162816629Y-145316043D01*
X162968201Y-145542886D01*
X163161114Y-145735799D01*
X163387957Y-145887371D01*
X163640011Y-145991775D01*
X163907589Y-146045000D01*
X164180411Y-146045000D01*
X164447989Y-145991775D01*
X164700043Y-145887371D01*
X164926886Y-145735799D01*
X165119799Y-145542886D01*
X165271371Y-145316043D01*
X165375775Y-145063989D01*
X165429000Y-144796411D01*
X165429000Y-144523589D01*
X165375775Y-144256011D01*
X165271371Y-144003957D01*
X165119799Y-143777114D01*
X164926886Y-143584201D01*
X164767900Y-143477970D01*
X164767900Y-143124548D01*
X164771401Y-143088999D01*
X164767900Y-143053451D01*
X164767900Y-143053444D01*
X164757425Y-142947091D01*
X164716032Y-142810635D01*
X164648813Y-142684877D01*
X164558350Y-142574649D01*
X164530734Y-142551985D01*
X163732023Y-141753275D01*
X163709351Y-141725649D01*
X163599123Y-141635187D01*
X163473365Y-141567968D01*
X163336909Y-141526575D01*
X163230556Y-141516100D01*
X163195000Y-141512598D01*
X163159444Y-141516100D01*
X155652941Y-141516100D01*
X155587662Y-141450821D01*
X155421256Y-141339632D01*
X155236356Y-141263044D01*
X155040067Y-141224000D01*
X154839933Y-141224000D01*
X154643644Y-141263044D01*
X154458744Y-141339632D01*
X154292338Y-141450821D01*
X154150821Y-141592338D01*
X154039632Y-141758744D01*
X153963044Y-141943644D01*
X153924000Y-142139933D01*
X153594008Y-142139933D01*
X153735279Y-141998662D01*
X153846468Y-141832256D01*
X153923056Y-141647356D01*
X153962100Y-141451067D01*
X153962100Y-141250933D01*
X153923056Y-141054644D01*
X153846468Y-140869744D01*
X153735279Y-140703338D01*
X153593762Y-140561821D01*
X153427356Y-140450632D01*
X153242456Y-140374044D01*
X153046167Y-140335000D01*
X152846033Y-140335000D01*
X152649744Y-140374044D01*
X152464844Y-140450632D01*
X152298438Y-140561821D01*
X152233159Y-140627100D01*
X119044849Y-140627100D01*
X117348000Y-138930252D01*
X117348000Y-138837933D01*
X117308956Y-138641644D01*
X117232368Y-138456744D01*
X117121179Y-138290338D01*
X116979662Y-138148821D01*
X116813256Y-138037632D01*
X116628356Y-137961044D01*
X116432067Y-137922000D01*
X116231933Y-137922000D01*
X116035644Y-137961044D01*
X115850744Y-138037632D01*
X115684338Y-138148821D01*
X115542821Y-138290338D01*
X115431632Y-138456744D01*
X115355044Y-138641644D01*
X115316000Y-138837933D01*
X115316000Y-139038067D01*
X115355044Y-139234356D01*
X115431632Y-139419256D01*
X115542821Y-139585662D01*
X115684338Y-139727179D01*
X115850744Y-139838368D01*
X116035644Y-139914956D01*
X116231933Y-139954000D01*
X116324252Y-139954000D01*
X118207981Y-141837730D01*
X118230649Y-141865351D01*
X118340877Y-141955813D01*
X118466635Y-142023032D01*
X118571331Y-142054791D01*
X118603090Y-142064425D01*
X118616950Y-142065790D01*
X118709444Y-142074900D01*
X118709451Y-142074900D01*
X118744999Y-142078401D01*
X118780548Y-142074900D01*
X119505259Y-142074900D01*
X119479821Y-142100338D01*
X119368632Y-142266744D01*
X119292044Y-142451644D01*
X119253000Y-142647933D01*
X119253000Y-142740251D01*
X116426998Y-145566253D01*
X116305067Y-145542000D01*
X116104933Y-145542000D01*
X115908644Y-145581044D01*
X115723744Y-145657632D01*
X115557338Y-145768821D01*
X115415821Y-145910338D01*
X115304632Y-146076744D01*
X115228044Y-146261644D01*
X115189000Y-146457933D01*
X76327000Y-146457933D01*
X76327000Y-133376933D01*
X92329000Y-133376933D01*
X92329000Y-133577067D01*
X92368044Y-133773356D01*
X92444632Y-133958256D01*
X92555821Y-134124662D01*
X92697338Y-134266179D01*
X92863744Y-134377368D01*
X93048644Y-134453956D01*
X93244933Y-134493000D01*
X93337252Y-134493000D01*
X96363985Y-137519735D01*
X96386649Y-137547351D01*
X96496877Y-137637813D01*
X96622635Y-137705032D01*
X96727331Y-137736791D01*
X96759090Y-137746425D01*
X96772950Y-137747790D01*
X96865444Y-137756900D01*
X96865451Y-137756900D01*
X96900999Y-137760401D01*
X96936547Y-137756900D01*
X152135444Y-137756900D01*
X152171000Y-137760402D01*
X152312909Y-137746425D01*
X152449365Y-137705032D01*
X152575123Y-137637813D01*
X152685351Y-137547351D01*
X152708024Y-137519724D01*
X153905928Y-136321820D01*
X153905928Y-138010000D01*
X153931639Y-138271045D01*
X154007783Y-138522058D01*
X154131434Y-138753393D01*
X154297840Y-138956160D01*
X154500607Y-139122566D01*
X154731942Y-139246217D01*
X154982955Y-139322361D01*
X155244000Y-139348072D01*
X156644000Y-139348072D01*
X156905045Y-139322361D01*
X157156058Y-139246217D01*
X157387393Y-139122566D01*
X157590160Y-138956160D01*
X157756566Y-138753393D01*
X157880217Y-138522058D01*
X157956361Y-138271045D01*
X157982072Y-138010000D01*
X157982072Y-136310000D01*
X165105928Y-136310000D01*
X165105928Y-138010000D01*
X165131639Y-138271045D01*
X165207783Y-138522058D01*
X165331434Y-138753393D01*
X165497840Y-138956160D01*
X165700607Y-139122566D01*
X165931942Y-139246217D01*
X166182955Y-139322361D01*
X166444000Y-139348072D01*
X167844000Y-139348072D01*
X168105045Y-139322361D01*
X168356058Y-139246217D01*
X168587393Y-139122566D01*
X168790160Y-138956160D01*
X168956566Y-138753393D01*
X169080217Y-138522058D01*
X169156361Y-138271045D01*
X169182072Y-138010000D01*
X169182072Y-136310000D01*
X169156361Y-136048955D01*
X169080217Y-135797942D01*
X168956566Y-135566607D01*
X168790160Y-135363840D01*
X168587393Y-135197434D01*
X168356058Y-135073783D01*
X168105045Y-134997639D01*
X167844000Y-134971928D01*
X166444000Y-134971928D01*
X166182955Y-134997639D01*
X165931942Y-135073783D01*
X165700607Y-135197434D01*
X165497840Y-135363840D01*
X165331434Y-135566607D01*
X165207783Y-135797942D01*
X165131639Y-136048955D01*
X165105928Y-136310000D01*
X157982072Y-136310000D01*
X157956361Y-136048955D01*
X157880217Y-135797942D01*
X157756566Y-135566607D01*
X157590160Y-135363840D01*
X157387393Y-135197434D01*
X157156058Y-135073783D01*
X156905045Y-134997639D01*
X156644000Y-134971928D01*
X155255820Y-134971928D01*
X158720053Y-131507696D01*
X158907589Y-131545000D01*
X159180411Y-131545000D01*
X159447989Y-131491775D01*
X159700043Y-131387371D01*
X159926886Y-131235799D01*
X160045692Y-131116993D01*
X163266612Y-131116993D01*
X163332137Y-131355860D01*
X163579116Y-131471760D01*
X163843960Y-131537250D01*
X164116492Y-131549812D01*
X164386238Y-131508965D01*
X164642832Y-131416277D01*
X164755863Y-131355860D01*
X164821388Y-131116993D01*
X164044000Y-130339605D01*
X163266612Y-131116993D01*
X160045692Y-131116993D01*
X160119799Y-131042886D01*
X160271371Y-130816043D01*
X160375775Y-130563989D01*
X160429000Y-130296411D01*
X160429000Y-130232492D01*
X162654188Y-130232492D01*
X162695035Y-130502238D01*
X162787723Y-130758832D01*
X162848140Y-130871863D01*
X163087007Y-130937388D01*
X163864395Y-130160000D01*
X164223605Y-130160000D01*
X165000993Y-130937388D01*
X165239860Y-130871863D01*
X165355760Y-130624884D01*
X165421250Y-130360040D01*
X165433812Y-130087508D01*
X165392965Y-129817762D01*
X165300277Y-129561168D01*
X165239860Y-129448137D01*
X165000993Y-129382612D01*
X164223605Y-130160000D01*
X163864395Y-130160000D01*
X163087007Y-129382612D01*
X162848140Y-129448137D01*
X162732240Y-129695116D01*
X162666750Y-129959960D01*
X162654188Y-130232492D01*
X160429000Y-130232492D01*
X160429000Y-130023589D01*
X160375775Y-129756011D01*
X160271371Y-129503957D01*
X160119799Y-129277114D01*
X160045692Y-129203007D01*
X163266612Y-129203007D01*
X164044000Y-129980395D01*
X164821388Y-129203007D01*
X164755863Y-128964140D01*
X164508884Y-128848240D01*
X164244040Y-128782750D01*
X163971508Y-128770188D01*
X163701762Y-128811035D01*
X163445168Y-128903723D01*
X163332137Y-128964140D01*
X163266612Y-129203007D01*
X160045692Y-129203007D01*
X159926886Y-129084201D01*
X159700043Y-128932629D01*
X159447989Y-128828225D01*
X159180411Y-128775000D01*
X158907589Y-128775000D01*
X158640011Y-128828225D01*
X158387957Y-128932629D01*
X158161114Y-129084201D01*
X157968201Y-129277114D01*
X157816629Y-129503957D01*
X157712225Y-129756011D01*
X157659000Y-130023589D01*
X157659000Y-130296411D01*
X157696304Y-130483947D01*
X151871152Y-136309100D01*
X97200850Y-136309100D01*
X94361000Y-133469252D01*
X94361000Y-133376933D01*
X94321956Y-133180644D01*
X94245368Y-132995744D01*
X94134179Y-132829338D01*
X93992662Y-132687821D01*
X93826256Y-132576632D01*
X93641356Y-132500044D01*
X93445067Y-132461000D01*
X93244933Y-132461000D01*
X93048644Y-132500044D01*
X92863744Y-132576632D01*
X92697338Y-132687821D01*
X92555821Y-132829338D01*
X92444632Y-132995744D01*
X92368044Y-133180644D01*
X92329000Y-133376933D01*
X76327000Y-133376933D01*
X76327000Y-130074933D01*
X95885000Y-130074933D01*
X95885000Y-130275067D01*
X95924044Y-130471356D01*
X96000632Y-130656256D01*
X96111821Y-130822662D01*
X96253338Y-130964179D01*
X96419744Y-131075368D01*
X96604644Y-131151956D01*
X96800933Y-131191000D01*
X96893250Y-131191000D01*
X96912107Y-131209857D01*
X96912118Y-131209866D01*
X98301183Y-132598932D01*
X98298000Y-132614933D01*
X98298000Y-132815067D01*
X98337044Y-133011356D01*
X98413632Y-133196256D01*
X98524821Y-133362662D01*
X98666338Y-133504179D01*
X98832744Y-133615368D01*
X99017644Y-133691956D01*
X99213933Y-133731000D01*
X99414067Y-133731000D01*
X99610356Y-133691956D01*
X99795256Y-133615368D01*
X99961662Y-133504179D01*
X100103179Y-133362662D01*
X100214368Y-133196256D01*
X100290956Y-133011356D01*
X100330000Y-132815067D01*
X100330000Y-132614933D01*
X100290956Y-132418644D01*
X100214368Y-132233744D01*
X100103179Y-132067338D01*
X99961662Y-131925821D01*
X99795256Y-131814632D01*
X99610356Y-131738044D01*
X99457360Y-131707612D01*
X97935866Y-130186118D01*
X97935857Y-130186107D01*
X97917000Y-130167250D01*
X97917000Y-130074933D01*
X97877956Y-129878644D01*
X97801368Y-129693744D01*
X97690179Y-129527338D01*
X97548662Y-129385821D01*
X97382256Y-129274632D01*
X97197356Y-129198044D01*
X97001067Y-129159000D01*
X96800933Y-129159000D01*
X96604644Y-129198044D01*
X96419744Y-129274632D01*
X96253338Y-129385821D01*
X96111821Y-129527338D01*
X96000632Y-129693744D01*
X95924044Y-129878644D01*
X95885000Y-130074933D01*
X76327000Y-130074933D01*
X76327000Y-127153933D01*
X90297000Y-127153933D01*
X90297000Y-127354067D01*
X90336044Y-127550356D01*
X90412632Y-127735256D01*
X90523821Y-127901662D01*
X90665338Y-128043179D01*
X90831744Y-128154368D01*
X91016644Y-128230956D01*
X91212933Y-128270000D01*
X91413067Y-128270000D01*
X91609356Y-128230956D01*
X91622354Y-128225572D01*
X105064560Y-128225572D01*
X105064560Y-128725908D01*
X105162171Y-129216631D01*
X105353641Y-129678881D01*
X105631613Y-130094896D01*
X105985404Y-130448687D01*
X106401419Y-130726659D01*
X106863669Y-130918129D01*
X107354392Y-131015740D01*
X107854728Y-131015740D01*
X108345451Y-130918129D01*
X108807701Y-130726659D01*
X109223716Y-130448687D01*
X109577507Y-130094896D01*
X109855479Y-129678881D01*
X110046949Y-129216631D01*
X110144560Y-128725908D01*
X110144560Y-128225572D01*
X110098078Y-127991891D01*
X113963419Y-127991891D01*
X114060743Y-128266252D01*
X114209722Y-128516355D01*
X114404631Y-128732588D01*
X114637980Y-128906641D01*
X114900801Y-129031825D01*
X115048010Y-129076476D01*
X115277900Y-128955155D01*
X115277900Y-127762000D01*
X114084086Y-127762000D01*
X113963419Y-127991891D01*
X110098078Y-127991891D01*
X110046949Y-127734849D01*
X109857762Y-127278109D01*
X113963419Y-127278109D01*
X114084086Y-127508000D01*
X115277900Y-127508000D01*
X115277900Y-126314845D01*
X115531900Y-126314845D01*
X115531900Y-127508000D01*
X115551900Y-127508000D01*
X115551900Y-127762000D01*
X115531900Y-127762000D01*
X115531900Y-128955155D01*
X115761790Y-129076476D01*
X115908999Y-129031825D01*
X116171820Y-128906641D01*
X116405169Y-128732588D01*
X116600078Y-128516355D01*
X116669705Y-128399466D01*
X116791425Y-128581632D01*
X116998268Y-128788475D01*
X117241489Y-128950990D01*
X117511742Y-129062932D01*
X117798640Y-129120000D01*
X118091160Y-129120000D01*
X118378058Y-129062932D01*
X118648311Y-128950990D01*
X118891532Y-128788475D01*
X119098375Y-128581632D01*
X119214900Y-128407240D01*
X119331425Y-128581632D01*
X119538268Y-128788475D01*
X119781489Y-128950990D01*
X120051742Y-129062932D01*
X120338640Y-129120000D01*
X120631160Y-129120000D01*
X120918058Y-129062932D01*
X121188311Y-128950990D01*
X121431532Y-128788475D01*
X121563387Y-128656620D01*
X121585398Y-128729180D01*
X121644363Y-128839494D01*
X121723715Y-128936185D01*
X121820406Y-129015537D01*
X121930720Y-129074502D01*
X122050418Y-129110812D01*
X122174900Y-129123072D01*
X123698432Y-129123072D01*
X123685338Y-129131821D01*
X123543821Y-129273338D01*
X123432632Y-129439744D01*
X123356044Y-129624644D01*
X123317000Y-129820933D01*
X123317000Y-129954356D01*
X123279969Y-130023635D01*
X123238576Y-130160090D01*
X123224599Y-130301999D01*
X123228102Y-130337565D01*
X123228100Y-134368544D01*
X123224598Y-134404100D01*
X123229509Y-134453956D01*
X123238575Y-134546008D01*
X123279968Y-134682464D01*
X123317000Y-134751746D01*
X123317000Y-134885167D01*
X123356044Y-135081456D01*
X123432632Y-135266356D01*
X123543821Y-135432762D01*
X123685338Y-135574279D01*
X123851744Y-135685468D01*
X124036644Y-135762056D01*
X124232933Y-135801100D01*
X124433067Y-135801100D01*
X124629356Y-135762056D01*
X124814256Y-135685468D01*
X124980662Y-135574279D01*
X125122179Y-135432762D01*
X125233368Y-135266356D01*
X125309956Y-135081456D01*
X125349000Y-134885167D01*
X125349000Y-134685033D01*
X125309956Y-134488744D01*
X125233368Y-134303844D01*
X125122179Y-134137438D01*
X124980662Y-133995921D01*
X124814256Y-133884732D01*
X124675899Y-133827423D01*
X124675901Y-130878677D01*
X124814256Y-130821368D01*
X124980662Y-130710179D01*
X125122179Y-130568662D01*
X125233368Y-130402256D01*
X125309956Y-130217356D01*
X125349000Y-130021067D01*
X125349000Y-129820933D01*
X125309956Y-129624644D01*
X125233368Y-129439744D01*
X125122179Y-129273338D01*
X124980662Y-129131821D01*
X124814256Y-129020632D01*
X124629356Y-128944044D01*
X124433067Y-128905000D01*
X124351678Y-128905000D01*
X124405437Y-128839494D01*
X124464402Y-128729180D01*
X124500712Y-128609482D01*
X124512972Y-128485000D01*
X124512972Y-128273832D01*
X128270000Y-128273832D01*
X128270000Y-128774168D01*
X128367611Y-129264891D01*
X128559081Y-129727141D01*
X128837053Y-130143156D01*
X129190844Y-130496947D01*
X129606859Y-130774919D01*
X130069109Y-130966389D01*
X130559832Y-131064000D01*
X131060168Y-131064000D01*
X131550891Y-130966389D01*
X132013141Y-130774919D01*
X132429156Y-130496947D01*
X132782947Y-130143156D01*
X133060919Y-129727141D01*
X133252389Y-129264891D01*
X133350000Y-128774168D01*
X133350000Y-128273832D01*
X133252389Y-127783109D01*
X133060919Y-127320859D01*
X132782947Y-126904844D01*
X132429156Y-126551053D01*
X132013141Y-126273081D01*
X131550891Y-126081611D01*
X131060168Y-125984000D01*
X130559832Y-125984000D01*
X130069109Y-126081611D01*
X129606859Y-126273081D01*
X129190844Y-126551053D01*
X128837053Y-126904844D01*
X128559081Y-127320859D01*
X128367611Y-127783109D01*
X128270000Y-128273832D01*
X124512972Y-128273832D01*
X124512972Y-126785000D01*
X124500712Y-126660518D01*
X124464402Y-126540820D01*
X124405437Y-126430506D01*
X124326085Y-126333815D01*
X124229394Y-126254463D01*
X124119080Y-126195498D01*
X123999382Y-126159188D01*
X123874900Y-126146928D01*
X122174900Y-126146928D01*
X122050418Y-126159188D01*
X121930720Y-126195498D01*
X121820406Y-126254463D01*
X121723715Y-126333815D01*
X121644363Y-126430506D01*
X121585398Y-126540820D01*
X121563387Y-126613380D01*
X121431532Y-126481525D01*
X121188311Y-126319010D01*
X120918058Y-126207068D01*
X120631160Y-126150000D01*
X120338640Y-126150000D01*
X120051742Y-126207068D01*
X119781489Y-126319010D01*
X119538268Y-126481525D01*
X119331425Y-126688368D01*
X119214900Y-126862760D01*
X119098375Y-126688368D01*
X118891532Y-126481525D01*
X118648311Y-126319010D01*
X118378058Y-126207068D01*
X118091160Y-126150000D01*
X117798640Y-126150000D01*
X117511742Y-126207068D01*
X117241489Y-126319010D01*
X116998268Y-126481525D01*
X116791425Y-126688368D01*
X116669705Y-126870534D01*
X116600078Y-126753645D01*
X116405169Y-126537412D01*
X116171820Y-126363359D01*
X115908999Y-126238175D01*
X115761790Y-126193524D01*
X115531900Y-126314845D01*
X115277900Y-126314845D01*
X115048010Y-126193524D01*
X114900801Y-126238175D01*
X114637980Y-126363359D01*
X114404631Y-126537412D01*
X114209722Y-126753645D01*
X114060743Y-127003748D01*
X113963419Y-127278109D01*
X109857762Y-127278109D01*
X109855479Y-127272599D01*
X109577507Y-126856584D01*
X109223716Y-126502793D01*
X108807701Y-126224821D01*
X108345451Y-126033351D01*
X107854728Y-125935740D01*
X107354392Y-125935740D01*
X106863669Y-126033351D01*
X106401419Y-126224821D01*
X105985404Y-126502793D01*
X105631613Y-126856584D01*
X105353641Y-127272599D01*
X105162171Y-127734849D01*
X105064560Y-128225572D01*
X91622354Y-128225572D01*
X91794256Y-128154368D01*
X91960662Y-128043179D01*
X92025941Y-127977900D01*
X95194634Y-127977900D01*
X95230190Y-127981402D01*
X95372099Y-127967425D01*
X95508555Y-127926032D01*
X95634313Y-127858813D01*
X95744541Y-127768351D01*
X95767214Y-127740724D01*
X97689039Y-125818900D01*
X147401152Y-125818900D01*
X153360159Y-131777908D01*
X153356775Y-131781292D01*
X153245586Y-131947698D01*
X153168998Y-132132598D01*
X153129954Y-132328887D01*
X153129954Y-132529021D01*
X153168998Y-132725310D01*
X153245586Y-132910210D01*
X153356775Y-133076616D01*
X153498292Y-133218133D01*
X153664698Y-133329322D01*
X153849598Y-133405910D01*
X154045887Y-133444954D01*
X154246021Y-133444954D01*
X154442310Y-133405910D01*
X154627210Y-133329322D01*
X154793616Y-133218133D01*
X154935133Y-133076616D01*
X155046322Y-132910210D01*
X155122910Y-132725310D01*
X155161954Y-132529021D01*
X155161954Y-132328887D01*
X155122910Y-132132598D01*
X155046322Y-131947698D01*
X154935133Y-131781292D01*
X154869854Y-131716013D01*
X154869854Y-131575502D01*
X154873355Y-131539953D01*
X154869854Y-131504405D01*
X154869854Y-131504398D01*
X154859379Y-131398045D01*
X154852628Y-131375788D01*
X154825186Y-131285326D01*
X154817986Y-131261589D01*
X154750767Y-131135831D01*
X154660304Y-131025603D01*
X154632688Y-131002939D01*
X148238024Y-124608276D01*
X148215351Y-124580649D01*
X148105123Y-124490187D01*
X147979365Y-124422968D01*
X147842909Y-124381575D01*
X147736556Y-124371100D01*
X147701000Y-124367598D01*
X147665444Y-124371100D01*
X97424745Y-124371100D01*
X97389189Y-124367598D01*
X97247280Y-124381575D01*
X97110825Y-124422968D01*
X96985067Y-124490187D01*
X96874839Y-124580649D01*
X96852171Y-124608270D01*
X94930342Y-126530100D01*
X92025941Y-126530100D01*
X91960662Y-126464821D01*
X91794256Y-126353632D01*
X91609356Y-126277044D01*
X91413067Y-126238000D01*
X91212933Y-126238000D01*
X91016644Y-126277044D01*
X90831744Y-126353632D01*
X90665338Y-126464821D01*
X90523821Y-126606338D01*
X90412632Y-126772744D01*
X90336044Y-126957644D01*
X90297000Y-127153933D01*
X76327000Y-127153933D01*
X76327000Y-117628933D01*
X90551000Y-117628933D01*
X90551000Y-117829067D01*
X90590044Y-118025356D01*
X90666632Y-118210256D01*
X90777821Y-118376662D01*
X90843100Y-118441941D01*
X90843101Y-122138434D01*
X90839598Y-122174000D01*
X90853575Y-122315909D01*
X90894968Y-122452364D01*
X90894969Y-122452365D01*
X90962188Y-122578123D01*
X91052650Y-122688351D01*
X91080271Y-122711019D01*
X92202000Y-123832749D01*
X92202000Y-123925067D01*
X92241044Y-124121356D01*
X92317632Y-124306256D01*
X92428821Y-124472662D01*
X92570338Y-124614179D01*
X92736744Y-124725368D01*
X92921644Y-124801956D01*
X93117933Y-124841000D01*
X93318067Y-124841000D01*
X93514356Y-124801956D01*
X93699256Y-124725368D01*
X93865662Y-124614179D01*
X94007179Y-124472662D01*
X94118368Y-124306256D01*
X94194956Y-124121356D01*
X94234000Y-123925067D01*
X94234000Y-123724933D01*
X94194956Y-123528644D01*
X94118368Y-123343744D01*
X94007179Y-123177338D01*
X93865662Y-123035821D01*
X93699256Y-122924632D01*
X93514356Y-122848044D01*
X93318067Y-122809000D01*
X93225749Y-122809000D01*
X92290900Y-121874152D01*
X92290900Y-119660933D01*
X95885000Y-119660933D01*
X95885000Y-119861067D01*
X95924044Y-120057356D01*
X96000632Y-120242256D01*
X96111821Y-120408662D01*
X96226159Y-120523000D01*
X96111821Y-120637338D01*
X96000632Y-120803744D01*
X95924044Y-120988644D01*
X95885000Y-121184933D01*
X95885000Y-121385067D01*
X95924044Y-121581356D01*
X96000632Y-121766256D01*
X96111821Y-121932662D01*
X96253338Y-122074179D01*
X96419744Y-122185368D01*
X96604644Y-122261956D01*
X96800933Y-122301000D01*
X97001067Y-122301000D01*
X97197356Y-122261956D01*
X97382256Y-122185368D01*
X97513311Y-122097800D01*
X99497262Y-122097800D01*
X99340744Y-122162632D01*
X99174338Y-122273821D01*
X99032821Y-122415338D01*
X98921632Y-122581744D01*
X98845044Y-122766644D01*
X98806000Y-122962933D01*
X98806000Y-123163067D01*
X98845044Y-123359356D01*
X98921632Y-123544256D01*
X99032821Y-123710662D01*
X99174338Y-123852179D01*
X99340744Y-123963368D01*
X99525644Y-124039956D01*
X99721933Y-124079000D01*
X99922067Y-124079000D01*
X100118356Y-124039956D01*
X100303256Y-123963368D01*
X100469662Y-123852179D01*
X100534941Y-123786900D01*
X119048061Y-123786900D01*
X119113338Y-123852177D01*
X119279744Y-123963366D01*
X119464644Y-124039954D01*
X119660933Y-124078998D01*
X119861067Y-124078998D01*
X120057356Y-124039954D01*
X120242256Y-123963366D01*
X120408662Y-123852177D01*
X120550179Y-123710660D01*
X120661368Y-123544254D01*
X120737956Y-123359354D01*
X120777000Y-123163065D01*
X120777000Y-122962931D01*
X120737956Y-122766642D01*
X120661368Y-122581742D01*
X120550179Y-122415336D01*
X120408662Y-122273819D01*
X120242256Y-122162630D01*
X120057356Y-122086042D01*
X119861067Y-122046998D01*
X119660933Y-122046998D01*
X119464644Y-122086042D01*
X119279744Y-122162630D01*
X119113338Y-122273819D01*
X119048057Y-122339100D01*
X106299000Y-122339100D01*
X106299000Y-122200933D01*
X106259956Y-122004644D01*
X106183368Y-121819744D01*
X106072179Y-121653338D01*
X106005636Y-121586795D01*
X105996425Y-121493273D01*
X105955032Y-121356818D01*
X105937514Y-121324044D01*
X105887813Y-121231060D01*
X105797350Y-121120832D01*
X105769734Y-121098168D01*
X105323505Y-120651939D01*
X105339392Y-120653504D01*
X105374948Y-120650002D01*
X165534342Y-120650002D01*
X165569898Y-120653504D01*
X165711807Y-120639527D01*
X165799361Y-120612968D01*
X165848263Y-120598134D01*
X165974021Y-120530915D01*
X166084249Y-120440453D01*
X166106922Y-120412826D01*
X167139749Y-119380000D01*
X167232067Y-119380000D01*
X167428356Y-119340956D01*
X167613256Y-119264368D01*
X167779662Y-119153179D01*
X167921179Y-119011662D01*
X168032368Y-118845256D01*
X168108956Y-118660356D01*
X168148000Y-118464067D01*
X168148000Y-118263933D01*
X168108956Y-118067644D01*
X168032368Y-117882744D01*
X167921179Y-117716338D01*
X167779662Y-117574821D01*
X167613256Y-117463632D01*
X167428356Y-117387044D01*
X167232067Y-117348000D01*
X167031933Y-117348000D01*
X166835644Y-117387044D01*
X166650744Y-117463632D01*
X166484338Y-117574821D01*
X166342821Y-117716338D01*
X166231632Y-117882744D01*
X166155044Y-118067644D01*
X166116000Y-118263933D01*
X166116000Y-118356251D01*
X165270050Y-119202202D01*
X105639241Y-119202202D01*
X103552314Y-117115276D01*
X103529641Y-117087649D01*
X103419413Y-116997187D01*
X103293655Y-116929968D01*
X103157199Y-116888575D01*
X103050846Y-116878100D01*
X103015290Y-116874598D01*
X102979734Y-116878100D01*
X99645941Y-116878100D01*
X99580662Y-116812821D01*
X99414256Y-116701632D01*
X99229356Y-116625044D01*
X99033067Y-116586000D01*
X98832933Y-116586000D01*
X98636644Y-116625044D01*
X98451744Y-116701632D01*
X98285338Y-116812821D01*
X98143821Y-116954338D01*
X98032632Y-117120744D01*
X97956044Y-117305644D01*
X97917000Y-117501933D01*
X97917000Y-117702067D01*
X97956044Y-117898356D01*
X98032632Y-118083256D01*
X98075093Y-118146804D01*
X97890067Y-118110000D01*
X97689933Y-118110000D01*
X97493644Y-118149044D01*
X97308744Y-118225632D01*
X97142338Y-118336821D01*
X97000821Y-118478338D01*
X96889632Y-118644744D01*
X96848105Y-118745000D01*
X96800933Y-118745000D01*
X96604644Y-118784044D01*
X96419744Y-118860632D01*
X96253338Y-118971821D01*
X96111821Y-119113338D01*
X96000632Y-119279744D01*
X95924044Y-119464644D01*
X95885000Y-119660933D01*
X92290900Y-119660933D01*
X92290900Y-118441941D01*
X92356179Y-118376662D01*
X92467368Y-118210256D01*
X92543956Y-118025356D01*
X92583000Y-117829067D01*
X92583000Y-117628933D01*
X92543956Y-117432644D01*
X92467368Y-117247744D01*
X92356179Y-117081338D01*
X92214662Y-116939821D01*
X92048256Y-116828632D01*
X91863356Y-116752044D01*
X91667067Y-116713000D01*
X91466933Y-116713000D01*
X91270644Y-116752044D01*
X91085744Y-116828632D01*
X90919338Y-116939821D01*
X90777821Y-117081338D01*
X90666632Y-117247744D01*
X90590044Y-117432644D01*
X90551000Y-117628933D01*
X76327000Y-117628933D01*
X76327000Y-113151894D01*
X101948961Y-113151894D01*
X101948961Y-113352028D01*
X101988005Y-113548317D01*
X102064593Y-113733217D01*
X102175782Y-113899623D01*
X102317299Y-114041140D01*
X102483705Y-114152329D01*
X102668605Y-114228917D01*
X102864894Y-114267961D01*
X103065028Y-114267961D01*
X103261317Y-114228917D01*
X103446217Y-114152329D01*
X103612623Y-114041140D01*
X103677902Y-113975861D01*
X104517483Y-113975861D01*
X104553039Y-113979363D01*
X104694948Y-113965386D01*
X104831404Y-113923993D01*
X104957162Y-113856774D01*
X105067390Y-113766312D01*
X105090062Y-113738686D01*
X105417748Y-113411000D01*
X105510067Y-113411000D01*
X105706356Y-113371956D01*
X105891256Y-113295368D01*
X106057662Y-113184179D01*
X106199179Y-113042662D01*
X106310368Y-112876256D01*
X106386956Y-112691356D01*
X106426000Y-112495067D01*
X106426000Y-112356900D01*
X106475059Y-112356900D01*
X106540338Y-112422179D01*
X106706744Y-112533368D01*
X106891644Y-112609956D01*
X107087933Y-112649000D01*
X107288067Y-112649000D01*
X107484356Y-112609956D01*
X107669256Y-112533368D01*
X107835662Y-112422179D01*
X107977179Y-112280662D01*
X108088368Y-112114256D01*
X108164956Y-111929356D01*
X108204000Y-111733067D01*
X108204000Y-111532933D01*
X108164956Y-111336644D01*
X108088368Y-111151744D01*
X107977179Y-110985338D01*
X107835662Y-110843821D01*
X107669256Y-110732632D01*
X107484356Y-110656044D01*
X107288067Y-110617000D01*
X107087933Y-110617000D01*
X106891644Y-110656044D01*
X106706744Y-110732632D01*
X106540338Y-110843821D01*
X106475059Y-110909100D01*
X106286064Y-110909100D01*
X106299000Y-110844067D01*
X106299000Y-110643933D01*
X106259956Y-110447644D01*
X106183368Y-110262744D01*
X106072179Y-110096338D01*
X105930662Y-109954821D01*
X105764256Y-109843632D01*
X105579356Y-109767044D01*
X105383067Y-109728000D01*
X105182933Y-109728000D01*
X104986644Y-109767044D01*
X104801744Y-109843632D01*
X104635338Y-109954821D01*
X104570059Y-110020100D01*
X103836967Y-110020100D01*
X103771662Y-109954795D01*
X103605256Y-109843606D01*
X103420356Y-109767018D01*
X103224067Y-109727974D01*
X103023933Y-109727974D01*
X102827644Y-109767018D01*
X102642744Y-109843606D01*
X102476338Y-109954795D01*
X102334821Y-110096312D01*
X102223632Y-110262718D01*
X102147044Y-110447618D01*
X102108000Y-110643907D01*
X102108000Y-110844041D01*
X102147044Y-111040330D01*
X102223632Y-111225230D01*
X102334821Y-111391636D01*
X102396732Y-111453547D01*
X102373166Y-111572023D01*
X102373166Y-111772157D01*
X102412210Y-111968446D01*
X102488798Y-112153346D01*
X102591444Y-112306966D01*
X102483705Y-112351593D01*
X102317299Y-112462782D01*
X102175782Y-112604299D01*
X102064593Y-112770705D01*
X101988005Y-112955605D01*
X101948961Y-113151894D01*
X76327000Y-113151894D01*
X76327000Y-109441653D01*
X140927952Y-109441653D01*
X141083962Y-109757214D01*
X141458745Y-109948020D01*
X141863551Y-110062044D01*
X142282824Y-110094902D01*
X142700451Y-110045334D01*
X143100383Y-109915243D01*
X143396038Y-109757214D01*
X143552048Y-109441653D01*
X146007952Y-109441653D01*
X146163962Y-109757214D01*
X146538745Y-109948020D01*
X146943551Y-110062044D01*
X147362824Y-110094902D01*
X147780451Y-110045334D01*
X148180383Y-109915243D01*
X148476038Y-109757214D01*
X148632048Y-109441653D01*
X147320000Y-108129605D01*
X146007952Y-109441653D01*
X143552048Y-109441653D01*
X142240000Y-108129605D01*
X140927952Y-109441653D01*
X76327000Y-109441653D01*
X76327000Y-107992824D01*
X140095098Y-107992824D01*
X140144666Y-108410451D01*
X140274757Y-108810383D01*
X140432786Y-109106038D01*
X140748347Y-109262048D01*
X142060395Y-107950000D01*
X142419605Y-107950000D01*
X143731653Y-109262048D01*
X144047214Y-109106038D01*
X144238020Y-108731255D01*
X144352044Y-108326449D01*
X144378189Y-107992824D01*
X145175098Y-107992824D01*
X145224666Y-108410451D01*
X145354757Y-108810383D01*
X145512786Y-109106038D01*
X145828347Y-109262048D01*
X147140395Y-107950000D01*
X147499605Y-107950000D01*
X148811653Y-109262048D01*
X149127214Y-109106038D01*
X149318020Y-108731255D01*
X149432044Y-108326449D01*
X149464902Y-107907176D01*
X149445027Y-107739721D01*
X150265000Y-107739721D01*
X150265000Y-108160279D01*
X150347047Y-108572756D01*
X150507988Y-108961302D01*
X150741637Y-109310983D01*
X151039017Y-109608363D01*
X151388698Y-109842012D01*
X151777244Y-110002953D01*
X152189721Y-110085000D01*
X152610279Y-110085000D01*
X153022756Y-110002953D01*
X153411302Y-109842012D01*
X153760983Y-109608363D01*
X154058363Y-109310983D01*
X154292012Y-108961302D01*
X154452953Y-108572756D01*
X154535000Y-108160279D01*
X154535000Y-107739721D01*
X155345000Y-107739721D01*
X155345000Y-108160279D01*
X155427047Y-108572756D01*
X155587988Y-108961302D01*
X155821637Y-109310983D01*
X156119017Y-109608363D01*
X156468698Y-109842012D01*
X156857244Y-110002953D01*
X157269721Y-110085000D01*
X157690279Y-110085000D01*
X158102756Y-110002953D01*
X158491302Y-109842012D01*
X158840983Y-109608363D01*
X159138363Y-109310983D01*
X159372012Y-108961302D01*
X159532953Y-108572756D01*
X159615000Y-108160279D01*
X159615000Y-107739721D01*
X160425000Y-107739721D01*
X160425000Y-108160279D01*
X160507047Y-108572756D01*
X160667988Y-108961302D01*
X160901637Y-109310983D01*
X161199017Y-109608363D01*
X161548698Y-109842012D01*
X161937244Y-110002953D01*
X162349721Y-110085000D01*
X162770279Y-110085000D01*
X163182756Y-110002953D01*
X163571302Y-109842012D01*
X163920983Y-109608363D01*
X164218363Y-109310983D01*
X164452012Y-108961302D01*
X164612953Y-108572756D01*
X164695000Y-108160279D01*
X164695000Y-107739721D01*
X164612953Y-107327244D01*
X164452012Y-106938698D01*
X164218363Y-106589017D01*
X164079346Y-106450000D01*
X165501928Y-106450000D01*
X165501928Y-109450000D01*
X165514188Y-109574482D01*
X165550498Y-109694180D01*
X165609463Y-109804494D01*
X165688815Y-109901185D01*
X165785506Y-109980537D01*
X165895820Y-110039502D01*
X166015518Y-110075812D01*
X166140000Y-110088072D01*
X169140000Y-110088072D01*
X169264482Y-110075812D01*
X169384180Y-110039502D01*
X169494494Y-109980537D01*
X169591185Y-109901185D01*
X169670537Y-109804494D01*
X169729502Y-109694180D01*
X169765812Y-109574482D01*
X169778072Y-109450000D01*
X169778072Y-108491872D01*
X173533000Y-108491872D01*
X173533000Y-108932128D01*
X173618890Y-109363925D01*
X173787369Y-109770669D01*
X174031962Y-110136729D01*
X174343271Y-110448038D01*
X174709331Y-110692631D01*
X175116075Y-110861110D01*
X175547872Y-110947000D01*
X175988128Y-110947000D01*
X176419925Y-110861110D01*
X176826669Y-110692631D01*
X177192729Y-110448038D01*
X177504038Y-110136729D01*
X177748631Y-109770669D01*
X177917110Y-109363925D01*
X178003000Y-108932128D01*
X178003000Y-108491872D01*
X177917110Y-108060075D01*
X177748631Y-107653331D01*
X177504038Y-107287271D01*
X177192729Y-106975962D01*
X176826669Y-106731369D01*
X176419925Y-106562890D01*
X175988128Y-106477000D01*
X175547872Y-106477000D01*
X175116075Y-106562890D01*
X174709331Y-106731369D01*
X174343271Y-106975962D01*
X174031962Y-107287271D01*
X173787369Y-107653331D01*
X173618890Y-108060075D01*
X173533000Y-108491872D01*
X169778072Y-108491872D01*
X169778072Y-106450000D01*
X169765812Y-106325518D01*
X169729502Y-106205820D01*
X169670537Y-106095506D01*
X169591185Y-105998815D01*
X169494494Y-105919463D01*
X169384180Y-105860498D01*
X169264482Y-105824188D01*
X169140000Y-105811928D01*
X166140000Y-105811928D01*
X166015518Y-105824188D01*
X165895820Y-105860498D01*
X165785506Y-105919463D01*
X165688815Y-105998815D01*
X165609463Y-106095506D01*
X165550498Y-106205820D01*
X165514188Y-106325518D01*
X165501928Y-106450000D01*
X164079346Y-106450000D01*
X163920983Y-106291637D01*
X163571302Y-106057988D01*
X163182756Y-105897047D01*
X162770279Y-105815000D01*
X162349721Y-105815000D01*
X161937244Y-105897047D01*
X161548698Y-106057988D01*
X161199017Y-106291637D01*
X160901637Y-106589017D01*
X160667988Y-106938698D01*
X160507047Y-107327244D01*
X160425000Y-107739721D01*
X159615000Y-107739721D01*
X159532953Y-107327244D01*
X159372012Y-106938698D01*
X159138363Y-106589017D01*
X158840983Y-106291637D01*
X158491302Y-106057988D01*
X158102756Y-105897047D01*
X157690279Y-105815000D01*
X157269721Y-105815000D01*
X156857244Y-105897047D01*
X156468698Y-106057988D01*
X156119017Y-106291637D01*
X155821637Y-106589017D01*
X155587988Y-106938698D01*
X155427047Y-107327244D01*
X155345000Y-107739721D01*
X154535000Y-107739721D01*
X154452953Y-107327244D01*
X154292012Y-106938698D01*
X154058363Y-106589017D01*
X153760983Y-106291637D01*
X153411302Y-106057988D01*
X153022756Y-105897047D01*
X152610279Y-105815000D01*
X152189721Y-105815000D01*
X151777244Y-105897047D01*
X151388698Y-106057988D01*
X151039017Y-106291637D01*
X150741637Y-106589017D01*
X150507988Y-106938698D01*
X150347047Y-107327244D01*
X150265000Y-107739721D01*
X149445027Y-107739721D01*
X149415334Y-107489549D01*
X149285243Y-107089617D01*
X149127214Y-106793962D01*
X148811653Y-106637952D01*
X147499605Y-107950000D01*
X147140395Y-107950000D01*
X145828347Y-106637952D01*
X145512786Y-106793962D01*
X145321980Y-107168745D01*
X145207956Y-107573551D01*
X145175098Y-107992824D01*
X144378189Y-107992824D01*
X144384902Y-107907176D01*
X144335334Y-107489549D01*
X144205243Y-107089617D01*
X144047214Y-106793962D01*
X143731653Y-106637952D01*
X142419605Y-107950000D01*
X142060395Y-107950000D01*
X140748347Y-106637952D01*
X140432786Y-106793962D01*
X140241980Y-107168745D01*
X140127956Y-107573551D01*
X140095098Y-107992824D01*
X76327000Y-107992824D01*
X76327000Y-104850000D01*
X127380632Y-104850000D01*
X127379946Y-104852773D01*
%TD*%
M02*
