M48
; DRILL file {KiCad (5.1.6)-1} date 08/19/21 23:31:25
; FORMAT={-:-/ absolute / inch / decimal}
; #@! TF.CreationDate,2021-08-19T23:31:25-04:00
; #@! TF.GenerationSoftware,Kicad,Pcbnew,(5.1.6)-1
FMAT,2
INCH
T1C0.0150
T2C0.0394
T3C0.0598
T4C0.0827
T5C0.0177
T6C0.0790
T7C0.1260
%
G90
G05
T1
X3.03Y-5.01
X3.03Y-5.59
X3.075Y-6.03
X3.08Y-5.79
X3.15Y-4.36
X3.21Y-5.3
X3.31Y-4.24
X3.55Y-5.91
X3.595Y-5.01
X3.605Y-4.635
X3.67Y-4.875
X3.67Y-5.53
X3.675Y-5.255
X3.815Y-4.715
X3.815Y-4.775
X3.815Y-5.125
X3.85Y-4.69
X3.895Y-4.63
X3.91Y-5.225
X3.915Y-4.67
X3.93Y-4.845
X3.945Y-4.695
X4.0515Y-4.665
X4.0537Y-4.4587
X4.06Y-4.36
X4.06Y-4.75
X4.0704Y-4.3965
X4.08Y-4.6935
X4.095Y-4.7785
X4.145Y-4.36
X4.145Y-4.815
X4.15Y-4.425
X4.22Y-4.395
X4.28Y-4.23
X4.575Y-5.77
X4.58Y-5.47
X4.66Y-4.24
X4.715Y-4.845
X4.735Y-5.62
X4.76Y-4.36
X4.76Y-4.52
X4.78Y-4.18
X4.87Y-4.36
X4.895Y-5.115
X4.895Y-5.3065
X4.92Y-5.78
X4.93Y-4.14
X5.03Y-5.78
X5.13Y-4.3
X5.14Y-4.81
X5.26Y-4.53
X5.56Y-4.62
X6.0215Y-5.565
X6.0675Y-4.4875
X6.0687Y-5.2137
X6.1Y-5.6
X6.35Y-4.66
X6.58Y-4.66
T2
X4.5435Y-5.025
X4.6435Y-5.025
X4.7435Y-5.025
X4.8435Y-5.025
X6.2616Y-5.1244
X6.2616Y-5.6953
X6.36Y-5.6953
X6.4584Y-5.1244
X6.4584Y-5.6953
T3
X5.6Y-4.25
X5.8Y-4.25
X6.0Y-4.25
X6.2Y-4.25
X6.4Y-4.25
X6.6Y-4.25
T5
X5.0593Y-4.155
X5.3407Y-4.155
T6
X4.235Y-5.983
X4.2364Y-5.0581
X5.15Y-5.06
X5.15Y-5.985
T7
X6.92Y-4.28
X2.87Y-4.28
X2.87Y-5.92
X6.92Y-5.92
T4
G00X6.1395Y-5.3941
M15
G01X6.1395Y-5.4059
M16
G05
G00X6.5805Y-5.3941
M15
G01X6.5805Y-5.4059
M16
G05
T0
M30
