%TF.GenerationSoftware,KiCad,Pcbnew,(5.1.6)-1*%
%TF.CreationDate,2021-08-19T23:31:01-04:00*%
%TF.ProjectId,Temp_Control_Board,54656d70-5f43-46f6-9e74-726f6c5f426f,rev?*%
%TF.SameCoordinates,Original*%
%TF.FileFunction,Profile,NP*%
%FSLAX46Y46*%
G04 Gerber Fmt 4.6, Leading zero omitted, Abs format (unit mm)*
G04 Created by KiCad (PCBNEW (5.1.6)-1) date 2021-08-19 23:31:01*
%MOMM*%
%LPD*%
G01*
G04 APERTURE LIST*
%TA.AperFunction,Profile*%
%ADD10C,0.149860*%
%TD*%
%TA.AperFunction,Profile*%
%ADD11C,0.150000*%
%TD*%
%TA.AperFunction,Profile*%
%ADD12C,0.100000*%
%TD*%
G04 APERTURE END LIST*
D10*
X68580000Y-105410000D02*
G75*
G02*
X69850000Y-104140000I1270000J0D01*
G01*
X69850000Y-154940000D02*
G75*
G02*
X68580000Y-153670000I0J1270000D01*
G01*
D11*
X179070000Y-104140000D02*
G75*
G02*
X180340000Y-105410000I0J-1270000D01*
G01*
X180340000Y-153670000D02*
G75*
G02*
X179070000Y-154940000I-1270000J0D01*
G01*
X68580000Y-105410000D02*
X68580000Y-153670000D01*
X179070000Y-104140000D02*
X69850000Y-104140000D01*
X180340000Y-153670000D02*
X180340000Y-105410000D01*
X69850000Y-154940000D02*
X179070000Y-154940000D01*
D12*
%TO.C,J3*%
X135430000Y-105939000D02*
X135430000Y-105137000D01*
X135880000Y-105137000D02*
X135880000Y-105938000D01*
X128280000Y-105939000D02*
X128280000Y-105137000D01*
X128730000Y-105137000D02*
X128730000Y-105938000D01*
X128505000Y-104912000D02*
G75*
G03*
X128280000Y-105137000I0J-225000D01*
G01*
X128730000Y-105137000D02*
G75*
G03*
X128505000Y-104912000I-225000J0D01*
G01*
X128505000Y-106163000D02*
G75*
G02*
X128280000Y-105939000I-500J224500D01*
G01*
X128730000Y-105938000D02*
G75*
G02*
X128505000Y-106163000I-225000J0D01*
G01*
X135655000Y-104912000D02*
G75*
G03*
X135430000Y-105137000I0J-225000D01*
G01*
X135880000Y-105137000D02*
G75*
G03*
X135655000Y-104912000I-225000J0D01*
G01*
X135655000Y-106163000D02*
G75*
G02*
X135430000Y-105939000I-500J224500D01*
G01*
X135880000Y-105938000D02*
G75*
G02*
X135655000Y-106163000I-225000J0D01*
G01*
%TD*%
M02*
