%TF.GenerationSoftware,KiCad,Pcbnew,(5.1.6)-1*%
%TF.CreationDate,2021-08-19T23:31:01-04:00*%
%TF.ProjectId,Temp_Control_Board,54656d70-5f43-46f6-9e74-726f6c5f426f,rev?*%
%TF.SameCoordinates,Original*%
%TF.FileFunction,Soldermask,Bot*%
%TF.FilePolarity,Negative*%
%FSLAX46Y46*%
G04 Gerber Fmt 4.6, Leading zero omitted, Abs format (unit mm)*
G04 Created by KiCad (PCBNEW (5.1.6)-1) date 2021-08-19 23:31:01*
%MOMM*%
%LPD*%
G01*
G04 APERTURE LIST*
%ADD10C,0.010000*%
%ADD11O,1.800000X1.800000*%
%ADD12R,1.800000X1.800000*%
%ADD13C,3.910000*%
%ADD14C,3.300000*%
%ADD15C,0.550000*%
%ADD16C,1.600000*%
%ADD17C,3.100000*%
%ADD18R,3.100000X3.100000*%
G04 APERTURE END LIST*
D10*
%TO.C,J3*%
G36*
X136386860Y-106687000D02*
G01*
X134929000Y-106687000D01*
X134929000Y-104384900D01*
X136386860Y-104384900D01*
X136386860Y-106687000D01*
G37*
X136386860Y-106687000D02*
X134929000Y-106687000D01*
X134929000Y-104384900D01*
X136386860Y-104384900D01*
X136386860Y-106687000D01*
G36*
X129226170Y-106687000D02*
G01*
X127779000Y-106687000D01*
X127779000Y-104385860D01*
X129226170Y-104385860D01*
X129226170Y-106687000D01*
G37*
X129226170Y-106687000D02*
X127779000Y-106687000D01*
X127779000Y-104385860D01*
X129226170Y-104385860D01*
X129226170Y-106687000D01*
%TD*%
D11*
%TO.C,J2*%
X115404900Y-127635000D03*
X117944900Y-127635000D03*
X120484900Y-127635000D03*
D12*
X123024900Y-127635000D03*
D13*
X130810000Y-128524000D03*
X130810000Y-152019000D03*
X107569000Y-151968200D03*
X107604560Y-128475740D03*
%TD*%
D14*
%TO.C,REF\u002A\u002A*%
X175768000Y-150368000D03*
%TD*%
%TO.C,REF\u002A\u002A*%
X175768000Y-108712000D03*
%TD*%
%TO.C,REF\u002A\u002A*%
X72898000Y-108712000D03*
%TD*%
%TO.C,REF\u002A\u002A*%
X72898000Y-150368000D03*
%TD*%
D15*
%TO.C,J3*%
X128505000Y-105537000D03*
X135655000Y-105537000D03*
%TD*%
D16*
%TO.C,U3*%
X164044000Y-144660000D03*
X161544000Y-144660000D03*
X159044000Y-144660000D03*
X159044000Y-130160000D03*
X164044000Y-130160000D03*
G36*
G01*
X154494000Y-138035000D02*
X154494000Y-136285000D01*
G75*
G02*
X155219000Y-135560000I725000J0D01*
G01*
X156669000Y-135560000D01*
G75*
G02*
X157394000Y-136285000I0J-725000D01*
G01*
X157394000Y-138035000D01*
G75*
G02*
X156669000Y-138760000I-725000J0D01*
G01*
X155219000Y-138760000D01*
G75*
G02*
X154494000Y-138035000I0J725000D01*
G01*
G37*
G36*
G01*
X165694000Y-138035000D02*
X165694000Y-136285000D01*
G75*
G02*
X166419000Y-135560000I725000J0D01*
G01*
X167869000Y-135560000D01*
G75*
G02*
X168594000Y-136285000I0J-725000D01*
G01*
X168594000Y-138035000D01*
G75*
G02*
X167869000Y-138760000I-725000J0D01*
G01*
X166419000Y-138760000D01*
G75*
G02*
X165694000Y-138035000I0J725000D01*
G01*
G37*
%TD*%
D17*
%TO.C,J1*%
X142240000Y-107950000D03*
X147320000Y-107950000D03*
X152400000Y-107950000D03*
D18*
X167640000Y-107950000D03*
D17*
X157480000Y-107950000D03*
X162560000Y-107950000D03*
%TD*%
M02*
