%TF.GenerationSoftware,KiCad,Pcbnew,(5.1.6)-1*%
%TF.CreationDate,2021-08-19T23:31:00-04:00*%
%TF.ProjectId,Temp_Control_Board,54656d70-5f43-46f6-9e74-726f6c5f426f,rev?*%
%TF.SameCoordinates,Original*%
%TF.FileFunction,Paste,Bot*%
%TF.FilePolarity,Positive*%
%FSLAX46Y46*%
G04 Gerber Fmt 4.6, Leading zero omitted, Abs format (unit mm)*
G04 Created by KiCad (PCBNEW (5.1.6)-1) date 2021-08-19 23:31:00*
%MOMM*%
%LPD*%
G01*
G04 APERTURE LIST*
%ADD10C,0.001000*%
G04 APERTURE END LIST*
D10*
%TO.C,J3*%
G36*
X135879000Y-105537000D02*
G01*
X135879000Y-105937000D01*
X135878692Y-105948776D01*
X135877767Y-105960519D01*
X135876230Y-105972198D01*
X135874083Y-105983780D01*
X135871333Y-105995234D01*
X135867988Y-106006529D01*
X135864056Y-106017633D01*
X135859548Y-106028516D01*
X135854476Y-106039148D01*
X135848856Y-106049500D01*
X135842701Y-106059544D01*
X135836029Y-106069252D01*
X135828858Y-106078597D01*
X135821208Y-106087554D01*
X135813099Y-106096099D01*
X135804554Y-106104208D01*
X135795597Y-106111858D01*
X135786252Y-106119029D01*
X135776544Y-106125701D01*
X135766500Y-106131856D01*
X135756148Y-106137476D01*
X135745516Y-106142548D01*
X135734633Y-106147056D01*
X135723529Y-106150988D01*
X135712234Y-106154333D01*
X135700780Y-106157083D01*
X135689198Y-106159230D01*
X135677519Y-106160767D01*
X135665776Y-106161692D01*
X135654000Y-106162000D01*
X135642224Y-106161692D01*
X135630481Y-106160767D01*
X135618802Y-106159230D01*
X135607220Y-106157083D01*
X135595766Y-106154333D01*
X135584471Y-106150988D01*
X135573367Y-106147056D01*
X135562484Y-106142548D01*
X135551852Y-106137476D01*
X135541500Y-106131856D01*
X135531456Y-106125701D01*
X135521748Y-106119029D01*
X135512403Y-106111858D01*
X135503446Y-106104208D01*
X135494901Y-106096099D01*
X135486792Y-106087554D01*
X135479142Y-106078597D01*
X135471971Y-106069252D01*
X135465299Y-106059544D01*
X135459144Y-106049500D01*
X135453524Y-106039148D01*
X135448452Y-106028516D01*
X135443944Y-106017633D01*
X135440012Y-106006529D01*
X135436667Y-105995234D01*
X135433917Y-105983780D01*
X135431770Y-105972198D01*
X135430233Y-105960519D01*
X135429308Y-105948776D01*
X135429000Y-105937000D01*
X135429000Y-105537000D01*
X135129000Y-105537000D01*
X135129000Y-105892000D01*
X135128621Y-105924063D01*
X135129873Y-105952724D01*
X135132622Y-105981280D01*
X135136863Y-106009653D01*
X135142582Y-106037765D01*
X135149765Y-106065539D01*
X135158392Y-106092899D01*
X135168438Y-106119770D01*
X135179878Y-106146079D01*
X135192678Y-106171753D01*
X135206805Y-106196721D01*
X135222219Y-106220917D01*
X135238878Y-106244272D01*
X135256737Y-106266723D01*
X135275746Y-106288209D01*
X135295854Y-106308671D01*
X135317004Y-106328052D01*
X135339141Y-106346300D01*
X135362202Y-106363364D01*
X135386124Y-106379198D01*
X135410843Y-106393758D01*
X135436289Y-106407005D01*
X135462394Y-106418902D01*
X135489086Y-106429416D01*
X135516291Y-106438519D01*
X135543936Y-106446185D01*
X135571944Y-106452395D01*
X135600238Y-106457129D01*
X135628742Y-106460377D01*
X135654000Y-106462000D01*
X135681476Y-106461281D01*
X135708877Y-106459124D01*
X135736128Y-106455536D01*
X135763154Y-106450527D01*
X135789880Y-106444111D01*
X135816234Y-106436305D01*
X135842143Y-106427130D01*
X135867537Y-106416611D01*
X135892345Y-106404778D01*
X135916500Y-106391663D01*
X135939935Y-106377302D01*
X135962587Y-106361734D01*
X135984393Y-106345002D01*
X136005294Y-106327151D01*
X136025231Y-106308231D01*
X136044151Y-106288294D01*
X136062002Y-106267393D01*
X136078734Y-106245587D01*
X136094302Y-106222935D01*
X136108663Y-106199500D01*
X136121778Y-106175345D01*
X136133611Y-106150537D01*
X136144130Y-106125143D01*
X136153305Y-106099234D01*
X136161111Y-106072880D01*
X136167527Y-106046154D01*
X136172536Y-106019128D01*
X136176124Y-105991877D01*
X136178281Y-105964476D01*
X136179000Y-105937000D01*
X136179000Y-105537000D01*
X135879000Y-105537000D01*
G37*
X135879000Y-105537000D02*
X135879000Y-105937000D01*
X135878692Y-105948776D01*
X135877767Y-105960519D01*
X135876230Y-105972198D01*
X135874083Y-105983780D01*
X135871333Y-105995234D01*
X135867988Y-106006529D01*
X135864056Y-106017633D01*
X135859548Y-106028516D01*
X135854476Y-106039148D01*
X135848856Y-106049500D01*
X135842701Y-106059544D01*
X135836029Y-106069252D01*
X135828858Y-106078597D01*
X135821208Y-106087554D01*
X135813099Y-106096099D01*
X135804554Y-106104208D01*
X135795597Y-106111858D01*
X135786252Y-106119029D01*
X135776544Y-106125701D01*
X135766500Y-106131856D01*
X135756148Y-106137476D01*
X135745516Y-106142548D01*
X135734633Y-106147056D01*
X135723529Y-106150988D01*
X135712234Y-106154333D01*
X135700780Y-106157083D01*
X135689198Y-106159230D01*
X135677519Y-106160767D01*
X135665776Y-106161692D01*
X135654000Y-106162000D01*
X135642224Y-106161692D01*
X135630481Y-106160767D01*
X135618802Y-106159230D01*
X135607220Y-106157083D01*
X135595766Y-106154333D01*
X135584471Y-106150988D01*
X135573367Y-106147056D01*
X135562484Y-106142548D01*
X135551852Y-106137476D01*
X135541500Y-106131856D01*
X135531456Y-106125701D01*
X135521748Y-106119029D01*
X135512403Y-106111858D01*
X135503446Y-106104208D01*
X135494901Y-106096099D01*
X135486792Y-106087554D01*
X135479142Y-106078597D01*
X135471971Y-106069252D01*
X135465299Y-106059544D01*
X135459144Y-106049500D01*
X135453524Y-106039148D01*
X135448452Y-106028516D01*
X135443944Y-106017633D01*
X135440012Y-106006529D01*
X135436667Y-105995234D01*
X135433917Y-105983780D01*
X135431770Y-105972198D01*
X135430233Y-105960519D01*
X135429308Y-105948776D01*
X135429000Y-105937000D01*
X135429000Y-105537000D01*
X135129000Y-105537000D01*
X135129000Y-105892000D01*
X135128621Y-105924063D01*
X135129873Y-105952724D01*
X135132622Y-105981280D01*
X135136863Y-106009653D01*
X135142582Y-106037765D01*
X135149765Y-106065539D01*
X135158392Y-106092899D01*
X135168438Y-106119770D01*
X135179878Y-106146079D01*
X135192678Y-106171753D01*
X135206805Y-106196721D01*
X135222219Y-106220917D01*
X135238878Y-106244272D01*
X135256737Y-106266723D01*
X135275746Y-106288209D01*
X135295854Y-106308671D01*
X135317004Y-106328052D01*
X135339141Y-106346300D01*
X135362202Y-106363364D01*
X135386124Y-106379198D01*
X135410843Y-106393758D01*
X135436289Y-106407005D01*
X135462394Y-106418902D01*
X135489086Y-106429416D01*
X135516291Y-106438519D01*
X135543936Y-106446185D01*
X135571944Y-106452395D01*
X135600238Y-106457129D01*
X135628742Y-106460377D01*
X135654000Y-106462000D01*
X135681476Y-106461281D01*
X135708877Y-106459124D01*
X135736128Y-106455536D01*
X135763154Y-106450527D01*
X135789880Y-106444111D01*
X135816234Y-106436305D01*
X135842143Y-106427130D01*
X135867537Y-106416611D01*
X135892345Y-106404778D01*
X135916500Y-106391663D01*
X135939935Y-106377302D01*
X135962587Y-106361734D01*
X135984393Y-106345002D01*
X136005294Y-106327151D01*
X136025231Y-106308231D01*
X136044151Y-106288294D01*
X136062002Y-106267393D01*
X136078734Y-106245587D01*
X136094302Y-106222935D01*
X136108663Y-106199500D01*
X136121778Y-106175345D01*
X136133611Y-106150537D01*
X136144130Y-106125143D01*
X136153305Y-106099234D01*
X136161111Y-106072880D01*
X136167527Y-106046154D01*
X136172536Y-106019128D01*
X136176124Y-105991877D01*
X136178281Y-105964476D01*
X136179000Y-105937000D01*
X136179000Y-105537000D01*
X135879000Y-105537000D01*
G36*
X135429000Y-105537000D02*
G01*
X135429000Y-105137000D01*
X135429308Y-105125224D01*
X135430233Y-105113481D01*
X135431770Y-105101802D01*
X135433917Y-105090220D01*
X135436667Y-105078766D01*
X135440012Y-105067471D01*
X135443944Y-105056367D01*
X135448452Y-105045484D01*
X135453524Y-105034852D01*
X135459144Y-105024500D01*
X135465299Y-105014456D01*
X135471971Y-105004748D01*
X135479142Y-104995403D01*
X135486792Y-104986446D01*
X135494901Y-104977901D01*
X135503446Y-104969792D01*
X135512403Y-104962142D01*
X135521748Y-104954971D01*
X135531456Y-104948299D01*
X135541500Y-104942144D01*
X135551852Y-104936524D01*
X135562484Y-104931452D01*
X135573367Y-104926944D01*
X135584471Y-104923012D01*
X135595766Y-104919667D01*
X135607220Y-104916917D01*
X135618802Y-104914770D01*
X135630481Y-104913233D01*
X135642224Y-104912308D01*
X135654000Y-104912000D01*
X135665776Y-104912308D01*
X135677519Y-104913233D01*
X135689198Y-104914770D01*
X135700780Y-104916917D01*
X135712234Y-104919667D01*
X135723529Y-104923012D01*
X135734633Y-104926944D01*
X135745516Y-104931452D01*
X135756148Y-104936524D01*
X135766500Y-104942144D01*
X135776544Y-104948299D01*
X135786252Y-104954971D01*
X135795597Y-104962142D01*
X135804554Y-104969792D01*
X135813099Y-104977901D01*
X135821208Y-104986446D01*
X135828858Y-104995403D01*
X135836029Y-105004748D01*
X135842701Y-105014456D01*
X135848856Y-105024500D01*
X135854476Y-105034852D01*
X135859548Y-105045484D01*
X135864056Y-105056367D01*
X135867988Y-105067471D01*
X135871333Y-105078766D01*
X135874083Y-105090220D01*
X135876230Y-105101802D01*
X135877767Y-105113481D01*
X135878692Y-105125224D01*
X135879000Y-105137000D01*
X135879000Y-105537000D01*
X136179000Y-105537000D01*
X136179000Y-105182000D01*
X136179379Y-105149937D01*
X136178127Y-105121276D01*
X136175378Y-105092720D01*
X136171137Y-105064347D01*
X136165418Y-105036235D01*
X136158235Y-105008461D01*
X136149608Y-104981101D01*
X136139562Y-104954230D01*
X136128122Y-104927921D01*
X136115322Y-104902247D01*
X136101195Y-104877279D01*
X136085781Y-104853083D01*
X136069122Y-104829728D01*
X136051263Y-104807277D01*
X136032254Y-104785791D01*
X136012146Y-104765329D01*
X135990996Y-104745948D01*
X135968859Y-104727700D01*
X135945798Y-104710636D01*
X135921876Y-104694802D01*
X135897157Y-104680242D01*
X135871711Y-104666995D01*
X135845606Y-104655098D01*
X135818914Y-104644584D01*
X135791709Y-104635481D01*
X135764064Y-104627815D01*
X135736056Y-104621605D01*
X135707762Y-104616871D01*
X135679258Y-104613623D01*
X135654000Y-104612000D01*
X135626524Y-104612719D01*
X135599123Y-104614876D01*
X135571872Y-104618464D01*
X135544846Y-104623473D01*
X135518120Y-104629889D01*
X135491766Y-104637695D01*
X135465857Y-104646870D01*
X135440463Y-104657389D01*
X135415655Y-104669222D01*
X135391500Y-104682337D01*
X135368065Y-104696698D01*
X135345413Y-104712266D01*
X135323607Y-104728998D01*
X135302706Y-104746849D01*
X135282769Y-104765769D01*
X135263849Y-104785706D01*
X135245998Y-104806607D01*
X135229266Y-104828413D01*
X135213698Y-104851065D01*
X135199337Y-104874500D01*
X135186222Y-104898655D01*
X135174389Y-104923463D01*
X135163870Y-104948857D01*
X135154695Y-104974766D01*
X135146889Y-105001120D01*
X135140473Y-105027846D01*
X135135464Y-105054872D01*
X135131876Y-105082123D01*
X135129719Y-105109524D01*
X135129000Y-105137000D01*
X135129000Y-105537000D01*
X135429000Y-105537000D01*
G37*
X135429000Y-105537000D02*
X135429000Y-105137000D01*
X135429308Y-105125224D01*
X135430233Y-105113481D01*
X135431770Y-105101802D01*
X135433917Y-105090220D01*
X135436667Y-105078766D01*
X135440012Y-105067471D01*
X135443944Y-105056367D01*
X135448452Y-105045484D01*
X135453524Y-105034852D01*
X135459144Y-105024500D01*
X135465299Y-105014456D01*
X135471971Y-105004748D01*
X135479142Y-104995403D01*
X135486792Y-104986446D01*
X135494901Y-104977901D01*
X135503446Y-104969792D01*
X135512403Y-104962142D01*
X135521748Y-104954971D01*
X135531456Y-104948299D01*
X135541500Y-104942144D01*
X135551852Y-104936524D01*
X135562484Y-104931452D01*
X135573367Y-104926944D01*
X135584471Y-104923012D01*
X135595766Y-104919667D01*
X135607220Y-104916917D01*
X135618802Y-104914770D01*
X135630481Y-104913233D01*
X135642224Y-104912308D01*
X135654000Y-104912000D01*
X135665776Y-104912308D01*
X135677519Y-104913233D01*
X135689198Y-104914770D01*
X135700780Y-104916917D01*
X135712234Y-104919667D01*
X135723529Y-104923012D01*
X135734633Y-104926944D01*
X135745516Y-104931452D01*
X135756148Y-104936524D01*
X135766500Y-104942144D01*
X135776544Y-104948299D01*
X135786252Y-104954971D01*
X135795597Y-104962142D01*
X135804554Y-104969792D01*
X135813099Y-104977901D01*
X135821208Y-104986446D01*
X135828858Y-104995403D01*
X135836029Y-105004748D01*
X135842701Y-105014456D01*
X135848856Y-105024500D01*
X135854476Y-105034852D01*
X135859548Y-105045484D01*
X135864056Y-105056367D01*
X135867988Y-105067471D01*
X135871333Y-105078766D01*
X135874083Y-105090220D01*
X135876230Y-105101802D01*
X135877767Y-105113481D01*
X135878692Y-105125224D01*
X135879000Y-105137000D01*
X135879000Y-105537000D01*
X136179000Y-105537000D01*
X136179000Y-105182000D01*
X136179379Y-105149937D01*
X136178127Y-105121276D01*
X136175378Y-105092720D01*
X136171137Y-105064347D01*
X136165418Y-105036235D01*
X136158235Y-105008461D01*
X136149608Y-104981101D01*
X136139562Y-104954230D01*
X136128122Y-104927921D01*
X136115322Y-104902247D01*
X136101195Y-104877279D01*
X136085781Y-104853083D01*
X136069122Y-104829728D01*
X136051263Y-104807277D01*
X136032254Y-104785791D01*
X136012146Y-104765329D01*
X135990996Y-104745948D01*
X135968859Y-104727700D01*
X135945798Y-104710636D01*
X135921876Y-104694802D01*
X135897157Y-104680242D01*
X135871711Y-104666995D01*
X135845606Y-104655098D01*
X135818914Y-104644584D01*
X135791709Y-104635481D01*
X135764064Y-104627815D01*
X135736056Y-104621605D01*
X135707762Y-104616871D01*
X135679258Y-104613623D01*
X135654000Y-104612000D01*
X135626524Y-104612719D01*
X135599123Y-104614876D01*
X135571872Y-104618464D01*
X135544846Y-104623473D01*
X135518120Y-104629889D01*
X135491766Y-104637695D01*
X135465857Y-104646870D01*
X135440463Y-104657389D01*
X135415655Y-104669222D01*
X135391500Y-104682337D01*
X135368065Y-104696698D01*
X135345413Y-104712266D01*
X135323607Y-104728998D01*
X135302706Y-104746849D01*
X135282769Y-104765769D01*
X135263849Y-104785706D01*
X135245998Y-104806607D01*
X135229266Y-104828413D01*
X135213698Y-104851065D01*
X135199337Y-104874500D01*
X135186222Y-104898655D01*
X135174389Y-104923463D01*
X135163870Y-104948857D01*
X135154695Y-104974766D01*
X135146889Y-105001120D01*
X135140473Y-105027846D01*
X135135464Y-105054872D01*
X135131876Y-105082123D01*
X135129719Y-105109524D01*
X135129000Y-105137000D01*
X135129000Y-105537000D01*
X135429000Y-105537000D01*
G36*
X135880000Y-105537000D02*
G01*
X135880000Y-105937000D01*
X135879692Y-105948776D01*
X135878767Y-105960519D01*
X135877230Y-105972198D01*
X135875083Y-105983780D01*
X135872333Y-105995234D01*
X135868988Y-106006529D01*
X135865056Y-106017633D01*
X135860548Y-106028516D01*
X135855476Y-106039148D01*
X135849856Y-106049500D01*
X135843701Y-106059544D01*
X135837029Y-106069252D01*
X135829858Y-106078597D01*
X135822208Y-106087554D01*
X135814099Y-106096099D01*
X135805554Y-106104208D01*
X135796597Y-106111858D01*
X135787252Y-106119029D01*
X135777544Y-106125701D01*
X135767500Y-106131856D01*
X135757148Y-106137476D01*
X135746516Y-106142548D01*
X135735633Y-106147056D01*
X135724529Y-106150988D01*
X135713234Y-106154333D01*
X135701780Y-106157083D01*
X135690198Y-106159230D01*
X135678519Y-106160767D01*
X135666776Y-106161692D01*
X135655000Y-106162000D01*
X135643224Y-106161692D01*
X135631481Y-106160767D01*
X135619802Y-106159230D01*
X135608220Y-106157083D01*
X135596766Y-106154333D01*
X135585471Y-106150988D01*
X135574367Y-106147056D01*
X135563484Y-106142548D01*
X135552852Y-106137476D01*
X135542500Y-106131856D01*
X135532456Y-106125701D01*
X135522748Y-106119029D01*
X135513403Y-106111858D01*
X135504446Y-106104208D01*
X135495901Y-106096099D01*
X135487792Y-106087554D01*
X135480142Y-106078597D01*
X135472971Y-106069252D01*
X135466299Y-106059544D01*
X135460144Y-106049500D01*
X135454524Y-106039148D01*
X135449452Y-106028516D01*
X135444944Y-106017633D01*
X135441012Y-106006529D01*
X135437667Y-105995234D01*
X135434917Y-105983780D01*
X135432770Y-105972198D01*
X135431233Y-105960519D01*
X135430308Y-105948776D01*
X135430000Y-105937000D01*
X135430000Y-105537000D01*
X135130000Y-105537000D01*
X135130000Y-105887000D01*
X135129432Y-105912000D01*
X135130187Y-105940814D01*
X135132448Y-105969550D01*
X135136211Y-105998128D01*
X135141463Y-106026470D01*
X135148192Y-106054497D01*
X135156379Y-106082135D01*
X135166001Y-106109306D01*
X135177031Y-106135936D01*
X135189440Y-106161953D01*
X135203194Y-106187284D01*
X135218255Y-106211861D01*
X135234581Y-106235616D01*
X135252128Y-106258484D01*
X135270848Y-106280402D01*
X135290690Y-106301310D01*
X135311598Y-106321152D01*
X135333516Y-106339872D01*
X135356384Y-106357419D01*
X135380139Y-106373745D01*
X135404716Y-106388806D01*
X135430047Y-106402560D01*
X135456064Y-106414969D01*
X135482694Y-106425999D01*
X135509865Y-106435621D01*
X135537503Y-106443808D01*
X135565530Y-106450537D01*
X135593872Y-106455789D01*
X135622450Y-106459552D01*
X135655000Y-106462000D01*
X135682476Y-106461281D01*
X135709877Y-106459124D01*
X135737128Y-106455536D01*
X135764154Y-106450527D01*
X135790880Y-106444111D01*
X135817234Y-106436305D01*
X135843143Y-106427130D01*
X135868537Y-106416611D01*
X135893345Y-106404778D01*
X135917500Y-106391663D01*
X135940935Y-106377302D01*
X135963587Y-106361734D01*
X135985393Y-106345002D01*
X136006294Y-106327151D01*
X136026231Y-106308231D01*
X136045151Y-106288294D01*
X136063002Y-106267393D01*
X136079734Y-106245587D01*
X136095302Y-106222935D01*
X136109663Y-106199500D01*
X136122778Y-106175345D01*
X136134611Y-106150537D01*
X136145130Y-106125143D01*
X136154305Y-106099234D01*
X136162111Y-106072880D01*
X136168527Y-106046154D01*
X136173536Y-106019128D01*
X136177124Y-105991877D01*
X136179281Y-105964476D01*
X136180000Y-105937000D01*
X136180000Y-105537000D01*
X135880000Y-105537000D01*
G37*
X135880000Y-105537000D02*
X135880000Y-105937000D01*
X135879692Y-105948776D01*
X135878767Y-105960519D01*
X135877230Y-105972198D01*
X135875083Y-105983780D01*
X135872333Y-105995234D01*
X135868988Y-106006529D01*
X135865056Y-106017633D01*
X135860548Y-106028516D01*
X135855476Y-106039148D01*
X135849856Y-106049500D01*
X135843701Y-106059544D01*
X135837029Y-106069252D01*
X135829858Y-106078597D01*
X135822208Y-106087554D01*
X135814099Y-106096099D01*
X135805554Y-106104208D01*
X135796597Y-106111858D01*
X135787252Y-106119029D01*
X135777544Y-106125701D01*
X135767500Y-106131856D01*
X135757148Y-106137476D01*
X135746516Y-106142548D01*
X135735633Y-106147056D01*
X135724529Y-106150988D01*
X135713234Y-106154333D01*
X135701780Y-106157083D01*
X135690198Y-106159230D01*
X135678519Y-106160767D01*
X135666776Y-106161692D01*
X135655000Y-106162000D01*
X135643224Y-106161692D01*
X135631481Y-106160767D01*
X135619802Y-106159230D01*
X135608220Y-106157083D01*
X135596766Y-106154333D01*
X135585471Y-106150988D01*
X135574367Y-106147056D01*
X135563484Y-106142548D01*
X135552852Y-106137476D01*
X135542500Y-106131856D01*
X135532456Y-106125701D01*
X135522748Y-106119029D01*
X135513403Y-106111858D01*
X135504446Y-106104208D01*
X135495901Y-106096099D01*
X135487792Y-106087554D01*
X135480142Y-106078597D01*
X135472971Y-106069252D01*
X135466299Y-106059544D01*
X135460144Y-106049500D01*
X135454524Y-106039148D01*
X135449452Y-106028516D01*
X135444944Y-106017633D01*
X135441012Y-106006529D01*
X135437667Y-105995234D01*
X135434917Y-105983780D01*
X135432770Y-105972198D01*
X135431233Y-105960519D01*
X135430308Y-105948776D01*
X135430000Y-105937000D01*
X135430000Y-105537000D01*
X135130000Y-105537000D01*
X135130000Y-105887000D01*
X135129432Y-105912000D01*
X135130187Y-105940814D01*
X135132448Y-105969550D01*
X135136211Y-105998128D01*
X135141463Y-106026470D01*
X135148192Y-106054497D01*
X135156379Y-106082135D01*
X135166001Y-106109306D01*
X135177031Y-106135936D01*
X135189440Y-106161953D01*
X135203194Y-106187284D01*
X135218255Y-106211861D01*
X135234581Y-106235616D01*
X135252128Y-106258484D01*
X135270848Y-106280402D01*
X135290690Y-106301310D01*
X135311598Y-106321152D01*
X135333516Y-106339872D01*
X135356384Y-106357419D01*
X135380139Y-106373745D01*
X135404716Y-106388806D01*
X135430047Y-106402560D01*
X135456064Y-106414969D01*
X135482694Y-106425999D01*
X135509865Y-106435621D01*
X135537503Y-106443808D01*
X135565530Y-106450537D01*
X135593872Y-106455789D01*
X135622450Y-106459552D01*
X135655000Y-106462000D01*
X135682476Y-106461281D01*
X135709877Y-106459124D01*
X135737128Y-106455536D01*
X135764154Y-106450527D01*
X135790880Y-106444111D01*
X135817234Y-106436305D01*
X135843143Y-106427130D01*
X135868537Y-106416611D01*
X135893345Y-106404778D01*
X135917500Y-106391663D01*
X135940935Y-106377302D01*
X135963587Y-106361734D01*
X135985393Y-106345002D01*
X136006294Y-106327151D01*
X136026231Y-106308231D01*
X136045151Y-106288294D01*
X136063002Y-106267393D01*
X136079734Y-106245587D01*
X136095302Y-106222935D01*
X136109663Y-106199500D01*
X136122778Y-106175345D01*
X136134611Y-106150537D01*
X136145130Y-106125143D01*
X136154305Y-106099234D01*
X136162111Y-106072880D01*
X136168527Y-106046154D01*
X136173536Y-106019128D01*
X136177124Y-105991877D01*
X136179281Y-105964476D01*
X136180000Y-105937000D01*
X136180000Y-105537000D01*
X135880000Y-105537000D01*
G36*
X135430000Y-105537000D02*
G01*
X135430000Y-105137000D01*
X135430308Y-105125224D01*
X135431233Y-105113481D01*
X135432770Y-105101802D01*
X135434917Y-105090220D01*
X135437667Y-105078766D01*
X135441012Y-105067471D01*
X135444944Y-105056367D01*
X135449452Y-105045484D01*
X135454524Y-105034852D01*
X135460144Y-105024500D01*
X135466299Y-105014456D01*
X135472971Y-105004748D01*
X135480142Y-104995403D01*
X135487792Y-104986446D01*
X135495901Y-104977901D01*
X135504446Y-104969792D01*
X135513403Y-104962142D01*
X135522748Y-104954971D01*
X135532456Y-104948299D01*
X135542500Y-104942144D01*
X135552852Y-104936524D01*
X135563484Y-104931452D01*
X135574367Y-104926944D01*
X135585471Y-104923012D01*
X135596766Y-104919667D01*
X135608220Y-104916917D01*
X135619802Y-104914770D01*
X135631481Y-104913233D01*
X135643224Y-104912308D01*
X135655000Y-104912000D01*
X135666776Y-104912308D01*
X135678519Y-104913233D01*
X135690198Y-104914770D01*
X135701780Y-104916917D01*
X135713234Y-104919667D01*
X135724529Y-104923012D01*
X135735633Y-104926944D01*
X135746516Y-104931452D01*
X135757148Y-104936524D01*
X135767500Y-104942144D01*
X135777544Y-104948299D01*
X135787252Y-104954971D01*
X135796597Y-104962142D01*
X135805554Y-104969792D01*
X135814099Y-104977901D01*
X135822208Y-104986446D01*
X135829858Y-104995403D01*
X135837029Y-105004748D01*
X135843701Y-105014456D01*
X135849856Y-105024500D01*
X135855476Y-105034852D01*
X135860548Y-105045484D01*
X135865056Y-105056367D01*
X135868988Y-105067471D01*
X135872333Y-105078766D01*
X135875083Y-105090220D01*
X135877230Y-105101802D01*
X135878767Y-105113481D01*
X135879692Y-105125224D01*
X135880000Y-105137000D01*
X135880000Y-105537000D01*
X136180000Y-105537000D01*
X136180000Y-105187000D01*
X136180568Y-105162000D01*
X136179813Y-105133186D01*
X136177552Y-105104450D01*
X136173789Y-105075872D01*
X136168537Y-105047530D01*
X136161808Y-105019503D01*
X136153621Y-104991865D01*
X136143999Y-104964694D01*
X136132969Y-104938064D01*
X136120560Y-104912047D01*
X136106806Y-104886716D01*
X136091745Y-104862139D01*
X136075419Y-104838384D01*
X136057872Y-104815516D01*
X136039152Y-104793598D01*
X136019310Y-104772690D01*
X135998402Y-104752848D01*
X135976484Y-104734128D01*
X135953616Y-104716581D01*
X135929861Y-104700255D01*
X135905284Y-104685194D01*
X135879953Y-104671440D01*
X135853936Y-104659031D01*
X135827306Y-104648001D01*
X135800135Y-104638379D01*
X135772497Y-104630192D01*
X135744470Y-104623463D01*
X135716128Y-104618211D01*
X135687550Y-104614448D01*
X135655000Y-104612000D01*
X135627524Y-104612719D01*
X135600123Y-104614876D01*
X135572872Y-104618464D01*
X135545846Y-104623473D01*
X135519120Y-104629889D01*
X135492766Y-104637695D01*
X135466857Y-104646870D01*
X135441463Y-104657389D01*
X135416655Y-104669222D01*
X135392500Y-104682337D01*
X135369065Y-104696698D01*
X135346413Y-104712266D01*
X135324607Y-104728998D01*
X135303706Y-104746849D01*
X135283769Y-104765769D01*
X135264849Y-104785706D01*
X135246998Y-104806607D01*
X135230266Y-104828413D01*
X135214698Y-104851065D01*
X135200337Y-104874500D01*
X135187222Y-104898655D01*
X135175389Y-104923463D01*
X135164870Y-104948857D01*
X135155695Y-104974766D01*
X135147889Y-105001120D01*
X135141473Y-105027846D01*
X135136464Y-105054872D01*
X135132876Y-105082123D01*
X135130719Y-105109524D01*
X135130000Y-105137000D01*
X135130000Y-105537000D01*
X135430000Y-105537000D01*
G37*
X135430000Y-105537000D02*
X135430000Y-105137000D01*
X135430308Y-105125224D01*
X135431233Y-105113481D01*
X135432770Y-105101802D01*
X135434917Y-105090220D01*
X135437667Y-105078766D01*
X135441012Y-105067471D01*
X135444944Y-105056367D01*
X135449452Y-105045484D01*
X135454524Y-105034852D01*
X135460144Y-105024500D01*
X135466299Y-105014456D01*
X135472971Y-105004748D01*
X135480142Y-104995403D01*
X135487792Y-104986446D01*
X135495901Y-104977901D01*
X135504446Y-104969792D01*
X135513403Y-104962142D01*
X135522748Y-104954971D01*
X135532456Y-104948299D01*
X135542500Y-104942144D01*
X135552852Y-104936524D01*
X135563484Y-104931452D01*
X135574367Y-104926944D01*
X135585471Y-104923012D01*
X135596766Y-104919667D01*
X135608220Y-104916917D01*
X135619802Y-104914770D01*
X135631481Y-104913233D01*
X135643224Y-104912308D01*
X135655000Y-104912000D01*
X135666776Y-104912308D01*
X135678519Y-104913233D01*
X135690198Y-104914770D01*
X135701780Y-104916917D01*
X135713234Y-104919667D01*
X135724529Y-104923012D01*
X135735633Y-104926944D01*
X135746516Y-104931452D01*
X135757148Y-104936524D01*
X135767500Y-104942144D01*
X135777544Y-104948299D01*
X135787252Y-104954971D01*
X135796597Y-104962142D01*
X135805554Y-104969792D01*
X135814099Y-104977901D01*
X135822208Y-104986446D01*
X135829858Y-104995403D01*
X135837029Y-105004748D01*
X135843701Y-105014456D01*
X135849856Y-105024500D01*
X135855476Y-105034852D01*
X135860548Y-105045484D01*
X135865056Y-105056367D01*
X135868988Y-105067471D01*
X135872333Y-105078766D01*
X135875083Y-105090220D01*
X135877230Y-105101802D01*
X135878767Y-105113481D01*
X135879692Y-105125224D01*
X135880000Y-105137000D01*
X135880000Y-105537000D01*
X136180000Y-105537000D01*
X136180000Y-105187000D01*
X136180568Y-105162000D01*
X136179813Y-105133186D01*
X136177552Y-105104450D01*
X136173789Y-105075872D01*
X136168537Y-105047530D01*
X136161808Y-105019503D01*
X136153621Y-104991865D01*
X136143999Y-104964694D01*
X136132969Y-104938064D01*
X136120560Y-104912047D01*
X136106806Y-104886716D01*
X136091745Y-104862139D01*
X136075419Y-104838384D01*
X136057872Y-104815516D01*
X136039152Y-104793598D01*
X136019310Y-104772690D01*
X135998402Y-104752848D01*
X135976484Y-104734128D01*
X135953616Y-104716581D01*
X135929861Y-104700255D01*
X135905284Y-104685194D01*
X135879953Y-104671440D01*
X135853936Y-104659031D01*
X135827306Y-104648001D01*
X135800135Y-104638379D01*
X135772497Y-104630192D01*
X135744470Y-104623463D01*
X135716128Y-104618211D01*
X135687550Y-104614448D01*
X135655000Y-104612000D01*
X135627524Y-104612719D01*
X135600123Y-104614876D01*
X135572872Y-104618464D01*
X135545846Y-104623473D01*
X135519120Y-104629889D01*
X135492766Y-104637695D01*
X135466857Y-104646870D01*
X135441463Y-104657389D01*
X135416655Y-104669222D01*
X135392500Y-104682337D01*
X135369065Y-104696698D01*
X135346413Y-104712266D01*
X135324607Y-104728998D01*
X135303706Y-104746849D01*
X135283769Y-104765769D01*
X135264849Y-104785706D01*
X135246998Y-104806607D01*
X135230266Y-104828413D01*
X135214698Y-104851065D01*
X135200337Y-104874500D01*
X135187222Y-104898655D01*
X135175389Y-104923463D01*
X135164870Y-104948857D01*
X135155695Y-104974766D01*
X135147889Y-105001120D01*
X135141473Y-105027846D01*
X135136464Y-105054872D01*
X135132876Y-105082123D01*
X135130719Y-105109524D01*
X135130000Y-105137000D01*
X135130000Y-105537000D01*
X135430000Y-105537000D01*
G36*
X128729000Y-105537000D02*
G01*
X128729000Y-105937000D01*
X128728692Y-105948776D01*
X128727767Y-105960519D01*
X128726230Y-105972198D01*
X128724083Y-105983780D01*
X128721333Y-105995234D01*
X128717988Y-106006529D01*
X128714056Y-106017633D01*
X128709548Y-106028516D01*
X128704476Y-106039148D01*
X128698856Y-106049500D01*
X128692701Y-106059544D01*
X128686029Y-106069252D01*
X128678858Y-106078597D01*
X128671208Y-106087554D01*
X128663099Y-106096099D01*
X128654554Y-106104208D01*
X128645597Y-106111858D01*
X128636252Y-106119029D01*
X128626544Y-106125701D01*
X128616500Y-106131856D01*
X128606148Y-106137476D01*
X128595516Y-106142548D01*
X128584633Y-106147056D01*
X128573529Y-106150988D01*
X128562234Y-106154333D01*
X128550780Y-106157083D01*
X128539198Y-106159230D01*
X128527519Y-106160767D01*
X128515776Y-106161692D01*
X128504000Y-106162000D01*
X128492224Y-106161692D01*
X128480481Y-106160767D01*
X128468802Y-106159230D01*
X128457220Y-106157083D01*
X128445766Y-106154333D01*
X128434471Y-106150988D01*
X128423367Y-106147056D01*
X128412484Y-106142548D01*
X128401852Y-106137476D01*
X128391500Y-106131856D01*
X128381456Y-106125701D01*
X128371748Y-106119029D01*
X128362403Y-106111858D01*
X128353446Y-106104208D01*
X128344901Y-106096099D01*
X128336792Y-106087554D01*
X128329142Y-106078597D01*
X128321971Y-106069252D01*
X128315299Y-106059544D01*
X128309144Y-106049500D01*
X128303524Y-106039148D01*
X128298452Y-106028516D01*
X128293944Y-106017633D01*
X128290012Y-106006529D01*
X128286667Y-105995234D01*
X128283917Y-105983780D01*
X128281770Y-105972198D01*
X128280233Y-105960519D01*
X128279308Y-105948776D01*
X128279000Y-105937000D01*
X128279000Y-105537000D01*
X127979000Y-105537000D01*
X127979000Y-105892000D01*
X127978621Y-105924063D01*
X127979873Y-105952724D01*
X127982622Y-105981280D01*
X127986863Y-106009653D01*
X127992582Y-106037765D01*
X127999765Y-106065539D01*
X128008392Y-106092899D01*
X128018438Y-106119770D01*
X128029878Y-106146079D01*
X128042678Y-106171753D01*
X128056805Y-106196721D01*
X128072219Y-106220917D01*
X128088878Y-106244272D01*
X128106737Y-106266723D01*
X128125746Y-106288209D01*
X128145854Y-106308671D01*
X128167004Y-106328052D01*
X128189141Y-106346300D01*
X128212202Y-106363364D01*
X128236124Y-106379198D01*
X128260843Y-106393758D01*
X128286289Y-106407005D01*
X128312394Y-106418902D01*
X128339086Y-106429416D01*
X128366291Y-106438519D01*
X128393936Y-106446185D01*
X128421944Y-106452395D01*
X128450238Y-106457129D01*
X128478742Y-106460377D01*
X128504000Y-106462000D01*
X128531476Y-106461281D01*
X128558877Y-106459124D01*
X128586128Y-106455536D01*
X128613154Y-106450527D01*
X128639880Y-106444111D01*
X128666234Y-106436305D01*
X128692143Y-106427130D01*
X128717537Y-106416611D01*
X128742345Y-106404778D01*
X128766500Y-106391663D01*
X128789935Y-106377302D01*
X128812587Y-106361734D01*
X128834393Y-106345002D01*
X128855294Y-106327151D01*
X128875231Y-106308231D01*
X128894151Y-106288294D01*
X128912002Y-106267393D01*
X128928734Y-106245587D01*
X128944302Y-106222935D01*
X128958663Y-106199500D01*
X128971778Y-106175345D01*
X128983611Y-106150537D01*
X128994130Y-106125143D01*
X129003305Y-106099234D01*
X129011111Y-106072880D01*
X129017527Y-106046154D01*
X129022536Y-106019128D01*
X129026124Y-105991877D01*
X129028281Y-105964476D01*
X129029000Y-105937000D01*
X129029000Y-105537000D01*
X128729000Y-105537000D01*
G37*
X128729000Y-105537000D02*
X128729000Y-105937000D01*
X128728692Y-105948776D01*
X128727767Y-105960519D01*
X128726230Y-105972198D01*
X128724083Y-105983780D01*
X128721333Y-105995234D01*
X128717988Y-106006529D01*
X128714056Y-106017633D01*
X128709548Y-106028516D01*
X128704476Y-106039148D01*
X128698856Y-106049500D01*
X128692701Y-106059544D01*
X128686029Y-106069252D01*
X128678858Y-106078597D01*
X128671208Y-106087554D01*
X128663099Y-106096099D01*
X128654554Y-106104208D01*
X128645597Y-106111858D01*
X128636252Y-106119029D01*
X128626544Y-106125701D01*
X128616500Y-106131856D01*
X128606148Y-106137476D01*
X128595516Y-106142548D01*
X128584633Y-106147056D01*
X128573529Y-106150988D01*
X128562234Y-106154333D01*
X128550780Y-106157083D01*
X128539198Y-106159230D01*
X128527519Y-106160767D01*
X128515776Y-106161692D01*
X128504000Y-106162000D01*
X128492224Y-106161692D01*
X128480481Y-106160767D01*
X128468802Y-106159230D01*
X128457220Y-106157083D01*
X128445766Y-106154333D01*
X128434471Y-106150988D01*
X128423367Y-106147056D01*
X128412484Y-106142548D01*
X128401852Y-106137476D01*
X128391500Y-106131856D01*
X128381456Y-106125701D01*
X128371748Y-106119029D01*
X128362403Y-106111858D01*
X128353446Y-106104208D01*
X128344901Y-106096099D01*
X128336792Y-106087554D01*
X128329142Y-106078597D01*
X128321971Y-106069252D01*
X128315299Y-106059544D01*
X128309144Y-106049500D01*
X128303524Y-106039148D01*
X128298452Y-106028516D01*
X128293944Y-106017633D01*
X128290012Y-106006529D01*
X128286667Y-105995234D01*
X128283917Y-105983780D01*
X128281770Y-105972198D01*
X128280233Y-105960519D01*
X128279308Y-105948776D01*
X128279000Y-105937000D01*
X128279000Y-105537000D01*
X127979000Y-105537000D01*
X127979000Y-105892000D01*
X127978621Y-105924063D01*
X127979873Y-105952724D01*
X127982622Y-105981280D01*
X127986863Y-106009653D01*
X127992582Y-106037765D01*
X127999765Y-106065539D01*
X128008392Y-106092899D01*
X128018438Y-106119770D01*
X128029878Y-106146079D01*
X128042678Y-106171753D01*
X128056805Y-106196721D01*
X128072219Y-106220917D01*
X128088878Y-106244272D01*
X128106737Y-106266723D01*
X128125746Y-106288209D01*
X128145854Y-106308671D01*
X128167004Y-106328052D01*
X128189141Y-106346300D01*
X128212202Y-106363364D01*
X128236124Y-106379198D01*
X128260843Y-106393758D01*
X128286289Y-106407005D01*
X128312394Y-106418902D01*
X128339086Y-106429416D01*
X128366291Y-106438519D01*
X128393936Y-106446185D01*
X128421944Y-106452395D01*
X128450238Y-106457129D01*
X128478742Y-106460377D01*
X128504000Y-106462000D01*
X128531476Y-106461281D01*
X128558877Y-106459124D01*
X128586128Y-106455536D01*
X128613154Y-106450527D01*
X128639880Y-106444111D01*
X128666234Y-106436305D01*
X128692143Y-106427130D01*
X128717537Y-106416611D01*
X128742345Y-106404778D01*
X128766500Y-106391663D01*
X128789935Y-106377302D01*
X128812587Y-106361734D01*
X128834393Y-106345002D01*
X128855294Y-106327151D01*
X128875231Y-106308231D01*
X128894151Y-106288294D01*
X128912002Y-106267393D01*
X128928734Y-106245587D01*
X128944302Y-106222935D01*
X128958663Y-106199500D01*
X128971778Y-106175345D01*
X128983611Y-106150537D01*
X128994130Y-106125143D01*
X129003305Y-106099234D01*
X129011111Y-106072880D01*
X129017527Y-106046154D01*
X129022536Y-106019128D01*
X129026124Y-105991877D01*
X129028281Y-105964476D01*
X129029000Y-105937000D01*
X129029000Y-105537000D01*
X128729000Y-105537000D01*
G36*
X128279000Y-105537000D02*
G01*
X128279000Y-105137000D01*
X128279308Y-105125224D01*
X128280233Y-105113481D01*
X128281770Y-105101802D01*
X128283917Y-105090220D01*
X128286667Y-105078766D01*
X128290012Y-105067471D01*
X128293944Y-105056367D01*
X128298452Y-105045484D01*
X128303524Y-105034852D01*
X128309144Y-105024500D01*
X128315299Y-105014456D01*
X128321971Y-105004748D01*
X128329142Y-104995403D01*
X128336792Y-104986446D01*
X128344901Y-104977901D01*
X128353446Y-104969792D01*
X128362403Y-104962142D01*
X128371748Y-104954971D01*
X128381456Y-104948299D01*
X128391500Y-104942144D01*
X128401852Y-104936524D01*
X128412484Y-104931452D01*
X128423367Y-104926944D01*
X128434471Y-104923012D01*
X128445766Y-104919667D01*
X128457220Y-104916917D01*
X128468802Y-104914770D01*
X128480481Y-104913233D01*
X128492224Y-104912308D01*
X128504000Y-104912000D01*
X128515776Y-104912308D01*
X128527519Y-104913233D01*
X128539198Y-104914770D01*
X128550780Y-104916917D01*
X128562234Y-104919667D01*
X128573529Y-104923012D01*
X128584633Y-104926944D01*
X128595516Y-104931452D01*
X128606148Y-104936524D01*
X128616500Y-104942144D01*
X128626544Y-104948299D01*
X128636252Y-104954971D01*
X128645597Y-104962142D01*
X128654554Y-104969792D01*
X128663099Y-104977901D01*
X128671208Y-104986446D01*
X128678858Y-104995403D01*
X128686029Y-105004748D01*
X128692701Y-105014456D01*
X128698856Y-105024500D01*
X128704476Y-105034852D01*
X128709548Y-105045484D01*
X128714056Y-105056367D01*
X128717988Y-105067471D01*
X128721333Y-105078766D01*
X128724083Y-105090220D01*
X128726230Y-105101802D01*
X128727767Y-105113481D01*
X128728692Y-105125224D01*
X128729000Y-105137000D01*
X128729000Y-105537000D01*
X129029000Y-105537000D01*
X129029000Y-105182000D01*
X129029379Y-105149937D01*
X129028127Y-105121276D01*
X129025378Y-105092720D01*
X129021137Y-105064347D01*
X129015418Y-105036235D01*
X129008235Y-105008461D01*
X128999608Y-104981101D01*
X128989562Y-104954230D01*
X128978122Y-104927921D01*
X128965322Y-104902247D01*
X128951195Y-104877279D01*
X128935781Y-104853083D01*
X128919122Y-104829728D01*
X128901263Y-104807277D01*
X128882254Y-104785791D01*
X128862146Y-104765329D01*
X128840996Y-104745948D01*
X128818859Y-104727700D01*
X128795798Y-104710636D01*
X128771876Y-104694802D01*
X128747157Y-104680242D01*
X128721711Y-104666995D01*
X128695606Y-104655098D01*
X128668914Y-104644584D01*
X128641709Y-104635481D01*
X128614064Y-104627815D01*
X128586056Y-104621605D01*
X128557762Y-104616871D01*
X128529258Y-104613623D01*
X128504000Y-104612000D01*
X128476524Y-104612719D01*
X128449123Y-104614876D01*
X128421872Y-104618464D01*
X128394846Y-104623473D01*
X128368120Y-104629889D01*
X128341766Y-104637695D01*
X128315857Y-104646870D01*
X128290463Y-104657389D01*
X128265655Y-104669222D01*
X128241500Y-104682337D01*
X128218065Y-104696698D01*
X128195413Y-104712266D01*
X128173607Y-104728998D01*
X128152706Y-104746849D01*
X128132769Y-104765769D01*
X128113849Y-104785706D01*
X128095998Y-104806607D01*
X128079266Y-104828413D01*
X128063698Y-104851065D01*
X128049337Y-104874500D01*
X128036222Y-104898655D01*
X128024389Y-104923463D01*
X128013870Y-104948857D01*
X128004695Y-104974766D01*
X127996889Y-105001120D01*
X127990473Y-105027846D01*
X127985464Y-105054872D01*
X127981876Y-105082123D01*
X127979719Y-105109524D01*
X127979000Y-105137000D01*
X127979000Y-105537000D01*
X128279000Y-105537000D01*
G37*
X128279000Y-105537000D02*
X128279000Y-105137000D01*
X128279308Y-105125224D01*
X128280233Y-105113481D01*
X128281770Y-105101802D01*
X128283917Y-105090220D01*
X128286667Y-105078766D01*
X128290012Y-105067471D01*
X128293944Y-105056367D01*
X128298452Y-105045484D01*
X128303524Y-105034852D01*
X128309144Y-105024500D01*
X128315299Y-105014456D01*
X128321971Y-105004748D01*
X128329142Y-104995403D01*
X128336792Y-104986446D01*
X128344901Y-104977901D01*
X128353446Y-104969792D01*
X128362403Y-104962142D01*
X128371748Y-104954971D01*
X128381456Y-104948299D01*
X128391500Y-104942144D01*
X128401852Y-104936524D01*
X128412484Y-104931452D01*
X128423367Y-104926944D01*
X128434471Y-104923012D01*
X128445766Y-104919667D01*
X128457220Y-104916917D01*
X128468802Y-104914770D01*
X128480481Y-104913233D01*
X128492224Y-104912308D01*
X128504000Y-104912000D01*
X128515776Y-104912308D01*
X128527519Y-104913233D01*
X128539198Y-104914770D01*
X128550780Y-104916917D01*
X128562234Y-104919667D01*
X128573529Y-104923012D01*
X128584633Y-104926944D01*
X128595516Y-104931452D01*
X128606148Y-104936524D01*
X128616500Y-104942144D01*
X128626544Y-104948299D01*
X128636252Y-104954971D01*
X128645597Y-104962142D01*
X128654554Y-104969792D01*
X128663099Y-104977901D01*
X128671208Y-104986446D01*
X128678858Y-104995403D01*
X128686029Y-105004748D01*
X128692701Y-105014456D01*
X128698856Y-105024500D01*
X128704476Y-105034852D01*
X128709548Y-105045484D01*
X128714056Y-105056367D01*
X128717988Y-105067471D01*
X128721333Y-105078766D01*
X128724083Y-105090220D01*
X128726230Y-105101802D01*
X128727767Y-105113481D01*
X128728692Y-105125224D01*
X128729000Y-105137000D01*
X128729000Y-105537000D01*
X129029000Y-105537000D01*
X129029000Y-105182000D01*
X129029379Y-105149937D01*
X129028127Y-105121276D01*
X129025378Y-105092720D01*
X129021137Y-105064347D01*
X129015418Y-105036235D01*
X129008235Y-105008461D01*
X128999608Y-104981101D01*
X128989562Y-104954230D01*
X128978122Y-104927921D01*
X128965322Y-104902247D01*
X128951195Y-104877279D01*
X128935781Y-104853083D01*
X128919122Y-104829728D01*
X128901263Y-104807277D01*
X128882254Y-104785791D01*
X128862146Y-104765329D01*
X128840996Y-104745948D01*
X128818859Y-104727700D01*
X128795798Y-104710636D01*
X128771876Y-104694802D01*
X128747157Y-104680242D01*
X128721711Y-104666995D01*
X128695606Y-104655098D01*
X128668914Y-104644584D01*
X128641709Y-104635481D01*
X128614064Y-104627815D01*
X128586056Y-104621605D01*
X128557762Y-104616871D01*
X128529258Y-104613623D01*
X128504000Y-104612000D01*
X128476524Y-104612719D01*
X128449123Y-104614876D01*
X128421872Y-104618464D01*
X128394846Y-104623473D01*
X128368120Y-104629889D01*
X128341766Y-104637695D01*
X128315857Y-104646870D01*
X128290463Y-104657389D01*
X128265655Y-104669222D01*
X128241500Y-104682337D01*
X128218065Y-104696698D01*
X128195413Y-104712266D01*
X128173607Y-104728998D01*
X128152706Y-104746849D01*
X128132769Y-104765769D01*
X128113849Y-104785706D01*
X128095998Y-104806607D01*
X128079266Y-104828413D01*
X128063698Y-104851065D01*
X128049337Y-104874500D01*
X128036222Y-104898655D01*
X128024389Y-104923463D01*
X128013870Y-104948857D01*
X128004695Y-104974766D01*
X127996889Y-105001120D01*
X127990473Y-105027846D01*
X127985464Y-105054872D01*
X127981876Y-105082123D01*
X127979719Y-105109524D01*
X127979000Y-105137000D01*
X127979000Y-105537000D01*
X128279000Y-105537000D01*
G36*
X128730000Y-105537000D02*
G01*
X128730000Y-105937000D01*
X128729692Y-105948776D01*
X128728767Y-105960519D01*
X128727230Y-105972198D01*
X128725083Y-105983780D01*
X128722333Y-105995234D01*
X128718988Y-106006529D01*
X128715056Y-106017633D01*
X128710548Y-106028516D01*
X128705476Y-106039148D01*
X128699856Y-106049500D01*
X128693701Y-106059544D01*
X128687029Y-106069252D01*
X128679858Y-106078597D01*
X128672208Y-106087554D01*
X128664099Y-106096099D01*
X128655554Y-106104208D01*
X128646597Y-106111858D01*
X128637252Y-106119029D01*
X128627544Y-106125701D01*
X128617500Y-106131856D01*
X128607148Y-106137476D01*
X128596516Y-106142548D01*
X128585633Y-106147056D01*
X128574529Y-106150988D01*
X128563234Y-106154333D01*
X128551780Y-106157083D01*
X128540198Y-106159230D01*
X128528519Y-106160767D01*
X128516776Y-106161692D01*
X128505000Y-106162000D01*
X128493224Y-106161692D01*
X128481481Y-106160767D01*
X128469802Y-106159230D01*
X128458220Y-106157083D01*
X128446766Y-106154333D01*
X128435471Y-106150988D01*
X128424367Y-106147056D01*
X128413484Y-106142548D01*
X128402852Y-106137476D01*
X128392500Y-106131856D01*
X128382456Y-106125701D01*
X128372748Y-106119029D01*
X128363403Y-106111858D01*
X128354446Y-106104208D01*
X128345901Y-106096099D01*
X128337792Y-106087554D01*
X128330142Y-106078597D01*
X128322971Y-106069252D01*
X128316299Y-106059544D01*
X128310144Y-106049500D01*
X128304524Y-106039148D01*
X128299452Y-106028516D01*
X128294944Y-106017633D01*
X128291012Y-106006529D01*
X128287667Y-105995234D01*
X128284917Y-105983780D01*
X128282770Y-105972198D01*
X128281233Y-105960519D01*
X128280308Y-105948776D01*
X128280000Y-105937000D01*
X128280000Y-105537000D01*
X127980000Y-105537000D01*
X127980000Y-105887000D01*
X127979432Y-105912000D01*
X127980187Y-105940814D01*
X127982448Y-105969550D01*
X127986211Y-105998128D01*
X127991463Y-106026470D01*
X127998192Y-106054497D01*
X128006379Y-106082135D01*
X128016001Y-106109306D01*
X128027031Y-106135936D01*
X128039440Y-106161953D01*
X128053194Y-106187284D01*
X128068255Y-106211861D01*
X128084581Y-106235616D01*
X128102128Y-106258484D01*
X128120848Y-106280402D01*
X128140690Y-106301310D01*
X128161598Y-106321152D01*
X128183516Y-106339872D01*
X128206384Y-106357419D01*
X128230139Y-106373745D01*
X128254716Y-106388806D01*
X128280047Y-106402560D01*
X128306064Y-106414969D01*
X128332694Y-106425999D01*
X128359865Y-106435621D01*
X128387503Y-106443808D01*
X128415530Y-106450537D01*
X128443872Y-106455789D01*
X128472450Y-106459552D01*
X128505000Y-106462000D01*
X128532476Y-106461281D01*
X128559877Y-106459124D01*
X128587128Y-106455536D01*
X128614154Y-106450527D01*
X128640880Y-106444111D01*
X128667234Y-106436305D01*
X128693143Y-106427130D01*
X128718537Y-106416611D01*
X128743345Y-106404778D01*
X128767500Y-106391663D01*
X128790935Y-106377302D01*
X128813587Y-106361734D01*
X128835393Y-106345002D01*
X128856294Y-106327151D01*
X128876231Y-106308231D01*
X128895151Y-106288294D01*
X128913002Y-106267393D01*
X128929734Y-106245587D01*
X128945302Y-106222935D01*
X128959663Y-106199500D01*
X128972778Y-106175345D01*
X128984611Y-106150537D01*
X128995130Y-106125143D01*
X129004305Y-106099234D01*
X129012111Y-106072880D01*
X129018527Y-106046154D01*
X129023536Y-106019128D01*
X129027124Y-105991877D01*
X129029281Y-105964476D01*
X129030000Y-105937000D01*
X129030000Y-105537000D01*
X128730000Y-105537000D01*
G37*
X128730000Y-105537000D02*
X128730000Y-105937000D01*
X128729692Y-105948776D01*
X128728767Y-105960519D01*
X128727230Y-105972198D01*
X128725083Y-105983780D01*
X128722333Y-105995234D01*
X128718988Y-106006529D01*
X128715056Y-106017633D01*
X128710548Y-106028516D01*
X128705476Y-106039148D01*
X128699856Y-106049500D01*
X128693701Y-106059544D01*
X128687029Y-106069252D01*
X128679858Y-106078597D01*
X128672208Y-106087554D01*
X128664099Y-106096099D01*
X128655554Y-106104208D01*
X128646597Y-106111858D01*
X128637252Y-106119029D01*
X128627544Y-106125701D01*
X128617500Y-106131856D01*
X128607148Y-106137476D01*
X128596516Y-106142548D01*
X128585633Y-106147056D01*
X128574529Y-106150988D01*
X128563234Y-106154333D01*
X128551780Y-106157083D01*
X128540198Y-106159230D01*
X128528519Y-106160767D01*
X128516776Y-106161692D01*
X128505000Y-106162000D01*
X128493224Y-106161692D01*
X128481481Y-106160767D01*
X128469802Y-106159230D01*
X128458220Y-106157083D01*
X128446766Y-106154333D01*
X128435471Y-106150988D01*
X128424367Y-106147056D01*
X128413484Y-106142548D01*
X128402852Y-106137476D01*
X128392500Y-106131856D01*
X128382456Y-106125701D01*
X128372748Y-106119029D01*
X128363403Y-106111858D01*
X128354446Y-106104208D01*
X128345901Y-106096099D01*
X128337792Y-106087554D01*
X128330142Y-106078597D01*
X128322971Y-106069252D01*
X128316299Y-106059544D01*
X128310144Y-106049500D01*
X128304524Y-106039148D01*
X128299452Y-106028516D01*
X128294944Y-106017633D01*
X128291012Y-106006529D01*
X128287667Y-105995234D01*
X128284917Y-105983780D01*
X128282770Y-105972198D01*
X128281233Y-105960519D01*
X128280308Y-105948776D01*
X128280000Y-105937000D01*
X128280000Y-105537000D01*
X127980000Y-105537000D01*
X127980000Y-105887000D01*
X127979432Y-105912000D01*
X127980187Y-105940814D01*
X127982448Y-105969550D01*
X127986211Y-105998128D01*
X127991463Y-106026470D01*
X127998192Y-106054497D01*
X128006379Y-106082135D01*
X128016001Y-106109306D01*
X128027031Y-106135936D01*
X128039440Y-106161953D01*
X128053194Y-106187284D01*
X128068255Y-106211861D01*
X128084581Y-106235616D01*
X128102128Y-106258484D01*
X128120848Y-106280402D01*
X128140690Y-106301310D01*
X128161598Y-106321152D01*
X128183516Y-106339872D01*
X128206384Y-106357419D01*
X128230139Y-106373745D01*
X128254716Y-106388806D01*
X128280047Y-106402560D01*
X128306064Y-106414969D01*
X128332694Y-106425999D01*
X128359865Y-106435621D01*
X128387503Y-106443808D01*
X128415530Y-106450537D01*
X128443872Y-106455789D01*
X128472450Y-106459552D01*
X128505000Y-106462000D01*
X128532476Y-106461281D01*
X128559877Y-106459124D01*
X128587128Y-106455536D01*
X128614154Y-106450527D01*
X128640880Y-106444111D01*
X128667234Y-106436305D01*
X128693143Y-106427130D01*
X128718537Y-106416611D01*
X128743345Y-106404778D01*
X128767500Y-106391663D01*
X128790935Y-106377302D01*
X128813587Y-106361734D01*
X128835393Y-106345002D01*
X128856294Y-106327151D01*
X128876231Y-106308231D01*
X128895151Y-106288294D01*
X128913002Y-106267393D01*
X128929734Y-106245587D01*
X128945302Y-106222935D01*
X128959663Y-106199500D01*
X128972778Y-106175345D01*
X128984611Y-106150537D01*
X128995130Y-106125143D01*
X129004305Y-106099234D01*
X129012111Y-106072880D01*
X129018527Y-106046154D01*
X129023536Y-106019128D01*
X129027124Y-105991877D01*
X129029281Y-105964476D01*
X129030000Y-105937000D01*
X129030000Y-105537000D01*
X128730000Y-105537000D01*
G36*
X128280000Y-105537000D02*
G01*
X128280000Y-105137000D01*
X128280308Y-105125224D01*
X128281233Y-105113481D01*
X128282770Y-105101802D01*
X128284917Y-105090220D01*
X128287667Y-105078766D01*
X128291012Y-105067471D01*
X128294944Y-105056367D01*
X128299452Y-105045484D01*
X128304524Y-105034852D01*
X128310144Y-105024500D01*
X128316299Y-105014456D01*
X128322971Y-105004748D01*
X128330142Y-104995403D01*
X128337792Y-104986446D01*
X128345901Y-104977901D01*
X128354446Y-104969792D01*
X128363403Y-104962142D01*
X128372748Y-104954971D01*
X128382456Y-104948299D01*
X128392500Y-104942144D01*
X128402852Y-104936524D01*
X128413484Y-104931452D01*
X128424367Y-104926944D01*
X128435471Y-104923012D01*
X128446766Y-104919667D01*
X128458220Y-104916917D01*
X128469802Y-104914770D01*
X128481481Y-104913233D01*
X128493224Y-104912308D01*
X128505000Y-104912000D01*
X128516776Y-104912308D01*
X128528519Y-104913233D01*
X128540198Y-104914770D01*
X128551780Y-104916917D01*
X128563234Y-104919667D01*
X128574529Y-104923012D01*
X128585633Y-104926944D01*
X128596516Y-104931452D01*
X128607148Y-104936524D01*
X128617500Y-104942144D01*
X128627544Y-104948299D01*
X128637252Y-104954971D01*
X128646597Y-104962142D01*
X128655554Y-104969792D01*
X128664099Y-104977901D01*
X128672208Y-104986446D01*
X128679858Y-104995403D01*
X128687029Y-105004748D01*
X128693701Y-105014456D01*
X128699856Y-105024500D01*
X128705476Y-105034852D01*
X128710548Y-105045484D01*
X128715056Y-105056367D01*
X128718988Y-105067471D01*
X128722333Y-105078766D01*
X128725083Y-105090220D01*
X128727230Y-105101802D01*
X128728767Y-105113481D01*
X128729692Y-105125224D01*
X128730000Y-105137000D01*
X128730000Y-105537000D01*
X129030000Y-105537000D01*
X129030000Y-105187000D01*
X129030568Y-105162000D01*
X129029813Y-105133186D01*
X129027552Y-105104450D01*
X129023789Y-105075872D01*
X129018537Y-105047530D01*
X129011808Y-105019503D01*
X129003621Y-104991865D01*
X128993999Y-104964694D01*
X128982969Y-104938064D01*
X128970560Y-104912047D01*
X128956806Y-104886716D01*
X128941745Y-104862139D01*
X128925419Y-104838384D01*
X128907872Y-104815516D01*
X128889152Y-104793598D01*
X128869310Y-104772690D01*
X128848402Y-104752848D01*
X128826484Y-104734128D01*
X128803616Y-104716581D01*
X128779861Y-104700255D01*
X128755284Y-104685194D01*
X128729953Y-104671440D01*
X128703936Y-104659031D01*
X128677306Y-104648001D01*
X128650135Y-104638379D01*
X128622497Y-104630192D01*
X128594470Y-104623463D01*
X128566128Y-104618211D01*
X128537550Y-104614448D01*
X128505000Y-104612000D01*
X128477524Y-104612719D01*
X128450123Y-104614876D01*
X128422872Y-104618464D01*
X128395846Y-104623473D01*
X128369120Y-104629889D01*
X128342766Y-104637695D01*
X128316857Y-104646870D01*
X128291463Y-104657389D01*
X128266655Y-104669222D01*
X128242500Y-104682337D01*
X128219065Y-104696698D01*
X128196413Y-104712266D01*
X128174607Y-104728998D01*
X128153706Y-104746849D01*
X128133769Y-104765769D01*
X128114849Y-104785706D01*
X128096998Y-104806607D01*
X128080266Y-104828413D01*
X128064698Y-104851065D01*
X128050337Y-104874500D01*
X128037222Y-104898655D01*
X128025389Y-104923463D01*
X128014870Y-104948857D01*
X128005695Y-104974766D01*
X127997889Y-105001120D01*
X127991473Y-105027846D01*
X127986464Y-105054872D01*
X127982876Y-105082123D01*
X127980719Y-105109524D01*
X127980000Y-105137000D01*
X127980000Y-105537000D01*
X128280000Y-105537000D01*
G37*
X128280000Y-105537000D02*
X128280000Y-105137000D01*
X128280308Y-105125224D01*
X128281233Y-105113481D01*
X128282770Y-105101802D01*
X128284917Y-105090220D01*
X128287667Y-105078766D01*
X128291012Y-105067471D01*
X128294944Y-105056367D01*
X128299452Y-105045484D01*
X128304524Y-105034852D01*
X128310144Y-105024500D01*
X128316299Y-105014456D01*
X128322971Y-105004748D01*
X128330142Y-104995403D01*
X128337792Y-104986446D01*
X128345901Y-104977901D01*
X128354446Y-104969792D01*
X128363403Y-104962142D01*
X128372748Y-104954971D01*
X128382456Y-104948299D01*
X128392500Y-104942144D01*
X128402852Y-104936524D01*
X128413484Y-104931452D01*
X128424367Y-104926944D01*
X128435471Y-104923012D01*
X128446766Y-104919667D01*
X128458220Y-104916917D01*
X128469802Y-104914770D01*
X128481481Y-104913233D01*
X128493224Y-104912308D01*
X128505000Y-104912000D01*
X128516776Y-104912308D01*
X128528519Y-104913233D01*
X128540198Y-104914770D01*
X128551780Y-104916917D01*
X128563234Y-104919667D01*
X128574529Y-104923012D01*
X128585633Y-104926944D01*
X128596516Y-104931452D01*
X128607148Y-104936524D01*
X128617500Y-104942144D01*
X128627544Y-104948299D01*
X128637252Y-104954971D01*
X128646597Y-104962142D01*
X128655554Y-104969792D01*
X128664099Y-104977901D01*
X128672208Y-104986446D01*
X128679858Y-104995403D01*
X128687029Y-105004748D01*
X128693701Y-105014456D01*
X128699856Y-105024500D01*
X128705476Y-105034852D01*
X128710548Y-105045484D01*
X128715056Y-105056367D01*
X128718988Y-105067471D01*
X128722333Y-105078766D01*
X128725083Y-105090220D01*
X128727230Y-105101802D01*
X128728767Y-105113481D01*
X128729692Y-105125224D01*
X128730000Y-105137000D01*
X128730000Y-105537000D01*
X129030000Y-105537000D01*
X129030000Y-105187000D01*
X129030568Y-105162000D01*
X129029813Y-105133186D01*
X129027552Y-105104450D01*
X129023789Y-105075872D01*
X129018537Y-105047530D01*
X129011808Y-105019503D01*
X129003621Y-104991865D01*
X128993999Y-104964694D01*
X128982969Y-104938064D01*
X128970560Y-104912047D01*
X128956806Y-104886716D01*
X128941745Y-104862139D01*
X128925419Y-104838384D01*
X128907872Y-104815516D01*
X128889152Y-104793598D01*
X128869310Y-104772690D01*
X128848402Y-104752848D01*
X128826484Y-104734128D01*
X128803616Y-104716581D01*
X128779861Y-104700255D01*
X128755284Y-104685194D01*
X128729953Y-104671440D01*
X128703936Y-104659031D01*
X128677306Y-104648001D01*
X128650135Y-104638379D01*
X128622497Y-104630192D01*
X128594470Y-104623463D01*
X128566128Y-104618211D01*
X128537550Y-104614448D01*
X128505000Y-104612000D01*
X128477524Y-104612719D01*
X128450123Y-104614876D01*
X128422872Y-104618464D01*
X128395846Y-104623473D01*
X128369120Y-104629889D01*
X128342766Y-104637695D01*
X128316857Y-104646870D01*
X128291463Y-104657389D01*
X128266655Y-104669222D01*
X128242500Y-104682337D01*
X128219065Y-104696698D01*
X128196413Y-104712266D01*
X128174607Y-104728998D01*
X128153706Y-104746849D01*
X128133769Y-104765769D01*
X128114849Y-104785706D01*
X128096998Y-104806607D01*
X128080266Y-104828413D01*
X128064698Y-104851065D01*
X128050337Y-104874500D01*
X128037222Y-104898655D01*
X128025389Y-104923463D01*
X128014870Y-104948857D01*
X128005695Y-104974766D01*
X127997889Y-105001120D01*
X127991473Y-105027846D01*
X127986464Y-105054872D01*
X127982876Y-105082123D01*
X127980719Y-105109524D01*
X127980000Y-105137000D01*
X127980000Y-105537000D01*
X128280000Y-105537000D01*
%TD*%
M02*
