%TF.GenerationSoftware,KiCad,Pcbnew,(5.1.6)-1*%
%TF.CreationDate,2021-08-19T23:31:01-04:00*%
%TF.ProjectId,Temp_Control_Board,54656d70-5f43-46f6-9e74-726f6c5f426f,rev?*%
%TF.SameCoordinates,Original*%
%TF.FileFunction,Legend,Top*%
%TF.FilePolarity,Positive*%
%FSLAX46Y46*%
G04 Gerber Fmt 4.6, Leading zero omitted, Abs format (unit mm)*
G04 Created by KiCad (PCBNEW (5.1.6)-1) date 2021-08-19 23:31:01*
%MOMM*%
%LPD*%
G01*
G04 APERTURE LIST*
%ADD10C,0.300000*%
%ADD11C,0.010000*%
%ADD12C,0.120000*%
%ADD13C,0.152400*%
%ADD14C,0.127000*%
%ADD15C,0.200000*%
%ADD16C,0.150000*%
G04 APERTURE END LIST*
D10*
X154730142Y-149327071D02*
X154730142Y-147827071D01*
X155301571Y-147827071D01*
X155444428Y-147898500D01*
X155515857Y-147969928D01*
X155587285Y-148112785D01*
X155587285Y-148327071D01*
X155515857Y-148469928D01*
X155444428Y-148541357D01*
X155301571Y-148612785D01*
X154730142Y-148612785D01*
X157087285Y-149184214D02*
X157015857Y-149255642D01*
X156801571Y-149327071D01*
X156658714Y-149327071D01*
X156444428Y-149255642D01*
X156301571Y-149112785D01*
X156230142Y-148969928D01*
X156158714Y-148684214D01*
X156158714Y-148469928D01*
X156230142Y-148184214D01*
X156301571Y-148041357D01*
X156444428Y-147898500D01*
X156658714Y-147827071D01*
X156801571Y-147827071D01*
X157015857Y-147898500D01*
X157087285Y-147969928D01*
X158230142Y-148541357D02*
X158444428Y-148612785D01*
X158515857Y-148684214D01*
X158587285Y-148827071D01*
X158587285Y-149041357D01*
X158515857Y-149184214D01*
X158444428Y-149255642D01*
X158301571Y-149327071D01*
X157730142Y-149327071D01*
X157730142Y-147827071D01*
X158230142Y-147827071D01*
X158373000Y-147898500D01*
X158444428Y-147969928D01*
X158515857Y-148112785D01*
X158515857Y-148255642D01*
X158444428Y-148398500D01*
X158373000Y-148469928D01*
X158230142Y-148541357D01*
X157730142Y-148541357D01*
X159873000Y-149327071D02*
X159873000Y-148541357D01*
X159801571Y-148398500D01*
X159658714Y-148327071D01*
X159373000Y-148327071D01*
X159230142Y-148398500D01*
X159873000Y-149255642D02*
X159730142Y-149327071D01*
X159373000Y-149327071D01*
X159230142Y-149255642D01*
X159158714Y-149112785D01*
X159158714Y-148969928D01*
X159230142Y-148827071D01*
X159373000Y-148755642D01*
X159730142Y-148755642D01*
X159873000Y-148684214D01*
X160587285Y-149327071D02*
X160587285Y-147827071D01*
X160730142Y-148755642D02*
X161158714Y-149327071D01*
X161158714Y-148327071D02*
X160587285Y-148898500D01*
X162373000Y-149255642D02*
X162230142Y-149327071D01*
X161944428Y-149327071D01*
X161801571Y-149255642D01*
X161730142Y-149112785D01*
X161730142Y-148541357D01*
X161801571Y-148398500D01*
X161944428Y-148327071D01*
X162230142Y-148327071D01*
X162373000Y-148398500D01*
X162444428Y-148541357D01*
X162444428Y-148684214D01*
X161730142Y-148827071D01*
X164515857Y-147827071D02*
X164801571Y-147827071D01*
X164944428Y-147898500D01*
X165087285Y-148041357D01*
X165158714Y-148327071D01*
X165158714Y-148827071D01*
X165087285Y-149112785D01*
X164944428Y-149255642D01*
X164801571Y-149327071D01*
X164515857Y-149327071D01*
X164373000Y-149255642D01*
X164230142Y-149112785D01*
X164158714Y-148827071D01*
X164158714Y-148327071D01*
X164230142Y-148041357D01*
X164373000Y-147898500D01*
X164515857Y-147827071D01*
X165658714Y-148327071D02*
X166015857Y-149327071D01*
X166373000Y-148327071D01*
X167515857Y-149255642D02*
X167373000Y-149327071D01*
X167087285Y-149327071D01*
X166944428Y-149255642D01*
X166873000Y-149112785D01*
X166873000Y-148541357D01*
X166944428Y-148398500D01*
X167087285Y-148327071D01*
X167373000Y-148327071D01*
X167515857Y-148398500D01*
X167587285Y-148541357D01*
X167587285Y-148684214D01*
X166873000Y-148827071D01*
X168230142Y-148327071D02*
X168230142Y-149327071D01*
X168230142Y-148469928D02*
X168301571Y-148398500D01*
X168444428Y-148327071D01*
X168658714Y-148327071D01*
X168801571Y-148398500D01*
X168873000Y-148541357D01*
X168873000Y-149327071D01*
X154730142Y-151877071D02*
X154730142Y-150377071D01*
X155230142Y-151448500D01*
X155730142Y-150377071D01*
X155730142Y-151877071D01*
X156444428Y-151877071D02*
X156444428Y-150877071D01*
X156444428Y-150377071D02*
X156373000Y-150448500D01*
X156444428Y-150519928D01*
X156515857Y-150448500D01*
X156444428Y-150377071D01*
X156444428Y-150519928D01*
X157801571Y-151805642D02*
X157658714Y-151877071D01*
X157373000Y-151877071D01*
X157230142Y-151805642D01*
X157158714Y-151734214D01*
X157087285Y-151591357D01*
X157087285Y-151162785D01*
X157158714Y-151019928D01*
X157230142Y-150948500D01*
X157373000Y-150877071D01*
X157658714Y-150877071D01*
X157801571Y-150948500D01*
X158444428Y-151877071D02*
X158444428Y-150377071D01*
X159087285Y-151877071D02*
X159087285Y-151091357D01*
X159015857Y-150948500D01*
X158873000Y-150877071D01*
X158658714Y-150877071D01*
X158515857Y-150948500D01*
X158444428Y-151019928D01*
X160444428Y-151877071D02*
X160444428Y-151091357D01*
X160373000Y-150948500D01*
X160230142Y-150877071D01*
X159944428Y-150877071D01*
X159801571Y-150948500D01*
X160444428Y-151805642D02*
X160301571Y-151877071D01*
X159944428Y-151877071D01*
X159801571Y-151805642D01*
X159730142Y-151662785D01*
X159730142Y-151519928D01*
X159801571Y-151377071D01*
X159944428Y-151305642D01*
X160301571Y-151305642D01*
X160444428Y-151234214D01*
X161730142Y-151805642D02*
X161587285Y-151877071D01*
X161301571Y-151877071D01*
X161158714Y-151805642D01*
X161087285Y-151662785D01*
X161087285Y-151091357D01*
X161158714Y-150948500D01*
X161301571Y-150877071D01*
X161587285Y-150877071D01*
X161730142Y-150948500D01*
X161801571Y-151091357D01*
X161801571Y-151234214D01*
X161087285Y-151377071D01*
X162658714Y-151877071D02*
X162515857Y-151805642D01*
X162444428Y-151662785D01*
X162444428Y-150377071D01*
X165230142Y-151734214D02*
X165158714Y-151805642D01*
X164944428Y-151877071D01*
X164801571Y-151877071D01*
X164587285Y-151805642D01*
X164444428Y-151662785D01*
X164373000Y-151519928D01*
X164301571Y-151234214D01*
X164301571Y-151019928D01*
X164373000Y-150734214D01*
X164444428Y-150591357D01*
X164587285Y-150448500D01*
X164801571Y-150377071D01*
X164944428Y-150377071D01*
X165158714Y-150448500D01*
X165230142Y-150519928D01*
X166515857Y-150877071D02*
X166515857Y-151877071D01*
X165873000Y-150877071D02*
X165873000Y-151662785D01*
X165944428Y-151805642D01*
X166087285Y-151877071D01*
X166301571Y-151877071D01*
X166444428Y-151805642D01*
X166515857Y-151734214D01*
X167230142Y-150877071D02*
X167230142Y-152377071D01*
X167230142Y-150948500D02*
X167373000Y-150877071D01*
X167658714Y-150877071D01*
X167801571Y-150948500D01*
X167873000Y-151019928D01*
X167944428Y-151162785D01*
X167944428Y-151591357D01*
X167873000Y-151734214D01*
X167801571Y-151805642D01*
X167658714Y-151877071D01*
X167373000Y-151877071D01*
X167230142Y-151805642D01*
X168587285Y-151877071D02*
X168587285Y-150377071D01*
X168730142Y-151305642D02*
X169158714Y-151877071D01*
X169158714Y-150877071D02*
X168587285Y-151448500D01*
X170444428Y-151877071D02*
X170444428Y-151091357D01*
X170373000Y-150948500D01*
X170230142Y-150877071D01*
X169944428Y-150877071D01*
X169801571Y-150948500D01*
X170444428Y-151805642D02*
X170301571Y-151877071D01*
X169944428Y-151877071D01*
X169801571Y-151805642D01*
X169730142Y-151662785D01*
X169730142Y-151519928D01*
X169801571Y-151377071D01*
X169944428Y-151305642D01*
X170301571Y-151305642D01*
X170444428Y-151234214D01*
D11*
%TO.C,G\u002A\u002A\u002A*%
G36*
X152135417Y-142038916D02*
G01*
X152204528Y-142088210D01*
X152261039Y-142139378D01*
X152306903Y-142198598D01*
X152310361Y-142204627D01*
X152314294Y-142213482D01*
X152317937Y-142226180D01*
X152321300Y-142244297D01*
X152324395Y-142269410D01*
X152327234Y-142303096D01*
X152329826Y-142346932D01*
X152332184Y-142402495D01*
X152334318Y-142471362D01*
X152336239Y-142555110D01*
X152337959Y-142655316D01*
X152339488Y-142773557D01*
X152340837Y-142911410D01*
X152342018Y-143070452D01*
X152343042Y-143252259D01*
X152343919Y-143458410D01*
X152344661Y-143690481D01*
X152345279Y-143950049D01*
X152345784Y-144238691D01*
X152346187Y-144557983D01*
X152346499Y-144909504D01*
X152346731Y-145294830D01*
X152346894Y-145715537D01*
X152347000Y-146173204D01*
X152347059Y-146669406D01*
X152347082Y-147205722D01*
X152347084Y-147436416D01*
X152347084Y-152601083D01*
X152297325Y-152681116D01*
X152223214Y-152763055D01*
X152124444Y-152819969D01*
X152014985Y-152844160D01*
X152000846Y-152844500D01*
X151917506Y-152844500D01*
X151775074Y-153267790D01*
X151726426Y-153411094D01*
X151688007Y-153520111D01*
X151657107Y-153600861D01*
X151631020Y-153659365D01*
X151607037Y-153701645D01*
X151582451Y-153733722D01*
X151554555Y-153761616D01*
X151551917Y-153764011D01*
X151489966Y-153810015D01*
X151425961Y-153842616D01*
X151401138Y-153849906D01*
X151361509Y-153853151D01*
X151285985Y-153855607D01*
X151181000Y-153857210D01*
X151052987Y-153857893D01*
X150908377Y-153857592D01*
X150766795Y-153856394D01*
X150202507Y-153849916D01*
X150121212Y-153784467D01*
X150093326Y-153760140D01*
X150069153Y-153732633D01*
X150045987Y-153696147D01*
X150021125Y-153644881D01*
X149991862Y-153573034D01*
X149955494Y-153474807D01*
X149909316Y-153344399D01*
X149889278Y-153287050D01*
X149742569Y-152866347D01*
X150457822Y-152866347D01*
X150457888Y-152870958D01*
X150469074Y-152903313D01*
X150489198Y-152963177D01*
X150513987Y-153037839D01*
X150515001Y-153040909D01*
X150562363Y-153184402D01*
X150828378Y-153178492D01*
X151094393Y-153172583D01*
X151143946Y-153025585D01*
X151168131Y-152951661D01*
X151185776Y-152893565D01*
X151193419Y-152862763D01*
X151193500Y-152861543D01*
X151173460Y-152856042D01*
X151117842Y-152851279D01*
X151033398Y-152847565D01*
X150926883Y-152845207D01*
X150820819Y-152844500D01*
X150681444Y-152845156D01*
X150579921Y-152847344D01*
X150511785Y-152851388D01*
X150472574Y-152857614D01*
X150457822Y-152866347D01*
X149742569Y-152866347D01*
X149738640Y-152855083D01*
X138042889Y-152855083D01*
X137902441Y-153272089D01*
X137848097Y-153430315D01*
X137802755Y-153553229D01*
X137763451Y-153646122D01*
X137727223Y-153714291D01*
X137691105Y-153763027D01*
X137652136Y-153797626D01*
X137607351Y-153823381D01*
X137589305Y-153831477D01*
X137544931Y-153841003D01*
X137465502Y-153848738D01*
X137358179Y-153854688D01*
X137230126Y-153858857D01*
X137088506Y-153861250D01*
X136940479Y-153861869D01*
X136793210Y-153860720D01*
X136653862Y-153857807D01*
X136529595Y-153853134D01*
X136427574Y-153846705D01*
X136354961Y-153838524D01*
X136322867Y-153830727D01*
X136245885Y-153780522D01*
X136180020Y-153699732D01*
X136122158Y-153583875D01*
X136090129Y-153496106D01*
X136058031Y-153400307D01*
X136017714Y-153282168D01*
X135975189Y-153159222D01*
X135948362Y-153082625D01*
X135870722Y-152862353D01*
X136588500Y-152862353D01*
X136594909Y-152889448D01*
X136611646Y-152944885D01*
X136634979Y-153017076D01*
X136661176Y-153094432D01*
X136683315Y-153156708D01*
X136701486Y-153168794D01*
X136748518Y-153176948D01*
X136828783Y-153181596D01*
X136946653Y-153183161D01*
X136955417Y-153183166D01*
X137217830Y-153183166D01*
X137273684Y-153029708D01*
X137300279Y-152954674D01*
X137319971Y-152895371D01*
X137329170Y-152862707D01*
X137329435Y-152860375D01*
X137309364Y-152855235D01*
X137253738Y-152850790D01*
X137169333Y-152847328D01*
X137062924Y-152845140D01*
X136958917Y-152844500D01*
X136839008Y-152845465D01*
X136735280Y-152848145D01*
X136654506Y-152852211D01*
X136603460Y-152857339D01*
X136588500Y-152862353D01*
X135870722Y-152862353D01*
X135864429Y-152844500D01*
X135785294Y-152844500D01*
X135682942Y-152826237D01*
X135585272Y-152777188D01*
X135506875Y-152705962D01*
X135478947Y-152663743D01*
X135435032Y-152579916D01*
X135435426Y-147425493D01*
X135435471Y-146874278D01*
X135435526Y-146363808D01*
X135435605Y-145892494D01*
X135435722Y-145458747D01*
X135435888Y-145060979D01*
X135436119Y-144697601D01*
X135436425Y-144367024D01*
X135436822Y-144067659D01*
X135437322Y-143797918D01*
X135437938Y-143556213D01*
X135438684Y-143340954D01*
X135439572Y-143150552D01*
X135440616Y-142983420D01*
X135441829Y-142837968D01*
X135443224Y-142712608D01*
X135443327Y-142705666D01*
X136101667Y-142705666D01*
X136101667Y-152167166D01*
X151680334Y-152167166D01*
X151680334Y-142705666D01*
X136101667Y-142705666D01*
X135443327Y-142705666D01*
X135444815Y-142605751D01*
X135446614Y-142515808D01*
X135448636Y-142441191D01*
X135450892Y-142380311D01*
X135453396Y-142331579D01*
X135456162Y-142293407D01*
X135459203Y-142264206D01*
X135462531Y-142242386D01*
X135466160Y-142226361D01*
X135470104Y-142214540D01*
X135474374Y-142205336D01*
X135478846Y-142197398D01*
X135527223Y-142134381D01*
X135587315Y-142079751D01*
X135592769Y-142075949D01*
X135663665Y-142028172D01*
X152135417Y-142038916D01*
G37*
X152135417Y-142038916D02*
X152204528Y-142088210D01*
X152261039Y-142139378D01*
X152306903Y-142198598D01*
X152310361Y-142204627D01*
X152314294Y-142213482D01*
X152317937Y-142226180D01*
X152321300Y-142244297D01*
X152324395Y-142269410D01*
X152327234Y-142303096D01*
X152329826Y-142346932D01*
X152332184Y-142402495D01*
X152334318Y-142471362D01*
X152336239Y-142555110D01*
X152337959Y-142655316D01*
X152339488Y-142773557D01*
X152340837Y-142911410D01*
X152342018Y-143070452D01*
X152343042Y-143252259D01*
X152343919Y-143458410D01*
X152344661Y-143690481D01*
X152345279Y-143950049D01*
X152345784Y-144238691D01*
X152346187Y-144557983D01*
X152346499Y-144909504D01*
X152346731Y-145294830D01*
X152346894Y-145715537D01*
X152347000Y-146173204D01*
X152347059Y-146669406D01*
X152347082Y-147205722D01*
X152347084Y-147436416D01*
X152347084Y-152601083D01*
X152297325Y-152681116D01*
X152223214Y-152763055D01*
X152124444Y-152819969D01*
X152014985Y-152844160D01*
X152000846Y-152844500D01*
X151917506Y-152844500D01*
X151775074Y-153267790D01*
X151726426Y-153411094D01*
X151688007Y-153520111D01*
X151657107Y-153600861D01*
X151631020Y-153659365D01*
X151607037Y-153701645D01*
X151582451Y-153733722D01*
X151554555Y-153761616D01*
X151551917Y-153764011D01*
X151489966Y-153810015D01*
X151425961Y-153842616D01*
X151401138Y-153849906D01*
X151361509Y-153853151D01*
X151285985Y-153855607D01*
X151181000Y-153857210D01*
X151052987Y-153857893D01*
X150908377Y-153857592D01*
X150766795Y-153856394D01*
X150202507Y-153849916D01*
X150121212Y-153784467D01*
X150093326Y-153760140D01*
X150069153Y-153732633D01*
X150045987Y-153696147D01*
X150021125Y-153644881D01*
X149991862Y-153573034D01*
X149955494Y-153474807D01*
X149909316Y-153344399D01*
X149889278Y-153287050D01*
X149742569Y-152866347D01*
X150457822Y-152866347D01*
X150457888Y-152870958D01*
X150469074Y-152903313D01*
X150489198Y-152963177D01*
X150513987Y-153037839D01*
X150515001Y-153040909D01*
X150562363Y-153184402D01*
X150828378Y-153178492D01*
X151094393Y-153172583D01*
X151143946Y-153025585D01*
X151168131Y-152951661D01*
X151185776Y-152893565D01*
X151193419Y-152862763D01*
X151193500Y-152861543D01*
X151173460Y-152856042D01*
X151117842Y-152851279D01*
X151033398Y-152847565D01*
X150926883Y-152845207D01*
X150820819Y-152844500D01*
X150681444Y-152845156D01*
X150579921Y-152847344D01*
X150511785Y-152851388D01*
X150472574Y-152857614D01*
X150457822Y-152866347D01*
X149742569Y-152866347D01*
X149738640Y-152855083D01*
X138042889Y-152855083D01*
X137902441Y-153272089D01*
X137848097Y-153430315D01*
X137802755Y-153553229D01*
X137763451Y-153646122D01*
X137727223Y-153714291D01*
X137691105Y-153763027D01*
X137652136Y-153797626D01*
X137607351Y-153823381D01*
X137589305Y-153831477D01*
X137544931Y-153841003D01*
X137465502Y-153848738D01*
X137358179Y-153854688D01*
X137230126Y-153858857D01*
X137088506Y-153861250D01*
X136940479Y-153861869D01*
X136793210Y-153860720D01*
X136653862Y-153857807D01*
X136529595Y-153853134D01*
X136427574Y-153846705D01*
X136354961Y-153838524D01*
X136322867Y-153830727D01*
X136245885Y-153780522D01*
X136180020Y-153699732D01*
X136122158Y-153583875D01*
X136090129Y-153496106D01*
X136058031Y-153400307D01*
X136017714Y-153282168D01*
X135975189Y-153159222D01*
X135948362Y-153082625D01*
X135870722Y-152862353D01*
X136588500Y-152862353D01*
X136594909Y-152889448D01*
X136611646Y-152944885D01*
X136634979Y-153017076D01*
X136661176Y-153094432D01*
X136683315Y-153156708D01*
X136701486Y-153168794D01*
X136748518Y-153176948D01*
X136828783Y-153181596D01*
X136946653Y-153183161D01*
X136955417Y-153183166D01*
X137217830Y-153183166D01*
X137273684Y-153029708D01*
X137300279Y-152954674D01*
X137319971Y-152895371D01*
X137329170Y-152862707D01*
X137329435Y-152860375D01*
X137309364Y-152855235D01*
X137253738Y-152850790D01*
X137169333Y-152847328D01*
X137062924Y-152845140D01*
X136958917Y-152844500D01*
X136839008Y-152845465D01*
X136735280Y-152848145D01*
X136654506Y-152852211D01*
X136603460Y-152857339D01*
X136588500Y-152862353D01*
X135870722Y-152862353D01*
X135864429Y-152844500D01*
X135785294Y-152844500D01*
X135682942Y-152826237D01*
X135585272Y-152777188D01*
X135506875Y-152705962D01*
X135478947Y-152663743D01*
X135435032Y-152579916D01*
X135435426Y-147425493D01*
X135435471Y-146874278D01*
X135435526Y-146363808D01*
X135435605Y-145892494D01*
X135435722Y-145458747D01*
X135435888Y-145060979D01*
X135436119Y-144697601D01*
X135436425Y-144367024D01*
X135436822Y-144067659D01*
X135437322Y-143797918D01*
X135437938Y-143556213D01*
X135438684Y-143340954D01*
X135439572Y-143150552D01*
X135440616Y-142983420D01*
X135441829Y-142837968D01*
X135443224Y-142712608D01*
X135443327Y-142705666D01*
X136101667Y-142705666D01*
X136101667Y-152167166D01*
X151680334Y-152167166D01*
X151680334Y-142705666D01*
X136101667Y-142705666D01*
X135443327Y-142705666D01*
X135444815Y-142605751D01*
X135446614Y-142515808D01*
X135448636Y-142441191D01*
X135450892Y-142380311D01*
X135453396Y-142331579D01*
X135456162Y-142293407D01*
X135459203Y-142264206D01*
X135462531Y-142242386D01*
X135466160Y-142226361D01*
X135470104Y-142214540D01*
X135474374Y-142205336D01*
X135478846Y-142197398D01*
X135527223Y-142134381D01*
X135587315Y-142079751D01*
X135592769Y-142075949D01*
X135663665Y-142028172D01*
X152135417Y-142038916D01*
G36*
X142875000Y-143383000D02*
G01*
X148731906Y-143383000D01*
X148801882Y-143430625D01*
X148861293Y-143478996D01*
X148912418Y-143533135D01*
X148916137Y-143538008D01*
X148960417Y-143597766D01*
X148971453Y-151204778D01*
X148923602Y-151298441D01*
X148882048Y-151364513D01*
X148833805Y-151420521D01*
X148815990Y-151435677D01*
X148756231Y-151479250D01*
X142899907Y-151483668D01*
X142310834Y-151484108D01*
X141762605Y-151484502D01*
X141253733Y-151484839D01*
X140782728Y-151485112D01*
X140348102Y-151485311D01*
X139948367Y-151485427D01*
X139582033Y-151485450D01*
X139247613Y-151485372D01*
X138943618Y-151485183D01*
X138668558Y-151484874D01*
X138420947Y-151484436D01*
X138199294Y-151483861D01*
X138002112Y-151483138D01*
X137827912Y-151482258D01*
X137675205Y-151481213D01*
X137542503Y-151479994D01*
X137428317Y-151478590D01*
X137331159Y-151476993D01*
X137249540Y-151475195D01*
X137181971Y-151473184D01*
X137126965Y-151470954D01*
X137083031Y-151468494D01*
X137048683Y-151465795D01*
X137022430Y-151462848D01*
X137002786Y-151459643D01*
X136988260Y-151456173D01*
X136977365Y-151452427D01*
X136968612Y-151448397D01*
X136966279Y-151447183D01*
X136904252Y-151401492D01*
X136848626Y-151340219D01*
X136839279Y-151326348D01*
X136789584Y-151246416D01*
X136789584Y-150812500D01*
X137456102Y-150812500D01*
X148293667Y-150812500D01*
X148293667Y-147108333D01*
X147955000Y-147108333D01*
X147955000Y-147306527D01*
X147952562Y-147410562D01*
X147946075Y-147513811D01*
X147936775Y-147598381D01*
X147933395Y-147618644D01*
X147879234Y-147798099D01*
X147789882Y-147967136D01*
X147671180Y-148119381D01*
X147528970Y-148248461D01*
X147369094Y-148348000D01*
X147209486Y-148408523D01*
X147191503Y-148412673D01*
X147169025Y-148416476D01*
X147140289Y-148419945D01*
X147103533Y-148423092D01*
X147056993Y-148425928D01*
X146998908Y-148428464D01*
X146927514Y-148430713D01*
X146841049Y-148432686D01*
X146737749Y-148434394D01*
X146615853Y-148435850D01*
X146473598Y-148437065D01*
X146309220Y-148438050D01*
X146120957Y-148438817D01*
X145907047Y-148439379D01*
X145665726Y-148439745D01*
X145395232Y-148439929D01*
X145093802Y-148439942D01*
X144759674Y-148439795D01*
X144391084Y-148439500D01*
X143986271Y-148439069D01*
X143543470Y-148438513D01*
X143060921Y-148437845D01*
X142822084Y-148437498D01*
X138567584Y-148431250D01*
X138403966Y-148353119D01*
X138218846Y-148243041D01*
X138065160Y-148105019D01*
X137943886Y-147940128D01*
X137856971Y-147752207D01*
X137831676Y-147659639D01*
X137813871Y-147543760D01*
X137802293Y-147395920D01*
X137800866Y-147367251D01*
X137795169Y-147252165D01*
X137787280Y-147172975D01*
X137772174Y-147123338D01*
X137744827Y-147096911D01*
X137700215Y-147087352D01*
X137633313Y-147088318D01*
X137582202Y-147091207D01*
X137466917Y-147097750D01*
X137461510Y-148955125D01*
X137456102Y-150812500D01*
X136789584Y-150812500D01*
X136789584Y-147436416D01*
X136789587Y-146965398D01*
X136789612Y-146534856D01*
X136789680Y-146142933D01*
X136789810Y-145787772D01*
X136790024Y-145467516D01*
X136790343Y-145180306D01*
X136790787Y-144924287D01*
X136791377Y-144697601D01*
X136792134Y-144498391D01*
X136793078Y-144324800D01*
X136794231Y-144174970D01*
X136795470Y-144060333D01*
X137455978Y-144060333D01*
X137461447Y-145240375D01*
X137466917Y-146420416D01*
X137847917Y-146420416D01*
X137986288Y-146420825D01*
X138089271Y-146422484D01*
X138163810Y-146426043D01*
X138216845Y-146432150D01*
X138255319Y-146441453D01*
X138286174Y-146454603D01*
X138300788Y-146462750D01*
X138350614Y-146493666D01*
X138388979Y-146524248D01*
X138417540Y-146560390D01*
X138437957Y-146607987D01*
X138451886Y-146672934D01*
X138460986Y-146761128D01*
X138466913Y-146878462D01*
X138471327Y-147030832D01*
X138472334Y-147072767D01*
X138477032Y-147239761D01*
X138483315Y-147370293D01*
X138492714Y-147470231D01*
X138506765Y-147545446D01*
X138527001Y-147601807D01*
X138554957Y-147645186D01*
X138592166Y-147681452D01*
X138640163Y-147716474D01*
X138640650Y-147716803D01*
X138678365Y-147738879D01*
X138719406Y-147752950D01*
X138774281Y-147760746D01*
X138853500Y-147763998D01*
X138930164Y-147764500D01*
X139148901Y-147764500D01*
X139154575Y-147261791D01*
X139160250Y-146759083D01*
X139827000Y-146747425D01*
X139827000Y-147764500D01*
X140503567Y-147764500D01*
X140509242Y-147261791D01*
X140514917Y-146759083D01*
X141181667Y-146747425D01*
X141181667Y-147764500D01*
X141858234Y-147764500D01*
X141863909Y-147261791D01*
X141869584Y-146759083D01*
X142536334Y-146747425D01*
X142536334Y-147764500D01*
X143212901Y-147764500D01*
X143218575Y-147261791D01*
X143224250Y-146759083D01*
X143880417Y-146759083D01*
X143886092Y-147261791D01*
X143891766Y-147764500D01*
X144567567Y-147764500D01*
X144573242Y-147261791D01*
X144578917Y-146759083D01*
X145245667Y-146747425D01*
X145245667Y-147764500D01*
X145923000Y-147764500D01*
X145923000Y-146747425D01*
X146589750Y-146759083D01*
X146595425Y-147261791D01*
X146601100Y-147764500D01*
X146819836Y-147764500D01*
X146922608Y-147763426D01*
X146993545Y-147759053D01*
X147043118Y-147749654D01*
X147081795Y-147733502D01*
X147108549Y-147716875D01*
X147157942Y-147681947D01*
X147195881Y-147648901D01*
X147224038Y-147611662D01*
X147244081Y-147564154D01*
X147257679Y-147500304D01*
X147266504Y-147414035D01*
X147272223Y-147299274D01*
X147276508Y-147149946D01*
X147277667Y-147101566D01*
X147282591Y-146917590D01*
X147290460Y-146771398D01*
X147305395Y-146658458D01*
X147331514Y-146574238D01*
X147372938Y-146514203D01*
X147433787Y-146473822D01*
X147518179Y-146448563D01*
X147630235Y-146433891D01*
X147774075Y-146425275D01*
X147896792Y-146420385D01*
X148293667Y-146405243D01*
X148293667Y-144060333D01*
X137455978Y-144060333D01*
X136795470Y-144060333D01*
X136795614Y-144047044D01*
X136797246Y-143939165D01*
X136799150Y-143849477D01*
X136801345Y-143776121D01*
X136803852Y-143717240D01*
X136806693Y-143670978D01*
X136809888Y-143635477D01*
X136813457Y-143608880D01*
X136817422Y-143589329D01*
X136821804Y-143574968D01*
X136826622Y-143563940D01*
X136831899Y-143554387D01*
X136833061Y-143552405D01*
X136881582Y-143489320D01*
X136941614Y-143434677D01*
X136947316Y-143430696D01*
X137018094Y-143382999D01*
X142875000Y-143383000D01*
G37*
X142875000Y-143383000D02*
X148731906Y-143383000D01*
X148801882Y-143430625D01*
X148861293Y-143478996D01*
X148912418Y-143533135D01*
X148916137Y-143538008D01*
X148960417Y-143597766D01*
X148971453Y-151204778D01*
X148923602Y-151298441D01*
X148882048Y-151364513D01*
X148833805Y-151420521D01*
X148815990Y-151435677D01*
X148756231Y-151479250D01*
X142899907Y-151483668D01*
X142310834Y-151484108D01*
X141762605Y-151484502D01*
X141253733Y-151484839D01*
X140782728Y-151485112D01*
X140348102Y-151485311D01*
X139948367Y-151485427D01*
X139582033Y-151485450D01*
X139247613Y-151485372D01*
X138943618Y-151485183D01*
X138668558Y-151484874D01*
X138420947Y-151484436D01*
X138199294Y-151483861D01*
X138002112Y-151483138D01*
X137827912Y-151482258D01*
X137675205Y-151481213D01*
X137542503Y-151479994D01*
X137428317Y-151478590D01*
X137331159Y-151476993D01*
X137249540Y-151475195D01*
X137181971Y-151473184D01*
X137126965Y-151470954D01*
X137083031Y-151468494D01*
X137048683Y-151465795D01*
X137022430Y-151462848D01*
X137002786Y-151459643D01*
X136988260Y-151456173D01*
X136977365Y-151452427D01*
X136968612Y-151448397D01*
X136966279Y-151447183D01*
X136904252Y-151401492D01*
X136848626Y-151340219D01*
X136839279Y-151326348D01*
X136789584Y-151246416D01*
X136789584Y-150812500D01*
X137456102Y-150812500D01*
X148293667Y-150812500D01*
X148293667Y-147108333D01*
X147955000Y-147108333D01*
X147955000Y-147306527D01*
X147952562Y-147410562D01*
X147946075Y-147513811D01*
X147936775Y-147598381D01*
X147933395Y-147618644D01*
X147879234Y-147798099D01*
X147789882Y-147967136D01*
X147671180Y-148119381D01*
X147528970Y-148248461D01*
X147369094Y-148348000D01*
X147209486Y-148408523D01*
X147191503Y-148412673D01*
X147169025Y-148416476D01*
X147140289Y-148419945D01*
X147103533Y-148423092D01*
X147056993Y-148425928D01*
X146998908Y-148428464D01*
X146927514Y-148430713D01*
X146841049Y-148432686D01*
X146737749Y-148434394D01*
X146615853Y-148435850D01*
X146473598Y-148437065D01*
X146309220Y-148438050D01*
X146120957Y-148438817D01*
X145907047Y-148439379D01*
X145665726Y-148439745D01*
X145395232Y-148439929D01*
X145093802Y-148439942D01*
X144759674Y-148439795D01*
X144391084Y-148439500D01*
X143986271Y-148439069D01*
X143543470Y-148438513D01*
X143060921Y-148437845D01*
X142822084Y-148437498D01*
X138567584Y-148431250D01*
X138403966Y-148353119D01*
X138218846Y-148243041D01*
X138065160Y-148105019D01*
X137943886Y-147940128D01*
X137856971Y-147752207D01*
X137831676Y-147659639D01*
X137813871Y-147543760D01*
X137802293Y-147395920D01*
X137800866Y-147367251D01*
X137795169Y-147252165D01*
X137787280Y-147172975D01*
X137772174Y-147123338D01*
X137744827Y-147096911D01*
X137700215Y-147087352D01*
X137633313Y-147088318D01*
X137582202Y-147091207D01*
X137466917Y-147097750D01*
X137461510Y-148955125D01*
X137456102Y-150812500D01*
X136789584Y-150812500D01*
X136789584Y-147436416D01*
X136789587Y-146965398D01*
X136789612Y-146534856D01*
X136789680Y-146142933D01*
X136789810Y-145787772D01*
X136790024Y-145467516D01*
X136790343Y-145180306D01*
X136790787Y-144924287D01*
X136791377Y-144697601D01*
X136792134Y-144498391D01*
X136793078Y-144324800D01*
X136794231Y-144174970D01*
X136795470Y-144060333D01*
X137455978Y-144060333D01*
X137461447Y-145240375D01*
X137466917Y-146420416D01*
X137847917Y-146420416D01*
X137986288Y-146420825D01*
X138089271Y-146422484D01*
X138163810Y-146426043D01*
X138216845Y-146432150D01*
X138255319Y-146441453D01*
X138286174Y-146454603D01*
X138300788Y-146462750D01*
X138350614Y-146493666D01*
X138388979Y-146524248D01*
X138417540Y-146560390D01*
X138437957Y-146607987D01*
X138451886Y-146672934D01*
X138460986Y-146761128D01*
X138466913Y-146878462D01*
X138471327Y-147030832D01*
X138472334Y-147072767D01*
X138477032Y-147239761D01*
X138483315Y-147370293D01*
X138492714Y-147470231D01*
X138506765Y-147545446D01*
X138527001Y-147601807D01*
X138554957Y-147645186D01*
X138592166Y-147681452D01*
X138640163Y-147716474D01*
X138640650Y-147716803D01*
X138678365Y-147738879D01*
X138719406Y-147752950D01*
X138774281Y-147760746D01*
X138853500Y-147763998D01*
X138930164Y-147764500D01*
X139148901Y-147764500D01*
X139154575Y-147261791D01*
X139160250Y-146759083D01*
X139827000Y-146747425D01*
X139827000Y-147764500D01*
X140503567Y-147764500D01*
X140509242Y-147261791D01*
X140514917Y-146759083D01*
X141181667Y-146747425D01*
X141181667Y-147764500D01*
X141858234Y-147764500D01*
X141863909Y-147261791D01*
X141869584Y-146759083D01*
X142536334Y-146747425D01*
X142536334Y-147764500D01*
X143212901Y-147764500D01*
X143218575Y-147261791D01*
X143224250Y-146759083D01*
X143880417Y-146759083D01*
X143886092Y-147261791D01*
X143891766Y-147764500D01*
X144567567Y-147764500D01*
X144573242Y-147261791D01*
X144578917Y-146759083D01*
X145245667Y-146747425D01*
X145245667Y-147764500D01*
X145923000Y-147764500D01*
X145923000Y-146747425D01*
X146589750Y-146759083D01*
X146595425Y-147261791D01*
X146601100Y-147764500D01*
X146819836Y-147764500D01*
X146922608Y-147763426D01*
X146993545Y-147759053D01*
X147043118Y-147749654D01*
X147081795Y-147733502D01*
X147108549Y-147716875D01*
X147157942Y-147681947D01*
X147195881Y-147648901D01*
X147224038Y-147611662D01*
X147244081Y-147564154D01*
X147257679Y-147500304D01*
X147266504Y-147414035D01*
X147272223Y-147299274D01*
X147276508Y-147149946D01*
X147277667Y-147101566D01*
X147282591Y-146917590D01*
X147290460Y-146771398D01*
X147305395Y-146658458D01*
X147331514Y-146574238D01*
X147372938Y-146514203D01*
X147433787Y-146473822D01*
X147518179Y-146448563D01*
X147630235Y-146433891D01*
X147774075Y-146425275D01*
X147896792Y-146420385D01*
X148293667Y-146405243D01*
X148293667Y-144060333D01*
X137455978Y-144060333D01*
X136795470Y-144060333D01*
X136795614Y-144047044D01*
X136797246Y-143939165D01*
X136799150Y-143849477D01*
X136801345Y-143776121D01*
X136803852Y-143717240D01*
X136806693Y-143670978D01*
X136809888Y-143635477D01*
X136813457Y-143608880D01*
X136817422Y-143589329D01*
X136821804Y-143574968D01*
X136826622Y-143563940D01*
X136831899Y-143554387D01*
X136833061Y-143552405D01*
X136881582Y-143489320D01*
X136941614Y-143434677D01*
X136947316Y-143430696D01*
X137018094Y-143382999D01*
X142875000Y-143383000D01*
G36*
X150521788Y-147469494D02*
G01*
X150664637Y-147533686D01*
X150788428Y-147630042D01*
X150888058Y-147755226D01*
X150958421Y-147905904D01*
X150973313Y-147956563D01*
X150995047Y-148086925D01*
X150987995Y-148209328D01*
X150950476Y-148337261D01*
X150916269Y-148414821D01*
X150830222Y-148547302D01*
X150716714Y-148652895D01*
X150582754Y-148729079D01*
X150435351Y-148773335D01*
X150281512Y-148783142D01*
X150128247Y-148755980D01*
X150050500Y-148726131D01*
X149902882Y-148635154D01*
X149782195Y-148513185D01*
X149715491Y-148410083D01*
X149687390Y-148351405D01*
X149670438Y-148296186D01*
X149661942Y-148230265D01*
X149659209Y-148139482D01*
X149659112Y-148113750D01*
X149667283Y-147969508D01*
X149695299Y-147852576D01*
X149747916Y-147750711D01*
X149829892Y-147651668D01*
X149844362Y-147636951D01*
X149955493Y-147543766D01*
X150074769Y-147483507D01*
X150199338Y-147450938D01*
X150364987Y-147440800D01*
X150521788Y-147469494D01*
G37*
X150521788Y-147469494D02*
X150664637Y-147533686D01*
X150788428Y-147630042D01*
X150888058Y-147755226D01*
X150958421Y-147905904D01*
X150973313Y-147956563D01*
X150995047Y-148086925D01*
X150987995Y-148209328D01*
X150950476Y-148337261D01*
X150916269Y-148414821D01*
X150830222Y-148547302D01*
X150716714Y-148652895D01*
X150582754Y-148729079D01*
X150435351Y-148773335D01*
X150281512Y-148783142D01*
X150128247Y-148755980D01*
X150050500Y-148726131D01*
X149902882Y-148635154D01*
X149782195Y-148513185D01*
X149715491Y-148410083D01*
X149687390Y-148351405D01*
X149670438Y-148296186D01*
X149661942Y-148230265D01*
X149659209Y-148139482D01*
X149659112Y-148113750D01*
X149667283Y-147969508D01*
X149695299Y-147852576D01*
X149747916Y-147750711D01*
X149829892Y-147651668D01*
X149844362Y-147636951D01*
X149955493Y-147543766D01*
X150074769Y-147483507D01*
X150199338Y-147450938D01*
X150364987Y-147440800D01*
X150521788Y-147469494D01*
G36*
X150524120Y-145443697D02*
G01*
X150640143Y-145489480D01*
X150773187Y-145583595D01*
X150874688Y-145699965D01*
X150944651Y-145832616D01*
X150983081Y-145975571D01*
X150989981Y-146122857D01*
X150965355Y-146268497D01*
X150909208Y-146406517D01*
X150821543Y-146530942D01*
X150702365Y-146635796D01*
X150639333Y-146674526D01*
X150573095Y-146706920D01*
X150510573Y-146726548D01*
X150435815Y-146737077D01*
X150346834Y-146741738D01*
X150217957Y-146740622D01*
X150119109Y-146726898D01*
X150071667Y-146712847D01*
X149974021Y-146660402D01*
X149874887Y-146578796D01*
X149784932Y-146479414D01*
X149714828Y-146373646D01*
X149681527Y-146296444D01*
X149652543Y-146141195D01*
X149657631Y-145982302D01*
X149695843Y-145833088D01*
X149718115Y-145783139D01*
X149789340Y-145675704D01*
X149885526Y-145575813D01*
X149994085Y-145494709D01*
X150096075Y-145445673D01*
X150232007Y-145418332D01*
X150380094Y-145418108D01*
X150524120Y-145443697D01*
G37*
X150524120Y-145443697D02*
X150640143Y-145489480D01*
X150773187Y-145583595D01*
X150874688Y-145699965D01*
X150944651Y-145832616D01*
X150983081Y-145975571D01*
X150989981Y-146122857D01*
X150965355Y-146268497D01*
X150909208Y-146406517D01*
X150821543Y-146530942D01*
X150702365Y-146635796D01*
X150639333Y-146674526D01*
X150573095Y-146706920D01*
X150510573Y-146726548D01*
X150435815Y-146737077D01*
X150346834Y-146741738D01*
X150217957Y-146740622D01*
X150119109Y-146726898D01*
X150071667Y-146712847D01*
X149974021Y-146660402D01*
X149874887Y-146578796D01*
X149784932Y-146479414D01*
X149714828Y-146373646D01*
X149681527Y-146296444D01*
X149652543Y-146141195D01*
X149657631Y-145982302D01*
X149695843Y-145833088D01*
X149718115Y-145783139D01*
X149789340Y-145675704D01*
X149885526Y-145575813D01*
X149994085Y-145494709D01*
X150096075Y-145445673D01*
X150232007Y-145418332D01*
X150380094Y-145418108D01*
X150524120Y-145443697D01*
G36*
X150383112Y-143392265D02*
G01*
X150507416Y-143410217D01*
X150609785Y-143444868D01*
X150750220Y-143535805D01*
X150861184Y-143652796D01*
X150940065Y-143789937D01*
X150984252Y-143941323D01*
X150991130Y-144101050D01*
X150963845Y-144245151D01*
X150895889Y-144402150D01*
X150796727Y-144530858D01*
X150667921Y-144629788D01*
X150511030Y-144697452D01*
X150479960Y-144706188D01*
X150394216Y-144726277D01*
X150327955Y-144733652D01*
X150260496Y-144728975D01*
X150184776Y-144715623D01*
X150037182Y-144665726D01*
X149902116Y-144580091D01*
X149787644Y-144465077D01*
X149707844Y-144339581D01*
X149682562Y-144279874D01*
X149667595Y-144218184D01*
X149660581Y-144140470D01*
X149659112Y-144049750D01*
X149660922Y-143951146D01*
X149667919Y-143880544D01*
X149682813Y-143823681D01*
X149708314Y-143766297D01*
X149715676Y-143752073D01*
X149802513Y-143626920D01*
X149920154Y-143516051D01*
X150033671Y-143442488D01*
X150131394Y-143408339D01*
X150252823Y-143391618D01*
X150383112Y-143392265D01*
G37*
X150383112Y-143392265D02*
X150507416Y-143410217D01*
X150609785Y-143444868D01*
X150750220Y-143535805D01*
X150861184Y-143652796D01*
X150940065Y-143789937D01*
X150984252Y-143941323D01*
X150991130Y-144101050D01*
X150963845Y-144245151D01*
X150895889Y-144402150D01*
X150796727Y-144530858D01*
X150667921Y-144629788D01*
X150511030Y-144697452D01*
X150479960Y-144706188D01*
X150394216Y-144726277D01*
X150327955Y-144733652D01*
X150260496Y-144728975D01*
X150184776Y-144715623D01*
X150037182Y-144665726D01*
X149902116Y-144580091D01*
X149787644Y-144465077D01*
X149707844Y-144339581D01*
X149682562Y-144279874D01*
X149667595Y-144218184D01*
X149660581Y-144140470D01*
X149659112Y-144049750D01*
X149660922Y-143951146D01*
X149667919Y-143880544D01*
X149682813Y-143823681D01*
X149708314Y-143766297D01*
X149715676Y-143752073D01*
X149802513Y-143626920D01*
X149920154Y-143516051D01*
X150033671Y-143442488D01*
X150131394Y-143408339D01*
X150252823Y-143391618D01*
X150383112Y-143392265D01*
D12*
%TO.C,J2*%
X114074900Y-126305000D02*
X114074900Y-128965000D01*
X121729500Y-126660600D02*
X114049500Y-126660600D01*
X121754900Y-128965000D02*
X114074900Y-128965000D01*
X121754900Y-126305000D02*
X121754900Y-128965000D01*
X122999500Y-126660600D02*
X124329500Y-126660600D01*
X124354900Y-126305000D02*
X124354900Y-127635000D01*
X133096000Y-126238000D02*
X105283000Y-126238000D01*
X105283000Y-126238000D02*
X105283000Y-154305000D01*
X133096000Y-126238000D02*
X133096000Y-154305000D01*
X133096000Y-154305000D02*
X105283000Y-154305000D01*
D13*
%TO.C,EN1*%
X89255600Y-151003000D02*
G75*
G03*
X89255600Y-151003000I-1752600J0D01*
G01*
X84378800Y-149517539D02*
X84378800Y-152488461D01*
X90627200Y-147878800D02*
X84378800Y-147878800D01*
X90627200Y-152488461D02*
X90627200Y-149517539D01*
X84378800Y-154127200D02*
X90627200Y-154127200D01*
%TO.C,BOOT1*%
X86969600Y-109855000D02*
G75*
G03*
X86969600Y-109855000I-1752600J0D01*
G01*
X83731539Y-112979200D02*
X86702461Y-112979200D01*
X82092800Y-106730800D02*
X82092800Y-112979200D01*
X86702461Y-106730800D02*
X83731539Y-106730800D01*
X88341200Y-112979200D02*
X88341200Y-106730800D01*
D12*
%TO.C,JP1*%
X137650000Y-113300000D02*
X141750000Y-113300000D01*
X141750000Y-113300000D02*
X141750000Y-115300000D01*
X141750000Y-115300000D02*
X137650000Y-115300000D01*
X137650000Y-115300000D02*
X137650000Y-113300000D01*
X138400000Y-115500000D02*
X138100000Y-115800000D01*
X138100000Y-115800000D02*
X138700000Y-115800000D01*
X138400000Y-115500000D02*
X138700000Y-115800000D01*
%TO.C,R7*%
X129234000Y-133841748D02*
X129234000Y-134364252D01*
X127814000Y-133841748D02*
X127814000Y-134364252D01*
%TO.C,R6*%
X123646000Y-133859748D02*
X123646000Y-134382252D01*
X122226000Y-133859748D02*
X122226000Y-134382252D01*
%TO.C,R4*%
X150351748Y-115622000D02*
X150874252Y-115622000D01*
X150351748Y-117042000D02*
X150874252Y-117042000D01*
%TO.C,R3*%
X150360748Y-117654000D02*
X150883252Y-117654000D01*
X150360748Y-119074000D02*
X150883252Y-119074000D01*
%TO.C,R2*%
X150369748Y-119940000D02*
X150892252Y-119940000D01*
X150369748Y-121360000D02*
X150892252Y-121360000D01*
%TO.C,R1*%
X80011748Y-150420000D02*
X80534252Y-150420000D01*
X80011748Y-151840000D02*
X80534252Y-151840000D01*
%TO.C,C13*%
X77926000Y-146813748D02*
X77926000Y-147336252D01*
X76506000Y-146813748D02*
X76506000Y-147336252D01*
%TO.C,C12*%
X80212000Y-146804748D02*
X80212000Y-147327252D01*
X78792000Y-146804748D02*
X78792000Y-147327252D01*
%TO.C,C2*%
X80516252Y-154126000D02*
X79993748Y-154126000D01*
X80516252Y-152706000D02*
X79993748Y-152706000D01*
%TO.C,C1*%
X78792000Y-113536252D02*
X78792000Y-113013748D01*
X80212000Y-113536252D02*
X80212000Y-113013748D01*
D13*
%TO.C,U4*%
X121688499Y-108216700D02*
X121688499Y-107962700D01*
X122069499Y-108216700D02*
X121688499Y-108216700D01*
X122069499Y-107962700D02*
X122069499Y-108216700D01*
X121688499Y-107962700D02*
X122069499Y-107962700D01*
X122338498Y-117335300D02*
X122338498Y-117589300D01*
X122719498Y-117335300D02*
X122338498Y-117335300D01*
X122719498Y-117589300D02*
X122719498Y-117335300D01*
X122338498Y-117589300D02*
X122719498Y-117589300D01*
X116130360Y-109855000D02*
X115531900Y-109855000D01*
X125677638Y-115697000D02*
X126276100Y-115697000D01*
X115531900Y-115697000D02*
X116130360Y-115697000D01*
X115531900Y-109855000D02*
X115531900Y-115697000D01*
X126276100Y-109855000D02*
X125677640Y-109855000D01*
X126276100Y-115697000D02*
X126276100Y-109855000D01*
D14*
%TO.C,U1*%
X94090000Y-143620000D02*
X94840000Y-143620000D01*
X94840000Y-143620000D02*
X94840000Y-141120000D01*
X94840000Y-128120000D02*
X94840000Y-125620000D01*
X94840000Y-125620000D02*
X94090000Y-125620000D01*
X75840000Y-143620000D02*
X69340000Y-143620000D01*
X69340000Y-143620000D02*
X69340000Y-125620000D01*
X69340000Y-125620000D02*
X75840000Y-125620000D01*
D11*
G36*
X70090000Y-142642030D02*
G01*
X70090000Y-142120000D01*
X74561100Y-142120000D01*
X74561100Y-142642030D01*
X70090000Y-142642030D01*
G37*
X70090000Y-142642030D02*
X70090000Y-142120000D01*
X74561100Y-142120000D01*
X74561100Y-142642030D01*
X70090000Y-142642030D01*
G36*
X70090000Y-142629110D02*
G01*
X70090000Y-139620000D01*
X70573500Y-139620000D01*
X70573500Y-142629110D01*
X70090000Y-142629110D01*
G37*
X70090000Y-142629110D02*
X70090000Y-139620000D01*
X70573500Y-139620000D01*
X70573500Y-142629110D01*
X70090000Y-142629110D01*
G36*
X70590000Y-140141680D02*
G01*
X70590000Y-139620000D01*
X73042600Y-139620000D01*
X73042600Y-140141680D01*
X70590000Y-140141680D01*
G37*
X70590000Y-140141680D02*
X70590000Y-139620000D01*
X73042600Y-139620000D01*
X73042600Y-140141680D01*
X70590000Y-140141680D01*
G36*
X72590000Y-140128290D02*
G01*
X72590000Y-137120000D01*
X73071900Y-137120000D01*
X73071900Y-140128290D01*
X72590000Y-140128290D01*
G37*
X72590000Y-140128290D02*
X72590000Y-137120000D01*
X73071900Y-137120000D01*
X73071900Y-140128290D01*
X72590000Y-140128290D01*
G36*
X70590000Y-137630230D02*
G01*
X70590000Y-137120000D01*
X73049200Y-137120000D01*
X73049200Y-137630230D01*
X70590000Y-137630230D01*
G37*
X70590000Y-137630230D02*
X70590000Y-137120000D01*
X73049200Y-137120000D01*
X73049200Y-137630230D01*
X70590000Y-137630230D01*
G36*
X70090000Y-137630120D02*
G01*
X70090000Y-134620000D01*
X70541200Y-134620000D01*
X70541200Y-137630120D01*
X70090000Y-137630120D01*
G37*
X70090000Y-137630120D02*
X70090000Y-134620000D01*
X70541200Y-134620000D01*
X70541200Y-137630120D01*
X70090000Y-137630120D01*
G36*
X70590000Y-135122034D02*
G01*
X70590000Y-134620000D01*
X73041200Y-134620000D01*
X73041200Y-135122034D01*
X70590000Y-135122034D01*
G37*
X70590000Y-135122034D02*
X70590000Y-134620000D01*
X73041200Y-134620000D01*
X73041200Y-135122034D01*
X70590000Y-135122034D01*
G36*
X72590000Y-135122088D02*
G01*
X72590000Y-132120000D01*
X73039900Y-132120000D01*
X73039900Y-135122088D01*
X72590000Y-135122088D01*
G37*
X72590000Y-135122088D02*
X72590000Y-132120000D01*
X73039900Y-132120000D01*
X73039900Y-135122088D01*
X72590000Y-135122088D01*
G36*
X70590000Y-132611200D02*
G01*
X70590000Y-132120000D01*
X73037200Y-132120000D01*
X73037200Y-132611200D01*
X70590000Y-132611200D01*
G37*
X70590000Y-132611200D02*
X70590000Y-132120000D01*
X73037200Y-132120000D01*
X73037200Y-132611200D01*
X70590000Y-132611200D01*
G36*
X70090000Y-132608430D02*
G01*
X70090000Y-127120000D01*
X70576300Y-127120000D01*
X70576300Y-132608430D01*
X70090000Y-132608430D01*
G37*
X70090000Y-132608430D02*
X70090000Y-127120000D01*
X70576300Y-127120000D01*
X70576300Y-132608430D01*
X70090000Y-132608430D01*
G36*
X70090000Y-127599300D02*
G01*
X70090000Y-127120000D01*
X75060400Y-127120000D01*
X75060400Y-127599300D01*
X70090000Y-127599300D01*
G37*
X70090000Y-127599300D02*
X70090000Y-127120000D01*
X75060400Y-127120000D01*
X75060400Y-127599300D01*
X70090000Y-127599300D01*
G36*
X70090000Y-130106040D02*
G01*
X70090000Y-129620000D01*
X75058900Y-129620000D01*
X75058900Y-130106040D01*
X70090000Y-130106040D01*
G37*
X70090000Y-130106040D02*
X70090000Y-129620000D01*
X75058900Y-129620000D01*
X75058900Y-130106040D01*
X70090000Y-130106040D01*
G36*
X75090000Y-127601130D02*
G01*
X75090000Y-127120000D01*
X75564390Y-127120000D01*
X75564390Y-127601130D01*
X75090000Y-127601130D01*
G37*
X75090000Y-127601130D02*
X75090000Y-127120000D01*
X75564390Y-127120000D01*
X75564390Y-127601130D01*
X75090000Y-127601130D01*
G36*
X75090000Y-130111910D02*
G01*
X75090000Y-129620000D01*
X75572930Y-129620000D01*
X75572930Y-130111910D01*
X75090000Y-130111910D01*
G37*
X75090000Y-130111910D02*
X75090000Y-129620000D01*
X75572930Y-129620000D01*
X75572930Y-130111910D01*
X75090000Y-130111910D01*
G36*
X74590000Y-142640330D02*
G01*
X74590000Y-142120000D01*
X75064600Y-142120000D01*
X75064600Y-142640330D01*
X74590000Y-142640330D01*
G37*
X74590000Y-142640330D02*
X74590000Y-142120000D01*
X75064600Y-142120000D01*
X75064600Y-142640330D01*
X74590000Y-142640330D01*
G36*
X70090000Y-132612060D02*
G01*
X70090000Y-132120000D01*
X71536400Y-132120000D01*
X71536400Y-132612060D01*
X70090000Y-132612060D01*
G37*
X70090000Y-132612060D02*
X70090000Y-132120000D01*
X71536400Y-132120000D01*
X71536400Y-132612060D01*
X70090000Y-132612060D01*
D15*
X76914600Y-144985000D02*
G75*
G03*
X76914600Y-144985000I-100000J0D01*
G01*
%TO.C,J3*%
X133477000Y-109322000D02*
G75*
G03*
X133477000Y-109322000I-101600J0D01*
G01*
X135780000Y-108287000D02*
X135280000Y-108287000D01*
X135780000Y-106842000D02*
X135780000Y-108287000D01*
X128380000Y-106832000D02*
X128380000Y-108287000D01*
X128880000Y-108287000D02*
X128380000Y-108287000D01*
D12*
%TO.C,U3*%
X153544000Y-131160000D02*
X153544000Y-143160000D01*
X169544000Y-143160000D02*
X169544000Y-131160000D01*
X169544000Y-131160000D02*
X169544000Y-128160000D01*
X153544000Y-131160000D02*
X153544000Y-128160000D01*
X153544000Y-128160000D02*
X169544000Y-128160000D01*
X169544000Y-143160000D02*
X169544000Y-145660000D01*
X153544000Y-143160000D02*
X153544000Y-145660000D01*
X153544000Y-145660000D02*
X169544000Y-145660000D01*
D14*
%TO.C,U2*%
X135080000Y-123770000D02*
X136651500Y-123770000D01*
X135080000Y-120070000D02*
X135080000Y-123770000D01*
X135496500Y-120070000D02*
X135080000Y-120070000D01*
X141780000Y-123770000D02*
X140208500Y-123770000D01*
X141780000Y-120070000D02*
X141780000Y-123770000D01*
X141363500Y-120070000D02*
X141780000Y-120070000D01*
D15*
X140830000Y-117468000D02*
G75*
G03*
X140830000Y-117468000I-100000J0D01*
G01*
D12*
%TO.C,J1*%
X170180000Y-104140000D02*
X139700000Y-104140000D01*
X170180000Y-111760000D02*
X139700000Y-111760000D01*
X170180000Y-105410000D02*
X139700000Y-105410000D01*
X139700000Y-104140000D02*
X139700000Y-111760000D01*
X170180000Y-111760000D02*
X170180000Y-104140000D01*
%TO.C,FB3*%
X161908748Y-114756000D02*
X162431252Y-114756000D01*
X161908748Y-113336000D02*
X162431252Y-113336000D01*
%TO.C,FB2*%
X158621252Y-113336000D02*
X158098748Y-113336000D01*
X158621252Y-114756000D02*
X158098748Y-114756000D01*
%TO.C,C10*%
X156158000Y-115386752D02*
X156158000Y-114864248D01*
X154738000Y-115386752D02*
X154738000Y-114864248D01*
%TO.C,C9*%
X160526252Y-115241000D02*
X160003748Y-115241000D01*
X160526252Y-116661000D02*
X160003748Y-116661000D01*
%TO.C,U5*%
X155936000Y-120777000D02*
X155936000Y-122727000D01*
X155936000Y-120777000D02*
X155936000Y-118827000D01*
X161056000Y-120777000D02*
X161056000Y-122727000D01*
X161056000Y-120777000D02*
X161056000Y-117327000D01*
%TO.C,R5*%
X125020000Y-133859748D02*
X125020000Y-134382252D01*
X126440000Y-133859748D02*
X126440000Y-134382252D01*
D15*
%TO.C,J4*%
X102580000Y-108806000D02*
G75*
G03*
X102580000Y-108806000I-100000J0D01*
G01*
X99880000Y-104281000D02*
X99880000Y-105231000D01*
X113480000Y-116231000D02*
X113480000Y-118731000D01*
X113480000Y-104281000D02*
X111930000Y-104281000D01*
X113480000Y-104281000D02*
X113480000Y-105231000D01*
X113480000Y-118731000D02*
X99880000Y-118731000D01*
X101430000Y-104281000D02*
X99880000Y-104281000D01*
X99880000Y-116231000D02*
X99880000Y-118731000D01*
X101430000Y-104281000D02*
G75*
G03*
X111930000Y-104281000I5250000J9038537D01*
G01*
D12*
%TO.C,FB1*%
X136541252Y-111050000D02*
X136018748Y-111050000D01*
X136541252Y-112470000D02*
X136018748Y-112470000D01*
%TO.C,C8*%
X125610252Y-105716000D02*
X125087748Y-105716000D01*
X125610252Y-107136000D02*
X125087748Y-107136000D01*
%TO.C,C7*%
X121106000Y-106442252D02*
X121106000Y-105919748D01*
X119686000Y-106442252D02*
X119686000Y-105919748D01*
%TO.C,C6*%
X134545000Y-114428748D02*
X134545000Y-114951252D01*
X135965000Y-114428748D02*
X135965000Y-114951252D01*
%TO.C,C5*%
X123138000Y-106433252D02*
X123138000Y-105910748D01*
X121718000Y-106433252D02*
X121718000Y-105910748D01*
%TO.C,C4*%
X132976252Y-122480000D02*
X132453748Y-122480000D01*
X132976252Y-123900000D02*
X132453748Y-123900000D01*
%TO.C,C3*%
X132976252Y-120575000D02*
X132453748Y-120575000D01*
X132976252Y-121995000D02*
X132453748Y-121995000D01*
%TO.C,J2*%
D16*
X124807280Y-127968333D02*
X125521566Y-127968333D01*
X125664423Y-128015952D01*
X125759661Y-128111190D01*
X125807280Y-128254047D01*
X125807280Y-128349285D01*
X124902519Y-127539761D02*
X124854900Y-127492142D01*
X124807280Y-127396904D01*
X124807280Y-127158809D01*
X124854900Y-127063571D01*
X124902519Y-127015952D01*
X124997757Y-126968333D01*
X125092995Y-126968333D01*
X125235852Y-127015952D01*
X125807280Y-127587380D01*
X125807280Y-126968333D01*
X114316476Y-140930380D02*
X114506952Y-140930380D01*
X114602190Y-140978000D01*
X114697428Y-141073238D01*
X114745047Y-141263714D01*
X114745047Y-141597047D01*
X114697428Y-141787523D01*
X114602190Y-141882761D01*
X114506952Y-141930380D01*
X114316476Y-141930380D01*
X114221238Y-141882761D01*
X114126000Y-141787523D01*
X114078380Y-141597047D01*
X114078380Y-141263714D01*
X114126000Y-141073238D01*
X114221238Y-140978000D01*
X114316476Y-140930380D01*
X115649809Y-141930380D02*
X115173619Y-141930380D01*
X115173619Y-140930380D01*
X115983142Y-141406571D02*
X116316476Y-141406571D01*
X116459333Y-141930380D02*
X115983142Y-141930380D01*
X115983142Y-140930380D01*
X116459333Y-140930380D01*
X116887904Y-141930380D02*
X116887904Y-140930380D01*
X117126000Y-140930380D01*
X117268857Y-140978000D01*
X117364095Y-141073238D01*
X117411714Y-141168476D01*
X117459333Y-141358952D01*
X117459333Y-141501809D01*
X117411714Y-141692285D01*
X117364095Y-141787523D01*
X117268857Y-141882761D01*
X117126000Y-141930380D01*
X116887904Y-141930380D01*
X118649809Y-141930380D02*
X118649809Y-140930380D01*
X118983142Y-141644666D01*
X119316476Y-140930380D01*
X119316476Y-141930380D01*
X119983142Y-140930380D02*
X120173619Y-140930380D01*
X120268857Y-140978000D01*
X120364095Y-141073238D01*
X120411714Y-141263714D01*
X120411714Y-141597047D01*
X120364095Y-141787523D01*
X120268857Y-141882761D01*
X120173619Y-141930380D01*
X119983142Y-141930380D01*
X119887904Y-141882761D01*
X119792666Y-141787523D01*
X119745047Y-141597047D01*
X119745047Y-141263714D01*
X119792666Y-141073238D01*
X119887904Y-140978000D01*
X119983142Y-140930380D01*
X120840285Y-141930380D02*
X120840285Y-140930380D01*
X121078380Y-140930380D01*
X121221238Y-140978000D01*
X121316476Y-141073238D01*
X121364095Y-141168476D01*
X121411714Y-141358952D01*
X121411714Y-141501809D01*
X121364095Y-141692285D01*
X121316476Y-141787523D01*
X121221238Y-141882761D01*
X121078380Y-141930380D01*
X120840285Y-141930380D01*
X121840285Y-140930380D02*
X121840285Y-141739904D01*
X121887904Y-141835142D01*
X121935523Y-141882761D01*
X122030761Y-141930380D01*
X122221238Y-141930380D01*
X122316476Y-141882761D01*
X122364095Y-141835142D01*
X122411714Y-141739904D01*
X122411714Y-140930380D01*
X123364095Y-141930380D02*
X122887904Y-141930380D01*
X122887904Y-140930380D01*
X123697428Y-141406571D02*
X124030761Y-141406571D01*
X124173619Y-141930380D02*
X123697428Y-141930380D01*
X123697428Y-140930380D01*
X124173619Y-140930380D01*
%TO.C,EN1*%
X86288714Y-150931571D02*
X86622047Y-150931571D01*
X86764904Y-151455380D02*
X86288714Y-151455380D01*
X86288714Y-150455380D01*
X86764904Y-150455380D01*
X87193476Y-151455380D02*
X87193476Y-150455380D01*
X87764904Y-151455380D01*
X87764904Y-150455380D01*
X88764904Y-151455380D02*
X88193476Y-151455380D01*
X88479190Y-151455380D02*
X88479190Y-150455380D01*
X88383952Y-150598238D01*
X88288714Y-150693476D01*
X88193476Y-150741095D01*
%TO.C,BOOT1*%
X85145571Y-111688333D02*
X85193190Y-111545476D01*
X85240809Y-111497857D01*
X85336047Y-111450238D01*
X85478904Y-111450238D01*
X85574142Y-111497857D01*
X85621761Y-111545476D01*
X85669380Y-111640714D01*
X85669380Y-112021666D01*
X84669380Y-112021666D01*
X84669380Y-111688333D01*
X84717000Y-111593095D01*
X84764619Y-111545476D01*
X84859857Y-111497857D01*
X84955095Y-111497857D01*
X85050333Y-111545476D01*
X85097952Y-111593095D01*
X85145571Y-111688333D01*
X85145571Y-112021666D01*
X84669380Y-110831190D02*
X84669380Y-110640714D01*
X84717000Y-110545476D01*
X84812238Y-110450238D01*
X85002714Y-110402619D01*
X85336047Y-110402619D01*
X85526523Y-110450238D01*
X85621761Y-110545476D01*
X85669380Y-110640714D01*
X85669380Y-110831190D01*
X85621761Y-110926428D01*
X85526523Y-111021666D01*
X85336047Y-111069285D01*
X85002714Y-111069285D01*
X84812238Y-111021666D01*
X84717000Y-110926428D01*
X84669380Y-110831190D01*
X84669380Y-109783571D02*
X84669380Y-109593095D01*
X84717000Y-109497857D01*
X84812238Y-109402619D01*
X85002714Y-109355000D01*
X85336047Y-109355000D01*
X85526523Y-109402619D01*
X85621761Y-109497857D01*
X85669380Y-109593095D01*
X85669380Y-109783571D01*
X85621761Y-109878809D01*
X85526523Y-109974047D01*
X85336047Y-110021666D01*
X85002714Y-110021666D01*
X84812238Y-109974047D01*
X84717000Y-109878809D01*
X84669380Y-109783571D01*
X84669380Y-109069285D02*
X84669380Y-108497857D01*
X85669380Y-108783571D02*
X84669380Y-108783571D01*
X85669380Y-107640714D02*
X85669380Y-108212142D01*
X85669380Y-107926428D02*
X84669380Y-107926428D01*
X84812238Y-108021666D01*
X84907476Y-108116904D01*
X84955095Y-108212142D01*
%TO.C,JP1*%
X141724166Y-115593880D02*
X141724166Y-116308166D01*
X141676547Y-116451023D01*
X141581309Y-116546261D01*
X141438452Y-116593880D01*
X141343214Y-116593880D01*
X142200357Y-116593880D02*
X142200357Y-115593880D01*
X142581309Y-115593880D01*
X142676547Y-115641500D01*
X142724166Y-115689119D01*
X142771785Y-115784357D01*
X142771785Y-115927214D01*
X142724166Y-116022452D01*
X142676547Y-116070071D01*
X142581309Y-116117690D01*
X142200357Y-116117690D01*
X143724166Y-116593880D02*
X143152738Y-116593880D01*
X143438452Y-116593880D02*
X143438452Y-115593880D01*
X143343214Y-115736738D01*
X143247976Y-115831976D01*
X143152738Y-115879595D01*
%TO.C,R7*%
X129928880Y-137009166D02*
X129452690Y-137342500D01*
X129928880Y-137580595D02*
X128928880Y-137580595D01*
X128928880Y-137199642D01*
X128976500Y-137104404D01*
X129024119Y-137056785D01*
X129119357Y-137009166D01*
X129262214Y-137009166D01*
X129357452Y-137056785D01*
X129405071Y-137104404D01*
X129452690Y-137199642D01*
X129452690Y-137580595D01*
X128928880Y-136675833D02*
X128928880Y-136009166D01*
X129928880Y-136437738D01*
%TO.C,R6*%
X124531380Y-137072666D02*
X124055190Y-137406000D01*
X124531380Y-137644095D02*
X123531380Y-137644095D01*
X123531380Y-137263142D01*
X123579000Y-137167904D01*
X123626619Y-137120285D01*
X123721857Y-137072666D01*
X123864714Y-137072666D01*
X123959952Y-137120285D01*
X124007571Y-137167904D01*
X124055190Y-137263142D01*
X124055190Y-137644095D01*
X123531380Y-136215523D02*
X123531380Y-136406000D01*
X123579000Y-136501238D01*
X123626619Y-136548857D01*
X123769476Y-136644095D01*
X123959952Y-136691714D01*
X124340904Y-136691714D01*
X124436142Y-136644095D01*
X124483761Y-136596476D01*
X124531380Y-136501238D01*
X124531380Y-136310761D01*
X124483761Y-136215523D01*
X124436142Y-136167904D01*
X124340904Y-136120285D01*
X124102809Y-136120285D01*
X124007571Y-136167904D01*
X123959952Y-136215523D01*
X123912333Y-136310761D01*
X123912333Y-136501238D01*
X123959952Y-136596476D01*
X124007571Y-136644095D01*
X124102809Y-136691714D01*
%TO.C,R4*%
X147661333Y-116911380D02*
X147328000Y-116435190D01*
X147089904Y-116911380D02*
X147089904Y-115911380D01*
X147470857Y-115911380D01*
X147566095Y-115959000D01*
X147613714Y-116006619D01*
X147661333Y-116101857D01*
X147661333Y-116244714D01*
X147613714Y-116339952D01*
X147566095Y-116387571D01*
X147470857Y-116435190D01*
X147089904Y-116435190D01*
X148518476Y-116244714D02*
X148518476Y-116911380D01*
X148280380Y-115863761D02*
X148042285Y-116578047D01*
X148661333Y-116578047D01*
%TO.C,R3*%
X147661333Y-118879880D02*
X147328000Y-118403690D01*
X147089904Y-118879880D02*
X147089904Y-117879880D01*
X147470857Y-117879880D01*
X147566095Y-117927500D01*
X147613714Y-117975119D01*
X147661333Y-118070357D01*
X147661333Y-118213214D01*
X147613714Y-118308452D01*
X147566095Y-118356071D01*
X147470857Y-118403690D01*
X147089904Y-118403690D01*
X147994666Y-117879880D02*
X148613714Y-117879880D01*
X148280380Y-118260833D01*
X148423238Y-118260833D01*
X148518476Y-118308452D01*
X148566095Y-118356071D01*
X148613714Y-118451309D01*
X148613714Y-118689404D01*
X148566095Y-118784642D01*
X148518476Y-118832261D01*
X148423238Y-118879880D01*
X148137523Y-118879880D01*
X148042285Y-118832261D01*
X147994666Y-118784642D01*
%TO.C,R2*%
X147661333Y-121229380D02*
X147328000Y-120753190D01*
X147089904Y-121229380D02*
X147089904Y-120229380D01*
X147470857Y-120229380D01*
X147566095Y-120277000D01*
X147613714Y-120324619D01*
X147661333Y-120419857D01*
X147661333Y-120562714D01*
X147613714Y-120657952D01*
X147566095Y-120705571D01*
X147470857Y-120753190D01*
X147089904Y-120753190D01*
X148042285Y-120324619D02*
X148089904Y-120277000D01*
X148185142Y-120229380D01*
X148423238Y-120229380D01*
X148518476Y-120277000D01*
X148566095Y-120324619D01*
X148613714Y-120419857D01*
X148613714Y-120515095D01*
X148566095Y-120657952D01*
X147994666Y-121229380D01*
X148613714Y-121229380D01*
%TO.C,R1*%
X77366833Y-151518880D02*
X77033500Y-151042690D01*
X76795404Y-151518880D02*
X76795404Y-150518880D01*
X77176357Y-150518880D01*
X77271595Y-150566500D01*
X77319214Y-150614119D01*
X77366833Y-150709357D01*
X77366833Y-150852214D01*
X77319214Y-150947452D01*
X77271595Y-150995071D01*
X77176357Y-151042690D01*
X76795404Y-151042690D01*
X78319214Y-151518880D02*
X77747785Y-151518880D01*
X78033500Y-151518880D02*
X78033500Y-150518880D01*
X77938261Y-150661738D01*
X77843023Y-150756976D01*
X77747785Y-150804595D01*
%TO.C,C13*%
X76112642Y-147717857D02*
X76160261Y-147765476D01*
X76207880Y-147908333D01*
X76207880Y-148003571D01*
X76160261Y-148146428D01*
X76065023Y-148241666D01*
X75969785Y-148289285D01*
X75779309Y-148336904D01*
X75636452Y-148336904D01*
X75445976Y-148289285D01*
X75350738Y-148241666D01*
X75255500Y-148146428D01*
X75207880Y-148003571D01*
X75207880Y-147908333D01*
X75255500Y-147765476D01*
X75303119Y-147717857D01*
X76207880Y-146765476D02*
X76207880Y-147336904D01*
X76207880Y-147051190D02*
X75207880Y-147051190D01*
X75350738Y-147146428D01*
X75445976Y-147241666D01*
X75493595Y-147336904D01*
X75207880Y-146432142D02*
X75207880Y-145813095D01*
X75588833Y-146146428D01*
X75588833Y-146003571D01*
X75636452Y-145908333D01*
X75684071Y-145860714D01*
X75779309Y-145813095D01*
X76017404Y-145813095D01*
X76112642Y-145860714D01*
X76160261Y-145908333D01*
X76207880Y-146003571D01*
X76207880Y-146289285D01*
X76160261Y-146384523D01*
X76112642Y-146432142D01*
%TO.C,C12*%
X81764142Y-147708857D02*
X81811761Y-147756476D01*
X81859380Y-147899333D01*
X81859380Y-147994571D01*
X81811761Y-148137428D01*
X81716523Y-148232666D01*
X81621285Y-148280285D01*
X81430809Y-148327904D01*
X81287952Y-148327904D01*
X81097476Y-148280285D01*
X81002238Y-148232666D01*
X80907000Y-148137428D01*
X80859380Y-147994571D01*
X80859380Y-147899333D01*
X80907000Y-147756476D01*
X80954619Y-147708857D01*
X81859380Y-146756476D02*
X81859380Y-147327904D01*
X81859380Y-147042190D02*
X80859380Y-147042190D01*
X81002238Y-147137428D01*
X81097476Y-147232666D01*
X81145095Y-147327904D01*
X80954619Y-146375523D02*
X80907000Y-146327904D01*
X80859380Y-146232666D01*
X80859380Y-145994571D01*
X80907000Y-145899333D01*
X80954619Y-145851714D01*
X81049857Y-145804095D01*
X81145095Y-145804095D01*
X81287952Y-145851714D01*
X81859380Y-146423142D01*
X81859380Y-145804095D01*
%TO.C,C2*%
X76477833Y-153582642D02*
X76430214Y-153630261D01*
X76287357Y-153677880D01*
X76192119Y-153677880D01*
X76049261Y-153630261D01*
X75954023Y-153535023D01*
X75906404Y-153439785D01*
X75858785Y-153249309D01*
X75858785Y-153106452D01*
X75906404Y-152915976D01*
X75954023Y-152820738D01*
X76049261Y-152725500D01*
X76192119Y-152677880D01*
X76287357Y-152677880D01*
X76430214Y-152725500D01*
X76477833Y-152773119D01*
X76858785Y-152773119D02*
X76906404Y-152725500D01*
X77001642Y-152677880D01*
X77239738Y-152677880D01*
X77334976Y-152725500D01*
X77382595Y-152773119D01*
X77430214Y-152868357D01*
X77430214Y-152963595D01*
X77382595Y-153106452D01*
X76811166Y-153677880D01*
X77430214Y-153677880D01*
%TO.C,C1*%
X78209142Y-113441666D02*
X78256761Y-113489285D01*
X78304380Y-113632142D01*
X78304380Y-113727380D01*
X78256761Y-113870238D01*
X78161523Y-113965476D01*
X78066285Y-114013095D01*
X77875809Y-114060714D01*
X77732952Y-114060714D01*
X77542476Y-114013095D01*
X77447238Y-113965476D01*
X77352000Y-113870238D01*
X77304380Y-113727380D01*
X77304380Y-113632142D01*
X77352000Y-113489285D01*
X77399619Y-113441666D01*
X78304380Y-112489285D02*
X78304380Y-113060714D01*
X78304380Y-112775000D02*
X77304380Y-112775000D01*
X77447238Y-112870238D01*
X77542476Y-112965476D01*
X77590095Y-113060714D01*
%TO.C,U4*%
X114056380Y-113337904D02*
X114865904Y-113337904D01*
X114961142Y-113290285D01*
X115008761Y-113242666D01*
X115056380Y-113147428D01*
X115056380Y-112956952D01*
X115008761Y-112861714D01*
X114961142Y-112814095D01*
X114865904Y-112766476D01*
X114056380Y-112766476D01*
X114389714Y-111861714D02*
X115056380Y-111861714D01*
X114008761Y-112099809D02*
X114723047Y-112337904D01*
X114723047Y-111718857D01*
%TO.C,U1*%
D13*
X71253643Y-123607525D02*
X71253643Y-124679966D01*
X71316728Y-124806135D01*
X71379813Y-124869220D01*
X71505982Y-124932305D01*
X71758321Y-124932305D01*
X71884491Y-124869220D01*
X71947576Y-124806135D01*
X72010660Y-124679966D01*
X72010660Y-123607525D01*
X73335440Y-124932305D02*
X72578423Y-124932305D01*
X72956932Y-124932305D02*
X72956932Y-123607525D01*
X72830762Y-123796779D01*
X72704593Y-123922949D01*
X72578423Y-123986033D01*
%TO.C,J3*%
D16*
X130276372Y-110097521D02*
X130276372Y-111240558D01*
X130200170Y-111469166D01*
X130047765Y-111621571D01*
X129819157Y-111697773D01*
X129666752Y-111697773D01*
X130885992Y-110097521D02*
X131876624Y-110097521D01*
X131343207Y-110707141D01*
X131571814Y-110707141D01*
X131724219Y-110783343D01*
X131800422Y-110859546D01*
X131876624Y-111011951D01*
X131876624Y-111392963D01*
X131800422Y-111545368D01*
X131724219Y-111621571D01*
X131571814Y-111697773D01*
X131114599Y-111697773D01*
X130962194Y-111621571D01*
X130885992Y-111545368D01*
%TO.C,U3*%
X169926095Y-131722880D02*
X169926095Y-132532404D01*
X169973714Y-132627642D01*
X170021333Y-132675261D01*
X170116571Y-132722880D01*
X170307047Y-132722880D01*
X170402285Y-132675261D01*
X170449904Y-132627642D01*
X170497523Y-132532404D01*
X170497523Y-131722880D01*
X170878476Y-131722880D02*
X171497523Y-131722880D01*
X171164190Y-132103833D01*
X171307047Y-132103833D01*
X171402285Y-132151452D01*
X171449904Y-132199071D01*
X171497523Y-132294309D01*
X171497523Y-132532404D01*
X171449904Y-132627642D01*
X171402285Y-132675261D01*
X171307047Y-132722880D01*
X171021333Y-132722880D01*
X170926095Y-132675261D01*
X170878476Y-132627642D01*
%TO.C,U2*%
D13*
X142199941Y-121793516D02*
X143010115Y-121793516D01*
X143105429Y-121745859D01*
X143153086Y-121698202D01*
X143200744Y-121602887D01*
X143200744Y-121412258D01*
X143153086Y-121316943D01*
X143105429Y-121269286D01*
X143010115Y-121221629D01*
X142199941Y-121221629D01*
X142295255Y-120792713D02*
X142247598Y-120745056D01*
X142199941Y-120649741D01*
X142199941Y-120411455D01*
X142247598Y-120316140D01*
X142295255Y-120268483D01*
X142390570Y-120220826D01*
X142485884Y-120220826D01*
X142628856Y-120268483D01*
X143200744Y-120840370D01*
X143200744Y-120220826D01*
%TO.C,J1*%
D16*
X170989666Y-107783380D02*
X170989666Y-108497666D01*
X170942047Y-108640523D01*
X170846809Y-108735761D01*
X170703952Y-108783380D01*
X170608714Y-108783380D01*
X171989666Y-108783380D02*
X171418238Y-108783380D01*
X171703952Y-108783380D02*
X171703952Y-107783380D01*
X171608714Y-107926238D01*
X171513476Y-108021476D01*
X171418238Y-108069095D01*
%TO.C,FB3*%
X161345666Y-112450571D02*
X161012333Y-112450571D01*
X161012333Y-112974380D02*
X161012333Y-111974380D01*
X161488523Y-111974380D01*
X162202809Y-112450571D02*
X162345666Y-112498190D01*
X162393285Y-112545809D01*
X162440904Y-112641047D01*
X162440904Y-112783904D01*
X162393285Y-112879142D01*
X162345666Y-112926761D01*
X162250428Y-112974380D01*
X161869476Y-112974380D01*
X161869476Y-111974380D01*
X162202809Y-111974380D01*
X162298047Y-112022000D01*
X162345666Y-112069619D01*
X162393285Y-112164857D01*
X162393285Y-112260095D01*
X162345666Y-112355333D01*
X162298047Y-112402952D01*
X162202809Y-112450571D01*
X161869476Y-112450571D01*
X162774238Y-111974380D02*
X163393285Y-111974380D01*
X163059952Y-112355333D01*
X163202809Y-112355333D01*
X163298047Y-112402952D01*
X163345666Y-112450571D01*
X163393285Y-112545809D01*
X163393285Y-112783904D01*
X163345666Y-112879142D01*
X163298047Y-112926761D01*
X163202809Y-112974380D01*
X162917095Y-112974380D01*
X162821857Y-112926761D01*
X162774238Y-112879142D01*
%TO.C,FB2*%
X157535666Y-112450571D02*
X157202333Y-112450571D01*
X157202333Y-112974380D02*
X157202333Y-111974380D01*
X157678523Y-111974380D01*
X158392809Y-112450571D02*
X158535666Y-112498190D01*
X158583285Y-112545809D01*
X158630904Y-112641047D01*
X158630904Y-112783904D01*
X158583285Y-112879142D01*
X158535666Y-112926761D01*
X158440428Y-112974380D01*
X158059476Y-112974380D01*
X158059476Y-111974380D01*
X158392809Y-111974380D01*
X158488047Y-112022000D01*
X158535666Y-112069619D01*
X158583285Y-112164857D01*
X158583285Y-112260095D01*
X158535666Y-112355333D01*
X158488047Y-112402952D01*
X158392809Y-112450571D01*
X158059476Y-112450571D01*
X159011857Y-112069619D02*
X159059476Y-112022000D01*
X159154714Y-111974380D01*
X159392809Y-111974380D01*
X159488047Y-112022000D01*
X159535666Y-112069619D01*
X159583285Y-112164857D01*
X159583285Y-112260095D01*
X159535666Y-112402952D01*
X158964238Y-112974380D01*
X159583285Y-112974380D01*
%TO.C,C10*%
X154155142Y-115768357D02*
X154202761Y-115815976D01*
X154250380Y-115958833D01*
X154250380Y-116054071D01*
X154202761Y-116196928D01*
X154107523Y-116292166D01*
X154012285Y-116339785D01*
X153821809Y-116387404D01*
X153678952Y-116387404D01*
X153488476Y-116339785D01*
X153393238Y-116292166D01*
X153298000Y-116196928D01*
X153250380Y-116054071D01*
X153250380Y-115958833D01*
X153298000Y-115815976D01*
X153345619Y-115768357D01*
X154250380Y-114815976D02*
X154250380Y-115387404D01*
X154250380Y-115101690D02*
X153250380Y-115101690D01*
X153393238Y-115196928D01*
X153488476Y-115292166D01*
X153536095Y-115387404D01*
X153250380Y-114196928D02*
X153250380Y-114101690D01*
X153298000Y-114006452D01*
X153345619Y-113958833D01*
X153440857Y-113911214D01*
X153631333Y-113863595D01*
X153869428Y-113863595D01*
X154059904Y-113911214D01*
X154155142Y-113958833D01*
X154202761Y-114006452D01*
X154250380Y-114101690D01*
X154250380Y-114196928D01*
X154202761Y-114292166D01*
X154155142Y-114339785D01*
X154059904Y-114387404D01*
X153869428Y-114435023D01*
X153631333Y-114435023D01*
X153440857Y-114387404D01*
X153345619Y-114339785D01*
X153298000Y-114292166D01*
X153250380Y-114196928D01*
%TO.C,C9*%
X162837833Y-116308142D02*
X162790214Y-116355761D01*
X162647357Y-116403380D01*
X162552119Y-116403380D01*
X162409261Y-116355761D01*
X162314023Y-116260523D01*
X162266404Y-116165285D01*
X162218785Y-115974809D01*
X162218785Y-115831952D01*
X162266404Y-115641476D01*
X162314023Y-115546238D01*
X162409261Y-115451000D01*
X162552119Y-115403380D01*
X162647357Y-115403380D01*
X162790214Y-115451000D01*
X162837833Y-115498619D01*
X163314023Y-116403380D02*
X163504500Y-116403380D01*
X163599738Y-116355761D01*
X163647357Y-116308142D01*
X163742595Y-116165285D01*
X163790214Y-115974809D01*
X163790214Y-115593857D01*
X163742595Y-115498619D01*
X163694976Y-115451000D01*
X163599738Y-115403380D01*
X163409261Y-115403380D01*
X163314023Y-115451000D01*
X163266404Y-115498619D01*
X163218785Y-115593857D01*
X163218785Y-115831952D01*
X163266404Y-115927190D01*
X163314023Y-115974809D01*
X163409261Y-116022428D01*
X163599738Y-116022428D01*
X163694976Y-115974809D01*
X163742595Y-115927190D01*
X163790214Y-115831952D01*
%TO.C,U5*%
X161348380Y-121538904D02*
X162157904Y-121538904D01*
X162253142Y-121491285D01*
X162300761Y-121443666D01*
X162348380Y-121348428D01*
X162348380Y-121157952D01*
X162300761Y-121062714D01*
X162253142Y-121015095D01*
X162157904Y-120967476D01*
X161348380Y-120967476D01*
X161348380Y-120015095D02*
X161348380Y-120491285D01*
X161824571Y-120538904D01*
X161776952Y-120491285D01*
X161729333Y-120396047D01*
X161729333Y-120157952D01*
X161776952Y-120062714D01*
X161824571Y-120015095D01*
X161919809Y-119967476D01*
X162157904Y-119967476D01*
X162253142Y-120015095D01*
X162300761Y-120062714D01*
X162348380Y-120157952D01*
X162348380Y-120396047D01*
X162300761Y-120491285D01*
X162253142Y-120538904D01*
%TO.C,R5*%
X127071380Y-137009166D02*
X126595190Y-137342500D01*
X127071380Y-137580595D02*
X126071380Y-137580595D01*
X126071380Y-137199642D01*
X126119000Y-137104404D01*
X126166619Y-137056785D01*
X126261857Y-137009166D01*
X126404714Y-137009166D01*
X126499952Y-137056785D01*
X126547571Y-137104404D01*
X126595190Y-137199642D01*
X126595190Y-137580595D01*
X126071380Y-136104404D02*
X126071380Y-136580595D01*
X126547571Y-136628214D01*
X126499952Y-136580595D01*
X126452333Y-136485357D01*
X126452333Y-136247261D01*
X126499952Y-136152023D01*
X126547571Y-136104404D01*
X126642809Y-136056785D01*
X126880904Y-136056785D01*
X126976142Y-136104404D01*
X127023761Y-136152023D01*
X127071380Y-136247261D01*
X127071380Y-136485357D01*
X127023761Y-136580595D01*
X126976142Y-136628214D01*
%TO.C,J4*%
D13*
X108168790Y-119106700D02*
X108168790Y-120251199D01*
X108092490Y-120480099D01*
X107939890Y-120632699D01*
X107710990Y-120708999D01*
X107558390Y-120708999D01*
X109618489Y-119640800D02*
X109618489Y-120708999D01*
X109236989Y-119030400D02*
X108855489Y-120174899D01*
X109847389Y-120174899D01*
%TO.C,FB1*%
D16*
X135446666Y-110164571D02*
X135113333Y-110164571D01*
X135113333Y-110688380D02*
X135113333Y-109688380D01*
X135589523Y-109688380D01*
X136303809Y-110164571D02*
X136446666Y-110212190D01*
X136494285Y-110259809D01*
X136541904Y-110355047D01*
X136541904Y-110497904D01*
X136494285Y-110593142D01*
X136446666Y-110640761D01*
X136351428Y-110688380D01*
X135970476Y-110688380D01*
X135970476Y-109688380D01*
X136303809Y-109688380D01*
X136399047Y-109736000D01*
X136446666Y-109783619D01*
X136494285Y-109878857D01*
X136494285Y-109974095D01*
X136446666Y-110069333D01*
X136399047Y-110116952D01*
X136303809Y-110164571D01*
X135970476Y-110164571D01*
X137494285Y-110688380D02*
X136922857Y-110688380D01*
X137208571Y-110688380D02*
X137208571Y-109688380D01*
X137113333Y-109831238D01*
X137018095Y-109926476D01*
X136922857Y-109974095D01*
%TO.C,C8*%
X126388833Y-108497642D02*
X126341214Y-108545261D01*
X126198357Y-108592880D01*
X126103119Y-108592880D01*
X125960261Y-108545261D01*
X125865023Y-108450023D01*
X125817404Y-108354785D01*
X125769785Y-108164309D01*
X125769785Y-108021452D01*
X125817404Y-107830976D01*
X125865023Y-107735738D01*
X125960261Y-107640500D01*
X126103119Y-107592880D01*
X126198357Y-107592880D01*
X126341214Y-107640500D01*
X126388833Y-107688119D01*
X126960261Y-108021452D02*
X126865023Y-107973833D01*
X126817404Y-107926214D01*
X126769785Y-107830976D01*
X126769785Y-107783357D01*
X126817404Y-107688119D01*
X126865023Y-107640500D01*
X126960261Y-107592880D01*
X127150738Y-107592880D01*
X127245976Y-107640500D01*
X127293595Y-107688119D01*
X127341214Y-107783357D01*
X127341214Y-107830976D01*
X127293595Y-107926214D01*
X127245976Y-107973833D01*
X127150738Y-108021452D01*
X126960261Y-108021452D01*
X126865023Y-108069071D01*
X126817404Y-108116690D01*
X126769785Y-108211928D01*
X126769785Y-108402404D01*
X126817404Y-108497642D01*
X126865023Y-108545261D01*
X126960261Y-108592880D01*
X127150738Y-108592880D01*
X127245976Y-108545261D01*
X127293595Y-108497642D01*
X127341214Y-108402404D01*
X127341214Y-108211928D01*
X127293595Y-108116690D01*
X127245976Y-108069071D01*
X127150738Y-108021452D01*
%TO.C,C7*%
X117641642Y-106275166D02*
X117689261Y-106322785D01*
X117736880Y-106465642D01*
X117736880Y-106560880D01*
X117689261Y-106703738D01*
X117594023Y-106798976D01*
X117498785Y-106846595D01*
X117308309Y-106894214D01*
X117165452Y-106894214D01*
X116974976Y-106846595D01*
X116879738Y-106798976D01*
X116784500Y-106703738D01*
X116736880Y-106560880D01*
X116736880Y-106465642D01*
X116784500Y-106322785D01*
X116832119Y-106275166D01*
X116736880Y-105941833D02*
X116736880Y-105275166D01*
X117736880Y-105703738D01*
%TO.C,C6*%
X137262142Y-114856666D02*
X137309761Y-114904285D01*
X137357380Y-115047142D01*
X137357380Y-115142380D01*
X137309761Y-115285238D01*
X137214523Y-115380476D01*
X137119285Y-115428095D01*
X136928809Y-115475714D01*
X136785952Y-115475714D01*
X136595476Y-115428095D01*
X136500238Y-115380476D01*
X136405000Y-115285238D01*
X136357380Y-115142380D01*
X136357380Y-115047142D01*
X136405000Y-114904285D01*
X136452619Y-114856666D01*
X136357380Y-113999523D02*
X136357380Y-114190000D01*
X136405000Y-114285238D01*
X136452619Y-114332857D01*
X136595476Y-114428095D01*
X136785952Y-114475714D01*
X137166904Y-114475714D01*
X137262142Y-114428095D01*
X137309761Y-114380476D01*
X137357380Y-114285238D01*
X137357380Y-114094761D01*
X137309761Y-113999523D01*
X137262142Y-113951904D01*
X137166904Y-113904285D01*
X136928809Y-113904285D01*
X136833571Y-113951904D01*
X136785952Y-113999523D01*
X136738333Y-114094761D01*
X136738333Y-114285238D01*
X136785952Y-114380476D01*
X136833571Y-114428095D01*
X136928809Y-114475714D01*
%TO.C,C5*%
X119038642Y-106275166D02*
X119086261Y-106322785D01*
X119133880Y-106465642D01*
X119133880Y-106560880D01*
X119086261Y-106703738D01*
X118991023Y-106798976D01*
X118895785Y-106846595D01*
X118705309Y-106894214D01*
X118562452Y-106894214D01*
X118371976Y-106846595D01*
X118276738Y-106798976D01*
X118181500Y-106703738D01*
X118133880Y-106560880D01*
X118133880Y-106465642D01*
X118181500Y-106322785D01*
X118229119Y-106275166D01*
X118133880Y-105370404D02*
X118133880Y-105846595D01*
X118610071Y-105894214D01*
X118562452Y-105846595D01*
X118514833Y-105751357D01*
X118514833Y-105513261D01*
X118562452Y-105418023D01*
X118610071Y-105370404D01*
X118705309Y-105322785D01*
X118943404Y-105322785D01*
X119038642Y-105370404D01*
X119086261Y-105418023D01*
X119133880Y-105513261D01*
X119133880Y-105751357D01*
X119086261Y-105846595D01*
X119038642Y-105894214D01*
%TO.C,C4*%
X132548333Y-125197142D02*
X132500714Y-125244761D01*
X132357857Y-125292380D01*
X132262619Y-125292380D01*
X132119761Y-125244761D01*
X132024523Y-125149523D01*
X131976904Y-125054285D01*
X131929285Y-124863809D01*
X131929285Y-124720952D01*
X131976904Y-124530476D01*
X132024523Y-124435238D01*
X132119761Y-124340000D01*
X132262619Y-124292380D01*
X132357857Y-124292380D01*
X132500714Y-124340000D01*
X132548333Y-124387619D01*
X133405476Y-124625714D02*
X133405476Y-125292380D01*
X133167380Y-124244761D02*
X132929285Y-124959047D01*
X133548333Y-124959047D01*
%TO.C,C3*%
X132548333Y-120118142D02*
X132500714Y-120165761D01*
X132357857Y-120213380D01*
X132262619Y-120213380D01*
X132119761Y-120165761D01*
X132024523Y-120070523D01*
X131976904Y-119975285D01*
X131929285Y-119784809D01*
X131929285Y-119641952D01*
X131976904Y-119451476D01*
X132024523Y-119356238D01*
X132119761Y-119261000D01*
X132262619Y-119213380D01*
X132357857Y-119213380D01*
X132500714Y-119261000D01*
X132548333Y-119308619D01*
X132881666Y-119213380D02*
X133500714Y-119213380D01*
X133167380Y-119594333D01*
X133310238Y-119594333D01*
X133405476Y-119641952D01*
X133453095Y-119689571D01*
X133500714Y-119784809D01*
X133500714Y-120022904D01*
X133453095Y-120118142D01*
X133405476Y-120165761D01*
X133310238Y-120213380D01*
X133024523Y-120213380D01*
X132929285Y-120165761D01*
X132881666Y-120118142D01*
%TD*%
M02*
